<?xml version="1.0" encoding="UTF-8" standalone="no"?>
<!-- Created with Inkscape (http://www.inkscape.org/) -->

<svg
   version="1.1"
   id="svg1261"
   width="70.142776"
   height="128.32628"
   viewBox="0 0 70.142776 128.32628"
   sodipodi:docname="assymetric-top.svg"
   inkscape:version="1.1.2 (0a00cf5339, 2022-02-04)"
   xmlns:inkscape="http://www.inkscape.org/namespaces/inkscape"
   xmlns:sodipodi="http://sodipodi.sourceforge.net/DTD/sodipodi-0.dtd"
   xmlns="http://www.w3.org/2000/svg"
   xmlns:svg="http://www.w3.org/2000/svg">
  <defs
     id="defs1265" />
  <sodipodi:namedview
     id="namedview1263"
     pagecolor="#ffffff"
     bordercolor="#666666"
     borderopacity="1.0"
     inkscape:pageshadow="2"
     inkscape:pageopacity="0.0"
     inkscape:pagecheckerboard="0"
     showgrid="false"
     fit-margin-top="0"
     fit-margin-left="0"
     fit-margin-right="0"
     fit-margin-bottom="0"
     inkscape:zoom="3.2579751"
     inkscape:cx="-27.317581"
     inkscape:cy="81.799275"
     inkscape:window-width="1860"
     inkscape:window-height="1009"
     inkscape:window-x="0"
     inkscape:window-y="0"
     inkscape:window-maximized="1"
     inkscape:current-layer="g1267" />
  <g
     inkscape:groupmode="layer"
     inkscape:label="Image"
     id="g1267"
     transform="translate(-397.92115,-105.8323)">
    <path
       style="fill:none;stroke:#000000;stroke-width:1px;stroke-linecap:butt;stroke-linejoin:miter;stroke-opacity:1"
       d="m 457.89557,181.71735 c 0.76158,-0.76158 0.4899,-2.546 0.87406,-3.49623 0.1055,-0.26095 0.46212,-0.35009 0.59709,-0.59709 0.10892,-0.19933 -0.10652,-0.57372 0,-0.77454 0.39485,-0.74439 0.94028,-1.29748 1.21937,-2.1162 0.11553,-0.33893 -0.0885,-0.78604 0,-1.13424 0.95306,-3.74894 0.61388,-7.79206 0.61388,-11.69246 0,-3.73642 0,-7.47285 0,-11.20927 0,-0.86415 0.3146,-4.0624 0,-4.69161 -0.20874,-0.41748 -0.36754,-0.74987 -0.56952,-1.16781 -0.2305,-0.47697 0.23211,-1.29127 0,-1.7673 -0.37619,-0.77151 -0.30464,-1.76057 -0.5899,-2.58141 -0.16647,-0.47902 -0.68063,-0.75404 -0.91722,-1.21936 -0.0878,-0.17271 -0.22314,-2.62287 -0.30694,-2.95549 -0.45237,-1.79535 0,-6.40679 0,-8.37608 0,-1.29 -0.45441,-5.0315 0,-5.92776 0.41586,-0.82021 0.41877,-4.22976 0.52755,-4.37628 0.16611,-0.22372 0.45803,-0.34628 0.5911,-0.5911 0.079,-0.14537 0,-0.33092 0,-0.49638 0,-0.67415 0.31058,-2.67673 0,-3.24324 -0.33896,-0.61828 -0.2862,-0.56229 -0.85008,-1.0539 -0.36857,-0.32135 -0.3822,-1.2262 -0.5863,-1.6498 -0.27263,-0.56584 -2.12128,-3.03259 -2.75046,-3.26483 -0.25894,-0.0956 -1.02819,-0.19335 -1.20977,-0.30694 -0.17654,-0.11042 -0.10442,-0.4458 -0.27936,-0.55872 -0.47713,-0.30795 -2.7296,0 -3.27442,0 -6.84455,0 -6.50322,5.55352 -8.14588,10.48149 -0.0995,0.29839 -1.11773,3.53727 -1.14263,3.56097 -0.37829,0.36093 -0.87036,0.4147 -1.19058,0.89085 -0.77537,1.1529 -2.10244,3.948 -3.36315,4.5885 -0.53854,0.2736 -1.41212,0.41496 -1.82484,0.83928 -0.351,0.36087 -0.4616,0.96962 -0.90404,1.20978 -0.49879,0.27074 -2.64855,0.54726 -3.12574,0.79012 -0.58941,0.29998 -0.9261,0.91566 -1.52031,1.21217 -0.1788,0.0892 -0.41022,-0.0641 -0.59949,0 -0.54744,0.18538 -1.20365,0.79322 -1.84163,0.92082 -0.28355,0.0567 -1.31117,-0.1644 -1.66898,0 -0.63187,0.29032 -1.20381,0.60969 -1.95434,0.79732 -0.80054,0.20014 -2.01383,0.01 -2.75166,0.30694 -0.43439,0.17499 -0.74952,0.74899 -1.20258,0.89564 -0.50857,0.16462 -1.32271,-0.23716 -1.79608,0 -0.86061,0.43118 -1.71825,0.65467 -2.73008,0.90763 -0.35644,0.0891 -0.88717,-0.1607 -1.20857,0 -0.43688,0.21844 -0.71768,0.64644 -1.14502,0.85967 -0.34093,0.17011 -1.2152,-0.25356 -1.46876,0 -0.73403,0.73403 -0.8389,1.00948 -2.14857,1.22776 -1.09374,0.18229 -1.66633,0.50702 -2.7073,0.89324 -0.23168,0.0859 -0.62676,-0.11732 -0.84168,0 -0.79514,0.43402 -0.99949,1.53335 -1.78169,2.05865 -0.32416,0.21769 -1.84287,0.95224 -2.07184,1.1738 -1.20767,1.16861 -2.34143,2.80057 -3.21447,4.22161 0.53105,3.9245 0.3537,7.90596 0.3537,11.86032 0,0.74527 -0.22654,1.86551 0,2.54424 0.57139,1.71189 0.0133,-0.17766 0.61028,0.91362 0.1133,0.20712 0.20486,3.42268 0.60069,3.80796 0.15626,0.1521 0.4328,0.13651 0.58511,0.29256 0.29312,0.30032 -0.14485,1.4071 0,1.84163 0.33419,1.00258 0.54432,2.23961 0.91722,3.30439 0.13465,0.38451 -0.0902,1.06793 0,1.42199 0.11198,0.43967 0.63979,1.03638 0.85727,1.47235 0.17537,0.35156 -0.12424,0.80589 0,1.1786 -0.3371,0.82963 0.75751,0.74296 0.92082,1.22776 0.12745,0.37837 -0.17942,0.8411 0,1.19778 0.54478,1.08305 1.76154,1.70349 2.44232,2.73727 0.94504,1.43507 1.51309,3.18921 2.06105,4.83549 0.5847,0.27776 1.1694,0.55553 1.75411,0.83329 0.30694,0 0.62963,-0.0971 0.92081,0 0.34997,0.11666 0.57831,0.47688 0.92082,0.61388 1.4029,0.56116 6.95771,-0.32172 8.88805,0 4.70846,0.78475 9.46609,0.61388 14.31463,0.61388 4.80871,0 9.61743,0 14.42614,0 1.61898,0 5.55844,0.47788 7.18789,0 1.31989,-0.38709 -1.47883,-0.24579 0.84528,-0.24579"
       id="path1384" />
    <path
       style="fill:none;stroke:#000000;stroke-width:1px;stroke-linecap:butt;stroke-linejoin:miter;stroke-opacity:1"
       d="m 408.63788,183.90209 c 0.84396,1.54187 -2.26094,4.03522 -1.60903,5.43139 0.19536,0.4184 7.50658,-0.0146 8.61587,0.14387 0.14324,0.0205 0.17752,0.24223 0.30694,0.30694 0.90971,0.45486 3.031,0 4.12569,0 3.34676,0 6.69352,0 10.04027,0 1.45293,0 2.64043,0.0374 3.98302,0.30334 2.36465,0.46849 8.63526,0 11.32557,0 2.44107,0 9.23803,0.62698 11.2968,-0.48678 0.14534,-0.0786 0.52075,0.10718 0.64025,0 0.50473,-0.45269 0.79919,-1.64618 0.53355,-2.31403 -0.0627,-0.15761 -0.21358,-0.64879 -0.29615,-0.80932 -0.0872,-0.16963 -0.53986,-0.27129 -0.40405,-0.40525 0.18603,-0.18351 0.466,-0.2366 0.699,-0.3549"
       id="path1386" />
    <path
       style="fill:none;stroke:#000000;stroke-width:1px;stroke-linecap:butt;stroke-linejoin:miter;stroke-opacity:1"
       d="m 410.39199,184.73538 c 0.025,2.59277 -3.0548,5.3281 -3.91108,7.8869 -0.17777,0.53124 0.24908,0.66454 -0.30694,1.22056 -0.16177,0.16177 -0.4521,0.14517 -0.61388,0.30694 -0.46015,0.46015 -0.32327,1.4015 -0.61387,1.83684 -0.34479,0.5165 -0.6431,0.64285 -0.87046,1.13304 -0.24597,0.53029 -0.35713,1.30774 -0.61029,1.81406 -0.18048,0.36096 -0.70296,0.54769 -0.90043,0.90043 -0.14419,0.25756 0.16238,0.79809 0,1.04072 -0.441,0.65892 -0.96619,0.75 -1.22776,1.53469 -0.0324,0.0971 0,0.20463 0,0.30694 -0.10231,0.40925 -0.11828,0.85045 -0.30694,1.22776 -0.12941,0.25883 -0.48446,0.35504 -0.61387,0.61388 -0.24908,0.49815 -0.34882,2.56505 -0.61388,3.35714 -0.44454,1.32841 0.19239,4.47589 -0.30694,5.47455 -0.38882,0.77764 -0.61388,3.53641 -0.61388,4.60409 0,1.3696 0.33661,3.26046 0,4.5885 -0.61833,2.4395 -0.65854,6.20628 0.27696,8.45041 0.12822,0.30757 0.74637,0.35912 0.90404,0.44003 0.59702,0.30639 0.65321,1.15121 1.24814,1.47475 0.35507,0.19309 0.95618,0.40495 1.35484,0.60428 0.38241,0.19121 4.21513,0.0833 4.46501,0 0.13727,-0.0457 0.16967,-0.26118 0.30694,-0.30694 0.86484,-0.28828 5.52545,-0.28413 5.54768,-0.30694 0.37523,-0.385 0.1429,-0.6787 0.61388,-0.92081 0.89247,-0.45878 1.76946,-0.8749 2.40276,-1.82485 0.46776,-0.70164 1.03214,-1.5938 1.77689,-2.08383 0.87312,-0.5745 2.85088,0.2913 3.49263,0.61028 0.42125,0.20938 1.1483,-0.11578 1.61143,0 4.17487,1.04372 -2.65955,-0.57958 1.84163,0.92082 0.24805,0.0827 5.65226,0.19261 5.99131,0 2.33472,-1.3263 4.74502,-3.68006 7.297,-4.61488 0.26717,-0.0979 0.2052,-0.57626 0.44602,-0.72778 0.20915,-0.13159 0.66278,0.0658 0.92082,0 0.30617,-0.0781 0.5876,-0.24205 0.89684,-0.30694 3.28347,-0.68899 4.17489,1.14727 6.8222,1.80327 0.87966,0.21797 7.30618,0.16242 8.1183,0 0.92916,-0.18584 2.26558,-1.71922 2.75526,-1.84164 1.36426,-0.34106 2.40195,-0.92742 3.55617,-1.47115 0.29886,-0.14078 0.82429,0.15487 1.11506,0 0.7039,-0.37492 0.56513,-0.33733 1.14502,-0.91722 0.5953,-0.5953 0.59519,-0.12235 1.11865,-0.30694 1.13457,-0.40007 1.9477,-1.74026 2.45551,-2.63296 0.80217,-1.41016 -1.09083,-6.0808 -1.5215,-7.35095 -0.10796,-0.3184 0.15279,-0.83592 0,-1.13184 -0.26766,-0.51839 -0.66664,-1.02701 -0.91363,-1.5239 -0.35568,-0.71559 0.28827,-1.33376 -0.30693,-2.1258 -0.13423,-0.1786 -0.44104,-0.14224 -0.5995,-0.29974 -0.3747,-0.37246 -0.076,-1.05106 -0.29494,-1.46755 -0.88751,-1.68834 -1.12253,-3.41301 -1.84164,-5.21078 -0.20463,-0.40925 -0.40925,-0.8185 -0.61388,-1.22775 -0.10231,-0.10232 -0.23929,-0.17904 -0.30694,-0.30694 -0.39217,-0.74146 -0.53147,-2.21363 -0.90163,-2.92791 -0.13315,-0.25694 -0.48324,-0.35566 -0.61388,-0.61388 -0.0902,-0.17831 0.0898,-0.42097 0,-0.59949 -0.49103,-0.97631 -1.07136,-1.72557 -1.50832,-2.62097 -0.14637,-0.29994 0.003,-0.88328 0,-1.22776 -0.0138,-1.4236 -0.0296,-2.84718 -0.0444,-4.27077"
       id="path1388" />
    <path
       style="fill:none;stroke:#000000;stroke-width:1px;stroke-linecap:butt;stroke-linejoin:miter;stroke-opacity:1"
       d="m 405.74953,207.59515 c 0.7031,2.04093 -0.0936,3.9566 -0.3477,5.97573 -0.11415,0.90704 -0.0204,1.91098 -0.31413,2.78763 -0.14538,0.43385 -0.53866,0.77642 -0.61388,1.22775 -0.0887,0.53222 0.19093,1.57667 0,2.14498 -0.2887,0.85933 -0.78741,2.74577 -0.92082,3.67967 -0.10128,0.70899 0.10128,1.43958 0,2.14858 -0.38016,2.6611 -0.92082,4.92888 -0.92082,7.66868"
       id="path1390" />
    <path
       style="fill:none;stroke:#000000;stroke-width:1px;stroke-linecap:butt;stroke-linejoin:miter;stroke-opacity:1"
       d="m 409.39204,217.51672 c 0,0.41685 0.0457,0.8362 0,1.25054 -0.14231,1.29129 -0.61994,2.47973 -0.92082,3.68327 -0.16883,0.67533 0.13709,1.4647 0,2.14857 -0.37826,1.88684 -0.30694,3.75171 -0.30694,5.70236"
       id="path1392" />
    <path
       style="fill:none;stroke:#000000;stroke-width:1px;stroke-linecap:butt;stroke-linejoin:miter;stroke-opacity:1"
       d="m 420.42866,205.1852 c 0.37672,5.62059 0.30694,11.26881 0.30694,16.92122 0,1.28263 0.30573,3.07421 0,4.29715 -0.22,0.87999 -0.30694,1.47721 -0.30694,2.44472"
       id="path1394" />
    <path
       style="fill:none;stroke:#000000;stroke-width:1px;stroke-linecap:butt;stroke-linejoin:miter;stroke-opacity:1"
       d="m 437.72755,213.80468 c 0.36705,2.42782 -0.51917,4.64009 -1.22775,6.76585 -0.23815,0.71442 -0.25673,1.40669 -0.61388,2.12099"
       id="path1396" />
    <path
       style="fill:none;stroke:#000000;stroke-width:1px;stroke-linecap:butt;stroke-linejoin:miter;stroke-opacity:1"
       d="m 453.93538,210.52187 c 0.29575,0.66183 0.55419,1.34164 0.88724,1.98551 0.85068,1.64456 0.59327,2.32965 0.92801,4.0034 0.24873,1.24365 0.22061,0.14026 0.60789,0.91482 0.39234,0.78468 0,2.68573 0,3.62452 0,0.8441 -0.27282,2.27479 0,3.06339 0.37589,1.08657 0.30694,-0.31672 0.30694,0.5995"
       id="path1402" />
    <path
       style="fill:none;stroke:#000000;stroke-width:1px;stroke-linecap:butt;stroke-linejoin:miter;stroke-opacity:1"
       d="m 399.28942,145.26613 c 0.40046,1.5339 0.23124,3.34788 1.20138,4.60169 0.1706,0.22047 0.68768,-2.22837 2.15217,-3.69286 0.35271,-0.35271 1.23916,-1.92154 1.42799,-2.29845 0.22952,-0.45813 0.54898,-0.24204 0.91362,-0.60668 0.51917,-0.51917 0.86855,-1.5394 1.60424,-1.91118 1.25303,-0.63322 2.92112,-1.51671 4.37148,-1.51671 0.47046,0 1.01968,-0.46219 1.44597,-0.60429 0.89029,-0.29676 4.48404,0.11537 5.32948,-0.30693 0.32832,-0.16401 0.58941,-0.44405 0.91722,-0.60909 0.69697,-0.3509 1.93267,0.35548 2.62696,0 0.51553,-0.26395 0.98057,-1.03065 1.51432,-1.20857 1.76969,-0.5899 0.1283,0.39626 2.76245,-0.92082 0.71147,-0.35573 1.71199,-0.52647 2.44232,-0.90643 0.18419,-0.0958 0.74112,0.14133 0.88245,0 0.26085,-0.26084 0.30694,-0.71619 0.61388,-0.92081 0.65435,-0.43624 1.63945,0.0325 2.14857,-0.30694 0.35342,-0.23561 0.52166,-0.70944 0.90044,-0.90164 0.17214,-0.0873 0.40638,0.0862 0.57911,0 0.54679,-0.27285 0.75612,-0.79841 1.12344,-1.16181 0.37403,-0.37004 1.40091,-0.53378 1.84763,-0.77334 0.77684,-0.41659 1.14248,-1.21148 1.69656,-1.77449 0.42192,-0.42872 1.22705,-0.86153 1.73253,-1.21577 1.11344,-0.7803 2.43834,-2.15041 3.37872,-3.11735 0.32437,-0.33353 0.32776,-0.7607 0.75057,-1.03472 0.27542,-0.1785 0.70571,-0.24867 0.87405,-0.5887 0.27894,-0.56341 0.82334,-1.13766 1.15582,-1.74572 0.0351,-0.0642 0,-0.14627 0,-0.21941 0,-0.0819 -0.0396,-0.17408 0,-0.24579 0.22471,-0.40679 0.74163,-0.65961 0.88365,-1.09347 0.0908,-0.27728 -0.13317,-0.61567 0,-0.87526 0.39757,-0.77495 0.68736,-1.64939 0.90163,-2.59939 0.0675,-0.2993 -0.13826,-0.78478 0,-1.04911 0.39162,-0.74867 0.60816,-1.50893 0.89924,-2.37878 0.14091,-0.42107 -0.17393,-1.01495 0,-1.42079 0.39097,-0.91227 1.0635,-1.58405 1.0635,-2.66893"
       id="path1537" />
    <path
       style="fill:none;stroke:#000000;stroke-width:1px;stroke-linecap:butt;stroke-linejoin:miter;stroke-opacity:1"
       d="m 457.84046,111.66709 c -0.17129,1.19997 -0.795,2.0855 -0.99276,3.27202 -0.19933,1.19598 -0.273,11.92109 0,12.75116 0.3507,1.06629 0.6675,2.34833 0.91003,3.56097 0.0803,0.40131 -0.18302,0.86171 0,1.22776 0.12942,0.25883 0.45292,0.37339 0.61388,0.61388 0.0904,0.13508 0.29023,1.42701 0.29255,1.43158 0.38193,0.75394 0.80968,2.09353 1.22775,2.76245 2.70648,4.33036 -0.12916,-1.17915 1.22776,1.5347"
       id="path1543" />
  </g>
</svg>
