<?xml version="1.0" encoding="UTF-8" standalone="no"?>
<!-- Created with Inkscape (http://www.inkscape.org/) -->

<svg
   version="1.1"
   id="svg3849"
   width="100.49948"
   height="124.74071"
   viewBox="0 0 100.49948 124.74071"
   sodipodi:docname="blouse-top.svg"
   inkscape:version="1.1.2 (0a00cf5339, 2022-02-04)"
   xmlns:inkscape="http://www.inkscape.org/namespaces/inkscape"
   xmlns:sodipodi="http://sodipodi.sourceforge.net/DTD/sodipodi-0.dtd"
   xmlns="http://www.w3.org/2000/svg"
   xmlns:svg="http://www.w3.org/2000/svg">
  <defs
     id="defs3853" />
  <sodipodi:namedview
     id="namedview3851"
     pagecolor="#ffffff"
     bordercolor="#666666"
     borderopacity="1.0"
     inkscape:pageshadow="2"
     inkscape:pageopacity="0.0"
     inkscape:pagecheckerboard="0"
     showgrid="false"
     inkscape:zoom="4.6074726"
     inkscape:cx="-26.261686"
     inkscape:cy="63.483828"
     inkscape:window-width="1860"
     inkscape:window-height="1009"
     inkscape:window-x="0"
     inkscape:window-y="0"
     inkscape:window-maximized="1"
     inkscape:current-layer="g3855"
     fit-margin-top="0"
     fit-margin-left="0"
     fit-margin-right="0"
     fit-margin-bottom="0" />
  <g
     inkscape:groupmode="layer"
     inkscape:label="Image"
     id="g3855"
     transform="translate(-431.60475,-414.5092)">
    <path
       style="fill:none;stroke:#000000;stroke-width:1px;stroke-linecap:butt;stroke-linejoin:miter;stroke-opacity:1"
       d="m 463.61996,418.85449 c -1.12788,-0.29345 -1.83856,0.37096 -2.84216,0.62188 -0.20665,0.0517 -0.46221,-0.1188 -0.63901,0 -0.16424,0.11036 -0.25008,0.31793 -0.41975,0.41974 -0.4519,0.27116 -1.22041,0.24171 -1.68883,0.43187 -0.28045,0.11386 -0.3679,0.50891 -0.63736,0.64676 -0.1258,0.0643 -0.28959,-0.0439 -0.4239,0 -0.36628,0.11974 -0.68372,0.45671 -1.03346,0.62753 -0.1646,0.0804 -0.45309,-0.084 -0.61567,0 -0.47058,0.24302 -1.43365,0.45618 -1.77619,0.79873 -0.43926,0.43926 -2.26199,2.48841 -2.63124,2.70372 -0.36664,0.21379 -0.9422,0.36109 -1.17452,0.82393 -0.0992,0.19763 -0.11021,0.43191 -0.20978,0.62936 -0.25803,0.51169 -1.03231,0.76806 -1.28298,1.28298 -0.55131,1.13249 -1.26283,2.0557 -1.8026,3.14344 -0.1875,0.37785 0.0682,1.23698 0,1.6418 -0.0789,0.46829 -0.28609,1.68246 -0.43001,2.10063 -0.084,0.24397 -0.35249,0.3961 -0.43408,0.64087 -0.002,0.005 0.002,0.85829 0,0.86544 -0.29926,1.20088 -0.39506,2.41178 -0.6456,3.66134 -0.0529,0.26361 0.0859,0.59608 0,0.84816 -0.033,0.0968 -0.19223,0.11778 -0.21704,0.21704 -0.17638,0.70552 0.0369,2.74778 -0.21704,3.25558 -0.0915,0.18303 -0.32057,0.26382 -0.43408,0.43408 -0.24661,0.36992 -0.2703,1.41027 -0.43133,1.89543 -0.21111,0.63603 0.22322,1.49908 0,2.1307 -0.26438,0.74804 -0.42688,1.67637 -0.64112,2.52644 -0.16568,0.65742 0.16539,1.43996 0,2.09747 -0.0766,0.30473 -0.36125,0.70659 -0.43408,1.07072 -0.14924,0.74621 0.12964,1.29799 -0.21703,1.94287 -0.44036,0.81915 0.36197,4.35547 0,5.44139 -0.41753,1.25259 -0.65112,3.3974 -0.65112,4.77865 0,0.74711 0.14605,1.65539 0,2.382 -0.22448,1.1168 -0.37822,2.11873 -0.65112,3.2103 -0.19311,0.77244 0.34376,1.94781 0,2.64773 -0.17327,0.35281 -0.4041,0.31162 -0.59334,0.6109 -0.219,0.34633 0.18402,1.09081 0,1.45885 -0.33436,0.66871 -0.0264,1.39064 -0.2098,2.12878 -0.18967,0.76343 -0.43884,1.30344 -0.62515,2.03624 -0.26153,1.02865 0.33375,2.32371 0,3.32706 -0.71571,2.15165 -0.59522,4.47327 -1.29948,6.57709 -0.19435,0.5806 0.15496,1.33769 0,1.93251 -0.30135,1.15679 -0.33698,2.28699 -0.62675,3.4323 -0.15429,0.60984 0.19622,1.37371 0,1.96915 -0.19414,0.58912 -0.24598,1.98871 -0.42405,2.33775 -0.0927,0.18168 -0.36909,0.23791 -0.43408,0.43124 -0.19138,0.56934 0.1007,1.33022 0,1.93184 -0.127,0.75882 -0.46551,1.37537 -0.64825,2.07952 -0.13097,0.50465 0.0126,1.18906 -0.21704,1.64837 -0.27036,0.54073 -0.92761,1.47587 -1.06962,2.04389 -0.0642,0.25692 0.0965,0.76588 0,1.05097 -0.16296,0.48121 -0.4657,0.7427 -0.63012,1.23008 -0.18228,0.54037 -0.0591,1.21421 -0.19992,1.76434 -1e-5,6e-5 -0.42586,0.42585 -0.42589,0.4259 -0.048,0.0942 0.0752,0.47809 0,0.54962 -0.11721,0.1115 -0.31741,0.10497 -0.43408,0.21704 -0.14418,0.1385 0.0504,0.4063 0,0.59979 -0.23253,0.89345 -1.43652,3.82505 -0.99363,4.76475 0.0291,0.0617 0.15637,-0.0482 0.20459,0 0.62998,0.62998 -0.14181,0.21672 0.40613,0.61072 0.41459,0.29811 2.77723,0.69599 3.28627,0.75962 1.08918,0.13615 9.18264,0.22954 10.26315,-0.20679 0.57396,-0.23177 0.51014,-0.74729 0.98386,-0.98416 1.08065,-0.54032 1.45248,-1.21473 2.28678,-2.04903 1.33146,0.52086 0.23832,1.5353 0.52438,2.25045 0.076,0.18999 0.32023,0.26405 0.43408,0.43408 0.46002,0.68705 -0.27297,2.2031 0,3.0129 0.21518,0.63836 0.48412,1.26131 0.64388,1.90035 0.0661,0.26439 -0.11624,0.75047 0,1.00682 0.24716,0.54507 4.53627,3.61474 5.28716,3.86786 0.46496,0.15673 0.81082,0.48354 1.28052,0.64388 0.1079,0.0368 0.26755,-0.0863 0.34203,0 0.78811,0.91339 2.40531,1.82138 3.49985,2.43424 0.47903,0.26822 1.13443,0.26416 1.63233,0.43146 0.097,0.0326 0.14469,0.14469 0.21704,0.21703 0.36173,0.1447 0.70723,0.33959 1.08519,0.43408 0.88894,0.22224 0.43569,-0.30289 1.30223,0.21704 0.90886,0.54531 -0.0339,0.34506 0.86816,0.65112 0.31007,0.1052 0.72614,-0.10357 1.03683,0 0.30434,0.10144 0.56038,0.45404 0.82844,0.63078 0.2416,0.15929 0.58741,-0.0702 0.86815,0 0.19852,0.0496 0.25106,0.34256 0.43408,0.43408 0.44051,0.22025 1.91909,0.77987 2.20192,0.88707 0.52647,0.19954 1.21457,0.0431 1.73631,0.21704 0.94678,0.31559 1.87522,0.76207 2.80832,1.08245 0.85957,0.29513 2.07037,-0.33676 2.91226,0 0.18999,0.076 0.24003,0.36913 0.43408,0.43408 0.48076,0.16091 6.99712,0.13641 7.54625,0 0.52355,-0.13007 1.01689,-0.49518 1.47658,-0.64841 0.30607,-0.10202 0.78453,0.13769 1.07482,0 0.60786,-0.28832 2.93368,-0.54897 3.22232,-0.8376 0.33912,-0.33913 0.37123,-0.48678 0.84366,-0.64293 0.30628,-0.10124 0.71047,0.0994 1.01737,0 0.53708,-0.17393 0.98273,-0.50505 1.64507,-0.61544 0.32683,-0.0545 0.74225,0.0817 1.06347,0 0.51983,-0.13217 1.06233,-0.49788 1.51374,-0.64835 0.13726,-0.0458 0.30466,0.0647 0.43407,0 0.47338,-0.23669 1.43975,-0.96315 1.93346,-1.29229 0.39253,-0.26169 0.52782,-0.0579 0.81963,-0.21703 0.41272,-0.22508 0.44846,-0.87535 0.86815,-1.0852 0.64199,-0.32099 1.46591,-0.81783 1.93491,-1.29514 0.45455,-0.46261 0.88765,-1.19553 1.50457,-1.50723 1.2033,-0.60797 2.13366,-1.60181 3.03147,-2.47883 0.47549,-0.46449 1.47113,-0.70906 1.84029,-1.27982 0.33182,-0.51301 1.0182,-0.97805 1.28631,-1.50324 0.0316,-0.0618 0,-0.13874 0,-0.20811 0.13874,-0.27748 0.25595,-0.56681 0.41622,-0.83243 0.25289,-0.41909 0.24972,-0.0327 0.65112,-0.43408 0.42027,-0.42027 0.3631,-1.14983 0.64383,-1.62758 0.70316,-1.19663 0.88101,-2.548 1.60951,-3.62061"
       id="path3976" />
    <path
       style="fill:none;stroke:#000000;stroke-width:1px;stroke-linecap:butt;stroke-linejoin:miter;stroke-opacity:1"
       d="m 516.3925,517.8639 c 3.24588,-0.6032 9.48283,0.3754 12.19052,-0.99492 0.28243,-0.14293 0.78014,0.14169 1.06352,0 0.0494,-0.0247 1.82192,-1.55145 1.88976,-1.76883 0.0785,-0.25139 0.10189,-4.14749 0,-4.34668 -0.31631,-0.61844 -0.57626,-1.28139 -0.80827,-1.93474 -0.0685,-0.19283 -0.33993,-0.2524 -0.43408,-0.43408 -0.11147,-0.21508 -0.0167,-0.80043 -0.14185,-0.97454 -0.17991,-0.25029 -0.52439,-0.5263 -0.6184,-0.82136 -0.0292,-0.0918 0.0997,-0.90853 0,-1.00663 -0.11527,-0.11338 -0.31953,-0.10259 -0.43386,-0.21692 -0.0489,-0.0489 -0.6142,-1.77673 -0.83989,-2.20443 -0.29397,-0.5571 -0.0291,-1.08628 -0.21444,-1.63342 -0.28576,-0.84373 -0.20561,-1.90223 -0.43408,-2.81611 -0.0973,-0.38916 -0.35663,-0.53122 -0.43408,-1.07073 -0.1138,-0.79286 -0.18729,-1.53981 -0.41203,-2.26487 -0.43248,-1.39526 0.47339,-4.1919 0,-5.53745 -0.19476,-0.55358 -0.40339,-1.07344 -0.59058,-1.68038 -0.18105,-0.58707 0.28017,-1.48213 0,-2.01609 -0.0901,-0.17179 -0.20276,-0.7317 -0.21704,-0.745 -0.1128,-0.10504 -0.33001,-0.0773 -0.41359,-0.20681 -0.0247,-0.0382 -0.21704,-2.47552 -0.21704,-2.53235 0,-1.09648 0.27052,-5.53906 0,-6.34158 -0.24543,-0.7281 -0.18219,-1.67347 -0.41882,-2.40684 -0.0559,-0.17334 0.10057,-0.6745 0,-0.85744 -0.89283,-1.624 -0.58884,-3.80308 -1.38397,-5.57171 -0.30988,-0.68928 0.12895,-1.81968 0,-2.58686 -0.48137,-2.86402 -0.70597,-5.49273 -1.50239,-8.41002 -0.26991,-0.98869 -0.7466,-1.7571 -1.05443,-2.68249 -0.0575,-0.17289 0.0813,-0.45428 0,-0.61586 -0.14071,-0.27967 -0.46647,-0.45787 -0.55391,-0.75848 -0.11938,-0.41039 0.003,-0.72295 -0.17081,-1.09557 -0.20961,-0.45013 0.15885,-1.16596 0,-1.64052 -0.24881,-0.74331 0.0245,-1.59629 -0.21704,-2.30739 -0.31896,-0.93887 -0.0212,-1.762 -0.21704,-2.72188 -0.20116,-0.98577 -0.29023,-1.95941 -0.64388,-2.90992 -0.0732,-0.19675 0.17759,-1.12321 0,-1.28278 -0.1147,-0.10306 -0.3057,-0.0969 -0.41376,-0.20688 -0.1953,-0.19883 0.0805,-1.09635 0,-1.36982 -0.35102,-1.19186 0.15776,-4.69456 -0.21704,-5.41668 -0.23844,-0.4594 -0.13188,-1.04718 -0.36225,-1.49358 -0.16462,-0.319 -0.41578,-0.51275 -0.56003,-0.8292 -0.0705,-0.15469 0.0789,-0.42157 0,-0.57167 -0.28291,-0.53845 -0.95617,-0.78459 -1.25966,-1.32491 -0.21085,-0.37539 -0.61005,-0.81421 -0.78575,-1.15515 -0.0597,-0.11573 0.0693,-0.35091 0,-0.4606 -0.0245,-0.0388 -0.36955,-0.35306 -0.37834,-0.37834 -0.0958,-0.27551 -0.0765,-0.7128 -0.21704,-0.96579 -0.16686,-0.30032 -0.47641,-0.46337 -0.58899,-0.77724 -0.0626,-0.17444 0.0796,-0.47472 0,-0.6455 -0.17242,-0.36998 -1.01907,-2.6832 -1.10331,-2.80752 -0.16719,-0.24672 -0.45743,-0.32614 -0.64023,-0.51814 -0.12513,-0.13143 -0.0329,-0.42184 -0.10359,-0.57859 -0.1208,-0.26792 -0.72207,-0.51134 -0.93169,-0.62143 -0.42345,-0.2224 -0.55085,-0.54359 -0.85186,-0.85186 -2e-5,-3e-5 -2.09888,-0.81729 -2.42918,-0.9836 -0.49921,-0.25138 -2.47799,-0.21676 -2.75249,-0.4315 -0.48524,-0.37961 -0.67443,-0.45645 -1.22505,-0.64597 -0.55678,-0.19163 -1.29391,-0.033 -1.84598,-0.21704 -0.005,-0.002 -0.42244,-0.42574 -0.43005,-0.43005 -0.31333,-0.17757 -0.52577,-0.0412 -0.93719,-0.14696 -0.36063,-0.0927 -0.71354,-0.63755 -0.91763,-0.84654 -0.45697,-0.46792 -1.79726,-0.24056 -2.48761,-0.93091"
       id="path3978" />
    <path
       style="fill:none;stroke:#000000;stroke-width:1px;stroke-linecap:butt;stroke-linejoin:miter;stroke-opacity:1"
       d="m 469.09854,417.10498 c 0.68313,1.79202 0.48991,3.82005 1.24414,5.57992 0.0806,0.18808 0.28939,0.28939 0.43408,0.43408 0.14469,0.36173 0.32705,0.71059 0.43408,1.08519 0.33979,1.18927 0.63293,2.11125 1.3061,3.26525 0.18226,0.31246 0.43407,0.57877 0.65111,0.86816 0.0724,0.36173 0.0717,0.74613 0.21704,1.08519 0.0806,0.18808 0.34257,0.25106 0.43408,0.43408 0.0647,0.12942 -0.0723,0.30872 0,0.43408 1.17731,2.04251 0.61581,0.20603 1.32381,1.98194 0.17227,0.4321 0.21411,0.91781 0.44049,1.32418 0.15393,0.27631 0.46812,0.42829 0.67097,0.67098 0.55479,0.66375 0.72191,1.35298 1.0852,2.17038 0.26222,0.59 0.95788,0.88271 1.08519,1.51928 0.0426,0.21282 -0.0598,0.44249 0,0.65111 0.75604,2.63573 0.0692,-0.97574 1.08922,1.74437 0.10161,0.27095 -0.11399,0.60216 0,0.86815 0.12091,0.28212 0.48086,0.39573 0.65112,0.65112 0.18106,0.27158 0.56962,1.19795 0.65111,1.51927 0.10032,0.39554 0.53854,0.68699 0.62705,1.04104 0.0526,0.21056 -0.0971,0.45699 0,0.65112 0.0919,0.1838 0.70903,0.38156 0.86415,0.64711 0.0925,0.15834 -0.061,0.3772 0,0.55014 0.13759,0.39019 0.68565,1.86934 1.25481,1.6952 0.16848,-0.0515 1.24594,-2.60092 1.50821,-2.92876 1.15754,-1.44693 -0.21704,1.08519 0.65112,-0.65112 0.6233,-1.2466 1.0899,-2.56721 1.70976,-3.79385 0.22835,-0.45186 0.22275,-1.31842 0.42861,-1.72613 0.0744,-0.14744 0.32482,-0.10639 0.44318,-0.22159 0.35909,-0.34954 1.25699,-3.34697 1.51117,-4.08088 0.12031,-0.34735 -0.0673,-0.94086 0,-1.27737 0.11573,-0.57861 0.24368,-1.1627 0.43135,-1.72811 0.20657,-0.62233 0.0496,-1.50078 0.21704,-2.17039 0.20309,-0.81236 -0.20469,-1.77805 0,-2.58995 0.16299,-0.64651 0.44012,-1.3203 0.64841,-1.94355 0.14626,-0.43764 -0.20327,-1.09354 0,-1.50009 0.0915,-0.18302 0.32058,-0.26382 0.43408,-0.43407 0.28303,-0.42455 0.0338,-1.62065 0.21704,-2.17039 0.24441,-0.73323 0.50276,-1.42874 0.65112,-2.16498 0.0566,-0.28104 -0.15903,-0.62152 0,-0.86006 0.0941,-0.14118 0.99452,-1.67858 1.07067,-1.71339 0.9145,-0.41802 2.2228,-0.71463 3.13726,-0.2264 0.38327,0.20463 0.48207,0.79092 0.85433,1.07136 0.2763,0.20815 1.29522,0.71147 1.46313,1.04729 0.0964,0.1928 0.0731,0.4426 0.20449,0.61348 0.0986,0.12825 0.28938,0.1447 0.43408,0.21704 0.21704,0.21704 0.46695,0.40557 0.65111,0.65112 0.31811,0.42415 0.39123,1.43357 0.65112,1.95335 0.16177,0.32354 0.46501,0.55797 0.65112,0.86815 0.52853,0.88089 0.96253,1.97879 1.27498,2.92953 10e-6,2e-5 -1e-5,0.42863 0,0.42864 0.0546,0.0819 0.61284,0.43118 0.42865,0.71514 -0.27951,0.43091 -0.22387,0.98357 -0.38389,1.46364 -0.12798,0.38395 -0.64689,0.66923 -0.83147,1.03608 -0.14815,0.29444 -0.12917,0.51993 -0.21433,0.86272 -0.11913,0.47953 -1.19012,1.89237 -1.51656,2.38204 -0.0568,0.0851 -0.1447,0.14469 -0.21704,0.21703 -0.1447,0.1447 -0.32057,0.26382 -0.43408,0.43408 -0.83003,1.24505 -1.70674,2.49269 -2.60447,3.68966 -0.60714,0.80953 -1.52205,1.39239 -2.17038,2.17039 -0.77117,0.9254 -0.53732,0.91801 -1.51927,1.73631 -0.70291,0.58576 -1.50141,1.06732 -2.17039,1.73631"
       id="path3984" />
    <path
       style="fill:none;stroke:#000000;stroke-width:1px;stroke-linecap:butt;stroke-linejoin:miter;stroke-opacity:1"
       d="m 469.09854,417.10498 c -0.69781,-0.009 -1.42215,-0.21723 -2.09343,-0.0264 -0.93219,0.26494 -2.51576,3.38326 -3.25919,4.12669 -0.11439,0.11439 -0.31969,0.10265 -0.43408,0.21704 -0.73055,0.73055 -1.04495,2.12406 -1.47972,2.99085 -0.0917,0.18291 -0.33836,0.25322 -0.43407,0.43408 -0.12573,0.2376 -0.36625,3.13003 -0.21704,3.50304 0.4454,1.1135 1.59161,1.80866 2.38742,2.60447 0.17678,0.17678 0.47434,0.90842 0.65112,1.08519 0.22878,0.22878 0.61551,0.23196 0.86816,0.43408 0.50846,0.40677 0.98268,1.16379 1.52327,1.52529 0.1914,0.12799 0.45519,0.10483 0.65513,0.21904 1.17068,0.66874 2.35979,1.37552 3.47262,2.17039 1.00472,0.71766 1.80513,1.70984 2.8215,2.38742 0.2692,0.17947 0.60932,0.23996 0.86816,0.43408 0.40925,0.30694 0.67594,0.77826 1.08519,1.0852 1.06214,0.7966 2.16766,1.66409 3.26143,2.39327 0.80184,0.53456 -0.79358,-1.22766 0.65112,0.21704 0.45018,0.45018 0.81714,1.03417 1.28285,1.4999"
       id="path3986" />
    <path
       style="fill:none;stroke:#000000;stroke-width:1px;stroke-linecap:butt;stroke-linejoin:miter;stroke-opacity:1"
       d="m 485.64469,445.75979 c 0.52337,-0.36875 0.95528,-0.81249 1.40105,-1.25827 0.39892,-0.39893 0.77732,-1.1364 1.20343,-1.42047 0.18845,-0.12564 0.45543,-0.0914 0.64387,-0.21704 0.3467,-0.23117 0.61137,-0.53157 0.96136,-0.76225 0.46613,-0.30723 -0.0417,-0.1638 0.43408,-0.65112 0.15224,-0.15594 0.46614,-0.0527 0.62024,-0.20675 0.16277,-0.16277 0.12856,-0.27624 0.4031,-0.41351 0.14267,-0.0713 1.18673,-0.74917 1.22973,-0.81381 0.13946,-0.20962 0.55181,-0.84246 0.41444,-0.63147 -0.57849,0.88848 -1.18903,1.75567 -1.78355,2.6335"
       id="path3988" />
    <path
       style="fill:none;stroke:#000000;stroke-width:1px;stroke-linecap:butt;stroke-linejoin:miter;stroke-opacity:1"
       d="m 481.66567,449.64425 c -0.42503,0.5417 -1.4081,-0.30641 -1.9175,0 -1.26099,0.7585 -3.90402,3.43275 -4.55486,4.67431 -0.04,0.0764 0.64809,1.19027 0.82667,1.43594 0.53127,0.73082 1.66106,-0.24457 2.06761,-0.65112 0.83381,-0.83381 1.43583,-1.68474 2.17039,-2.60446 0.3516,-0.44023 0.9142,-0.66851 1.20109,-1.20123 0.1414,-0.26258 0.32475,-0.47655 0.56611,-0.71791 0.0692,-0.0692 0.24277,-0.11628 0.20766,-0.20766 -0.11034,-0.28712 -0.80883,-0.53758 -0.56717,-0.72787 0.39154,-0.30831 0.98654,0.17408 1.48489,0.17408 0.91108,0 3.48061,0.19767 3.95427,1.1241 0.11768,0.23018 -0.11829,0.63858 0,0.86956 0.11424,0.22308 0.48933,0.32827 0.63584,0.62055 0.15974,0.31867 0.0445,0.88205 0.21704,1.17861 0.0978,0.1681 0.31206,0.24606 0.41257,0.41256 0.12702,0.21044 0.0672,1.48489 0,1.6141 -0.11685,0.2246 -0.23622,0.46022 -0.42371,0.63035 -0.12924,0.11728 -2.46096,0.1901 -2.82259,0 -0.24387,-0.12819 -0.58631,-0.25475 -0.83024,-0.4193 -0.42916,-0.28951 -0.42201,-0.7395 -0.65112,-1.08243 -0.16978,-0.25414 -0.55097,-0.35864 -0.64835,-0.64835 -0.13935,-0.41458 -0.15019,-4.12735 -0.40678,-4.25098 -0.22799,-0.10983 -0.15034,0.48423 -0.19997,0.73238 -0.16643,0.83218 -0.46202,1.20891 -0.64086,1.91831 -0.093,0.36888 -0.43253,1.2904 -0.65112,1.50899 -0.17907,0.17907 -0.48057,0.21975 -0.63055,0.4238 -0.1333,0.18135 -0.14107,0.85378 -0.21704,1.07982 -0.0918,0.27304 -0.54983,0.57449 -0.64088,0.84765 -0.14229,0.42687 0.14141,0.43946 0,0.86546 -0.16866,0.50813 -0.47884,0.82378 -0.63165,1.44019 -0.17144,0.6915 -0.044,1.46374 -0.21704,2.15592 -0.25244,1.00975 -0.43408,1.77211 -0.43408,2.8133 0,0.54663 -0.097,2.13165 -0.27851,1.61605 -0.37779,-1.07312 -0.21703,-2.52912 -0.21703,-3.54427"
       id="path3990" />
    <path
       style="fill:none;stroke:#000000;stroke-width:1px;stroke-linecap:butt;stroke-linejoin:miter;stroke-opacity:1"
       d="m 481.66567,449.64425 c -0.054,1.06888 -0.0574,2.14153 -0.16207,3.20665 -0.0763,0.77672 -0.71551,0.97311 -0.86815,1.73631 -0.127,0.63499 -0.0857,1.29127 -0.21704,1.94795 -0.18053,0.90265 -0.14409,6.22913 0,6.93982 0.23798,1.17378 0.87882,2.01179 0.87882,3.23004"
       id="path3992" />
    <path
       style="fill:none;stroke:#000000;stroke-width:1px;stroke-linecap:butt;stroke-linejoin:miter;stroke-opacity:1"
       d="m 450.36528,428.13817 c 0.0804,0.48719 0.12513,0.98161 0.24113,1.46157 0.1554,0.64297 0.48236,1.27526 0.64086,1.93285 0.0945,0.39191 -0.18893,0.0843 0,0.65112 0.0808,0.24238 0.34544,0.39445 0.42683,0.63663 0.14923,0.44399 -0.14813,1.03758 0,1.48199 0.65055,1.95163 0.21704,7.79448 0.21704,10.13939 0,1.37306 0.3028,4.77856 0,5.83836 -0.0717,0.25081 -0.36241,0.4003 -0.43407,0.65111 -0.0482,0.16881 0.0362,1.26606 0,1.51927 -0.0943,0.6603 -0.33975,1.29306 -0.43408,1.95335 -0.25062,1.75437 -0.31091,3.54406 -0.86816,5.20893 -0.21513,0.64276 0.0122,1.39089 -0.21703,2.0638 -0.31858,0.93513 0.0913,2.22177 -0.21704,3.14683 -0.0324,0.0971 -0.18469,0.11997 -0.21704,0.21704 -0.34215,1.02643 0.33867,2.39133 0,3.41905 -0.24216,0.73484 -0.20981,0.14735 -0.20981,0.63667 0,0.82678 0.25887,2.26194 0,3.03854 -0.0647,0.19412 -0.34256,0.25105 -0.43408,0.43408 -0.11235,0.22471 -0.43407,7.47336 -0.43407,8.22834"
       id="path3996" />
    <path
       style="fill:none;stroke:#000000;stroke-width:1px;stroke-linecap:butt;stroke-linejoin:miter;stroke-opacity:1"
       d="m 514.38235,425.63494 c -0.79684,2.32651 -1.37226,4.80125 -1.71827,7.22329 -0.0716,0.50133 0.13913,1.03233 0,1.51927 -0.0889,0.31109 -0.35561,0.55427 -0.43408,0.86815 -0.0702,0.28075 0.0409,0.58168 0,0.86816 -0.1829,1.28032 -0.27197,2.60987 -0.43407,3.9067 -0.59969,4.79749 -0.21704,9.91395 -0.21704,14.78224 0,2.75591 0,5.51182 0,8.26773 0,1.33499 -0.16459,2.80705 0,4.12374 0.0201,0.16052 0.18531,0.27544 0.21704,0.43407 0.0844,0.42202 -0.11254,1.12539 0,1.51927 0.0717,0.25082 0.35159,0.40366 0.43407,0.65112 0.24261,0.72781 0.0761,2.19297 0.21704,3.03854 0.0532,0.31914 0.35561,0.55428 0.43408,0.86816 0.15494,0.61976 0.0499,1.27687 0.21704,1.94242 0.15215,0.60571 0.33154,0.80153 0.43408,1.51927 0.0761,0.53288 -0.0277,1.24152 0.21704,1.73109 0.49491,0.98984 -0.10617,-0.95264 0.42885,0.6459 0.11797,0.35246 -0.07,0.92478 0,1.27022 0.0747,0.3685 0.34276,0.7199 0.43408,1.0852 0.24585,0.9834 0.077,2.0863 0.43408,3.03854 0.25952,0.69207 1.14933,1.99287 1.30223,2.60446 0.10528,0.42112 -0.0538,0.87151 0,1.30224 0.14752,1.18016 0.13123,2.27136 0.21704,3.47262 0.0569,0.79706 0.0603,1.60385 0.21704,2.38742 0.0201,0.10033 0.14469,0.14469 0.21704,0.21704 0,0.14469 0,0.28939 0,0.43408"
       id="path3998" />
    <path
       style="fill:none;stroke:#000000;stroke-width:1px;stroke-linecap:butt;stroke-linejoin:miter;stroke-opacity:1"
       d="m 460.38995,457.5715 c -0.81744,2.84698 -1.58959,5.73232 -2.00757,8.6582 -0.33646,2.35523 0,5.51878 0,7.8802 0,2.20477 -0.19979,4.53068 0,6.72828 0.17153,1.8867 0.42525,0.50484 0.94165,3.02132 0.10687,0.52078 -0.0403,1.0648 0,1.5949 0.0957,1.25784 0.29206,2.50602 0.44988,3.75758 0.1544,1.22438 0.52452,2.41338 0.71184,3.63317 0.11722,0.76332 0.0727,1.55149 0.24887,2.3034 0.16706,0.713 0.57991,1.35009 0.77267,2.05658 0.26362,0.96615 0.22102,1.90986 0.22102,2.88748"
       id="path4000" />
    <path
       style="fill:none;stroke:#000000;stroke-width:1px;stroke-linecap:butt;stroke-linejoin:miter;stroke-opacity:1"
       d="m 503.16885,495.60649 c 0.27729,5.98112 0.21704,11.99483 0.21704,18.01141 0,0.16163 0.19715,2.45077 0,2.58129 -0.26019,0.17224 -0.62406,0 -0.93609,0"
       id="path4002" />
    <path
       style="fill:none;stroke:#000000;stroke-width:1px;stroke-linecap:butt;stroke-linejoin:miter;stroke-opacity:1"
       d="m 452.63637,508.24314 c 1.02641,0.64267 0.88174,1.75029 1.39496,2.60567 0.27924,0.4654 0.82522,0.79236 1.06972,1.28135 0.38971,0.77942 0.28196,0.85802 1.06012,1.47872 0.23786,0.18974 0.59875,0.31201 0.83012,0.43408 0.33235,0.17535 0.50144,0.66794 0.83659,0.83659 0.30051,0.15122 0.75953,0.11028 1.06652,0.21427 0.28581,0.0968 0.58715,0.51061 0.86289,0.64848 0.2668,0.1334 0.60135,0.0836 0.86815,0.21704 0.27454,0.13726 0.39785,0.47771 0.65112,0.65111 0.22394,0.15333 2.58849,0.97395 2.9152,1.05563 0.67564,0.16891 1.52343,0.0406 2.17039,0.21704 0.82321,0.49393 0.93346,0.6668 1.73631,0.86815 0.46897,0.11762 1.03951,-0.079 1.51369,0 1.15464,0.19244 2.24916,0.47978 3.43298,0.65112 0.5051,0.0731 1.19291,-0.16169 1.67799,0 0.5905,0.19683 1.22365,0.54981 1.93281,0.65112 0.89111,0.1273 1.91557,-0.1952 2.79394,0 0.38032,0.0845 0.70316,0.35767 1.08519,0.43407 0.35471,0.0709 0.72839,-0.0595 1.0852,0 0.10092,0.0168 0.12552,0.17129 0.21704,0.21704 0.11748,0.0587 1.08009,0.17154 1.2621,0.21704 0.95327,0.23832 2.08528,-0.23832 3.03855,0 1.42801,0.35701 3.00289,0.21704 4.51159,0.21704 2.36196,0 4.72392,0 7.08588,0 0.21084,0 2.83526,0.15199 3.06003,0 0.45882,-0.31025 1.51077,-1.29179 2.13527,-1.50171 0.94061,-0.31617 -0.0956,0.42188 0.86272,-0.21703 0.43461,-0.28974 0.75428,-0.92029 1.07333,-1.20886 0.19097,-0.17273 1.07875,-0.72292 1.28694,-1.06992 0.11771,-0.19618 0.11473,-0.44649 0.21704,-0.65112 0.18666,-0.37331 0.98028,-1.24612 1.27717,-1.68652 0.33841,-0.50199 0.91643,-0.72054 1.32399,-1.12706 0.18446,-0.18399 -0.068,-0.53009 0,-0.78161 0.0944,-0.34921 0.51677,-0.5323 0.65111,-0.86815 0.0537,-0.13435 -0.0904,-0.3211 0,-0.43408 0.22597,-0.28247 0.63658,-0.37323 0.86816,-0.65112 0.61207,-0.73449 0.79233,-2.4169 1.31468,-3.2867 0.25035,-0.41686 1.70436,-2.45408 1.70436,-3.18183"
       id="path4004" />
    <path
       style="fill:none;stroke:#000000;stroke-width:1px;stroke-linecap:butt;stroke-linejoin:miter;stroke-opacity:1"
       d="m 510.99305,511.73512 c -0.21856,1.58547 0.50366,2.59434 1.0852,3.95126 0.057,0.133 -0.0719,0.30853 0,0.43408 0.85421,1.0678 0.89312,1.01622 1.52722,2.18035 0.91439,1.67872 0.2553,0.92676 1.11213,1.7836 0.0538,0.0538 1.45435,1.47771 1.69013,0.65112 0.26258,-0.92051 -0.0102,-1.91442 -0.0152,-2.87163"
       id="path4006" />
    <path
       style="fill:none;stroke:#000000;stroke-width:1px;stroke-linecap:butt;stroke-linejoin:miter;stroke-opacity:1"
       d="m 450.46827,497.89497 c 0.20793,0.3304 0.51148,0.61733 0.6238,0.99121 1.03885,3.45794 -0.20777,0.26338 0,1.30223 0.36104,1.80517 -0.1484,3.90659 0.43138,5.61531 0.10406,0.3067 -0.1627,0.88217 0,1.16366 0.13592,0.23518 0.29,0.36609 0.40812,0.60737 0.0825,0.1686 -0.066,0.38744 0,0.56319 0.20038,0.53354 0.79912,0.92238 1.2271,1.12994 0.0486,0.0236 1.27128,1.61276 0.8337,0.83369 -0.37554,-0.6686 -0.904,-1.23895 -1.356,-1.85843"
       id="path4012" />
    <path
       style="fill:none;stroke:#000000;stroke-width:1px;stroke-linecap:butt;stroke-linejoin:miter;stroke-opacity:1"
       d="m 521.8633,494.0872 c -0.23337,1.23797 0.45739,2.09419 0.65111,3.25651 0.11928,0.71565 -0.26649,1.72118 0,2.38743 0.0854,0.21345 0.58383,0.81603 0.65112,1.08519 0.0694,0.27742 -0.0709,0.58086 0,0.85789 0.2725,1.06421 0.95472,1.98574 1.30223,3.02827 0.33122,0.99365 0.27571,1.7158 0.86816,2.60447"
       id="path4014" />
    <path
       style="fill:none;stroke:#000000;stroke-width:1px;stroke-linecap:butt;stroke-linejoin:miter;stroke-opacity:1"
       d="m 437.99772,506.84086 c -0.5515,1.06101 -0.4509,2.38614 -0.86248,3.48368 -0.0916,0.24424 -0.36549,0.39945 -0.43408,0.65112 -0.0739,0.58489 -0.14775,1.16979 -0.22162,1.75468 -0.0739,0.0739 -0.18262,0.12472 -0.22164,0.22164 -0.11138,0.27671 -0.15854,0.57565 -0.21703,0.86815 -0.0142,0.0709 0.0638,0.2511 0,0.21704 -0.69221,-0.36931 -1.31974,-0.84881 -1.97961,-1.27322"
       id="path4016" />
    <path
       style="fill:none;stroke:#000000;stroke-width:1px;stroke-linecap:butt;stroke-linejoin:miter;stroke-opacity:1"
       d="m 469.09854,417.10498 c 0.63897,-1.06874 1.8196,-0.53711 2.6364,-0.94816 0.18279,-0.092 0.2654,-0.31823 0.43408,-0.43407 0.38312,-0.26313 1.52742,0.16288 1.85097,0.21704 0.3655,0.0612 0.9193,0.0365 1.24452,0.21703 1.05248,0.58433 -1.5572,-0.32063 0.86546,0.64843 1.17462,0.46985 -0.34242,-0.59001 0.86816,0.21704 0.65112,0.43408 -0.43408,0 0.65112,0.65112 0.56431,0.33859 1.35579,0.67291 1.93337,0.86544 1.69507,0.56502 9.04722,0.35561 10.62662,-0.43408 0.71672,-0.35836 1.33398,-0.66388 1.97376,-1.09541 0.36375,-0.24535 0.91154,-0.0962 1.44211,-0.62674"
       id="path4020" />
  </g>
</svg>
