<?xml version="1.0" encoding="UTF-8" standalone="no"?>
<!-- Created with Inkscape (http://www.inkscape.org/) -->

<svg
   version="1.1"
   id="svg2870"
   width="99.617477"
   height="117.93415"
   viewBox="0 0 99.617477 117.93415"
   sodipodi:docname="fluttersleeve-top.svg"
   inkscape:version="1.1.2 (0a00cf5339, 2022-02-04)"
   xmlns:inkscape="http://www.inkscape.org/namespaces/inkscape"
   xmlns:sodipodi="http://sodipodi.sourceforge.net/DTD/sodipodi-0.dtd"
   xmlns="http://www.w3.org/2000/svg"
   xmlns:svg="http://www.w3.org/2000/svg">
  <defs
     id="defs2874" />
  <sodipodi:namedview
     id="namedview2872"
     pagecolor="#ffffff"
     bordercolor="#666666"
     borderopacity="1.0"
     inkscape:pageshadow="2"
     inkscape:pageopacity="0.0"
     inkscape:pagecheckerboard="0"
     showgrid="false"
     inkscape:zoom="4.6074726"
     inkscape:cx="-18.231253"
     inkscape:cy="56.972667"
     inkscape:window-width="1860"
     inkscape:window-height="1009"
     inkscape:window-x="0"
     inkscape:window-y="0"
     inkscape:window-maximized="1"
     inkscape:current-layer="g2876"
     fit-margin-top="0"
     fit-margin-left="0"
     fit-margin-right="0"
     fit-margin-bottom="0" />
  <g
     inkscape:groupmode="layer"
     inkscape:label="Image"
     id="g2876"
     transform="translate(-423.59739,-423.6893)">
    <path
       style="fill:none;stroke:#000000;stroke-width:1px;stroke-linecap:butt;stroke-linejoin:miter;stroke-opacity:1"
       d="m 443.78495,470.06027 c 0,3.05135 0,6.10269 0,9.15404 0,0.58143 0.11403,1.17415 0,1.74429 -0.0764,0.38203 -0.34956,0.70487 -0.43408,1.08519 -0.19832,0.89248 0.12995,1.93378 0,2.83842 -0.0233,0.162 -0.18104,0.27966 -0.22127,0.4383 -0.25522,1.00619 0,2.44218 0,3.47262 0,1.04714 0.29698,3.4099 0,4.3009 -0.454,1.36207 0.13686,2.87663 -0.20678,4.25118 -0.51903,2.07613 -0.0876,4.23166 -0.42684,6.26695 -0.4698,2.8188 -0.73915,5.63288 -1.30223,8.44828 -0.16665,0.83322 -0.0765,1.76111 -0.21704,2.60447 -0.14499,0.86991 0,1.91206 0,2.79963 0,1.64968 0.12941,0.26287 -0.21704,1.30223 -0.30582,0.91745 0.0189,3.10918 -0.21704,4.28897 -0.0748,0.37391 -0.10843,2.69158 -0.21704,2.80019 -0.10895,0.10894 -0.30488,0.0974 -0.41342,0.20672 -0.21594,0.21753 -0.0842,1.68541 -0.21704,2.06902 -0.39083,1.12828 -0.82483,1.6773 -0.40206,2.90694 0.0438,0.12747 -0.0954,0.66147 0,0.73431 0.33044,0.25242 0.7214,0.41627 1.0603,0.65721 0.37755,0.26842 0.67086,0.66099 1.08519,0.86816 0.32995,0.16497 0.74613,0.0717 1.0852,0.21704 0.86897,0.37241 1.26594,1.41968 2.08101,1.88487 1.01022,0.57657 2.51912,0.56486 3.66919,0.85238 0.28074,0.0702 0.62737,-0.16052 0.86815,0 0.13461,0.0897 0.10265,0.31969 0.21704,0.43408 0.3095,0.30949 0.8781,-0.0487 1.31307,0 1.50442,0.16838 2.87231,0.66099 4.36803,0.87577 0.47036,0.0675 1.1749,-0.17679 1.63176,0 0.79005,0.30572 1.57362,0.38862 2.3513,0.63968 0.20605,0.0665 0.44489,-0.13304 0.64275,0 0.29146,0.19599 0.4212,0.6108 0.78798,0.83528 0.31753,0.19434 1.02056,-0.1165 1.37006,0 2.27303,0.75767 5.01209,0.18897 7.42816,0.66512 0.10035,0.0198 0.11999,0.18446 0.21697,0.21698 0.29446,0.0987 1.51597,0.19557 1.73229,0.21704 0.72661,0.0721 1.48831,-0.2001 2.19053,0 0.25086,0.0715 0.40365,0.35159 0.65111,0.43408 0.95177,0.31725 10.36206,0.77061 11.70821,0.43407 0.37797,-0.0945 0.70316,-0.35767 1.0852,-0.43407 0.3547,-0.0709 0.73048,0.0709 1.08519,0 1.06986,-0.21398 3.33685,-1.01005 4.34077,-1.30224 2.33921,-0.6808 5.08468,-1.09694 7.32118,-2.05626 0.28187,-0.47942 0.74268,-0.08 1.08519,-0.21704 0.67556,-0.27022 1.37897,-1.109 1.95335,-1.51927 0.77331,-0.55236 1.64227,-0.96068 2.39898,-1.52821 0.39693,-0.2977 2.05084,-1.84015 2.10129,-2.10127 0.0347,-0.17947 -0.93377,-1.03475 -1.05144,-1.26587 -0.0582,-0.11434 0.0603,-0.27165 0,-0.38491 -0.37206,-0.69916 -0.68939,-1.68729 -1.25921,-2.25711 -0.50591,-0.50591 0.0532,0.15458 -0.21494,-0.64483 -0.39163,-1.16733 -0.0735,1.15801 -0.42685,-0.63669 -0.23924,-1.21502 -0.47063,-2.41268 -0.64846,-3.6575 -0.21248,-1.48735 -1.6e-4,-3.04365 -0.21704,-4.53394 -0.0624,-0.42876 -0.15483,-0.85279 -0.21704,-1.28158 -0.0584,-0.40272 0.17732,-1.15394 0,-1.50859 -0.0723,-0.1447 -0.34382,-0.0828 -0.43408,-0.21704 -0.30325,-0.45107 0,-4.25678 0,-4.98101 0,-3.53837 -0.13405,-7.10459 0.21704,-10.61549 0.13883,-1.38833 0.0955,-2.54694 0.43408,-3.90124 0.43113,-1.72451 -0.23545,-4.55065 0,-6.42076 0.21862,-1.73649 0.31769,-3.51674 0.65617,-5.20917 0.17431,-0.87155 0,-1.91485 0,-2.80705 0,-2.00484 0,-4.00968 0,-6.01452 0,-1.21096 -0.29463,-5.78515 0,-6.66904 0.48207,-1.4462 0.92294,-3.09819 1.93157,-4.30448 0.17669,-0.21131 2.32536,-2.31321 2.4174,-2.63033 0.41183,-1.4191 0.25403,-6.07623 1.08431,-6.90439 0.17239,-0.17195 3.22885,-2.79052 3.23108,-2.79699 0.20928,-0.60969 0.92689,-2.37554 1.49103,-2.73759 0.14776,-0.0948 1.58463,1.49324 1.79449,1.7031 0.92566,0.92568 1.63348,2.23442 2.68127,2.90644 0.23988,0.15385 1.63507,0 1.80334,0 0.14118,0 0.30608,0.0783 0.42356,0 0.18877,-0.12585 1.72452,-1.96783 1.81174,-2.22635 0.18249,-0.54098 0,-1.5052 0,-2.07488 0,-0.77629 -0.48939,-1.57583 -0.65112,-2.35465 -0.21484,-1.03455 -0.48197,-2.71869 -1.2471,-3.48383 -0.60818,-0.60818 -0.77884,-0.67322 -1.26421,-1.48037 -0.6006,-0.99876 -1.27124,-2.00964 -1.92969,-2.99523 -0.21531,-0.32228 -0.19883,-0.7697 -0.43138,-1.07977 -0.0971,-0.12942 -0.31968,-0.10265 -0.43407,-0.21704 -0.50491,-0.5049 -0.97227,-1.2926 -1.27831,-1.89095 -0.24917,-0.48716 -0.94202,-0.74073 -1.23274,-1.05262 -0.17975,-0.19283 -0.1476,-0.5148 -0.42547,-0.63388 -0.57991,-0.24854 -1.20721,-0.3894 -1.69964,-0.65112 -0.17206,-0.0915 -0.24129,-0.32186 -0.41333,-0.41334 -0.11922,-0.0634 -0.5288,-0.13517 -0.60791,-0.21428 -0.13483,-0.13483 -0.17718,-0.5523 -0.42478,-0.63457 -0.44762,-0.14873 -1.05224,-0.10223 -1.51444,-0.21704 -0.53477,-0.13284 -1.00101,-0.69336 -1.49167,-0.85298 -0.1345,-0.0437 -0.29035,0.0453 -0.42433,0 -0.23288,-0.0788 -0.3271,-0.52495 -0.43407,-0.65111 -0.10711,-0.12631 -0.30693,0.16169 -0.31788,0.16683 -1.27749,0.59954 -1.24133,0.96381 -2.07072,2.05418 -0.13991,0.18394 -0.94692,0.74526 -1.01413,1.01413 -0.49626,1.98504 0.59173,-0.71971 -0.21704,1.30223 -0.15758,0.39394 -0.52014,0.68907 -0.65518,1.0913 -0.21354,0.63598 -0.0728,1.51783 -0.21704,2.16699 -0.0845,0.38032 -0.31064,0.71567 -0.43408,1.08519 -0.15958,0.47771 0.12252,1.02245 0,1.51097 -0.0498,0.19848 -0.35381,0.24585 -0.43408,0.43408 -0.29109,0.68258 -0.72193,2.37337 -0.87728,3.07047 -0.26279,1.17923 0,2.70311 0,3.90123 0,2.89199 0,5.78399 0,8.67598 0,2.20089 -0.33672,6.38151 0,8.39077 0.22247,1.32748 0.75623,2.59636 1.08244,3.9012 0.13804,0.55215 0.50838,0.61149 0.86533,1.07953 0.10293,0.13496 -0.0631,0.69762 0,0.82291 0.30048,0.59663 0.63755,0.39493 0.63755,1.05156"
       id="path2993" />
    <path
       style="fill:none;stroke:#000000;stroke-width:1px;stroke-linecap:butt;stroke-linejoin:miter;stroke-opacity:1"
       d="m 440.50701,431.0576 c -1.96644,1.0317 -3.41584,3.36316 -5.16119,4.53336 -0.39428,0.26435 -0.95866,0.53183 -1.28775,0.86092 -0.65497,0.65497 -0.90357,0.965 -1.73091,1.51656 -0.64103,0.42736 -0.88339,1.25742 -1.51139,1.72842 -1.20924,0.90693 -2.33311,1.9021 -3.18714,3.18716 -0.40597,0.61087 -1.29111,0.85754 -1.72414,1.5071 -0.63825,0.95739 -1.23613,1.80228 -1.75452,2.78243 -0.23221,0.43904 0.3641,4.50349 0.65111,5.06031 0.3446,0.66853 0.96863,1.29051 1.29788,1.94899 0.29537,0.59075 2.43153,0.62586 2.86152,0.1974 0.10451,-0.10414 0.0912,-0.29405 0.19795,-0.3959 0.0886,-0.0845 0.49834,-0.15174 0.62714,-0.21703 1.18913,-0.60283 1.88617,-1.0617 3.19058,-0.62506 0.30102,0.10076 0.73806,0.0953 0.93758,0.39635 0.3792,0.57209 0.0469,0.78648 0.21094,1.42615 0.0571,0.22257 0.57549,0.9237 0.64091,1.05453 0.0971,0.19413 -0.0526,0.44056 0,0.65112 0.1725,0.69 0.473,1.54267 0.86087,2.13131 0.61745,0.93707 1.50653,1.28143 2.25519,2.03009 0.41048,0.41048 0.73555,0.95259 1.16076,1.37779 0.24475,0.24476 0.55047,0.24621 0.78149,0.58545 0.11224,0.16483 0.0378,0.4301 0.17916,0.57078 0.27412,0.27287 0.47345,0.0933 0.64586,0.43145 0.16943,0.33232 0.45118,0.76628 0.59221,1.15775 0.0462,0.12832 -0.0668,0.36034 0,0.47804 0.13785,0.24308 0.52959,0.56124 0.61606,0.82065 0.14206,0.42616 -0.19884,1.09141 0,1.48909 0.0915,0.18303 0.34257,0.25106 0.43408,0.43408 0.92811,1.85622 -1.07216,-0.15705 1.49369,1.88338"
       id="path2995" />
    <path
       style="fill:none;stroke:#000000;stroke-width:1px;stroke-linecap:butt;stroke-linejoin:miter;stroke-opacity:1"
       d="m 440.50701,431.0576 c 0.86176,0.77835 1.75773,1.52042 2.58528,2.33505 0.53916,0.53074 1.69743,5.05274 1.94307,6.02917 0.21406,0.8509 0.3253,0.70201 0.65112,1.51656 0.43407,1.08519 -0.21704,0 0,0.65111 0.32476,0.9743 0.61638,2.04357 0.86815,3.03855 0.18846,0.74477 -0.18634,1.6316 0,2.37698 0.4195,1.67798 0.21704,3.62652 0.21704,5.39065 0,2.61245 0,5.2249 0,7.83736 0,1.41078 0.27514,3.18212 0,4.55781 -0.0952,0.47589 -0.49765,0.84182 -0.65112,1.30223 -0.10153,0.30461 0.14292,0.79937 0,1.0852 -0.43517,0.87034 -0.79098,1.29306 -1.07988,2.15975 -0.27421,0.82263 -0.83266,1.72206 -0.87426,1.67118 -0.21581,-0.2639 -0.25431,-0.63262 -0.38146,-0.94893"
       id="path2997" />
    <path
       style="fill:none;stroke:#000000;stroke-width:1px;stroke-linecap:butt;stroke-linejoin:miter;stroke-opacity:1"
       d="m 440.50701,431.0576 c 1.22432,0.3122 2.42367,0.74768 3.67297,0.93661 0.0474,0.007 4.98385,-1.32979 5.42596,-1.51927 1.7198,-0.73705 3.48441,-1.36631 4.9919,-2.38742 0.17401,-0.11788 0.443,0.0949 0.63054,0 2.36815,-1.19829 -1.18754,0.17116 0.86815,-0.65112 0.34251,-0.137 0.74269,-0.08 1.0852,-0.21704 0.24219,-0.0969 0.40909,-0.33679 0.65111,-0.43408 0.36365,-0.14617 0.93168,0.0247 1.25732,-0.19879 1.18692,-0.81462 -1.16336,-0.13415 0.86815,-0.65112 1.14677,-0.29183 2.42282,0.18351 3.36082,0.6387 0.5313,0.25784 5.76738,0 6.48028,0 0.78912,0 4.99414,0.30732 5.60876,0 0.14469,-0.0723 0.10472,-0.31765 0.21704,-0.43407 0.25035,-0.25949 0.89381,-0.11895 1.21434,-0.20176 0.52615,-0.13592 0.97401,-0.51143 1.51927,-0.65111 0.85921,-0.22011 1.79446,-0.0486 2.56388,-0.42646 0.66903,-0.32853 2.06756,0.0406 2.69139,-0.20893 0.24219,-0.0969 0.41836,-0.31631 0.65111,-0.43407 0.11991,-0.0607 3.22547,-0.006 3.23635,0 0.0874,0.0507 0.11851,0.18241 0.21438,0.21437 0.35416,0.11808 0.92539,-0.16562 1.25665,0 0.39884,0.19942 0.38074,0.0438 0.8416,0.19867 0.097,0.0326 0.1447,0.14469 0.21704,0.21704 0.13988,0.0699 0.27132,0.16025 0.41964,0.20982 0.1316,0.044 0.29268,-0.0631 0.41626,0 0.63663,0.32499 1.49332,1.22611 2.10512,1.46248 0.12508,0.0483 0.28528,-0.0655 0.40226,0 0.9782,0.54812 1.53493,1.51823 2.4633,2.0407 0.69623,0.39181 1.80509,0.36942 2.50089,0.83889 0.21623,0.1459 0.2104,0.51692 0.43408,0.65112 0.18611,0.11167 0.43829,-0.0426 0.65111,0 0.43614,0.0872 0.82589,0.50896 1.19732,0.62733 0.31955,0.10184 0.74522,-0.0821 1.07074,0 1.40833,0.35503 3.82031,-0.16868 4.91087,0.21704 0.60467,0.21386 1.28496,0.16805 1.99397,0.16805"
       id="path3003" />
    <path
       style="fill:none;stroke:#000000;stroke-width:1px;stroke-linecap:butt;stroke-linejoin:miter;stroke-opacity:1"
       d="m 458.03501,428.11055 c 0.96694,1.66677 2.01278,3.49339 2.47545,5.33244 0.43795,1.7408 -0.008,-0.45672 0.43408,0.64839 0.0502,0.12555 0.098,1.06416 0.21703,1.30223 0.13023,0.26045 0.5209,0.39067 0.65112,0.65112 0.1224,0.24479 0.12167,0.79909 0.21704,1.08519 0.0819,0.2457 0.36779,0.3957 0.43005,0.6471 0.12891,0.5205 0.0454,1.21625 0.21704,1.7268 0.0652,0.19396 0.36915,0.24002 0.43408,0.43408 0.39611,1.184 1.50149,3.70612 1.50149,4.8775 0,0.20805 0.29226,2.15035 0.39783,2.25361 0.11291,0.11044 0.31243,0.0999 0.42379,0.2119 0.1624,0.16334 -0.11284,0.7087 0,0.92446 0.16179,0.30935 0.45863,0.50513 0.61304,0.80625 0.10998,0.21448 -0.10794,0.59516 0,0.81105 0.1182,0.2364 0.5486,0.38148 0.6306,0.63059 0.10639,0.32321 0.0673,0.78573 0.21704,1.0852 0.20993,0.41985 0.5069,0.65169 0.64842,1.07982 0.36198,1.09501 0.65035,1.26239 1.07499,2.13261 0.0317,0.065 0,0.14469 0,0.21704 0,0.14469 -0.0638,0.30422 0,0.43408 0.16826,0.34232 0.64485,0.50731 0.83638,0.83639 0.15394,0.26447 0.24607,0.71444 0.43408,0.99953 0.36196,0.54886 0.99534,0.93026 1.37326,1.47208 0.19919,0.28557 0.79891,0.89042 1.12144,0.73917 0.18013,-0.0845 1.48703,-2.12608 1.73582,-2.48592 0.50551,-0.73111 1.21794,-1.37594 1.69506,-2.11806 0.59673,-0.92816 0.9627,-1.98509 1.45974,-2.9338 0.096,-0.18333 -0.0639,-0.42402 0,-0.62089 0.20881,-0.64375 0.0606,-1.56351 0.2059,-1.93916 0.17482,-0.452 0.46623,-1.51511 0.62694,-1.81423 0.15833,-0.29469 0.49865,-0.57127 0.65111,-0.86815 0.0939,-0.18289 -0.0935,-0.43366 0,-0.61679 0.17095,-0.33495 0.66713,-0.50343 0.83825,-0.83825 0.20084,-0.39297 0.42058,-1.40355 0.64906,-1.81715 0.12634,-0.22871 0.55907,-0.39341 0.63972,-0.63973 0.045,-0.13751 -0.0457,-0.29681 0,-0.43408 0.1605,-0.48148 0.84155,-0.82608 1.07795,-1.28773 0.26265,-0.5129 -0.61811,0.19468 0.20679,-0.62037 0.37694,-0.37244 1.32948,-0.95797 1.51524,-1.51523 0.41518,-1.24548 1.08975,-1.7892 1.69923,-2.97602 0.15324,-0.29838 0.0935,-0.94486 0.20032,-1.2653 0.17723,-0.53168 0.54294,-0.60753 0.84605,-1.05285 0.0926,-0.136 -0.0474,-0.336 0,-0.49354 0.1357,-0.45105 0.44564,-0.48044 0.62882,-0.83956 0.1895,-0.37152 -0.13116,-1.04657 0,-1.44005 0.0708,-0.21252 0.31874,-0.4226 0.42167,-0.62628 0.11899,-0.23549 -0.0968,-0.64637 0,-0.89181 0.1647,-0.41757 0.30901,-0.83374 0.43407,-1.20892 0.0815,-0.2445 -0.09,-0.597 0,-0.84062 0.064,-0.1733 0.74009,-1.63028 0.83925,-1.81615 0.22143,-0.41504 0.8439,-0.41711 1.27697,-0.60079"
       id="path3005" />
    <path
       style="fill:none;stroke:#000000;stroke-width:1px;stroke-linecap:butt;stroke-linejoin:miter;stroke-opacity:1"
       d="m 458.03501,428.11055 c -0.78837,1.04468 -1.79637,1.9553 -2.3651,3.13404 -0.11511,0.23858 2.56926,3.40355 2.99218,4.18946 0.6309,1.17238 -1.02161,4.11975 -0.64407,5.21956 0.11901,0.34667 0.0809,0.73764 0.21704,1.07796 0.19706,0.49264 1.09492,0.8674 1.24623,1.17113 0.21173,0.42503 0.18378,0.74211 0.59563,1.00922 0.34702,0.22506 0.83177,0.44841 1.05285,0.83978 0.0938,0.16601 -0.0471,0.38726 0,0.57202 -0.12428,0.38567 0.34759,0.39874 0.43006,0.64308 0.27022,0.80053 -0.11619,0.14914 0,0.60909 0.13026,0.51562 0.29557,0.68649 0.42567,1.07679 0.47708,1.43124 -0.3776,3.756 0,5.26638 0.0241,0.0964 2.871,2.72359 3.27867,3.26932 0.67713,0.90647 1.19003,2.69855 1.45831,3.77167 0.13926,0.55707 0.50115,0.71382 0.80731,1.03894 0.33994,0.36099 0.49112,0.82957 0.6438,1.28763 0.19862,0.59584 1.25882,1.05745 1.6116,1.46584 0.23254,0.26919 0.44976,0.90521 0.84434,1.04463 0.12075,0.0427 0.26155,-0.0368 0.3842,0 0.53721,0.16131 0.89291,1.12885 1.49126,0.98315 0.8139,-0.19817 0.87225,-1.01225 1.09237,-1.58604 0.12882,-0.33579 0.64942,-0.51393 0.83093,-0.83094 0.15797,-0.27588 0.26643,-0.80473 0.37544,-1.12659 0.1787,-0.52768 0.76236,-1.23578 1.06982,-1.70558 0.3269,-0.4995 2.65951,-2.47006 3.11812,-2.6993 0.0594,-0.0297 0.13287,0 0.1993,0 0.13788,-0.0689 0.29067,-0.11385 0.41364,-0.20681 0.50056,-0.37844 0.62732,-1.04566 1.16278,-1.37983 0.29005,-0.18101 0.63125,-0.30618 0.8226,-0.62024 0.19763,-0.32436 -0.0784,-1.1822 0,-1.57441 0.13906,-0.69533 0.008,-2.6665 0.21704,-3.01711 0.37072,-0.62223 0.49191,-1.4026 0.84563,-2.08066 0.35823,-0.6867 0.97041,-1.55615 1.61653,-2.0392 0.28084,-0.20997 0.70436,-0.30864 0.8414,-0.63141 0.26659,-0.62788 0.83939,-0.97593 1.26705,-1.55361 0.41392,-0.55912 0.64391,-0.93036 1.0601,-1.48528 0.29094,-0.38792 0.13233,-0.66219 0.42005,-1.04312 0.12036,-0.15936 0.3352,-0.24458 0.42364,-0.42363 0.19377,-0.39232 0.14748,-2.07441 0.21704,-2.38743 0.46474,-2.09136 1.00263,-4.00493 1.72742,-6.04054 0.0888,-0.24941 -0.0666,-0.538 0,-0.79425 0.0659,-0.25378 0.51752,-0.5992 0.64091,-0.84773 0.13948,-0.28093 0.006,-0.56002 0.19613,-0.93068 0.19842,-0.38681 0.55614,-0.50766 0.81926,-0.76995 0.7112,-0.70898 0.64244,-1.98945 0.64244,-3.01087 0,-0.11766 0.0269,-0.63941 0,-0.65976 -0.77208,-0.58356 -1.66227,-0.99168 -2.49341,-1.48752"
       id="path3007" />
    <path
       style="fill:none;stroke:#000000;stroke-width:1px;stroke-linecap:butt;stroke-linejoin:miter;stroke-opacity:1"
       d="m 432.25375,441.11756 c -0.76513,0.94469 -1.26598,1.98989 -1.92899,2.98985 -0.31605,0.47667 -0.8103,0.55505 -1.03756,1.23354 -0.36858,1.10044 -0.21704,2.43547 -0.21704,3.62069"
       id="path3009" />
    <path
       style="fill:none;stroke:#000000;stroke-width:1px;stroke-linecap:butt;stroke-linejoin:miter;stroke-opacity:1"
       d="m 439.83502,444.86149 c -0.24679,0.72413 -1.91756,3.54859 -1.91756,4.11842"
       id="path3011" />
    <path
       style="fill:none;stroke:#000000;stroke-width:1px;stroke-linecap:butt;stroke-linejoin:miter;stroke-opacity:1"
       d="m 505.93689,443.28141 c 0.61058,2.03845 -0.0755,5.46514 1.47325,7.01393"
       id="path3017" />
    <path
       style="fill:none;stroke:#000000;stroke-width:1px;stroke-linecap:butt;stroke-linejoin:miter;stroke-opacity:1"
       d="m 502.25544,451.98662 c -0.42486,1.18192 -0.70216,2.19914 0.26048,3.16178"
       id="path3019" />
    <path
       style="fill:none;stroke:#000000;stroke-width:1px;stroke-linecap:butt;stroke-linejoin:miter;stroke-opacity:1"
       d="m 513.20925,440.81994 c 0.40979,1.01683 1.22554,1.25894 1.776,2.08792 0.12655,0.19059 0.0935,0.45857 0.21703,0.65112 0.009,0.0137 0.82065,0.40801 0.83547,0.41772 0.36906,0.24185 0.49176,0.66555 0.80687,0.98066"
       id="path3021" />
    <path
       style="fill:none;stroke:#000000;stroke-width:1px;stroke-linecap:butt;stroke-linejoin:miter;stroke-opacity:1"
       d="m 443.42384,449.12928 c -0.0425,1.88843 -0.32293,3.41935 1.08248,4.82476"
       id="path3023" />
  </g>
</svg>
