<?xml version="1.0" encoding="UTF-8" standalone="no"?>
<!-- Created with Inkscape (http://www.inkscape.org/) -->

<svg
   version="1.1"
   id="svg3416"
   width="68.734398"
   height="124.69321"
   viewBox="0 0 68.734398 124.69321"
   sodipodi:docname="halter-top.svg"
   inkscape:version="1.1.2 (0a00cf5339, 2022-02-04)"
   xmlns:inkscape="http://www.inkscape.org/namespaces/inkscape"
   xmlns:sodipodi="http://sodipodi.sourceforge.net/DTD/sodipodi-0.dtd"
   xmlns="http://www.w3.org/2000/svg"
   xmlns:svg="http://www.w3.org/2000/svg">
  <defs
     id="defs3420" />
  <sodipodi:namedview
     id="namedview3418"
     pagecolor="#ffffff"
     bordercolor="#666666"
     borderopacity="1.0"
     inkscape:pageshadow="2"
     inkscape:pageopacity="0.0"
     inkscape:pagecheckerboard="0"
     showgrid="false"
     inkscape:zoom="4.6074726"
     inkscape:cx="-39.501049"
     inkscape:cy="64.786061"
     inkscape:window-width="1860"
     inkscape:window-height="1009"
     inkscape:window-x="0"
     inkscape:window-y="0"
     inkscape:window-maximized="1"
     inkscape:current-layer="g3422"
     fit-margin-top="0"
     fit-margin-left="0"
     fit-margin-right="0"
     fit-margin-bottom="0" />
  <g
     inkscape:groupmode="layer"
     inkscape:label="Image"
     id="g3422"
     transform="translate(-444.83196,-415.80845)">
    <path
       style="fill:none;stroke:#000000;stroke-width:1px;stroke-linecap:butt;stroke-linejoin:miter;stroke-opacity:1"
       d="m 449.06059,466.35724 c -3.72936,69.14388 -3.72936,69.14388 -3.72936,69.14388"
       id="path3539" />
    <path
       style="fill:none;stroke:#000000;stroke-width:1px;stroke-linecap:butt;stroke-linejoin:miter;stroke-opacity:1"
       d="m 508.2473,467.58842 c 4.82031,67.96277 4.82031,67.96277 4.82031,67.96277"
       id="path3541" />
    <path
       style="fill:none;stroke:#000000;stroke-width:1px;stroke-linecap:butt;stroke-linejoin:miter;stroke-opacity:1"
       d="m 445.33123,535.50112 c 5.56491,0.15074 -3.3257,-0.21409 6.32126,0.99926 19.48594,2.45085 -11.32893,-2.66897 14.4706,1.39053 0.31961,0.0503 0.56775,0.31392 0.86816,0.43408 0.74979,0.29992 1.6125,-0.24791 2.38742,0.21704 0.852,0.5112 1.06709,0.68427 2.17039,0.86815 1.31383,0.21898 2.79501,-0.096 4.12373,0 0.96496,-0.92594 1.30443,0.35444 1.97285,0.43799 2.04267,0.25533 4.36708,0 6.4302,0 2.73782,0 5.76501,0.34103 8.49323,0 1.52789,-0.19099 2.94247,-1.09868 4.44684,-1.35047 0.44005,-0.0737 0.89449,0.0437 1.33852,0 1.01207,-0.0997 2.04017,-0.46882 3.04331,-0.65254 0.56319,-0.10315 2.23018,-0.12429 2.87342,-0.44591 0.18302,-0.0915 0.24408,-0.35808 0.43408,-0.43408 0.20151,-0.0806 0.43407,0 0.65111,0 0.21704,-0.0723 0.44649,-0.11472 0.65112,-0.21704 0.94716,-0.47358 0.54912,-0.184 1.30223,-0.43407 0.76822,-0.25509 1.53951,-1.05336 2.15107,-1.51203 0.54007,-0.40505 1.25855,-0.60743 1.73631,-1.08519 0.10348,-0.10348 0.28244,-0.10944 0.38162,-0.21704 0.0986,-0.10694 0.1097,-0.50796 0.19513,-0.39026 0.54104,0.74543 0.86252,1.62777 1.29378,2.44165"
       id="path3576" />
    <path
       style="fill:none;stroke:#000000;stroke-width:1px;stroke-linecap:butt;stroke-linejoin:miter;stroke-opacity:1"
       d="m 449.06059,466.35724 c 0.29164,-0.27399 0.53604,-0.60918 0.87493,-0.82198 0.12253,-0.0769 0.29651,0.0448 0.43407,0 0.49865,-0.16258 0.87619,-0.57671 1.31326,-0.86662 0.34351,-0.22786 0.53145,-0.64578 0.87443,-0.87443 0.67078,-0.44719 1.47721,-0.57556 2.13405,-1.07217 0.32134,-0.24295 0.53402,-0.64493 0.86816,-0.86816 0.18785,-0.1255 0.46237,-0.0786 0.64297,-0.21431 0.806,-0.60577 1.3927,-1.52187 2.16768,-2.16769 0.33132,-0.2761 1.00126,-0.35962 1.28663,-0.64846 0.17998,-0.18218 0.2427,-0.45974 0.42378,-0.64082 0.13955,-0.13954 0.72862,-0.51158 0.86816,-0.65112 0.46421,-0.46421 0.7045,-1.43744 1.30223,-1.73631 0.20463,-0.10231 0.46809,-0.0798 0.65112,-0.21704 0.12941,-0.0971 0.10265,-0.31969 0.21704,-0.43407 0.11439,-0.11439 0.31968,-0.10265 0.43407,-0.21704 0.8484,-0.8484 1.52838,-1.96464 2.38347,-2.81973 0.44513,-0.44513 1.1127,-0.75651 1.52361,-1.30439 1.12924,-1.50564 2.34252,-2.95995 3.25559,-4.55782 0.14493,-0.25364 0.52071,-0.39031 0.65111,-0.65111 0.20463,-0.40926 0.22945,-0.89298 0.43408,-1.30224 0.14776,-0.29552 0.50123,-0.57337 0.65112,-0.86815 0.54532,-1.07246 0.21703,-4.09872 0.21703,-5.35748"
       id="path3578" />
    <path
       style="fill:none;stroke:#000000;stroke-width:1px;stroke-linecap:butt;stroke-linejoin:miter;stroke-opacity:1"
       d="m 487.9564,436.76067 c 0.38763,2.43071 -0.47808,5.38721 0,7.77759 0.0742,0.37074 0.43431,1.43279 0.65112,1.73631 0.87979,1.23171 0.72574,0.40362 1.08519,1.30223 0.37094,0.92735 0.23114,0.72163 0.43408,1.73631 0.0602,0.30098 0.46695,0.40557 0.65111,0.65112 0.29119,0.38825 0.38192,0.89843 0.65112,1.30223 0.41145,0.61718 1.22397,1.22397 1.73631,1.73631 0.66863,0.66863 1.35967,1.87856 1.95335,2.38743 0.73588,0.63076 1.63883,1.11248 2.38742,1.73631 0.88326,0.73604 1.67444,1.72311 2.60447,2.38742 0.18616,0.13298 0.47536,0.0706 0.65111,0.21704 0.27789,0.23158 0.37323,0.63658 0.65112,0.86816 0.17575,0.14646 0.46076,0.0901 0.65112,0.21704 0.67544,0.45029 1.19296,1.19296 1.73631,1.73631 0.29662,0.29662 0.89255,0.57698 1.20182,0.78897 0.25033,0.1716 0.3559,0.54785 0.64383,0.64383 0.13726,0.0457 0.31,-0.0745 0.43408,0 0.35093,0.21056 0.50498,0.67949 0.86815,0.86815 0.0732,0.038 2.15777,0.96551 2.02157,1.43334 -0.13871,0.47644 -0.48159,0.86777 -0.72238,1.30165"
       id="path3580" />
    <path
       style="fill:none;stroke:#000000;stroke-width:1px;stroke-linecap:butt;stroke-linejoin:miter;stroke-opacity:1"
       d="m 472.66918,438.0661 c -0.63205,-1.52677 -1.41507,-3.40405 -2.94974,-4.26278 -0.2047,-0.11453 -0.23073,0.23723 -0.3723,-0.20464 -0.12113,-0.37808 0.18797,-0.44371 -0.21704,-0.65111 -0.51396,-0.26321 -0.25982,0.14721 -1.22008,-0.42381 -0.33549,-0.1995 -0.51776,-0.67366 -0.86008,-0.86008 -0.1,-0.0544 -0.26462,0.084 -0.3415,0 -0.37431,-0.40867 -0.76299,-1.02528 -1.29388,-1.29396 -0.3347,-0.16939 -0.64448,-0.28956 -1.00053,-0.42057 -0.25496,-0.0938 -0.28727,-0.50006 -0.43138,-0.64841 -0.16832,-0.17327 -0.96344,-0.48349 -1.10775,-0.7674 -0.62554,-1.23067 -0.37599,-4.30544 0.44132,-5.38938 0.67135,-0.89036 1.50255,-1.71411 2.27266,-2.48422 0.12986,1.40447 0.92924,2.09664 1.54567,3.20057 0.0563,0.10088 0.11906,0.50043 0.18485,0.56539 0.86952,0.85852 0.54048,0.2097 1.05916,1.25747 0.24621,0.49735 0.94539,0.78874 1.25353,1.25352 0.18147,0.27373 0.30635,0.67566 0.63029,0.84733 0.27501,0.14574 0.988,0.59692 1.252,0.86092 0.38502,0.38502 1.32624,1.35619 1.61699,1.83403 0.19124,0.31429 0.0708,0.63649 0.41696,0.81682 0.7592,0.39553 1.99227,0.77712 2.4144,1.62137 0.78583,-0.56411 2.13471,-1.00783 2.89385,-0.24869 0.23133,0.23133 0.27842,0.63098 0.61029,0.80652 0.0947,0.0501 0.22846,-0.0533 0.32141,0 0.80832,0.46341 1.60779,1.42206 2.02647,2.20189 0.37428,0.69711 0.63913,4.21668 0.37033,5.02308 -0.24638,0.73916 -0.4962,1.40416 -0.84667,2.10495 -0.23503,0.46998 0.0911,1.95635 -0.21703,2.26131 -0.52626,0.52082 -0.85686,0.81171 -1.2807,1.4527 -0.15376,0.23254 -0.0654,0.99338 -0.21704,1.29675 -0.44952,0.89904 -0.82078,1.98251 -1.08243,3.01924 -0.0877,0.34746 0.11687,0.72919 0,1.0798 -0.0825,0.24746 -0.31743,0.41781 -0.43408,0.65112 -0.37813,0.75625 -0.067,1.87033 -0.43408,2.60446 -0.16177,0.32354 -0.48934,0.54461 -0.65112,0.86816 -0.13286,0.26572 0.0942,0.8026 0,1.08519 -0.10231,0.30694 -0.34519,0.55706 -0.43407,0.86815 -0.16024,0.56084 -0.0905,1.16693 -0.21704,1.73631 -0.50396,2.2678 -1.02254,4.46234 -1.31165,6.75176 -0.15691,1.24253 -0.48002,2.48292 -0.65561,3.71208 -0.0647,0.45296 -0.35886,0.8509 -0.43408,1.30224 -0.0983,0.59012 -0.0302,1.39292 -0.21704,1.95334 -0.0825,0.24747 -0.3372,0.40893 -0.43407,0.65112 -0.0485,0.12115 -0.43408,1.97601 -0.43408,2.17039"
       id="path3582" />
    <path
       style="fill:none;stroke:#000000;stroke-width:1px;stroke-linecap:butt;stroke-linejoin:miter;stroke-opacity:1"
       d="m 475.96273,432.91716 c -0.17074,0.32491 -0.40192,0.62465 -0.51221,0.97472 -0.17267,0.5481 0,1.37279 0,1.95335 0,1.87713 0,3.75426 0,5.63139 0,0.80761 0.15662,1.82137 0,2.60446 -0.28889,1.44447 -0.87664,2.87552 -1.08519,4.33534 -0.0614,0.42972 0.16172,0.89941 0,1.30224 -0.0981,0.2443 -0.37397,0.4018 -0.43809,0.65713 -0.52818,0.36972 0.10544,0.88247 0,1.30423 -0.24434,0.97735 -0.94501,1.81882 -1.08947,2.83006 -0.0614,0.42972 0.0851,0.87659 0,1.30223 -0.18965,0.94822 -0.29817,0.46041 -0.65112,1.51927 -0.11439,0.34317 0.0595,0.72839 0,1.0852 -0.0752,0.45133 -0.34434,0.85356 -0.43408,1.30223 -0.16025,0.80124 -0.17789,1.83591 -0.43408,2.60447 -0.10231,0.30693 -0.3556,0.55427 -0.43407,0.86815 -0.11949,0.47796 -0.0975,1.47539 -0.21704,1.95335 -0.27235,1.08941 -0.59824,1.86733 -1.0852,2.84123 -0.31933,0.63867 -0.31821,1.28754 -0.64844,1.948"
       id="path3584" />
    <path
       style="fill:none;stroke:#000000;stroke-width:1px;stroke-linecap:butt;stroke-linejoin:miter;stroke-opacity:1"
       d="m 481.62423,433.82609 c 1.37237,0.37371 1.27848,-1.0112 2.2154,-1.50096 0.10886,-0.0569 0.26874,0.0716 0.36852,0 1.10133,-0.79092 1.97275,-2.01545 2.52635,-3.12238 0.17271,-0.34534 0.66536,-0.62467 0.79912,-0.99749 0.0664,-0.18495 -0.0883,-0.41396 0,-0.58949 0.046,-0.0914 0.14469,-0.14469 0.21704,-0.21704 0.0667,-0.13331 0.14452,-0.26158 0.19996,-0.39992 0.10423,-0.26008 -0.10882,-0.64883 0,-0.90675 0.0624,-0.14796 0.39734,-0.22293 0.45443,-0.2849 0.27915,-0.303 0.26009,-0.94278 0.43408,-1.28787 0.26052,-0.51674 0.84421,-0.85527 1.02595,-1.40048 0.0458,-0.13727 -0.0458,-0.29681 0,-0.43408 0.0939,-0.28165 0.47978,-0.61116 0.65112,-0.86815 0.32396,-0.48595 0.20322,-1.06309 0.63997,-1.49984"
       id="path3586" />
    <path
       style="fill:none;stroke:#000000;stroke-width:1px;stroke-linecap:butt;stroke-linejoin:miter;stroke-opacity:1"
       d="m 487.9564,436.76067 c -0.67354,-0.12551 -1.35395,-0.21857 -2.02063,-0.37652 -0.13991,-0.0331 0.29501,0.0457 0.43136,0 0.24736,-0.0828 0.43408,-0.28938 0.65112,-0.43407 0.81689,-0.54459 1.56997,-0.74393 2.34532,-1.51927 0.59994,-0.59993 1.38393,-1.21362 1.89104,-1.88399 0.32766,-0.43315 0.57089,-1.23561 0.86815,-1.73106 0.21056,-0.35093 0.63191,-0.53398 0.86816,-0.86815 0.33537,-0.47437 0.55592,-1.29494 0.81646,-1.81601 0.10933,-0.21864 0.52381,-0.36167 0.59373,-0.59372 0.0916,-0.30404 0.0742,-1.60058 0,-1.89418 -0.0632,-0.25004 -0.34724,-0.39891 -0.43009,-0.64314 -0.23165,-0.68297 -0.45837,-1.57151 -0.79703,-2.18761 -0.70983,-1.29135 -1.47381,-0.85468 -2.01782,-2.49621"
       id="path3592" />
    <path
       style="fill:none;stroke:#000000;stroke-width:1px;stroke-linecap:butt;stroke-linejoin:miter;stroke-opacity:1"
       d="m 465.58888,420.65974 c 2.28057,-0.43307 3.71338,-1.30217 5.48659,-2.48431 0.37005,-0.24671 1.89775,-0.70585 2.37639,-0.8654 0.20506,-0.0684 0.45536,0.0971 0.64845,0 0.33094,-0.16649 0.86789,-0.76369 1.23091,-0.8507 1.37065,-0.32856 5.69768,0 7.40437,0 0.11136,0 1.37535,-0.13875 1.5141,0 0.11166,0.11166 0.0854,0.3292 0.21186,0.42373 0.22929,0.17133 2.20768,0.44833 2.81605,0.65111 0.66282,0.22094 1.68321,0.3904 2.15698,0.86417 0.11439,0.11439 0.10265,0.31969 0.21704,0.43408 0.27797,0.27797 1.05694,0.31143 1.30223,0.43408 0.18302,0.0915 0.26382,0.32057 0.43408,0.43407 0.5302,0.35347 1.76793,1.10689 1.08519,1.0852 -0.46576,-0.0148 -0.87797,-0.31269 -1.31695,-0.46903"
       id="path3594" />
    <path
       style="fill:none;stroke:#000000;stroke-width:1px;stroke-linecap:butt;stroke-linejoin:miter;stroke-opacity:1"
       d="m 470.09349,427.52525 c 1.02753,-1.18028 2.64082,-1.42282 3.88308,-2.251 0.30098,-0.20065 0.54461,-0.48934 0.86815,-0.65111 0.39487,-0.19744 1.11399,-0.082 1.51928,-0.21704 0.24746,-0.0825 0.40892,-0.3372 0.65111,-0.43408 0.67264,-0.26906 6.60472,0 7.96012,0 0.77721,0 1.47633,-0.072 2.14151,0.42686 0.3274,0.24555 0.50211,0.68513 0.86815,0.86815 0.12942,0.0647 0.44989,-0.14382 0.43408,0 -0.0813,0.74022 -0.44554,1.42113 -0.66831,2.1317"
       id="path3596" />
    <path
       style="fill:none;stroke:#000000;stroke-width:1px;stroke-linecap:butt;stroke-linejoin:miter;stroke-opacity:1"
       d="m 481.79214,449.0875 c 0.72988,1.10177 0.56601,2.27353 0.76101,3.44351 0.15859,0.95153 0.6781,1.87123 0.86815,2.82151 0.22492,1.12459 0.0899,2.32839 0.21704,3.47262 0.10638,0.95738 0.55718,1.87158 0.65112,2.8215 0.0435,0.44006 -0.12668,0.90295 0,1.32662 0.10499,0.35112 0.51032,0.54488 0.65966,0.87955 0.28461,0.63784 0.73361,2.42396 0.87718,3.0656 0.0474,0.21181 0,0.43408 0,0.65112 0.0725,0.43503 0.11743,0.87557 0.21751,1.30509 0.58576,2.51396 0.27007,0.60398 0.88314,2.85794 0.29189,1.07312 0.36763,2.27068 0.87299,3.27975 0.18948,0.37835 0.49665,0.69521 0.65395,1.08803 0.13736,0.34303 0.1191,0.73078 0.21704,1.08708 0.37522,1.36494 0.90938,2.69788 1.54119,3.96151"
       id="path3598" />
    <path
       style="fill:none;stroke:#000000;stroke-width:1px;stroke-linecap:butt;stroke-linejoin:miter;stroke-opacity:1"
       d="m 481.79214,449.0875 c 0.40307,-0.35767 0.6758,-0.99639 1.20921,-1.073 0.29526,-0.0424 0.0959,0.59558 0.21704,0.86816 0.17133,0.38549 0.39765,0.74798 0.65111,1.08519 0.18579,0.24718 0.47112,0.40781 0.65691,0.65498 0.46818,0.62286 1.29839,2.7075 1.73357,3.46907 0.2142,0.37485 0.70174,0.67051 0.86542,1.07973 0.11079,0.27696 0.0437,0.62542 0.21704,0.86815 0.21025,0.29436 0.61237,0.39534 0.86816,0.65112 0.81422,0.81422 0.13731,0.40013 0.65111,1.08519 1.0023,1.3364 2.15145,2.64483 3.25558,3.9067 0.99535,1.13754 0.25489,0.24227 1.51927,1.08519 0.43778,0.29186 0.75693,0.97397 1.0852,1.30224 0.91499,0.91499 0.49388,-0.11109 1.51927,1.08519 0.21056,0.24565 0.22695,0.6196 0.43408,0.86816 0.43244,0.51893 1.07425,0.42314 1.51927,0.86815"
       id="path3600" />
    <path
       style="fill:none;stroke:#000000;stroke-width:1px;stroke-linecap:butt;stroke-linejoin:miter;stroke-opacity:1"
       d="m 479.60406,453.6248 c -0.27763,1.62246 -0.10768,3.30767 -0.50896,4.91279 -0.26239,1.04958 -0.53196,1.96604 -0.65111,3.03854 -0.04,0.35961 0.10397,0.7389 0,1.08546 -0.12124,0.40411 -0.51782,0.68507 -0.65125,1.08532 -0.0915,0.27453 0.0702,0.58741 0,0.86816 -0.21721,0.86882 -0.86876,1.73549 -1.0852,2.60446 -0.47369,1.9019 -0.60032,3.96745 -1.11735,5.85595 -0.0897,0.32748 -0.39903,0.57173 -0.46974,0.90382 -0.0904,0.42456 0.1195,0.88493 0,1.30223 -0.30089,1.05069 -1.25401,2.40714 -1.5202,3.47191 -0.0877,0.35093 0,0.72346 0,1.08519 -0.0724,0.14469 -0.18523,0.59269 -0.21704,0.43408 -0.26448,-1.31862 -0.33261,-2.66912 -0.49892,-4.00368"
       id="path3602" />
    <path
       style="fill:none;stroke:#000000;stroke-width:1px;stroke-linecap:butt;stroke-linejoin:miter;stroke-opacity:1"
       d="m 499.48379,476.7149 c 0.8525,2.18496 0.81797,4.38998 1.13921,6.63866 0.0844,0.59059 0.37472,1.14269 0.43408,1.73631 0.072,0.71987 -0.0897,1.45251 0,2.17039 0.20274,1.6219 0.91273,3.21408 1.30613,4.7807 0.0738,0.29411 -0.0736,1.00967 0,1.3042 0.1756,0.7024 0.52605,1.69597 0.86088,2.36555"
       id="path3604" />
    <path
       style="fill:none;stroke:#000000;stroke-width:1px;stroke-linecap:butt;stroke-linejoin:miter;stroke-opacity:1"
       d="m 453.54163,490.22731 c 0.7088,3.286 -0.14923,6.59815 -0.61076,9.82887 -0.10586,0.74104 0.0649,1.49995 0,2.24569 -0.0965,1.10883 -0.5383,2.22233 -0.66343,3.33476 -0.0584,0.51908 0.07,1.49951 0,1.98981 -0.0718,0.50247 -0.52705,1.02299 -0.65112,1.51927 -0.10528,0.42111 0.0714,0.87406 0,1.30223 -0.11448,0.6869 -0.65111,1.46569 -0.65111,2.16767"
       id="path3606" />
    <path
       style="fill:none;stroke:#000000;stroke-width:1px;stroke-linecap:butt;stroke-linejoin:miter;stroke-opacity:1"
       d="m 468.53696,452.46455 c -1.17101,2.35622 -2.60708,4.53931 -4.11188,6.65289 -0.28857,0.40531 -0.31824,0.98196 -0.67005,1.33377 -0.25578,0.25578 -0.63658,0.37323 -0.86815,0.65112 -0.37753,0.45302 -0.40201,1.05311 -0.86416,1.51527"
       id="path3608" />
  </g>
</svg>
