<?xml version="1.0" encoding="UTF-8" standalone="no"?>
<!-- Created with Inkscape (http://www.inkscape.org/) -->

<svg
   version="1.1"
   id="svg2282"
   width="100.22803"
   height="110.7911"
   viewBox="0 0 100.22803 110.7911"
   sodipodi:docname="offshoulder-top.svg"
   inkscape:version="1.1.2 (0a00cf5339, 2022-02-04)"
   xmlns:inkscape="http://www.inkscape.org/namespaces/inkscape"
   xmlns:sodipodi="http://sodipodi.sourceforge.net/DTD/sodipodi-0.dtd"
   xmlns="http://www.w3.org/2000/svg"
   xmlns:svg="http://www.w3.org/2000/svg">
  <defs
     id="defs2286" />
  <sodipodi:namedview
     id="namedview2284"
     pagecolor="#ffffff"
     bordercolor="#666666"
     borderopacity="1.0"
     inkscape:pageshadow="2"
     inkscape:pageopacity="0.0"
     inkscape:pagecheckerboard="0"
     showgrid="false"
     fit-margin-top="0"
     fit-margin-left="0"
     fit-margin-right="0"
     fit-margin-bottom="0"
     inkscape:zoom="2.3037363"
     inkscape:cx="-75.963556"
     inkscape:cy="93.97777"
     inkscape:window-width="1860"
     inkscape:window-height="1009"
     inkscape:window-x="0"
     inkscape:window-y="0"
     inkscape:window-maximized="1"
     inkscape:current-layer="g2288" />
  <g
     inkscape:groupmode="layer"
     inkscape:label="Image"
     id="g2288"
     transform="translate(-396.57069,-291.63051)">
    <path
       style="fill:none;stroke:#000000;stroke-width:1px;stroke-linecap:butt;stroke-linejoin:miter;stroke-opacity:1"
       d="m 488.1998,331.88274 c 1.16322,0 2.31196,-1.20245 3.3268,-1.71088 0.92369,-0.46275 2.49535,0.35747 3.47092,0 0.10128,-0.0371 1.03452,-1.33315 1.11232,-1.48875 0.74019,-1.48036 -0.9247,-5.46938 -1.53792,-6.47894 -0.31475,-0.51818 -0.9453,-0.78498 -1.28528,-1.28697 -0.0747,-0.11035 0.0674,-0.66147 0,-0.78677 -0.33898,-0.6303 -0.95364,-1.25269 -1.20049,-1.92113 -0.11357,-0.30752 0.14288,-0.68841 0,-0.98346 -0.30687,-0.63365 -0.61294,-0.65479 -1.11572,-1.40397 -0.4812,-0.71703 -0.36891,-2.53945 -0.83254,-3.23353 -1.4693,-2.1996 -0.13522,-1.01376 -0.85968,-2.40608 -0.1889,-0.36305 -0.68513,-0.50211 -0.86815,-0.86816 -0.32134,-0.64268 -0.25925,-1.82544 -0.43408,-2.52477 -0.40708,-1.6283 -1.53994,-1.51144 -2.10087,-2.61294 -0.56002,-1.09971 -1.05753,-2.35381 -1.48875,-3.37258 -0.8428,-1.99111 0.0888,-7.38124 -1.87704,-8.51877 -0.60072,-0.3476 -6.6194,0 -7.60314,0 -5.44086,0 -10.79178,0.52044 -16.16939,1.28867 -1.64472,0.23496 -3.42167,-0.284 -5.05802,0 -3.89766,0.67647 -4.74322,0.86815 -8.95624,0.86815 -0.37396,0 -9.099,0.37206 -9.81083,0 -0.44166,-0.23084 -0.77548,-0.66736 -1.24966,-0.82067 -1.22864,-0.39724 -3.36706,0 -4.72568,0 -6.68221,0 -13.41854,0.27641 -20.05913,-0.35778 -0.55484,1.41601 -1.05467,2.91194 -1.84483,4.22887 -0.9614,1.60232 -2.29261,2.71694 -3.16402,4.47472 -0.37703,0.76055 0.41252,2.13925 0,2.87577 -1.23471,2.20449 0.30519,5.56976 -0.82576,7.82696 -0.25866,0.51624 0.24411,1.41034 0,1.93469 -0.45435,0.97595 -0.54699,2.01669 -0.8122,3.07754 -0.51794,2.07176 -0.21014,-0.006 -0.86816,1.30224 -0.11758,0.23378 0.1241,0.55467 0,0.78507 -0.62001,1.15109 -1.07156,2.46939 -1.66,3.64387 -0.35558,0.70971 -0.67161,0.20191 -1.23611,0.82577 -0.76173,0.84184 -1.81033,3.70644 -1.19371,4.9478 0.57081,1.14914 2.70947,0.97416 3.11315,1.45654 0.19142,0.22873 0.18493,0.59384 0.40017,0.80033 0.29465,0.28267 4.05098,0.2743 4.69007,0.43407 0.59978,0.14995 1.49373,1.05326 2.16869,1.30224 1.66715,0.61497 3.5748,0.54131 5.07837,1.28866 0.61982,0.30809 1.72423,-0.3268 2.33316,0 0.3606,0.19353 0.53044,0.637 0.86816,0.86816 0.66084,0.45234 2.15253,0.30902 2.87915,0.68503 0.30809,0.15943 3.37018,0.18346 3.55401,0 0.22596,-0.22552 0.20621,-0.62762 0.42899,-0.85629 0.41174,-0.42262 3.59674,-0.80881 4.4476,-0.80881 1.67118,0 8.12436,0.57677 9.12919,0 1.2656,-0.72644 2.48333,-1.60104 3.9067,-2.17038 0.26869,-0.10748 0.62737,0.16052 0.86815,0 0.26921,-0.17947 0.23996,-0.60933 0.43408,-0.86816 0.68455,-0.91273 1.89947,-1.44372 2.94868,-1.73631 0.99272,-0.27684 4.8036,-0.13917 5.14449,0.83933 0.18452,0.52964 0.22898,1.6327 1.07841,1.86009 0.73481,0.1967 1.68566,-0.24014 2.40608,0 0.61388,0.20463 1.13551,0.62783 1.73631,0.86816 0.43877,0.1755 7.47333,0.70076 8.03382,0.42051 0.93228,-0.46614 2.1963,-1.56108 3.18267,-1.89061 0.26644,-0.089 0.65521,0.20916 0.84272,0 0.55305,-0.61691 0.49522,-1.00905 1.29376,-1.29376 2.93237,-1.04549 15.50972,-0.30012 19.45379,-0.30012 1.10068,0 4.86482,-0.45272 3.86939,-1.45314"
       id="path2407" />
    <path
       style="fill:none;stroke:#000000;stroke-width:1px;stroke-linecap:butt;stroke-linejoin:miter;stroke-opacity:1"
       d="m 402.47967,334.99419 c -0.67799,8.28254 -0.40016,17.1736 -0.40016,25.72757 0,1.90794 0.31769,4.32568 0,6.21443 -0.30685,1.82431 -3.18921,9.03595 -2.11613,10.64338 0.7622,1.14173 2.05754,1.62346 2.94698,2.5129 0.36169,0.36169 0.49648,0.90682 0.84611,1.28019 1.10472,1.17972 9.6045,0.30351 12.19317,0.30351"
       id="path2423" />
    <path
       style="fill:none;stroke:#000000;stroke-width:1px;stroke-linecap:butt;stroke-linejoin:miter;stroke-opacity:1"
       d="m 488.1998,331.88274 c 2.50856,2.33599 0.22556,5.58879 1.12758,8.20678 0.37271,1.08173 0.92832,2.30361 1.24459,3.29458 0.28147,0.88196 0,3.06289 0,3.90669 0,3.34003 -0.23958,6.74975 0.43407,9.98379 0.15667,0.75211 -0.2848,1.83982 0,2.54681 0.19336,0.47999 0.67255,0.80789 0.86816,1.28697 0.67111,1.6437 -0.12854,4.78263 0.43408,6.47047 0.0647,0.19412 0.28938,0.28938 0.43407,0.43408 0.14469,0.28147 0.35409,0.5382 0.43408,0.84441 0.2757,1.05542 0.0905,2.36461 0.43408,3.39123 0.22958,0.68607 1.03354,1.0646 1.30223,1.73631 0.10747,0.26869 -0.0915,0.59362 0,0.86816 0.13773,0.4132 1.01148,0.67651 1.10045,1.10045 0.0967,0.46072 -1.81591,1.53074 -2.21786,1.76514 -0.4047,0.236 -1.19224,-0.15622 -1.64136,0 -1.77282,0.61663 -3.25809,1.17533 -4.94102,1.73631 -0.75785,0.25262 -10.66229,0.39602 -11.62683,0 -0.59859,-0.24578 -1.15754,-0.57877 -1.73631,-0.86816"
       id="path2427" />
    <path
       style="fill:none;stroke:#000000;stroke-width:1px;stroke-linecap:butt;stroke-linejoin:miter;stroke-opacity:1"
       d="m 417.37735,336.55416 c -0.41541,2.15715 0.1504,1.97552 0.79355,3.27254 0.16805,0.33891 -0.10914,1.20083 0,1.51418 0.20995,0.60278 1.24924,1.37149 1.60574,1.91435 1.58361,2.4114 -0.87492,-1.04355 0.42899,2.16021 0.151,0.37101 0.63709,0.50366 0.86816,0.83086 0.32749,0.46372 0,6.50784 0,7.56244 0,5.36923 -0.0332,10.81534 -1.30223,15.8913 -0.26885,1.0754 0.34921,2.42497 0,3.47262 -0.91233,2.737 0.0343,-1.90779 -0.86816,2.60447 -0.36932,1.84662 -0.12499,3.77835 -0.43408,5.63283 -0.86571,5.19426 0.1188,0.19649 -0.86815,2.17039 -0.54823,1.09646 -0.0281,2.6891 -0.40695,3.81683 -0.29993,0.89276 -1.07404,1.68663 -1.30223,2.59938 -0.12479,0.49916 0.16656,1.22339 0,1.72105 -0.63041,1.88357 -1.28189,3.78767 -1.28189,5.81087"
       id="path2429" />
    <path
       style="fill:none;stroke:#000000;stroke-width:1px;stroke-linecap:butt;stroke-linejoin:miter;stroke-opacity:1"
       d="m 474.7417,331.78779 c 0.13227,2.94671 -0.0202,5.77858 -0.42729,8.68494 -0.0687,0.49054 0.21968,1.25979 0,1.68713 -0.35412,0.68888 -1.4922,0.56989 -1.73631,1.30224 -0.64009,1.92027 0,8.18484 0,10.5162 0,1.99354 -0.54297,13.13181 0,14.21773 0.18302,0.36605 0.64114,0.52764 0.86815,0.86816 0.39463,0.59194 0.20612,3.42143 0.43408,4.3306 1.1029,4.39867 -0.15963,-0.31927 0.86816,1.73631 0.63205,1.26411 0.43979,3.27889 1.27849,4.95628 0.91702,1.83404 -0.64909,5.05133 0,7.00628 1.23293,3.7134 0.42899,9.42666 0.42899,13.54288"
       id="path2431" />
    <path
       style="fill:none;stroke:#000000;stroke-width:1px;stroke-linecap:butt;stroke-linejoin:miter;stroke-opacity:1"
       d="m 464.23058,374.81402 c 1.21222,4.45778 -0.11886,9.1457 0.44256,13.648 0.17747,1.42324 0.85798,1.76733 0.85798,2.96733"
       id="path2490" />
    <path
       style="fill:none;stroke:#000000;stroke-width:1px;stroke-linecap:butt;stroke-linejoin:miter;stroke-opacity:1"
       d="m 427.78164,359.05836 c 1.41199,5.71526 -1.75326,12.47545 -1.75326,17.89044"
       id="path2492" />
    <path
       style="fill:none;stroke:#000000;stroke-width:1px;stroke-linecap:butt;stroke-linejoin:miter;stroke-opacity:1"
       d="m 414.6101,397.52848 c 0.19613,0.4013 0.21162,0.96398 0.58838,1.20389 0.72891,0.46414 13.11223,0.43407 14.30252,0.43407 4.76185,0 9.5237,0 14.28555,0 1.78146,0 4.46143,-0.35636 6.24326,0 1.91914,0.38383 3.659,0.43408 5.64301,0.43408 2.15997,0 7.01872,0.003 8.68154,0.86816 0.62606,0.32575 1.75166,-0.26177 2.40608,0 2.1353,0.85412 4.58956,1.30223 6.93507,1.30223 0.6172,0 1.33546,0.33842 1.85161,0 1.03446,-0.67827 3.20626,-4.18632 0.90885,-1.13437"
       id="path2687" />
    <path
       style="fill:none;stroke:#000000;stroke-width:1px;stroke-linecap:butt;stroke-linejoin:miter;stroke-opacity:1"
       d="m 412.8704,303.59649 c -0.13503,1.38254 -1.04215,12.05002 -0.42899,12.96976 0.22702,0.34052 0.68514,0.50211 0.86816,0.86815 0.12942,0.25884 -0.0915,0.59362 0,0.86816 0.43644,1.30932 1.04751,2.96318 1.73631,4.34077"
       id="path2802" />
    <path
       style="fill:none;stroke:#000000;stroke-width:1px;stroke-linecap:butt;stroke-linejoin:miter;stroke-opacity:1"
       d="m 442.95236,315.04189 c -1.68549,1.77177 -1.37006,2.80973 -1.37006,4.96985"
       id="path2804" />
    <path
       style="fill:none;stroke:#000000;stroke-width:1px;stroke-linecap:butt;stroke-linejoin:miter;stroke-opacity:1"
       d="m 449.75681,306.84359 c -2.27415,4.28827 -2.88085,9.19222 -2.88085,14.07361"
       id="path2806" />
    <path
       style="fill:none;stroke:#000000;stroke-width:1px;stroke-linecap:butt;stroke-linejoin:miter;stroke-opacity:1"
       d="m 471.98294,307.01485 c 0.13497,3.04058 2.2837,11.7773 0,14.00748"
       id="path2808" />
    <path
       style="fill:none;stroke:#000000;stroke-width:1px;stroke-linecap:butt;stroke-linejoin:miter;stroke-opacity:1"
       d="m 481.77851,310.23652 c 0.50868,0.7342 1.16947,1.38366 1.52605,2.2026 0.30254,0.69484 -0.34071,1.9115 0,2.59429 0.82397,1.65126 1.26323,4.26676 1.26323,6.20935"
       id="path2810" />
  </g>
</svg>
