<?xml version="1.0" encoding="UTF-8" standalone="no"?>
<!-- Created with Inkscape (http://www.inkscape.org/) -->

<svg
   version="1.1"
   id="svg4261"
   width="96.517159"
   height="112.46961"
   viewBox="0 0 96.517159 112.46961"
   sodipodi:docname="peplum-top.svg"
   inkscape:version="1.1.2 (0a00cf5339, 2022-02-04)"
   xmlns:inkscape="http://www.inkscape.org/namespaces/inkscape"
   xmlns:sodipodi="http://sodipodi.sourceforge.net/DTD/sodipodi-0.dtd"
   xmlns="http://www.w3.org/2000/svg"
   xmlns:svg="http://www.w3.org/2000/svg">
  <defs
     id="defs4265" />
  <sodipodi:namedview
     id="namedview4263"
     pagecolor="#ffffff"
     bordercolor="#666666"
     borderopacity="1.0"
     inkscape:pageshadow="2"
     inkscape:pageopacity="0.0"
     inkscape:pagecheckerboard="0"
     showgrid="false"
     inkscape:zoom="4.6074726"
     inkscape:cx="-65.328658"
     inkscape:cy="60.879364"
     inkscape:window-width="1860"
     inkscape:window-height="1009"
     inkscape:window-x="0"
     inkscape:window-y="0"
     inkscape:window-maximized="1"
     inkscape:current-layer="g4267"
     fit-margin-top="0"
     fit-margin-left="0"
     fit-margin-right="0"
     fit-margin-bottom="0" />
  <g
     inkscape:groupmode="layer"
     inkscape:label="Image"
     id="g4267"
     transform="translate(-445.21806,-419.75801)">
    <path
       style="fill:none;stroke:#000000;stroke-width:1px;stroke-linecap:butt;stroke-linejoin:miter;stroke-opacity:1"
       d="m 463.39388,426.07576 c 0.42599,-0.18904 0.87566,-0.33185 1.27798,-0.56712 0.17664,-0.10329 0.26756,-0.31514 0.43407,-0.43407 0.70476,-0.5034 1.44766,-0.71734 2.17039,-1.0852 0.91405,-0.46523 2.24107,-0.39646 3.23077,-0.64389 0.60806,-0.15201 0.51586,-0.36458 1.05434,-0.62298 0.55179,-0.26478 1.38506,-0.0294 1.94793,-0.21703 0.58071,-0.19358 1.33212,-0.85333 2.05297,-0.65112 0.28698,0.0805 0.11442,0.59722 0.15491,0.75534 0.17342,0.67727 1.54822,2.40595 2.17628,2.82464 0.50473,0.33647 1.01426,0.0573 1.51127,0.43008 0.12942,0.0971 0.10265,0.31968 0.21704,0.43407 0.21923,0.21924 0.80872,0.16072 1.07903,0.21499 0.86656,0.17397 0.10405,0.15883 0.65112,0.43408 0.57271,0.28815 1.56108,-0.009 2.1943,0.21704 1.0192,0.36457 -0.32806,0.0756 1.06463,0.42379 0.35988,0.09 1.22774,0.0713 1.51927,0.21704 0.35856,0.17928 0.0755,0.47184 0.43408,0.65112 0.19511,0.0975 0.6219,-0.0673 0.81605,0 1.78721,0.61934 2.65972,0.86815 4.73802,0.86815 2.02583,0 9.56112,0.40993 10.61488,-0.64381 0.17822,-0.17823 0.24162,-0.45051 0.41942,-0.62915 0.42042,-0.42239 1.40692,-0.6822 1.9276,-1.07232 0.439,-0.32892 0.57397,-0.94742 1.06344,-1.27353 0.22482,-0.14979 0.83024,-0.35673 0.95914,-0.61607 0.50242,-1.01088 3.90394,-4.30446 4.91069,-4.70748 0.56999,-0.22818 2.38134,-0.0978 2.83644,0.21704 0.78848,0.54547 1.71641,1.08929 2.5435,1.49788 0.41023,0.20266 0.93619,0.15955 1.30224,0.43408 0.53882,0.40412 -0.0719,0.39651 0.43407,0.65112 0.79245,0.39873 1.68883,0.62306 2.35389,1.28811 0.11439,0.11439 0.10432,0.31805 0.21704,0.43408 0.0192,0.0198 0.32017,-0.0153 0.36259,0 0.436,0.15713 0.49439,0.44068 0.85141,0.63708 0.56059,0.30839 1.9469,-0.27864 2.32056,0.4313 0.4125,0.78375 -0.36261,1.35773 -0.59355,1.90542 -0.2616,0.62045 -0.24305,1.28552 -0.57632,1.95392 -0.22305,0.44734 -0.58184,0.75635 -0.83236,1.20376 -0.10793,0.19276 0.10324,0.55953 0,0.7559 -0.0244,0.0464 -0.40103,0.37671 -0.41365,0.41365 -0.0755,0.2211 -0.12913,0.59989 -0.19635,0.80962 -0.14612,0.45594 -0.122,5.85539 0,6.09939 0.38767,0.77532 0.1895,1.65456 0.42409,2.36121 0.46061,1.38746 -0.0303,-0.24082 0.4261,0.64043 0.10369,0.20023 0.27873,1.38561 0.43138,1.80631 0.10625,0.29283 -0.0829,0.68341 0,0.98552 0.0508,0.18539 0.63943,3.29988 0.64876,3.31554 0.15762,0.26464 0.54208,0.72727 0.64372,0.98138 0.26658,0.66644 0,4.04463 0,4.91917 0,1.34858 0.22795,2.89373 0,4.22069 -0.12837,0.7473 -0.49612,1.40896 -0.63707,2.11373 -0.0752,0.37597 0.1238,0.92541 0,1.29681 -0.18753,0.56257 -0.52713,1.24036 -0.65112,1.73631 -0.16477,0.65908 0.12069,1.50228 -0.21436,2.11594 -0.0137,0.025 -0.41937,0.40788 -0.43143,0.43144 -0.1701,0.33217 0.0926,0.90124 0,1.27148 -0.13193,0.52771 -0.4184,1.05674 -0.65112,1.51927 -0.0321,0.0638 0,0.1429 0,0.21434 0,0.13233 0.0613,0.27969 0,0.39699 -0.0947,0.18137 -0.35808,0.24408 -0.43407,0.43407 -0.15418,0.38545 0.04,1.39355 -0.21704,1.73631 -0.66394,0.88525 -0.36434,0.0955 -0.86816,1.0852 -0.23032,0.45246 -0.11972,1.6679 -0.21704,2.15218 -0.0306,0.15213 -0.33661,0.45338 -0.41023,0.60306 -0.36449,0.74108 0.27271,1.96415 0,2.751 -0.14645,0.42255 -0.32935,0.9411 -0.42382,1.4322 -0.24112,1.2534 0.0332,2.65552 -0.21704,3.9067 -0.31053,1.55262 -0.79202,3.16495 -1.29953,4.6767 -0.19136,0.57002 0.28283,1.48018 0,1.99894 -0.116,0.21275 -0.30717,0.28914 -0.21704,0.57336 0.20391,0.64308 0.96811,1.2266 1.2857,1.85403 0.17767,0.35101 0.81978,2.10649 0.99416,2.27502 0.11243,0.10866 0.30898,0.0992 0.41953,0.20977 0.11579,0.1158 0.0942,0.80596 0.203,0.96655 0.47981,0.70835 1.6376,2.17109 1.84221,2.96823 0.16693,0.65036 0.52875,1.73115 1.02521,2.27306 0.3683,0.40203 0.91334,0.82851 1.32297,1.23813 0.97441,0.97441 1.43821,2.59028 2.13184,3.74054 0.3288,0.54525 0.61621,0.404 1.06469,0.85791 1.01761,1.02992 1.5395,2.6123 2.56099,3.63379 0.36325,0.36326 1.04544,0.58629 1.30223,1.0852 0.22687,0.44077 0.42045,1.01282 0.62632,1.4394 0.32046,0.66402 1.05424,1.27924 1.47245,1.90656 0.19758,0.29636 0.33717,0.22673 0.65112,0.43408 0.15042,0.0993 1.88147,2.05425 1.91403,2.11916 0.22351,0.44561 0.14611,0.69576 0.43408,1.0797 0.13386,0.17846 0.771,0.60666 0.86013,0.86014 0.0443,0.12585 -0.074,0.28922 0,0.40023 0.25656,0.38483 0.99725,0.58197 1.25719,1.05708 0.20097,0.36732 1.54147,2.18082 1.5592,2.43069 0.0163,0.23031 -0.99111,0.43239 -1.13146,0.52277 -0.71428,0.45997 -0.7584,0.1843 -1.39567,0.57277 -0.40384,0.24618 -0.7584,0.86871 -1.20911,1.01001 -0.47865,0.15006 -2.70439,0.80987 -2.75026,0.85574 -0.18069,0.18068 -0.24681,0.45543 -0.4269,0.63671 -0.0445,0.0448 -1.1631,0.64942 -1.32952,0.73786 -0.31432,0.16704 -0.35396,0.6422 -0.63872,0.85577 -0.28474,0.21356 -0.73059,0.0436 -1.04799,0.20464 -0.7309,0.3709 -1.2294,0.73896 -1.99879,0.98612 -0.29258,0.094 -0.20022,0.47781 -0.41545,0.62544 -0.20806,0.14273 -0.73421,0.0738 -0.96618,0.20617 -0.48416,0.2762 -0.44194,0.36933 -1.21404,0.62337 -1.06529,0.35051 -2.85211,0 -3.972,0 -1.8334,0 -3.78026,0.18304 -5.60101,0 -0.63836,-0.0642 -0.63765,-0.37177 -1.2794,-0.42266 -0.79332,-0.0629 -1.61084,0.17388 -2.38743,0 -0.81815,-0.18318 -1.76887,-0.53296 -2.58462,-0.64849 -1.80166,-0.25515 -3.64147,-0.17879 -5.46525,-0.43805 -0.13243,-0.0188 -1.11381,-0.3551 -1.26499,-0.43408 -0.18136,-0.0947 -0.24428,-0.3576 -0.43407,-0.43407 -0.19888,-0.0801 -0.45182,0.0966 -0.64325,0 -0.14443,-0.0729 -0.10563,-0.31679 -0.21704,-0.43408 -0.42359,-0.44596 0.0405,0.64921 -0.38202,-0.18675 -0.13317,-0.26348 2.8591,-1.80563 3.01544,-1.89593 0.17853,-0.10313 0.42344,0.0667 0.61853,0 1.14566,-0.39169 2.40352,-0.93784 3.60848,-1.25799 0.34868,-0.0926 0.74022,0.11454 1.08233,0 0.30599,-0.10245 0.57685,-0.28938 0.86527,-0.43408 0.36173,-0.14469 0.71559,-0.31087 1.08519,-0.43407 0.41181,-0.13727 0.87151,0.0538 1.30224,0 0.62407,-0.078 0.87604,-0.52764 1.44061,-0.64389 0.87848,-0.18088 0.4081,0.23189 1.08519,-0.21704 0.43255,-0.28679 -0.0112,-0.17501 0.41998,-0.62997 0.34919,-0.36846 0.99464,-0.23066 1.45974,-0.43408 0.83922,-0.36703 3.69601,-1.88553 4.03687,-2.5103 0.42259,-0.77461 -1.76477,0 -2.64715,0 -0.48198,0 0.0847,0.0323 -0.62635,-0.20466 -0.85389,-0.28463 -2.07844,0 -3.00131,0 -4.70634,0 -9.36558,-0.21703 -14.06073,-0.21703 -0.59807,0 -1.19614,0 -1.7942,0 -1.33388,0 -0.73771,2.03145 -0.37741,2.7605 0.24836,0.50255 0.98649,0.86945 1.31728,1.31726 0.35958,0.48679 0.21302,0.69363 0.63182,1.24433 0.1364,0.17937 0.53188,0.75635 0.40645,1.00348 -0.0398,0.0783 -0.76936,0 -0.88145,0 -0.65171,0 -5.38791,0.63165 -6.02808,0.21704 -1.03159,-0.66812 -0.50844,-2.0402 -0.88558,-2.16602 -0.84556,-0.28209 -6.51009,0 -7.94227,0 -1.47992,0 -3.86386,-0.4867 -5.211,-1.08571 -0.14817,-0.0659 -0.067,-0.37479 -0.21755,-0.43511 -0.26862,-0.10765 -0.58439,0.0567 -0.86816,0 -0.37626,-0.0752 -0.92655,-0.45775 -1.30223,-0.65112 -0.57131,-0.29406 -4.75772,0 -5.56538,0 -0.0185,0 -3.10755,-0.10116 -3.14119,0 -0.44699,1.34422 0.49826,1.31297 1.03971,1.87329 0.25049,0.25922 0.37274,0.63321 0.64843,0.86545 0.88805,0.74808 2.22728,0.53023 3.24106,0.86815 0.24746,0.0825 0.40893,0.33721 0.65112,0.43408 0.009,0.004 0.85001,-0.004 0.86272,0 0.94312,0.27043 1.8507,0.674 2.8215,0.86816 0.91065,0.18213 1.8761,0.028 2.82151,0.21704 1.68317,0.33663 3.27322,1.24421 4.98643,1.59371 0.36364,0.0742 0.68217,0.33681 1.03916,0.40936 0.7961,0.1618 1.34257,0.0504 1.34257,0.96437 0,0.11104 0.079,0.25506 0,0.33311 -0.74318,0.7345 -1.39966,0.38411 -2.33621,0.5402 -0.15957,0.0266 -0.28939,0.14469 -0.43408,0.21704 -0.21514,0.0714 -0.42047,0.18636 -0.64543,0.2142 -0.54202,0.0671 -2.19679,-0.25953 -2.71586,0 -0.14469,0.0724 -0.0828,0.34382 -0.21704,0.43408 -0.36918,0.2482 -4.97625,0 -5.624,0 -1.34335,0 -2.7004,0.12135 -3.99259,-0.21704 -0.75886,-0.19873 -1.69475,0.11403 -2.47386,0 -0.68749,-0.10062 -1.20435,-0.54498 -1.91064,-0.64841 -0.43576,-0.0638 -1.08345,0.10689 -1.51102,0 -0.30992,-0.0775 -0.54755,-0.35003 -0.8572,-0.4286 -0.91267,-0.23156 -2.04417,0.0419 -2.9247,-0.20971 -0.648,-0.18514 -1.24218,-0.69247 -1.9304,-0.86557 -0.73802,-0.18563 -1.61229,0.1492 -2.35831,0 -0.10033,-0.0201 -0.12642,-0.16955 -0.21704,-0.21704 -0.37339,-0.19569 -1.4449,-0.34734 -1.85498,-0.43408 -0.47678,-0.10085 -0.97717,0.0494 -1.462,0 -1.11034,-0.11302 -0.92852,-0.26563 -1.87209,-0.8432 -0.47962,-0.29357 -1.22784,0.23866 -1.67755,-0.41088 -0.67095,-0.96911 1.10045,-2.2711 1.51529,-2.78869 0.61133,-0.76275 1.23513,-1.65512 1.93362,-2.36371 0.25036,-0.25398 0.72773,-0.45251 1.05316,-0.84128 0.79654,-0.95156 1.42629,-2.0464 2.17039,-3.03854 1.06603,-1.42137 2.08685,-2.64003 2.57188,-4.29966 0.0942,-0.32241 0.35917,-0.47895 0.42696,-0.81789 0.0426,-0.21283 -0.051,-0.44016 0,-0.65112 0.0807,-0.33354 0.35253,-0.2743 0.35253,-0.69206"
       id="path4390" />
    <path
       style="fill:none;stroke:#000000;stroke-width:1px;stroke-linecap:butt;stroke-linejoin:miter;stroke-opacity:1"
       d="m 452.3667,524.9672 c -0.0943,-1.5073 -3.13565,-1.50217 -3.69138,-2.05791 -0.109,-0.109 -0.0968,-0.3056 -0.20682,-0.41362 -0.55611,-0.54623 -2.26951,-0.0207 -2.72164,-0.79216 -0.076,-0.12958 0.68894,-1.1939 0.85575,-1.40242 0.91031,-1.13788 1.88892,-2.21828 2.78692,-3.41744 0.32864,-0.43887 0.90636,-0.68933 1.30223,-1.0852 0.83737,-0.83737 1.6834,-1.8828 2.38743,-2.8215 0.41687,-0.55584 1.08538,-0.75988 1.51927,-1.30223 0.96704,-1.20881 1.64604,-2.61014 2.38742,-3.9067 0.47359,-0.82823 1.18535,-1.43578 1.74247,-2.17861 0.53842,-0.71789 1.03927,-1.68377 1.67195,-2.30685 0.33005,-0.32505 0.80725,-0.49756 1.08519,-0.86815 0.25311,-0.33748 0.35283,-0.78691 0.65112,-1.0852 0.45039,-0.45039 1.10542,-0.75043 1.51927,-1.30223 0.36612,-0.48816 0.39198,-0.72806 0.86815,-1.08519 0.36008,-0.27006 0.73749,-0.41905 1.01942,-0.8024 0.69244,-0.94151 1.17769,-2.05136 1.93385,-2.99954 0.64037,-0.80299 -0.29585,1.18607 0.42861,-0.21431 0.6293,-1.21644 2.11895,-2.01722 2.69535,-3.21972 0.0628,-0.13101 -0.0284,-0.29337 0,-0.43583 0.17475,-0.87516 0.3608,-1.77 0.65112,-2.60447 0.29122,-0.83705 0,-4.04504 0,-5.04034 0,-1.24255 0.32143,-5.59129 0,-6.54012 -0.0328,-0.0969 -0.14469,-0.1447 -0.21704,-0.21704 -0.0724,-0.14469 -0.16569,-0.28068 -0.21704,-0.43408 -0.21398,-0.63924 -0.0315,-1.45301 -0.21704,-2.10312 -0.16322,-0.57178 -0.24334,-1.1668 -0.43137,-1.7309 -0.0783,-0.2349 -0.34276,-0.49625 -0.41828,-0.73374 -0.22214,-0.69867 -0.29263,-2.39116 -0.63408,-2.96024 -0.30762,-0.51271 -0.72968,-0.9885 -1.08001,-1.50891 -0.32459,-0.48218 -0.28845,-1.20966 -0.63625,-1.67587 -0.0955,-0.12803 -0.29578,-0.12557 -0.4286,-0.2143 -0.0682,-0.0456 -0.74473,-1.1014 -0.80649,-1.22655 -0.21604,-0.43783 -0.73527,-2.11884 -0.86544,-2.50933 -0.0686,-0.2059 0.0971,-0.45699 0,-0.65112 -0.20449,-0.40898 -0.37121,-0.27773 -0.63061,-0.63062 -0.12653,-0.17215 -0.39652,-1.43791 -0.43407,-1.65894 -0.36693,-2.1597 -0.43192,-4.89671 0.0165,-7.09195 0.14551,-0.71227 -0.23,-1.6702 0,-2.36021 0.10231,-0.30694 0.31225,-0.56842 0.43408,-0.86815 0.15398,-0.37883 0.11148,-1.17751 0.21704,-1.57919 0.31375,-1.19392 0,-3.37106 0,-4.68565 0,-0.69817 0.0301,-0.85634 0.19664,-1.38706 0.27439,-0.87453 0,-3.89022 0,-4.96937 0,-0.75667 0.26868,-2.01197 0,-2.68368 -0.16351,-0.40876 -0.4356,-0.68977 -0.60815,-1.03499 -0.15972,-0.31956 -0.0562,-0.73261 -0.16821,-1.078 -0.29261,-0.90215 -1.37099,-1.57577 -1.37099,-2.59736 0,-0.75996 0.22124,-2.18173 0,-2.90042 -0.0981,-0.31859 -0.8185,-1.05017 -0.59022,-0.80726 0.37675,0.4009 0.68739,0.85917 1.03109,1.28875"
       id="path4392" />
    <path
       style="fill:none;stroke:#000000;stroke-width:1px;stroke-linecap:butt;stroke-linejoin:miter;stroke-opacity:1"
       d="m 493.90279,501.31631 c 1.42614,2.33179 0.0422,6.00504 0.61589,8.29994 0.48704,1.94816 0.43408,3.58755 0.43408,5.63481 0,0.29376 0.0697,1.38128 0,1.72787 -0.20852,1.03719 -0.84634,1.8965 -1.29949,2.80568 -0.33768,0.67749 -0.65232,3.40598 -1.07796,3.83162"
       id="path4396" />
    <path
       style="fill:none;stroke:#000000;stroke-width:1px;stroke-linecap:butt;stroke-linejoin:miter;stroke-opacity:1"
       d="m 499.62689,518.19648 c -0.53708,-2.98749 -0.65126,-5.94304 -0.65126,-8.97006"
       id="path4402" />
    <path
       style="fill:none;stroke:#000000;stroke-width:1px;stroke-linecap:butt;stroke-linejoin:miter;stroke-opacity:1"
       d="m 523.3854,519.221 c 1.16893,-1.19152 -0.529,-0.87414 -0.62722,-1.36521 -0.30684,-1.53422 0.0891,-3.25918 -0.21703,-4.7899 -0.11852,-0.5926 -0.33912,-1.16306 -0.43864,-1.75915 -0.0881,-0.52763 0.13188,-1.20878 0,-1.73631 -0.13592,-0.54366 -0.52649,-1.00128 -0.66378,-1.5446 -0.076,-0.30076 0.10036,-1.29142 0,-1.52559 -0.12091,-0.28212 -0.45915,-0.41161 -0.65112,-0.65111 -0.23409,-0.29207 -0.70329,-2.02234 -0.98835,-2.58538"
       id="path4406" />
    <path
       style="fill:none;stroke:#000000;stroke-width:1px;stroke-linecap:butt;stroke-linejoin:miter;stroke-opacity:1"
       d="m 528.71099,517.51505 c 0.41042,0.47653 -0.18271,1.49007 0.0763,2.00807 0.13727,0.27454 0.57667,0.35334 0.65111,0.65112 0.11923,0.47692 0.0607,1.05039 0.21704,1.51927 0.48578,1.45733 1.22246,2.8019 1.72818,4.31905 0.38072,1.14215 0.1606,1.67378 0.83822,2.67295"
       id="path4408" />
    <path
       style="fill:none;stroke:#000000;stroke-width:1px;stroke-linecap:butt;stroke-linejoin:miter;stroke-opacity:1"
       d="m 474.81455,500.25129 c -0.34213,0.82471 -0.77366,1.56233 -1.15739,2.31339 -0.096,0.18786 0.0784,0.43701 0,0.63289 -0.43633,1.09082 -0.99041,2.19786 -1.51927,3.25558 -0.12942,0.25883 0.0567,0.58439 0,0.86815 -0.0768,0.38397 -0.54154,0.75648 -0.65112,1.0852 -0.0686,0.2059 0.0427,0.43831 0,0.65111 -0.17523,0.87388 -0.36285,1.71034 -0.64388,2.56312 -0.21539,0.65359 0.16762,1.49989 0,2.17039 -0.42922,1.71687 -0.30367,3.67753 -0.65112,5.41478 -0.16589,0.82944 0.17905,1.59525 -0.21704,2.38742"
       id="path4410" />
    <path
       style="fill:none;stroke:#000000;stroke-width:1px;stroke-linecap:butt;stroke-linejoin:miter;stroke-opacity:1"
       d="m 470.60125,491.57777 c 1.79881,0.013 3.80241,-0.48897 5.61323,-0.18717 1.39802,0.23301 2.80036,0.48709 4.15013,0.87224 1.18567,0.33832 2.67125,-0.12375 3.90875,0 3.24996,0.32499 -0.0105,0.0413 1.95335,0.43408 1.50421,0.30084 3.07282,0.35802 4.53828,0.65111 1.99311,0.39862 4.66627,-0.15861 6.7282,0 0.29741,0.0229 0.57286,0.17486 0.86815,0.21704 2.41144,0.34449 5.15266,0 7.59635,0 2.82359,0 5.50726,-0.0434 8.24201,-0.43408 0.96124,-0.13732 1.71767,-0.61549 2.61254,-0.87218 1.90675,-0.54693 -0.35832,0.50472 1.0852,-0.21704"
       id="path4420" />
    <path
       style="fill:none;stroke:#000000;stroke-width:1px;stroke-linecap:butt;stroke-linejoin:miter;stroke-opacity:1"
       d="m 476.84709,465.58328 c 0.18822,1.78556 0.8727,3.3213 1.09411,5.09255 0.11969,0.95752 0.0302,1.88741 0.21703,2.8215 0.32563,1.62815 0.85559,3.38461 1.0897,5.02341 0.0788,0.55128 -0.14287,1.38187 0,1.95335 0.0895,0.35788 0.08,0.74268 0.21704,1.08519 0.076,0.18999 0.36937,0.23995 0.43408,0.43408 0.0915,0.27453 -0.0409,0.58168 0,0.86815 0.0324,0.22648 0.18468,0.42464 0.21704,0.65112 0.10021,0.70151 -0.13887,1.47603 0,2.17039 0.3637,1.81849 0.21704,3.73808 0.21704,5.6122"
       id="path4422" />
    <path
       style="fill:none;stroke:#000000;stroke-width:1px;stroke-linecap:butt;stroke-linejoin:miter;stroke-opacity:1"
       d="m 512.05347,465.8489 c -0.53299,4.17407 -1.06285,8.31226 -1.74945,12.48377 -0.23111,1.40413 -0.71849,2.72284 -0.93712,4.13285 -0.12613,0.81347 -0.41216,4.96867 -0.65922,5.46278 -0.13727,0.27454 -0.51385,0.37658 -0.65111,0.65112 -0.35791,0.71581 0.0368,2.98464 -0.43408,3.92643"
       id="path4426" />
  </g>
</svg>
