<?xml version="1.0" encoding="UTF-8" standalone="no"?>
<!-- Created with Inkscape (http://www.inkscape.org/) -->

<svg
   version="1.1"
   id="svg44"
   width="98.40564"
   height="118.29243"
   viewBox="0 0 98.40564 118.29243"
   sodipodi:docname="puffsleeve-top.svg"
   inkscape:version="1.1.2 (0a00cf5339, 2022-02-04)"
   xmlns:inkscape="http://www.inkscape.org/namespaces/inkscape"
   xmlns:sodipodi="http://sodipodi.sourceforge.net/DTD/sodipodi-0.dtd"
   xmlns="http://www.w3.org/2000/svg"
   xmlns:svg="http://www.w3.org/2000/svg">
  <defs
     id="defs48" />
  <sodipodi:namedview
     id="namedview46"
     pagecolor="#ffffff"
     bordercolor="#666666"
     borderopacity="1.0"
     inkscape:pageshadow="2"
     inkscape:pageopacity="0.0"
     inkscape:pagecheckerboard="0"
     showgrid="false"
     inkscape:zoom="4.6074726"
     inkscape:cx="-27.129841"
     inkscape:cy="62.181596"
     inkscape:window-width="1860"
     inkscape:window-height="1009"
     inkscape:window-x="0"
     inkscape:window-y="0"
     inkscape:window-maximized="1"
     inkscape:current-layer="g50"
     fit-margin-top="0"
     fit-margin-left="0"
     fit-margin-right="0"
     fit-margin-bottom="0" />
  <g
     inkscape:groupmode="layer"
     inkscape:label="Image"
     id="g50"
     transform="translate(-432.61628,-418.50325)">
    <path
       style="fill:none;stroke:#000000;stroke-width:1px;stroke-linecap:butt;stroke-linejoin:miter;stroke-opacity:1"
       d="m 523.14624,472.67217 c 0,0.97316 0.2809,2.2673 -0.34119,3.03702 -0.27813,0.34414 -2.30579,-0.21704 -2.55124,-0.21704 -0.57345,0 -3.20821,-0.0999 -3.38256,-0.21704 -0.13424,-0.0902 -0.0681,-0.37098 -0.21704,-0.43408 -0.81536,-0.34522 -6.46064,0.0629 -7.11814,0 -0.35459,-0.0339 -0.15743,-0.83362 -0.15743,-1.11781 0,-0.55657 0.23405,-2.16524 0,-2.63921 -0.17292,-0.35019 -0.19682,-0.11112 -0.19682,-0.48096 0,-0.61591 -0.86814,-0.006 -1.10578,-0.2641 -0.10958,-0.11901 -0.0615,-0.38968 -0.21704,-0.43408 -0.5565,-0.159 -1.15754,0 -1.73631,0 -0.25202,0 -0.85056,0.23365 -0.75606,0 0.16453,-0.40697 3.87973,0.0237 4.38457,0.0237 0.91448,0 1.89533,0.0154 2.73089,0.43407 0.23322,0.11686 0.40366,0.35158 0.65112,0.43408 0.48826,0.16274 1.20625,0.0472 1.7193,0.21704 0.14848,0.0491 0.27978,0.13993 0.41967,0.20983 0.0714,0.0714 0.11951,0.17943 0.21431,0.21433 0.41104,0.15128 0.99527,-0.0871 1.42845,0 2.82633,0.56813 6.00916,0.81405 8.76232,-0.1645 0.12607,-0.0448 0.34458,0.0655 0.45915,0 1.57052,-0.89793 3.57227,-2.00888 4.26161,-3.84219 0.26627,-0.70815 0,-2.23971 0,-2.97744 0,-0.72867 0.22816,-1.92466 0,-2.63364 -0.0757,-0.2352 -0.40405,-0.42008 -0.50275,-0.69901 -0.49812,-1.40741 -1.64438,-2.55225 -2.5093,-3.83764 -0.0838,-0.12446 0.053,-0.39831 0,-0.5433 -0.31392,-0.85874 -0.72297,-1.70489 -0.96738,-2.55529 -0.15854,-0.55166 0,-1.3153 0,-1.90968 0,-0.98675 -0.2996,-3.42167 0,-4.25414 0.46688,-1.29725 0.68133,-2.53159 1.21377,-3.83578 0.15905,-0.38948 0.0498,-0.93183 0.20175,-1.35766 0.16903,-0.47364 0.057,-2.48354 0,-2.53274 -0.11998,-0.10341 -0.31329,-0.10026 -0.42504,-0.21252 -0.14708,-0.14776 0.0753,-0.94424 0,-1.1562 -0.075,-0.21114 -0.42226,-0.31943 -0.52196,-0.52196 -0.21583,-0.43864 -0.35571,-0.9498 -0.54289,-1.37634 -0.15343,-0.34963 -0.51264,-0.3888 -0.63042,-0.82357 -0.0474,-0.17497 0.10741,-0.3978 0,-0.54383 -0.35362,-0.48073 -0.77972,-1.56102 -1.1753,-1.91867 -0.33064,-0.29894 -0.42893,-0.0795 -0.63384,-0.41681 -0.22663,-0.37309 -0.35554,-1.00659 -0.62621,-1.36126 -0.45549,-0.59682 -1.10867,-1.52089 -1.81826,-1.87824 -0.61784,-0.31115 -0.51594,-0.0196 -0.83999,-0.42469 -0.29299,-0.36624 -1.00537,-1.1433 -1.25812,-1.61942 -0.25117,-0.47314 -0.27004,-0.79185 -0.67117,-1.19299 -0.54967,-0.54968 -2.0868,-2.72515 -2.6941,-3.02881 -1.32554,-0.66279 -2.59217,-1.51134 -3.77603,-2.41309 -0.37157,-0.28302 -0.502,-0.76039 -0.83649,-1.05352 -0.0774,-0.0679 -0.20841,0.0224 -0.30892,0 -0.17592,-0.0391 -0.41384,-0.45778 -0.55587,-0.55588 -0.79859,-0.55137 -1.47487,-0.76909 -2.47316,-0.76909 -0.0609,0 -0.58642,-0.0554 -0.69234,0 -0.27492,0.14383 -0.37153,0.50936 -0.52209,0.73521 -0.24526,0.36789 -0.56619,0.67451 -0.82603,1.03279 -0.36641,0.50524 0.0672,4.06814 -0.16776,4.54089 -0.13318,0.26791 -0.53504,0.66243 -0.60544,0.94137 -0.0525,0.20781 0.0966,0.45164 0,0.64297 -0.18356,0.36367 -1.11563,0.0332 -0.86548,0.86281 -0.13076,0.32102 -0.0526,0.8204 -0.20816,1.12676 -0.43073,0.84829 -0.93682,2.02502 -1.07228,2.99612 -0.0688,0.49305 0.11935,1.01016 0,1.49345 -0.0907,0.36723 -0.47881,0.62742 -0.41881,1.05467 -0.19025,0.93339 0,2.12497 0,3.08705 0,2.39266 0,4.78532 0,7.17799 0,0.42879 0.26925,1.60523 0,1.85234 -1.22821,1.12725 -3.40179,0.83985 -4.96934,0.83985 -3.44056,0 -6.88112,0 -10.32169,0 -3.55793,0 -7.22991,0.23269 -10.74618,-0.21704 -0.40475,-0.0518 -1.02821,0.10951 -1.43036,0 -0.66789,-0.18188 -1.28784,-0.54136 -1.97069,-0.65486 -0.79028,-0.13135 -1.60225,0 -2.40337,0 -2.23142,0 -4.49655,0.0944 -6.67657,-0.21704 -0.93582,-0.13369 -1.89327,-0.009 -2.79921,-0.41178 -1.29854,-0.57799 -1.28504,-2.6626 -1.68592,-3.72037 -0.0861,-0.22715 0.0768,-0.5438 0,-0.77526 -0.40023,-1.20569 -0.54509,-2.44999 -0.86271,-3.67939 -0.16845,-0.65203 0.2215,-1.48709 0,-2.11977 -0.22513,-0.64309 -0.68062,-1.36694 -0.86549,-2.09113 -0.17094,-0.66964 -0.12059,-1.39832 -0.41883,-1.99478 -0.15803,-0.31606 0.11592,-0.84186 0,-1.17965 -0.4269,-1.24402 -0.0279,-2.675 -0.6028,-3.83561 -0.40995,-0.82758 0.19287,-3.12408 -0.2068,-3.85889 -0.43711,-0.80364 -0.92825,-0.21032 -0.60629,-1.69034 -0.83505,0.15727 -1.70457,0.18698 -2.50514,0.4718 -1.6534,0.58824 -0.1241,0.47915 -0.86815,0.86816 -0.67364,0.35218 -1.35024,0.55444 -2.03611,0.84154 -0.346,0.14484 -0.37641,0.59404 -0.7183,0.76889 -0.75533,0.38628 -2.7063,-0.18336 -3.54582,0.11097 -0.93154,0.32658 -1.97575,0.47063 -2.85906,0.7963 -0.3368,0.12417 -0.74103,1.04133 -1.07633,1.29336 -0.40939,0.30773 -0.714,0.28038 -0.85951,0.8624 -0.0351,0.14037 0.0647,0.30466 0,0.43407 -0.17138,0.34277 -0.73957,0.69946 -0.86815,1.0852 -0.36762,1.10285 -0.70871,2.30971 -1.08249,3.44051 -0.12745,0.38554 0.10032,0.88592 0,1.28056 -0.0917,0.36048 -0.54909,2.2119 -0.64389,2.37133 -0.26006,0.43736 -0.21381,0.24914 -0.63067,0.63069 -0.14232,0.13025 0.0642,0.39682 0,0.57876 -0.11499,0.32611 -0.46177,0.50599 -0.62251,0.81824 -0.14301,0.27784 -0.13814,0.71983 -0.21433,1.02462 -0.10759,0.43036 -0.45527,0.64702 -0.62853,0.99489 -0.27352,0.54913 -0.30374,1.22899 -0.58843,1.76919 -0.11897,0.22573 0.0678,0.51948 0,0.76548 -0.11939,0.43331 -0.52176,0.90585 -0.64842,1.39354 -0.0714,0.27494 4e-5,1.01474 -0.2098,1.207 -0.19233,0.17621 -0.46667,0.24963 -0.65112,0.43408 -0.10389,0.10389 -0.34131,1.37024 -0.55571,1.82299 -0.20291,0.42848 0.0584,2.02631 0,2.42736 -0.10869,0.74708 -0.5183,1.25329 -0.63379,2.05793 -0.0688,0.47959 0.10199,1.08058 0,1.55701 -0.0969,0.4525 -0.30441,0.96319 -0.43408,1.3522 -0.26891,0.80673 0.021,7.15415 0.38871,7.8539 0.29827,0.56758 -0.23287,1.54198 0,2.14743 0.19647,0.51082 0.19759,0.98994 0.40993,1.44121 0.17508,0.3721 -0.20415,1.03623 0,1.39014 0.0965,0.16733 0.2718,0.67707 0.39692,0.80052 0.11147,0.10998 0.33333,0.0798 0.42019,0.2101 0.13418,0.20127 -0.11235,0.57049 0,0.77704 0.1638,0.30114 1.12009,1.56266 1.3353,1.68639 1.19285,0.68586 2.79917,1.69588 4.2448,1.98289 1.1092,0.22022 2.08712,0.27037 3.13844,0.63151 0.19309,0.0663 0.41941,-0.0663 0.61251,0 1.03255,0.3547 2.19419,0.90456 3.27409,1.29959 1.23171,0.45055 4.73135,0.21432 6.19294,0.21432 0.4676,0 1.5923,0.22045 1.98954,0 1.17189,-0.65036 2.30054,-2.06669 1.44735,-3.50916"
       id="path169" />
    <path
       style="fill:none;stroke:#000000;stroke-width:1px;stroke-linecap:butt;stroke-linejoin:miter;stroke-opacity:1"
       d="m 439.8643,472.8706 c 0.0525,0.24474 -0.45234,1.14603 -0.24591,1.53279 0.13096,0.24536 0.47501,0.32761 0.67317,0.46013 0.30911,0.20672 0.38844,0.66109 0.63591,0.84903 0.99027,0.75206 2.84665,0.82793 4.01957,1.06251 0.78325,0.15665 1.29438,0.46724 1.88722,0.85777 0.24378,0.16059 0.75046,-0.0996 1.03552,0 0.49817,0.17406 0.99668,0.41281 1.42147,0.61921 0.45644,0.22177 2.69551,0.0702 2.75748,0 0.16338,-0.18511 0.23153,-0.44408 0.40385,-0.6209 0.43128,-0.44256 0.62532,0.0866 0.62532,-0.87873"
       id="path171" />
    <path
       style="fill:none;stroke:#000000;stroke-width:1px;stroke-linecap:butt;stroke-linejoin:miter;stroke-opacity:1"
       d="m 445.51159,528.37341 c 0.10039,-0.82581 0.55809,-1.17131 0.84757,-1.85761 0.57485,-1.36284 0.66255,-2.40214 1.51719,-3.68207 0.20447,-0.30622 0.0378,-0.76144 0.21704,-1.08311 0.22699,-0.40746 0.66538,-0.67527 0.87492,-1.09197 0.16397,-0.32605 0.0986,-0.72754 0.21417,-1.07372 0.14469,-0.28938 0.28938,-0.57877 0.43408,-0.86815 0.0723,-0.0723 0.16991,-0.12623 0.21703,-0.21704 0.10883,-0.20972 0.11032,-0.59023 0.20123,-0.81338 -0.39014,-0.76349 0.48632,-0.68836 0.65111,-1.07286 0.38441,-0.89694 0.41452,-1.24354 0.65112,-1.95335 0.44415,-1.33245 1.27691,-2.48701 1.51927,-3.9067 0.0108,-0.0633 -0.0113,-1.22599 0,-1.27138 0.0248,-0.0993 0.14469,-0.14469 0.21704,-0.21703 0.0723,-0.21218 0.1725,-0.41683 0.21704,-0.63654 0.31972,-1.57713 0.51018,-3.35577 1.07687,-4.87141 0.0346,-0.0926 0.1399,-0.13989 0.20985,-0.20984 0.0715,-0.14291 0.16121,-0.27806 0.21436,-0.42874 0.0642,-0.18204 -0.0931,-0.48241 0,-0.64722 0.33225,-0.58846 0.89995,-1.09496 1.24286,-1.72966 0.56231,-1.04081 1.08372,-2.51872 1.47124,-3.70079 0.16366,-0.49922 0.0519,-1.22429 0.21704,-1.70953 0.084,-0.24694 0.3372,-0.40893 0.43407,-0.65112 0.10523,-0.26307 -0.0491,-1.00708 0,-1.25264 0.12402,-0.62013 0.3935,-1.09834 0.55293,-1.72844 0.19573,-0.77351 -0.0783,-3.0194 0.21704,-3.7503 0.21204,-0.52473 0.46834,-0.74165 0.65112,-1.2516 0.23873,-0.66606 0.11991,-6.82748 0,-7.3093 -0.26118,-1.04941 -0.58323,-2.20801 -1.0665,-3.17455 -0.2758,-0.55158 -0.7056,-1.79659 -0.86816,-2.37655 -0.0678,-0.24196 0.11382,-0.52983 0,-0.75387 -0.16461,-0.32401 -0.43967,-0.37879 -0.53375,-0.73078 -0.12838,-0.48036 -0.28542,-0.95263 -0.43407,-1.4271 -0.0684,-0.21832 -0.37292,-0.81858 -0.21704,-0.65112 0.28161,0.30254 0.40921,0.71826 0.61382,1.07739"
       id="path177" />
    <path
       style="fill:none;stroke:#000000;stroke-width:1px;stroke-linecap:butt;stroke-linejoin:miter;stroke-opacity:1"
       d="m 507.03644,470.49066 c -1.16812,1.52576 0.055,3.88751 -0.47737,5.48467 -0.25993,0.77981 -0.46091,0.97549 -0.65111,1.73631 -0.0824,0.32947 0.10582,0.74315 0,1.06465 -0.15121,0.45933 -0.54107,0.97021 -0.64709,1.4968 -0.0428,0.21277 0.0526,0.44056 0,0.65112 -0.11824,0.47294 -0.63911,0.82507 -0.86095,1.25363 -0.047,0.0908 -0.35333,1.5697 -0.40973,1.79919 -0.16616,0.6761 0,1.64958 0,2.35121 0,2.15703 0,4.31406 0,6.47109 0,0.26746 -0.0481,4.43458 0,4.4827 0.11439,0.11439 0.36173,0.0723 0.43408,0.21704 0.5805,1.16102 -0.19117,0.2897 0,0.86553 -0.10763,0.38254 0.33502,0.40743 0.43145,0.64849 0.26972,0.6743 0.16019,1.25814 0.43138,1.93069 0.0765,0.18978 0.36937,0.23995 0.43407,0.43408 0.0672,0.20145 -0.0699,0.43652 0,0.63706 0.14978,0.42994 0.56179,0.84152 0.65112,1.28817 0.2443,1.22149 0.44761,2.64507 0.86815,3.9067 0.0825,0.24746 0.35159,0.40366 0.43408,0.65112 0.0955,0.28643 -0.13693,0.80598 0,1.07984 0.96702,1.93404 0.80971,4.0448 1.73631,5.86004 0.12753,0.24984 -0.0553,0.5665 0,0.84149 0.0313,0.15562 0.14197,0.28394 0.21296,0.42591 0.0724,0.21704 0.17943,0.42545 0.21704,0.65111 0.0615,0.36898 -0.12178,0.93689 0,1.30224 0.54146,1.62438 0.6221,3.39908 0.86815,5.1051 0.0884,0.61315 -0.14631,1.33682 0,1.93906 0.4074,1.67687 0.65231,3.53646 1.04143,5.26131"
       id="path181" />
    <path
       style="fill:none;stroke:#000000;stroke-width:1px;stroke-linecap:butt;stroke-linejoin:miter;stroke-opacity:1"
       d="m 445.51159,528.37341 c 0.80289,0.61909 1.47025,1.4735 2.40866,1.85728 2.49153,1.01897 5.10557,-0.052 7.59939,0.44569 0.83685,0.167 1.07942,0.45721 1.91926,0.64384 0.56939,0.12653 1.1833,0.0316 1.73631,0.21704 1.43536,0.71768 1.15428,0.65528 2.66627,1.10974 2.28698,0.6874 -1.01822,-0.42414 2.4061,0.43875 0.10135,0.0255 0.12956,0.1724 0.22172,0.2217 0.24906,0.13326 0.56552,0.0837 0.8241,0.19737 1.27956,0.56251 2.75641,1.29566 4.1336,1.52519 1.0736,0.17894 2.18469,0.1125 3.25892,0.43456 0.37318,0.11188 0.70723,0.33958 1.08519,0.43407 1.36031,0.34008 2.93531,0.21704 4.34077,0.21704 2.45393,0 4.90786,0 7.36179,0 2.45915,0 4.80733,-0.0913 7.20693,-0.43407 0.50133,-0.0716 1.03233,0.13912 1.51927,0 0.31109,-0.0889 0.56121,-0.33177 0.86815,-0.43408 0.4118,-0.13727 0.88112,0.10528 1.30223,0 0.31389,-0.0785 0.56522,-0.32048 0.86816,-0.43408 0.74662,-0.27998 1.45518,-0.66409 2.2183,-0.89534 0.51651,-0.15651 1.0864,-0.0658 1.60449,-0.21704 0.2626,-0.0766 0.42957,-0.35452 0.68545,-0.45124 0.81003,-0.3062 1.77416,-0.35059 2.5989,-0.65112 1.43019,-0.52115 2.82859,-1.2709 4.35087,-1.52579 0.97456,-0.16317 2.53862,0.0346 3.3716,-0.62817 0.12659,-0.10072 0.36872,-0.37784 0.21704,-0.43408 -0.19416,-0.072 -0.35643,0.21089 -0.53465,0.31634"
       id="path183" />
    <path
       style="fill:none;stroke:#000000;stroke-width:1px;stroke-linecap:butt;stroke-linejoin:miter;stroke-opacity:1"
       d="m 449.40153,426.84791 c -2.57674,1.95379 -1.8304,3.3197 -2.53746,6.06711 -0.0116,0.0451 0.0123,0.81258 0,0.84334 -0.44582,1.11454 -1.04406,2.06754 -1.51927,3.25558 -0.0969,0.24219 -0.37081,0.39805 -0.43408,0.65111 -0.18087,0.72346 0.12058,0.48231 0,1.0852 -0.21061,1.05305 -0.65112,1.88301 -0.65112,3.00873"
       id="path185" />
    <path
       style="fill:none;stroke:#000000;stroke-width:1px;stroke-linecap:butt;stroke-linejoin:miter;stroke-opacity:1"
       d="m 448.8745,439.401 c -0.94839,1.22834 -0.24674,2.8901 -0.62711,4.22141 -0.0717,0.25081 -0.3372,0.40893 -0.43408,0.65112 -0.19376,0.48438 -0.0476,1.20941 -0.21704,1.69633 -0.36879,1.05949 -0.4591,2.46251 -0.86816,3.68966 -0.29327,0.87984 -0.89736,1.62338 -1.3372,2.43988 -1.14926,2.13344 -2.29002,4.21857 -3.74887,6.16372"
       id="path187" />
    <path
       style="fill:none;stroke:#000000;stroke-width:1px;stroke-linecap:butt;stroke-linejoin:miter;stroke-opacity:1"
       d="m 513.84804,430.16415 c 0.10736,1.50301 0.86296,2.72916 1.31774,4.09348 0.0686,0.2059 -0.0426,0.43829 0,0.65111 0.15012,0.75064 0.46429,1.64013 0.65111,2.38743 0.13608,0.5443 0.56749,0.93386 0.65112,1.51927 0.19282,1.34972 -0.22406,2.79901 0,4.14338 0.13831,0.8299 0.21704,1.61726 0.21704,2.49693"
       id="path189" />
    <path
       style="fill:none;stroke:#000000;stroke-width:1px;stroke-linecap:butt;stroke-linejoin:miter;stroke-opacity:1"
       d="m 514.5101,425.43524 c 1.00131,1.38406 1.52133,2.88106 1.92537,4.49718 0.20512,0.82044 0.87567,1.55448 1.08522,2.38744 0.061,0.24256 0.6077,3.38932 0.65112,3.46169 0.13421,0.22367 0.49461,0.2254 0.65112,0.43408 0.20847,0.27797 0,1.33944 0,1.72603"
       id="path191" />
    <path
       style="fill:none;stroke:#000000;stroke-width:1px;stroke-linecap:butt;stroke-linejoin:miter;stroke-opacity:1"
       d="m 520.71041,461.64116 c -0.72334,1.38516 0.46212,3.62659 -0.65112,4.73981"
       id="path195" />
    <path
       style="fill:none;stroke:#000000;stroke-width:1px;stroke-linecap:butt;stroke-linejoin:miter;stroke-opacity:1"
       d="m 524.52907,459.05191 c 0,2.12812 0,4.25624 0,6.38436"
       id="path207" />
    <path
       style="fill:none;stroke:#000000;stroke-width:1px;stroke-linecap:butt;stroke-linejoin:miter;stroke-opacity:1"
       d="m 435.74417,460.86531 c -0.0604,1.24778 -0.42337,2.91862 0.33006,4.04877 0.0897,0.1346 0.31969,0.10265 0.43408,0.21704 0.40496,0.40496 0.69655,0.91359 1.10152,1.31855 0.26703,0.26703 0.54253,0.70253 0.8736,0.8736 0.2774,0.14334 0.56988,0.16388 0.83302,0.427"
       id="path209" />
    <path
       style="fill:none;stroke:#000000;stroke-width:1px;stroke-linecap:butt;stroke-linejoin:miter;stroke-opacity:1"
       d="m 453.18087,464.75925 c -0.60787,0.48265 -0.45338,1.21783 -0.73967,1.79041 -0.151,0.302 -0.40861,0.21217 -0.64852,0.43148 -0.1852,0.16929 -0.38815,0.77253 -0.65832,1.04271"
       id="path211" />
    <path
       style="fill:none;stroke:#000000;stroke-width:1px;stroke-linecap:butt;stroke-linejoin:miter;stroke-opacity:1"
       d="m 459.98116,502.87393 c -0.30917,0.14469 -0.69968,0.17988 -0.9275,0.43408 -0.26002,0.29013 -0.22759,0.75482 -0.43408,1.08519 -0.16267,0.26029 -0.48085,0.39573 -0.65111,0.65112 -0.36144,0.54215 -0.84075,1.55926 -1.0852,2.17039 -0.60958,1.52396 1.29179,-1.33822 -0.21704,1.30223 -0.15228,0.2665 -0.48085,0.39573 -0.65111,0.65111 -0.34539,0.51809 -0.0927,0.80487 -0.21704,1.30224 -0.53837,2.15348 -0.65112,3.42323 -0.65112,5.63757"
       id="path217" />
    <path
       style="fill:none;stroke:#000000;stroke-width:1px;stroke-linecap:butt;stroke-linejoin:miter;stroke-opacity:1"
       d="m 475.6776,447.01974 c 0.36509,88.5889 -0.26476,89.48935 -0.26476,89.48935"
       id="path260" />
    <path
       style="fill:none;stroke:#000000;stroke-width:1px;stroke-linecap:butt;stroke-linejoin:miter;stroke-opacity:1"
       d="m 483.7283,447.62849 c 1.23388,88.31232 1.44458,88.83649 1.44458,88.83649"
       id="path262" />
    <path
       style="fill:none;stroke:#000000;stroke-width:1px;stroke-linecap:butt;stroke-linejoin:miter;stroke-opacity:1"
       d="m 458.69554,445.83349 c -2.43264,-0.14168 -0.10498,1.12701 -0.40689,1.57895 -0.11297,0.16911 -0.31844,0.26232 -0.43142,0.43142 -0.1585,0.23723 -0.11654,0.77563 -0.21428,1.06888 -0.0813,0.24378 -0.37843,0.38864 -0.42882,0.64061 -0.0568,0.28377 0.0476,0.58271 0,0.86816 -0.0825,0.49477 -0.38863,0.47443 -0.65112,0.86815 -0.30374,0.45562 -0.54268,3.58177 -0.65111,4.34078 -0.1188,0.83161 0.35522,4.63667 -0.21704,5.20893"
       id="path297" />
    <path
       style="fill:none;stroke:#000000;stroke-width:1px;stroke-linecap:butt;stroke-linejoin:miter;stroke-opacity:1"
       d="m 504.76281,448.69262 c -0.0724,-0.37902 -0.13078,-0.76096 -0.21704,-1.13706 -0.0142,-0.062 -0.0119,0.12828 0,0.19073 0.0607,0.3179 0.12091,0.63731 0.21704,0.94633 0.43103,1.38568 0.73729,2.62341 1.08519,4.015 0.14991,0.59965 0.0338,1.40349 0.21704,1.95334 0.6402,1.92062 0.28211,-0.54281 0.65112,1.30224 0.15421,0.77106 0.0648,1.6263 0.21703,2.38742 0.0787,0.39336 0.35541,0.90887 0.43408,1.30223 0.0696,0.34788 -0.0584,0.73506 0,1.0852 0.21248,1.27486 0.43408,1.89518 0.43408,3.20651"
       id="path299" />
    <path
       style="fill:none;stroke:#000000;stroke-width:1px;stroke-linecap:butt;stroke-linejoin:miter;stroke-opacity:1"
       d="m 479.91683,450.19261 c 0,0.34263 0,0.68525 0,1.02788 0,0.3414 0.21598,0.33077 0.39105,0.59411 0.17348,0.26095 0.13562,0.42682 0.38397,0.58983 0.34823,0.22857 1.29066,-0.64108 1.16967,-0.83463 -0.27002,-0.43197 -0.63126,-0.29236 -0.93893,-0.60004"
       id="path424" />
    <path
       style="fill:none;stroke:#000000;stroke-width:1px;stroke-linecap:butt;stroke-linejoin:miter;stroke-opacity:1"
       d="m 480.52264,461.53436 c -0.93002,0.39402 -1.89955,2.69364 -0.68168,3.33503 0.18238,0.096 0.57558,0 0.78967,0 0.48798,0 0.83681,0.07 1.26066,-0.21704 0.18542,-0.12559 0.76286,-0.40861 0.82249,-0.62935 0.11236,-0.41591 0.16735,-2.49941 -0.20766,-2.7071 -0.18753,-0.10386 -1.10017,0 -1.24528,0"
       id="path426" />
    <path
       style="fill:none;stroke:#000000;stroke-width:1px;stroke-linecap:butt;stroke-linejoin:miter;stroke-opacity:1"
       d="m 480.59416,472.42162 c -0.24639,0.31009 -0.53362,0.59173 -0.73916,0.93027 -1.14403,1.88434 2.15846,2.31053 2.66657,0.80763 0.0439,-0.1298 -0.0448,-0.28155 0,-0.41106 0.10114,-0.29269 0.36641,-0.5631 0.21704,-0.96473 -0.14716,-0.39568 -1.79973,-0.29305 -2.14445,-0.36211 z"
       id="path428" />
    <path
       style="fill:none;stroke:#000000;stroke-width:1px;stroke-linecap:butt;stroke-linejoin:miter;stroke-opacity:1"
       d="m 480.21798,482.637 c -0.30602,0.33033 -0.64341,0.63416 -0.91807,0.991 -0.22596,0.29357 -0.11185,2.40685 0,2.7424 0.0697,0.20912 0.86655,1.18405 1.0852,1.30224 0.97711,0.52817 2.77001,-1.45916 2.20815,-2.57347 -0.21733,-0.43102 -1.35458,-0.60734 -1.80136,-0.83073"
       id="path430" />
    <path
       style="fill:none;stroke:#000000;stroke-width:1px;stroke-linecap:butt;stroke-linejoin:miter;stroke-opacity:1"
       d="m 479.21806,497.98649 c 0.8852,0.18164 -0.0341,0.77043 0.13115,1.101 0.17389,0.34778 0.39544,0.0816 0.61107,0.40643 0.1644,0.24769 0.26844,0.61341 0.56146,0.77151 0.007,0.004 1.04095,0.0347 1.04941,0 0.1148,-0.47067 0.10291,-0.72092 0.21704,-1.17744 0.2909,-1.16359 0.12914,-1.73574 -1.29386,-1.73574 -0.78551,0 -0.3185,-0.087 -1.27627,0.63424 z"
       id="path432" />
    <path
       style="fill:none;stroke:#000000;stroke-width:1px;stroke-linecap:butt;stroke-linejoin:miter;stroke-opacity:1"
       d="m 479.54089,509.55542 c 0.27423,0.31125 -0.14351,1.33334 0,1.77364 0.32469,0.99622 1.61896,1.1147 2.48753,0.6455 0.89639,-0.48421 0.98958,-1.86971 0.33258,-2.54531 -0.29972,-0.30822 -1.213,-0.21704 -1.62934,-0.21704 -0.54346,0 -0.1309,-0.0207 -1.19077,0.34321 z"
       id="path434" />
    <path
       style="fill:none;stroke:#000000;stroke-width:1px;stroke-linecap:butt;stroke-linejoin:miter;stroke-opacity:1"
       d="m 479.78805,522.54697 c 0.31382,0.33977 -0.29708,1.0866 0.12001,1.36891 1.25442,0.84908 2.87994,-1.48823 2.28475,-2.63364 -0.52401,-1.00841 -2.57776,-1.28226 -3.19313,-0.28478 -0.23233,0.3766 -0.41216,1.66545 -0.41216,2.09496"
       id="path436" />
  </g>
  <path
     style="fill:none;stroke:#000000;stroke-width:1px;stroke-linecap:butt;stroke-linejoin:miter;stroke-opacity:1"
     d="m 48.306313,32.466507 c -0.39052,0.83724 -1.2439,-0.0349 -1.74468,0.22534 -0.51784,0.26906 -1.69086,1.18684 -1.27294,1.90226 0.13359,0.2287 0.43532,0.35839 0.58041,0.58041 0.23079,0.35316 0.49238,0.89921 0.90155,1.11249 0.14734,0.0768 1.79802,-0.37392 1.82385,-0.39114 0.44485,-0.29657 0.95083,-1.27883 0.79212,-1.90624 -0.1111,-0.43918 -0.8986,-1.27832 -1.08031,-1.52312 z"
     id="path873" />
  <path
     style="fill:none;stroke:#000000;stroke-width:1px;stroke-linecap:butt;stroke-linejoin:miter;stroke-opacity:1"
     d="m 47.601703,64.133747 c -0.0394,0.40193 0.74698,0.92816 1.41593,1.59714 0.24816,0.24816 0.47572,0.42683 0.84125,0.42683 0.0383,0 0.1521,0.009 0.11483,0 -0.59745,-0.13932 -1.19873,-0.26169 -1.79809,-0.39253"
     id="path875" />
</svg>
