<?xml version="1.0" encoding="UTF-8" standalone="no"?>
<!-- Created with Inkscape (http://www.inkscape.org/) -->

<svg
   version="1.1"
   id="svg1126"
   width="73.704659"
   height="117.06924"
   viewBox="0 0 73.704659 117.06924"
   sodipodi:docname="sleeveless-top.svg"
   inkscape:version="1.1.2 (0a00cf5339, 2022-02-04)"
   xmlns:inkscape="http://www.inkscape.org/namespaces/inkscape"
   xmlns:sodipodi="http://sodipodi.sourceforge.net/DTD/sodipodi-0.dtd"
   xmlns="http://www.w3.org/2000/svg"
   xmlns:svg="http://www.w3.org/2000/svg">
  <defs
     id="defs1130">
    <linearGradient
       id="linearGradient2307"
       inkscape:swatch="gradient">
      <stop
         style="stop-color:#000000;stop-opacity:1;"
         offset="0"
         id="stop2303" />
      <stop
         style="stop-color:#000000;stop-opacity:0;"
         offset="1"
         id="stop2305" />
    </linearGradient>
  </defs>
  <sodipodi:namedview
     id="namedview1128"
     pagecolor="#ffffff"
     bordercolor="#666666"
     borderopacity="1.0"
     inkscape:pageshadow="2"
     inkscape:pageopacity="0.0"
     inkscape:pagecheckerboard="0"
     showgrid="false"
     inkscape:zoom="4.6074726"
     inkscape:cx="-103.0934"
     inkscape:cy="61.53048"
     inkscape:window-width="1860"
     inkscape:window-height="1009"
     inkscape:window-x="0"
     inkscape:window-y="0"
     inkscape:window-maximized="1"
     inkscape:current-layer="g1132"
     fit-margin-top="0"
     fit-margin-left="0"
     fit-margin-right="0"
     fit-margin-bottom="0" />
  <g
     inkscape:groupmode="layer"
     inkscape:label="Image"
     id="g1132"
     transform="translate(-461.67036,-419.03936)">
    <path
       style="fill:none;stroke:#000000;stroke-width:1px;stroke-linecap:butt;stroke-linejoin:miter;stroke-opacity:1"
       d="m 495.07427,438.96417 c 1.04022,96.33159 1.04022,96.33159 1.04022,96.33159"
       id="path1249" />
    <path
       style="fill:none;stroke:#000000;stroke-width:1px;stroke-linecap:butt;stroke-linejoin:miter;stroke-opacity:1"
       d="m 501.9652,439.3646 c 0.88718,95.40838 0.88718,95.40838 0.88718,95.40838"
       id="path1251" />
    <path
       style="fill:none;stroke:#000000;stroke-width:1px;stroke-linecap:butt;stroke-linejoin:miter;stroke-opacity:1"
       d="m 463.75123,464.60651 c -1.58087,64.6148 -1.58087,64.8072 -1.58087,64.8072"
       id="path1253" />
    <path
       style="fill:none;stroke:#000000;stroke-width:1px;stroke-linecap:butt;stroke-linejoin:miter;stroke-opacity:1"
       d="m 534.00305,462.93011 c 0.41808,67.50493 0.41808,67.50493 0.41808,67.50493"
       id="path1255" />
    <path
       style="fill:none;stroke:#000000;stroke-width:1px;stroke-linecap:butt;stroke-linejoin:miter;stroke-opacity:1"
       d="m 463.75123,464.60651 c 1.30595,-0.73236 1.97908,-2.00822 2.98822,-3.01736 0.78303,-0.78303 1.42948,-1.16195 1.95334,-2.17038 0.44958,-0.86543 0.47499,-2.05158 0.86548,-2.96273 0.0806,-0.18808 0.3288,-0.25861 0.43408,-0.43407 0.33181,-0.55302 0.47527,-1.63202 0.65112,-2.15955 0.16578,-0.49736 -0.23187,-1.26229 0,-1.72602 0.36316,-0.7263 -0.0511,-1.6037 0.20674,-2.37713 0.64758,-1.94273 0.21704,-5.63384 0.21704,-7.8136 0,-1.47814 0.30621,-5.52843 0,-6.75306 -0.0981,-0.39224 -0.52995,-0.84541 -0.64575,-1.29418 -0.0457,-0.17731 0.13945,-0.43067 0,-0.54935 -0.20856,-0.17751 -0.64603,-0.26255 -0.77512,-0.56525 -0.1704,-0.39955 -0.43882,-0.8729 -0.78462,-1.21869"
       id="path1292" />
    <path
       style="fill:none;stroke:#000000;stroke-width:1px;stroke-linecap:butt;stroke-linejoin:miter;stroke-opacity:1"
       d="m 534.00305,462.93011 c -0.92599,-1.54677 -2.72002,-2.27789 -3.77788,-3.68837 -0.69371,-0.92494 -0.88373,-2.20932 -1.30223,-3.25558 -0.37342,-0.93355 -1.06748,-1.90849 -1.52531,-2.82416 -0.38073,-0.76146 -0.37821,-1.78573 -0.65112,-2.60446 -0.16406,-0.4922 -0.5275,-1.08662 -0.65112,-1.51928 -0.59537,-2.08379 -0.6061,-4.1977 -0.86815,-6.29412 -0.16339,-1.30708 -0.54754,-7.20796 -0.21704,-8.52994 0.13414,-0.53656 0.53493,-0.94646 0.64841,-1.51389 0.0426,-0.21282 -0.12039,-0.47053 0,-0.65111 0.35758,-0.53638 1.18084,-2.07676 1.18084,-2.7538"
       id="path1294" />
    <path
       style="fill:none;stroke:#000000;stroke-width:1px;stroke-linecap:butt;stroke-linejoin:miter;stroke-opacity:1"
       d="m 468.86176,431.56514 c 0.11314,-0.85513 -0.0537,-1.79759 0.33943,-2.56538 0.16812,-0.32835 0.73985,-0.0873 1.08519,-0.21703 0.50329,-0.18902 0.94948,-0.50587 1.43788,-0.73056 0.56918,-0.26184 1.22287,-0.33745 1.75969,-0.66047 0.17534,-0.1055 0.25121,-0.34226 0.43408,-0.43407 0.25229,-0.12668 1.01232,-0.15228 1.29141,-0.43137 0.11439,-0.11439 0.10265,-0.31969 0.21704,-0.43408 0.24798,-0.24798 1.51851,-0.0767 1.93283,-0.21704 0.0969,-0.0328 0.14469,-0.14469 0.21704,-0.21704 0.14469,-0.0723 0.28073,-0.16551 0.43407,-0.21703 0.68318,-0.22957 1.47459,-0.20481 2.13844,-0.42609 0.0144,-0.005 0.40843,-0.41771 0.42699,-0.42699 0.27941,-0.1397 0.75615,0.11646 1.04729,0 0.9839,-0.39356 1.56451,-0.43408 2.59463,-0.43408"
       id="path1298" />
    <path
       style="fill:none;stroke:#000000;stroke-width:1px;stroke-linecap:butt;stroke-linejoin:miter;stroke-opacity:1"
       d="m 513.59598,423.78881 c 0.37215,0.21524 0.71958,0.48044 1.11646,0.64572 0.26714,0.11125 0.59362,-0.0915 0.86815,0 0.42543,0.1418 0.67962,0.44832 1.0852,0.65111 0.16489,0.0824 0.45591,-0.084 0.61993,0 0.54166,0.27733 0.17969,0.20459 0.86815,0.43408 0.29587,0.0986 0.21319,0.4595 0.4203,0.62355 0.71457,0.56599 0.98507,0.2755 1.70873,0.63733 0.16506,0.0825 1.38278,0.79535 1.43767,0.83736 0.12847,0.0983 0.10265,0.31969 0.21704,0.43408 0.12614,0.12614 0.68576,0.12584 0.86816,0.21704 0.55789,0.27895 1.12943,0.67414 1.70383,0.86539 0.42112,0.14021 1.10902,0.0168 1.45361,0.20461 0.14435,0.0787 0.70294,0.86593 0.80746,0.60971 0.0827,-0.20278 0.0458,-0.43559 0.0688,-0.65339"
       id="path1300" />
    <path
       style="fill:none;stroke:#000000;stroke-width:1px;stroke-linecap:butt;stroke-linejoin:miter;stroke-opacity:1"
       d="m 484.21777,424.15391 c 0.78594,1.33238 0.59504,2.60235 1.04201,3.93766 0.0935,0.27941 -0.0482,0.83886 0,1.07978 0.1387,0.69351 0.71879,0.6372 0.84644,1.2765 0.0418,0.20947 -0.0427,0.43153 0,0.64084 0.15724,0.77133 1.52871,2.41772 1.73353,3.237 0.17932,0.71728 0.77364,2.44735 1.28474,2.95845 0.11439,0.11439 0.319,0.10334 0.43408,0.21704 5.5e-4,5.5e-4 -5.5e-4,0.42179 0,0.42288 0.15004,0.29592 0.49845,0.57317 0.65112,0.86815 0.0809,0.15638 -0.0788,0.43592 0,0.59349 0.0168,0.0336 0.39977,0.38384 0.42295,0.42295 0.32736,0.55242 0.2551,1.19229 0.7347,1.67187 2.36232,-1.78848 4.23061,-4.02171 6.27939,-6.0705"
       id="path1304" />
    <path
       style="fill:none;stroke:#000000;stroke-width:1px;stroke-linecap:butt;stroke-linejoin:miter;stroke-opacity:1"
       d="m 497.64673,435.41002 c 0.41089,-0.0942 0.81198,-0.25556 1.23266,-0.28257 0.25171,-0.0162 3.09125,4.27782 3.89279,4.8071 0.46849,0.30935 0.72125,0.73369 1.21094,0.96907 0.16738,0.0804 0.45508,0.57805 0.3086,0.46388 -0.8071,-0.62908 -1.55101,-1.33527 -2.32652,-2.0029"
       id="path1306" />
    <path
       style="fill:none;stroke:#000000;stroke-width:1px;stroke-linecap:butt;stroke-linejoin:miter;stroke-opacity:1"
       d="m 501.9652,439.3646 c 1.19597,0.002 2.39361,0.0679 3.58792,0.005 0.88035,-0.0464 1.73492,-2.0927 1.98292,-2.77953 0.0618,-0.17104 -0.0487,-0.37034 0,-0.54554 0.18943,-0.68112 0.77566,-1.5462 1.0823,-2.15948 0.23754,-0.47507 0.0861,-1.18437 0.21704,-1.68968 0.0571,-0.22011 0.55935,-0.3473 0.65112,-0.43408 0.0894,-0.0846 0.68653,-1.8927 0.80674,-2.13111 0.39576,-0.78487 1.10958,-1.50229 1.4293,-2.34456 0.0938,-0.24705 -0.0837,-0.58557 0,-0.8361 0.13674,-0.40953 0.24688,-0.98348 0.41985,-1.35396 0.0722,-0.15474 0.29102,-0.20707 0.36225,-0.36227 0.0254,-0.0552 -0.0506,-0.51827 0,-0.54396 0.34558,-0.1753 0.72756,-0.26696 1.09134,-0.40044"
       id="path1308" />
    <path
       style="fill:none;stroke:#000000;stroke-width:1px;stroke-linecap:butt;stroke-linejoin:miter;stroke-opacity:1"
       d="m 488.86166,421.11911 c 2.38971,1.23175 2.90186,3.89513 4.46096,5.84401 0.55924,0.69905 1.45218,1.21136 1.95335,1.95335 0.22091,0.32706 0.39395,0.9044 0.64387,1.27929 0.18882,0.28322 0.75327,0.53918 0.85834,0.85833 0.13489,0.4097 0.055,0.69072 0.42576,1.05342 0.1624,0.15888 0.57222,0.13987 0.5743,0.36705 0.009,0.97943 -0.0877,1.95697 -0.13151,2.93546"
       id="path1310" />
    <path
       style="fill:none;stroke:#000000;stroke-width:1px;stroke-linecap:butt;stroke-linejoin:miter;stroke-opacity:1"
       d="m 497.64673,435.41002 c 1.4597,-0.94029 1.49595,-2.97428 2.55241,-4.24203 0.32749,-0.393 0.77825,-0.67595 1.08519,-1.0852 1.41847,-1.89128 2.52712,-3.80461 3.90127,-5.63485 0.66565,-0.88659 1.9866,-2.0318 1.9866,-3.18544"
       id="path1312" />
    <path
       style="fill:none;stroke:#000000;stroke-width:1px;stroke-linecap:butt;stroke-linejoin:miter;stroke-opacity:1"
       d="m 484.21777,424.15391 c 3.69938,-0.20456 2.6912,-1.63329 4.42875,-2.93282 0.0437,-0.0327 1.43715,-0.68501 1.2968,-0.64839 -0.39086,0.10198 -0.72111,0.36427 -1.08166,0.54641"
       id="path1314" />
    <path
       style="fill:none;stroke:#000000;stroke-width:1px;stroke-linecap:butt;stroke-linejoin:miter;stroke-opacity:1"
       d="m 507.1722,421.2625 c 4.35172,0.0436 3.08441,-0.0199 5.07587,1.33357 0.34769,0.2363 1.17112,0.34195 1.46774,0.63856 0.25823,0.25822 0.45594,0.65891 0.73791,0.94089 0.0567,0.0567 0.24312,0.20296 0.17004,0.17003 -0.3552,-0.16011 -0.68519,-0.37111 -1.02778,-0.55666"
       id="path1316" />
    <path
       style="fill:none;stroke:#000000;stroke-width:1px;stroke-linecap:butt;stroke-linejoin:miter;stroke-opacity:1"
       d="m 488.86166,421.11911 c 2.33788,-0.035 4.36136,-0.4601 6.51792,-0.89141 0.45942,-0.0919 1.08879,0.17219 1.51927,0 0.24219,-0.0969 0.4003,-0.36242 0.65111,-0.43408 1.01206,-0.28916 2.4043,0.1175 3.46181,0 1.68016,-0.18668 3.28297,-0.21704 4.98648,-0.21704 0.34124,0 3.24664,-0.19527 3.29725,0.30888 0.17434,1.73635 -0.007,1.25032 -2.1233,1.37704"
       id="path1318" />
    <path
       style="fill:none;stroke:#000000;stroke-width:1px;stroke-linecap:butt;stroke-linejoin:miter;stroke-opacity:1"
       d="m 526.33212,490.64241 c -0.0724,0.47898 -0.17907,0.95401 -0.21704,1.43693 -0.14694,1.86848 0,3.80522 0,5.68358 0,3.61604 -0.10404,7.23331 0.46078,10.81419 0.095,0.602 0.40571,1.15363 0.52562,1.75117 0.63661,3.17247 0.24358,6.6508 0.24358,9.88636"
       id="path1320" />
    <path
       style="fill:none;stroke:#000000;stroke-width:1px;stroke-linecap:butt;stroke-linejoin:miter;stroke-opacity:1"
       d="m 467.18473,476.2193 c 0.3805,1.89659 2.03452,3.44232 2.30915,5.36724 0.0613,0.42973 -0.11925,0.88486 0,1.30224 0.32755,1.14643 1.0649,2.06889 1.30223,3.25558 0.0568,0.28376 0,0.57877 0,0.86815 0.15889,0.70085 0.31324,1.40273 0.47666,2.10254 0.0678,0.29047 0.14469,0.57877 0.21703,0.86815 0.21704,0.43408 0.51167,0.83739 0.65112,1.30224 0.21605,0.72014 0.21704,2.23228 0.21704,3.03854"
       id="path1322" />
    <ellipse
       style="fill:#000000"
       id="path2317"
       cx="498.89047"
       cy="445.02386"
       rx="1.4841666"
       ry="2.329699" />
    <ellipse
       style="fill:#000000"
       id="path2319"
       cx="499.25772"
       cy="457.63608"
       rx="1.2081389"
       ry="2.3301923" />
    <ellipse
       style="fill:#000000"
       id="path2321"
       cx="499.7821"
       cy="470.58301"
       rx="1.1883878"
       ry="1.9833398" />
    <ellipse
       style="fill:#000000"
       id="path2323"
       cx="499.65527"
       cy="484.62112"
       rx="1.5843668"
       ry="1.9221585" />
    <ellipse
       style="fill:#000000"
       id="path2325"
       cx="498.9968"
       cy="498.31036"
       rx="2.0408649"
       ry="2.318939" />
    <ellipse
       style="fill:#000000"
       id="path2327"
       cx="499.79752"
       cy="517.42401"
       rx="1.5112236"
       ry="2.0752409" />
    <path
       style="fill:none;stroke:#000000;stroke-width:1px;stroke-linecap:butt;stroke-linejoin:miter;stroke-opacity:1"
       d="m 462.17036,529.41371 c 9.10274,2.82442 -0.2426,0.0759 12.97579,3.20939 2.3228,0.55064 4.56845,1.4349 6.92078,1.84127 2.76847,0.47824 5.8033,0.21793 8.61999,0.57001 2.18268,0.27284 -0.52797,0.11145 1.0852,0.43408 0.99484,0.19897 3.3136,0.14674 4.34077,0 0.90101,-0.12871 1.50963,-0.86716 2.38177,-1.08519 0.39635,-0.0991 0.91526,0.12899 1.30223,0 0.30694,-0.10232 0.55706,-0.3452 0.86816,-0.43408 1.44823,-0.41378 4.66029,0.22491 6.45954,0 1.99848,-0.24981 3.99396,-0.21704 6.02698,-0.21704 0.78843,0 1.82501,0.15589 2.60447,0 0.10032,-0.0201 0.11778,-0.19222 0.21703,-0.21704 0.49131,-0.12282 1.01285,0 1.51928,0 2.81444,0 6.07121,0.22204 8.70441,-0.6557 0.24811,-0.0827 0.58017,0.084 0.82778,0 0.70944,-0.2407 0.72358,-0.62867 1.06463,-0.85787 0.11865,-0.0797 0.29622,0.0533 0.42886,0 0.4503,-0.18099 0.8563,-0.45961 1.30223,-0.65112 0.95291,-0.40924 2.91546,-2.15502 3.80295,-2.15502 0.24596,0 0.84913,0.12338 1.0548,0 0.0789,-0.0473 0.21394,-0.28539 0.19526,-0.19526 -0.10175,0.49105 -0.30143,0.9566 -0.45214,1.4349"
       id="path2522" />
  </g>
</svg>
