<?xml version="1.0" encoding="UTF-8" standalone="no"?>
<!-- Created with Inkscape (http://www.inkscape.org/) -->

<svg
   version="1.1"
   id="svg3051"
   width="106.66472"
   height="119.40791"
   viewBox="0 0 106.66472 119.40791"
   sodipodi:docname="sweatshirt-top.svg"
   inkscape:version="1.1.2 (0a00cf5339, 2022-02-04)"
   xmlns:inkscape="http://www.inkscape.org/namespaces/inkscape"
   xmlns:sodipodi="http://sodipodi.sourceforge.net/DTD/sodipodi-0.dtd"
   xmlns="http://www.w3.org/2000/svg"
   xmlns:svg="http://www.w3.org/2000/svg">
  <defs
     id="defs3055" />
  <sodipodi:namedview
     id="namedview3053"
     pagecolor="#ffffff"
     bordercolor="#666666"
     borderopacity="1.0"
     inkscape:pageshadow="2"
     inkscape:pageopacity="0.0"
     inkscape:pagecheckerboard="0"
     showgrid="false"
     fit-margin-top="0"
     fit-margin-left="0"
     fit-margin-right="0"
     fit-margin-bottom="0"
     inkscape:zoom="3.2579751"
     inkscape:cx="-68.447423"
     inkscape:cy="37.293103"
     inkscape:window-width="1860"
     inkscape:window-height="1009"
     inkscape:window-x="0"
     inkscape:window-y="0"
     inkscape:window-maximized="1"
     inkscape:current-layer="g3057" />
  <g
     inkscape:groupmode="layer"
     inkscape:label="Image"
     id="g3057"
     transform="translate(-397.74751,-639.53549)">
    <path
       style="fill:none;stroke:#000000;stroke-width:1px;stroke-linecap:butt;stroke-linejoin:miter;stroke-opacity:1"
       d="m 432.62589,641.45 c -0.68567,-0.34244 -6.00181,-1.01643 -6.57042,-0.54194 -0.3858,0.32195 -0.2743,0.48872 -0.76734,0.74217 -0.22164,0.11393 -0.6803,-0.13717 -0.88605,0 -0.69496,0.4633 -3.07975,2.14221 -3.4111,2.80921 -0.30871,0.62142 -0.20565,1.46576 -0.52755,2.07184 -0.13097,0.24659 -0.48226,0.33569 -0.5923,0.5923 -0.0794,0.18508 0.0925,0.53565 0,0.72058 -0.11726,0.23452 -0.5005,0.25118 -0.64385,0.40166 -0.28125,0.29525 -0.37212,1.29017 -0.55993,1.66539 -0.52687,1.05265 -0.0814,-0.24805 -0.47,0.47 -0.2369,0.43772 -0.0793,1.34808 -0.29734,1.81885 -0.0986,0.21285 -0.38169,0.29365 -0.49758,0.49758 -0.18003,0.31678 -0.1705,0.94397 -0.55393,1.58985 -0.31577,0.5319 0.0434,1.60831 -0.28656,2.15577 -0.51283,0.85094 -1.23426,1.78106 -1.91117,2.37997 -0.10639,0.0941 -0.1971,0.86816 -0.28896,1.00595 -0.41804,0.62707 -0.76463,1.03699 -1.06949,1.68457 -0.3695,0.78488 -0.021,1.66238 -0.24699,2.52505 -0.26543,1.01299 -0.58963,2.07487 -0.91722,3.0538 -0.13994,0.41818 0.20684,1.07368 0,1.45437 -0.25826,0.47534 -0.77647,0.92806 -0.89204,1.50592 -0.0798,0.39895 0.13166,0.8356 0,1.22056 -0.18994,0.55537 -0.63916,0.95744 -0.88365,1.43878 -0.15708,0.30925 0.18907,0.92616 0,1.20977 -0.60149,0.90223 -0.84581,1.28779 -1.20138,2.33202 -0.23897,0.70181 0.185,1.63934 0,2.35839 -0.24421,0.94918 -0.20805,2.17381 -0.61388,2.98547 -0.32206,0.64413 0.11011,2.34161 0,3.00224 -0.0866,0.51977 -0.39992,0.7901 -0.59589,1.19179 -0.34115,0.69928 -0.34354,3.43699 -0.60189,4.21202 -0.44691,1.34074 -0.22035,-0.21648 -0.92082,1.5347 -0.16544,0.41361 0.14721,1.01907 0,1.43997 -0.15275,0.43679 -0.75725,0.76762 -0.90043,1.19659 -0.2443,0.73191 0.0459,1.90578 -0.30694,2.60178 -0.33134,0.65362 -0.69972,0.87265 -0.92082,1.5299 -0.20677,0.61467 0,1.65709 0,2.31284 0,0.89022 -0.12422,1.21737 -0.30694,2.1174 -0.30551,1.50488 0.37179,3.24042 0,4.72758 -0.32894,1.31578 0.0125,2.71238 -0.30694,3.99021 -0.56475,2.25903 -0.53197,4.70738 -0.92081,7.04041 -0.16949,1.01696 -0.0123,4.78386 -0.30694,5.51652 -0.56861,1.41381 -0.90491,2.31288 -1.15942,3.83194 -0.18762,1.11986 0.35723,2.56002 0,3.63171 -0.14469,0.43408 -0.52414,0.77909 -0.61387,1.22776 -0.32695,1.63475 0,3.74294 0,5.4086 0,1.52477 0.2989,3.36616 0,4.86067 -0.31048,1.55238 -2.73857,8.52807 -2.38598,9.56427 0.18613,0.54697 0.87059,1.07834 1.21457,1.50832 0.37399,0.46748 0.82834,1.46383 1.34166,1.82245 1.75184,1.22388 4.6143,0.74123 6.63516,1.02992 0.73737,0.10534 1.41864,0.46558 2.14858,0.61388 0.74121,0.1506 1.58655,-0.18279 2.32002,0 1.21783,0.30351 3.35598,1.46189 4.66764,0.63666 0.88232,-0.55511 1.61311,-3.35097 1.77329,-4.35829 0.08,-0.50285 -0.36004,-1.16747 0,-1.52751 0.80649,-0.80648 0.49715,0.31422 0.90643,-0.91362 0.43698,-1.31095 -0.025,-2.89994 0.30694,-4.22761 0.15377,-0.61509 0.68326,-0.94312 0.92081,-1.5203 0.0742,-0.18036 -0.0484,-0.39617 0,-0.58511 0.32436,-1.26699 0.92082,-1.32108 0.92082,-2.73247"
       id="path3178" />
    <path
       style="fill:none;stroke:#000000;stroke-width:1px;stroke-linecap:butt;stroke-linejoin:miter;stroke-opacity:1"
       d="m 466.13141,640.3877 c 2.96376,-0.0669 5.9106,0.0141 8.83889,0.30694 0.69127,0.0691 1.59179,-0.19266 2.17135,0.18944 0.46713,0.30797 0.6081,0.76598 0.89924,1.20617 0.42671,0.6452 1.6503,0.93251 1.8836,1.64621 0.46298,1.41633 1.36825,3.08779 2.04306,4.43742 0.34974,0.69948 -0.0343,1.93962 0.30694,2.58621 0.48132,0.91196 0.64915,2.18416 0.91003,3.22765 0.17714,0.70858 0.27306,3.43383 0.30694,3.46506 0.1682,0.15506 0.45163,0.14564 0.61387,0.30694 0.48364,0.4808 0.72435,3.70687 0.90404,4.56811 0.1463,0.70126 0.46097,1.31188 0.60908,2.01069 0.17677,0.83404 0.0232,1.81831 0.30694,2.63177 0.17854,0.51191 0.48274,1.01015 0.61388,1.53469 0.32823,1.31295 -0.22959,1.36658 0.53354,2.96149 0.41526,0.86785 0.0583,4.13742 0.30694,5.12324 0.12673,0.50246 0.47669,0.7958 0.61388,1.20738 0.19436,0.58308 0.31779,2.70768 0.56592,3.18209 0.19803,0.37864 0.71262,0.52562 0.90643,0.90643 0.0737,0.14482 0.32499,2.3123 0.61388,3.02743 0.31927,0.79037 0.89671,1.50029 1.14502,2.28286 0.41295,1.30139 0.14416,1.73513 0.91722,3.24804 0.28601,0.55973 -0.23427,1.53652 0,2.12219 0.10748,0.26869 0.45336,0.3731 0.61388,0.61388 0.27286,0.40929 0.15938,5.90532 0.60908,7.22986 0.78484,2.31157 1.22,4.66846 1.84763,7.03682 0.30198,1.13948 0.0759,2.48134 0.30694,3.6365 0.0692,0.34601 0.49996,0.86323 0.61388,1.20498 0.24601,0.73803 -0.1538,1.68653 0,2.45551 0.2239,1.11948 0.4343,2.37687 0.90403,3.34156 0.22396,0.45994 -0.0841,1.03009 0,1.5347 0.0111,0.0663 0.60283,1.16144 0.61388,1.22775 0.23684,1.42103 0.13398,3.15719 0.61388,4.5969 0.0886,0.26586 0.53084,0.61247 0.59589,0.88485 0.0713,0.29854 -0.11399,0.63583 0,0.92081 0.10748,0.26869 0.45336,0.3731 0.61388,0.61388 0.11351,0.17026 -0.11351,0.44362 0,0.61388 0.16052,0.24078 0.5064,0.34519 0.61388,0.61388 0.19886,0.49714 -0.23077,1.3354 0,1.82365 0.34518,0.73031 0.64019,1.16819 0.86926,2.07903 0.19022,0.75636 -0.18917,1.65568 0,2.41235 0.21654,0.86615 0.5843,1.2785 0.92082,2.1198 0.49796,1.2449 -0.10152,3.95783 0.30694,5.18319 0.11665,0.34997 0.47687,0.57831 0.61387,0.92082 0.1721,0.43023 -0.0916,1.07111 0,1.5311 0.21114,1.05983 0.5737,2.0369 0.91723,3.01783 0.20193,0.57663 0.31258,3.92152 0,4.43264 -0.0359,0.0586 -4.57081,-0.2455 -5.43019,0.61387 -0.16177,0.16178 -0.14645,0.45084 -0.30694,0.61388 -0.21056,0.2139 -0.63219,-0.13465 -0.90043,0 -0.50781,0.25491 -0.73777,0.67523 -1.21697,0.91483 -0.78883,0.39441 -1.93729,0.51549 -2.71929,0.89923 -0.39361,0.19316 -1.15632,0.0739 -1.50592,0.30694 -0.19035,0.1269 -0.10231,0.51157 -0.30694,0.61388 -0.51359,0.2568 -4.4408,0.47009 -5.2875,0.30694 -0.40182,-0.0774 -0.5418,-0.62107 -0.86806,-0.86806 -0.39913,-0.30216 -1.43563,-0.78306 -1.62223,-1.34286 -0.0921,-0.27625 0.0921,-0.64458 0,-0.92082 -0.20301,-0.60904 -0.79473,-0.90429 -0.92081,-1.5347 -0.0803,-0.4013 0.12737,-0.83883 0,-1.22775 -0.30299,-0.92517 -0.5779,-1.71719 -0.87646,-2.55623 -0.23815,-0.66928 -0.0892,-1.61347 -0.30334,-2.28046 -0.57803,-1.80032 -1.77209,-1.97464 -1.77209,-4.48179"
       id="path3182" />
    <path
       style="fill:none;stroke:#000000;stroke-width:1px;stroke-linecap:butt;stroke-linejoin:miter;stroke-opacity:1"
       d="m 401.17902,746.08986 c 1.5688,0.13659 2.74846,0.62763 4.15087,1.19898 0.62302,0.25383 1.56258,0.18114 2.19533,0.51317 0.28766,0.15094 0.51651,0.74031 0.8273,0.82729 0.70431,0.19713 1.43544,-0.0373 2.12459,0.30694 0.93014,0.46457 1.02038,0.96407 2.07544,1.1786 1.21219,0.24648 2.77116,-0.14604 3.91467,0.30934 1.17601,0.46831 0.80188,0.59109 1.5287,0.59109"
       id="path3184" />
    <path
       style="fill:none;stroke:#000000;stroke-width:1px;stroke-linecap:butt;stroke-linejoin:miter;stroke-opacity:1"
       d="m 481.02755,748.62211 c 0.87805,-0.34611 1.71776,-0.81254 2.63416,-1.03832 0.51146,-0.12601 1.05744,0.0643 1.58026,0 0.32,-0.0393 0.60455,-0.22831 0.91722,-0.30694 1.82712,-0.45947 4.00138,0.46031 5.82824,0 2.03598,-0.513 4.25566,-0.30694 6.40976,-0.30694 1.02972,0 3.46032,0.43157 4.19883,-0.30694"
       id="path3186" />
    <path
       style="fill:none;stroke:#000000;stroke-width:1px;stroke-linecap:butt;stroke-linejoin:miter;stroke-opacity:1"
       d="m 419.70807,651.23248 c 0.0184,1.15381 0.23717,1.63969 0.49877,2.66774 0.55318,2.17379 -0.67216,6.36626 0,8.37488 0.50388,1.5057 -0.0718,3.08178 0.30694,4.59689 0.4895,1.95799 -0.0896,4.08051 0.30694,6.06325 0.23212,1.16059 0.30694,2.06415 0.30694,3.2864 0,5.54289 0,11.08578 0,16.62867 0,2.46726 0.46552,5.81112 0,8.13868 -0.58418,2.92092 -0.33944,5.89603 -0.92082,8.80292 -0.27291,1.36457 0.33711,2.94875 0,4.29715 -0.33043,1.32174 -0.0397,2.64679 -0.30693,3.98301 -0.40117,2.00584 -0.30694,4.11514 -0.30694,6.22631 0,3.31558 0,6.63117 0,9.94675 0,0.72506 -0.27854,3.77013 0,4.25758 0.0695,0.1217 0.26373,0.16127 0.29734,0.29735 0.34792,1.4085 0.1541,3.15998 0.61388,4.53934 0.15784,0.47352 0.43797,1.8435 0.60069,1.37163 0.26643,-0.77258 0.22701,-1.61862 0.34051,-2.42793"
       id="path3188" />
    <path
       style="fill:none;stroke:#000000;stroke-width:1px;stroke-linecap:butt;stroke-linejoin:miter;stroke-opacity:1"
       d="m 481.73974,650.9759 c 0.23638,2.3296 -0.29035,4.75472 0,7.07759 0.14447,1.15573 0.3652,1.77349 0.61508,2.77204 0.46507,1.85844 0,5.93617 0,8.16506 0,3.76833 0.003,7.36887 0.61388,11.03422 0.12776,0.76656 -0.24563,1.72078 0,2.45192 0.0725,0.21585 0.27468,0.38487 0.30694,0.61028 0.26027,1.81884 -0.50437,4.06657 0,5.83184 0.1257,0.43996 0.4436,0.80307 0.61388,1.22776 0.22539,0.56216 -0.0879,1.92222 0,2.44832 0.16428,0.98313 0.46575,2.02051 0.61388,3.0574 0.11715,0.8201 -0.26169,1.97069 0,2.75885 0.72552,2.18518 0.30326,5.16969 0.91722,7.62552 0.5018,2.0072 -0.3403,4.40395 0,6.44573 0.90082,5.40496 0.30694,11.35701 0.30694,16.88165 0,3.36336 0.14132,6.63052 -0.91123,9.78608 -0.0627,0.18805 0.089,0.41755 0,0.59469 -0.26434,0.52625 -0.64676,0.98753 -0.91003,1.51432 -0.0739,0.14797 -0.4112,2.58076 -0.84888,2.37158 -1.17467,-0.56141 -2.25168,-1.30769 -3.37752,-1.96153"
       id="path3190" />
    <path
       style="fill:none;stroke:#000000;stroke-width:1px;stroke-linecap:butt;stroke-linejoin:miter;stroke-opacity:1"
       d="m 421.44539,742.2831 c 0.43083,0.87605 0.78971,1.79133 1.2925,2.62816 0.15635,0.26022 0.62122,0.10494 0.86447,0.28656 0.3103,0.23168 1.05196,1.01847 1.44117,1.16061 0.51467,0.18795 7.14713,-0.26404 7.5332,-0.30694 1.78564,-0.1984 3.50542,-0.80885 5.28391,-1.06349 0.5064,-0.0725 1.03862,0.12493 1.5347,0 1.53863,-0.3875 0.59887,-0.7552 2.42074,-0.92082 2.4086,-0.21896 4.85934,-0.14457 7.20587,-0.61388 1.27142,-0.25428 2.70826,0.18562 3.99021,0 0.52827,-0.0765 1.33816,-0.3937 1.7637,-0.60309 0.27934,-0.13744 6.69786,-0.30694 7.04641,-0.30694 1.92663,0 8.51596,0.47636 10.03907,0 0.80745,-0.25253 0.1793,-0.27936 1.46516,-0.27936 0.99485,0 0.72555,-0.17176 1.80926,-0.61388 0.6111,-0.24931 1.4811,0.16178 2.12819,0 0.34891,-0.0872 1.46862,-0.51555 1.82005,-0.61387 0.64793,-0.18128 1.2099,-0.27577 1.92437,-0.27577 0.0991,0 0.37915,-0.056 0.29734,0 -0.51242,0.35056 -1.08387,0.60589 -1.62581,0.90883"
       id="path3192" />
    <path
       style="fill:none;stroke:#000000;stroke-width:1px;stroke-linecap:butt;stroke-linejoin:miter;stroke-opacity:1"
       d="m 418.62179,735.75105 c 2.5384,0.81396 3.76009,-1.35898 5.00575,-1.65819 1.04913,-0.25201 1.67718,-0.0801 2.74207,-0.61388 0.76822,-0.38512 1.47504,-1.02278 2.33801,-1.16661 2.62346,-0.43724 5.31959,-0.1762 7.94565,-0.61388 0.89274,-0.14879 1.87596,0.1773 2.76245,0 5.3857,-1.07714 11.11177,-0.61388 16.64305,-0.61388 2.00329,0 3.86448,0.0162 5.80307,-0.30694 2.7921,-0.46534 7.83639,0 10.97547,0 0.8756,0 11.94303,0.34413 12.51377,-0.2266"
       id="path3194" />
    <path
       style="fill:none;stroke:#000000;stroke-width:1px;stroke-linecap:butt;stroke-linejoin:miter;stroke-opacity:1"
       d="m 432.62589,641.45 c -0.81091,0.48399 -1.75669,0.79258 -2.43273,1.45196 -0.21973,0.21432 0,0.61388 0,0.92082 0,2.51472 0.32935,3.96734 1.81406,6.02488 0.59509,0.82471 3.03664,3.44773 3.84992,3.85353 0.46143,0.23023 1.39872,0.34157 1.80447,0.61387 0.9727,0.65279 0.18263,0.56142 1.19778,0.90164 0.63166,0.21169 0.62856,-0.12395 1.49033,0.30694 0.45756,0.22878 0.72613,0.82049 1.22776,0.92081 0.60196,0.1204 1.27166,-0.22798 1.84164,0 1.04535,0.41814 1.54531,0.77443 2.73127,0.92082 2.16508,0.26724 4.57633,0 6.76945,0 1.61238,0 5.34469,0.67085 6.55363,-0.57311 0.15945,-0.16406 0.14792,-0.4494 0.30694,-0.61388 1.48222,-1.53313 3.75343,-2.79521 5.01174,-4.73238 0.31429,-0.48384 1.67199,-2.23674 1.78288,-2.56941 0.0647,-0.19413 -0.12277,-0.45018 0,-0.61388 0.22134,-0.29512 0.65946,-0.35354 0.92082,-0.61388 0.11926,-0.11879 0.87766,-4.25329 0.87766,-4.90743 0,-0.63666 0,-1.27332 0,-1.90998 0,-0.2764 0.56139,-0.74874 0.28655,-0.77813 -0.8454,-0.0904 -1.68577,0.22301 -2.52865,0.33451"
       id="path3200" />
    <path
       style="fill:none;stroke:#000000;stroke-width:1px;stroke-linecap:butt;stroke-linejoin:miter;stroke-opacity:1"
       d="m 447.07601,657.50435 c 0.17737,0.81699 3.25299,4.52447 3.58975,4.28996 1.38446,-0.96411 2.30743,-2.50556 3.74202,-3.46506"
       id="path3202" />
    <path
       style="fill:none;stroke:#000000;stroke-width:1px;stroke-linecap:butt;stroke-linejoin:miter;stroke-opacity:1"
       d="m 436.03819,652.79476 c -0.77617,1.95499 -3.01753,3.21145 -3.92546,5.02732 -0.18866,0.37732 -0.11829,0.85045 -0.30694,1.22776 -0.54,1.07999 -2.03089,2.70864 -2.77085,3.69526 -0.94712,1.26283 -1.07518,2.95585 -1.84163,4.29715 -0.32504,0.5688 -0.90273,0.96589 -1.22776,1.53469 -0.3407,0.59622 -0.56772,1.25388 -0.92082,1.84284 -0.70454,1.17515 -3.06939,3.97471 -3.06939,5.39181"
       id="path3204" />
    <path
       style="fill:none;stroke:#000000;stroke-width:1px;stroke-linecap:butt;stroke-linejoin:miter;stroke-opacity:1"
       d="m 465.29692,651.94588 c 1.03712,1.73664 2.46594,3.42621 3.66768,4.91702 0.0715,0.0887 1.57741,1.33501 1.82965,1.82964 0.0447,0.0876 0,0.19664 0,0.29495 0.0991,0.19783 0.17404,0.40977 0.29735,0.5935 0.40705,0.60655 1.1967,1.18783 1.5227,1.82964 0.4035,0.79439 0.7773,1.83943 1.19059,2.66774 0.21839,0.4377 0.55351,0.24777 0.90043,0.59469 0.71931,0.71931 -0.0621,0.61198 0.30694,1.5347 0.10748,0.26868 0.45336,0.37309 0.61388,0.61387 0.1696,0.2544 -0.0965,0.6271 0,0.91722 0.37052,1.11448 1.27713,1.9658 1.7625,2.93271 0.27135,0.23569 -0.13405,0.63114 0,0.89924 0.80055,1.60108 2.68866,3.21611 4.16167,3.96862 0.43517,0.22232 0.54991,0.85686 0.89563,1.20258"
       id="path3208" />
    <path
       style="fill:none;stroke:#000000;stroke-width:1px;stroke-linecap:butt;stroke-linejoin:miter;stroke-opacity:1"
       d="m 432.62589,643.45 c 1.63299,0.59261 0.43612,3.50671 1.1762,4.61608 0.65428,0.98075 1.98268,2.52525 3.02863,3.01543 0.21374,0.10017 0.74097,-0.0638 0.92081,0 0.316,0.11205 0.47569,0.6347 0.78054,0.78054 0.19782,0.0946 0.53603,-0.0992 0.73138,0 0.49524,0.25155 0.40964,0.95833 0.90043,1.20737 0.37422,0.18989 0.8015,0.25005 1.20498,0.46281 0.88652,0.46748 8.00142,0.61388 9.96233,0.61388 1.72421,0 5.79991,0.50816 7.00085,-0.28176 0.60409,-0.39735 0.60505,-1.04658 1.15702,-1.416 1.03754,-0.6944 3.85727,-2.32887 4.36189,-3.45306 0.41372,-0.92168 1.45563,-3.76607 2.07783,-4.38827 0.82835,-0.82835 0.70318,-0.50492 1.20738,-1.51432 0.0632,-0.12652 1.77646,-2.44741 1.7565,-2.47949 -0.76209,-1.22505 -2.40573,1.48602 -2.76125,1.77449"
       id="path3212" />
  </g>
</svg>
