<?xml version="1.0" encoding="UTF-8" standalone="no"?>
<!-- Created with Inkscape (http://www.inkscape.org/) -->

<svg
   version="1.1"
   id="svg1777"
   width="100.43172"
   height="120.16413"
   viewBox="0 0 100.43172 120.16413"
   sodipodi:docname="wrap-top.svg"
   inkscape:version="1.1.2 (0a00cf5339, 2022-02-04)"
   xmlns:inkscape="http://www.inkscape.org/namespaces/inkscape"
   xmlns:sodipodi="http://sodipodi.sourceforge.net/DTD/sodipodi-0.dtd"
   xmlns="http://www.w3.org/2000/svg"
   xmlns:svg="http://www.w3.org/2000/svg">
  <defs
     id="defs1781" />
  <sodipodi:namedview
     id="namedview1779"
     pagecolor="#ffffff"
     bordercolor="#666666"
     borderopacity="1.0"
     inkscape:pageshadow="2"
     inkscape:pageopacity="0.0"
     inkscape:pagecheckerboard="0"
     showgrid="false"
     fit-margin-top="0"
     fit-margin-left="0"
     fit-margin-right="0"
     fit-margin-bottom="0"
     inkscape:zoom="4.6074726"
     inkscape:cx="-41.671436"
     inkscape:cy="53.283008"
     inkscape:window-width="1860"
     inkscape:window-height="1009"
     inkscape:window-x="0"
     inkscape:window-y="0"
     inkscape:window-maximized="1"
     inkscape:current-layer="g1783" />
  <g
     inkscape:groupmode="layer"
     inkscape:label="Image"
     id="g1783"
     transform="translate(-447.03307,-427.43482)">
    <path
       style="fill:none;stroke:#000000;stroke-width:1px;stroke-linecap:butt;stroke-linejoin:miter;stroke-opacity:1"
       d="m 447.53132,447.3058 c 1.67594,-0.42122 1.16815,0.20215 2.12121,-0.8495 0.15104,-0.16666 1.92481,-0.27963 2.21024,-0.42475 0.1824,-0.0927 0.25105,-0.34257 0.43408,-0.43408 0.61725,-0.30863 1.81266,-0.12912 2.3196,-0.63501 0.10735,-0.10713 0.0945,-0.30148 0.20347,-0.40694 0.26816,-0.25951 1.10021,-0.41414 1.41754,-0.62569 0.17025,-0.1135 0.25105,-0.34256 0.43407,-0.43407 0.28823,-0.14412 0.77441,-0.0718 1.21745,-0.37134 0.38821,-0.26249 0.6357,-0.82144 1.04535,-1.05552 0.76897,-0.43942 1.86196,-1.5609 2.45186,-1.85585 0.96943,-0.48472 1.95535,-1.20193 2.97157,-1.71003 0.98698,-0.49349 1.7527,-2.20097 2.72824,-2.93087 0.71413,-0.53432 1.83446,-1.1754 2.38827,-1.81685 0.22436,-0.25987 0.29871,-0.68626 0.64858,-0.86223 0.62787,-0.31578 1.58366,-0.50863 2.14495,-1.06993 0.22343,-0.22343 0.21065,-0.42769 0.43408,-0.65111 0.26212,-0.26213 0.59353,-0.25492 0.86137,-0.43408 0.24915,-0.16666 0.37108,-0.49535 0.63586,-0.63586 0.12331,-0.0654 0.28799,0.0487 0.41881,0 0.23048,-0.0858 0.19122,-0.43136 0.41034,-0.54514 1.53292,-0.79593 1.24594,-1.4879 3.3836,-1.4879 0.39084,0 0.92225,-0.3002 1.17252,0 0.10221,0.12261 0.10151,0.31538 0.21449,0.42814 0.15973,0.15941 0.79617,0.13031 1.05637,0.21704 0.3346,0.11153 0.83095,0.46611 1.09367,0.6189 3.16141,1.83849 2.47203,1.12766 6.82994,2.6121 0.67196,0.22889 1.05646,0.65455 1.69477,0.86815 0.71272,0.2385 1.64094,-0.18302 2.37301,0 2.73739,0.68435 5.78484,0.43408 8.61797,0.43408 1.09375,0 2.38871,0.1822 3.48194,0 1.19694,-0.19949 0.58755,-0.18902 1.74225,-0.65451 0.1293,-0.0521 0.38927,0.0708 0.51038,0 0.19604,-0.11466 0.31708,-0.43682 0.52564,-0.52564 0.17888,-0.0762 0.39898,0.0619 0.58329,0 0.43019,-0.14453 1.58793,-0.51331 1.93724,-0.85205 0.28488,-0.27625 0.0656,-0.43892 0.41543,-0.61381 0.12941,-0.0647 0.29681,0.0458 0.43407,0 0.88658,-0.29552 1.7223,-0.86634 2.51545,-1.29291 0.13141,-0.0707 0.61536,0.10889 0.70707,0 0.3158,-0.37496 0.35635,-0.61169 0.78507,-0.82915 0.40224,-0.20403 3.44876,-0.44328 3.88974,-0.21195 0.64003,0.33575 -0.30017,0.11011 0.42306,0.62822 0.32282,0.23127 0.29287,-0.10764 0.5392,0 0.66906,0.29237 1.14883,0.94157 1.95165,1.18269 0.42939,0.12897 0.93377,0.005 1.32682,0.22043 0.20943,0.11491 0.49921,0.80406 0.81814,1.04026 0.27636,0.20468 1.03846,0.60439 1.30223,0.86816 0.33185,0.33185 0.48804,0.85044 0.91902,1.13606 0.35164,0.23303 0.76454,0.37702 1.0852,0.65112 0.12859,0.10992 1.57851,2.0984 1.70324,2.25516 0.42579,0.53512 0.9863,0.76926 1.45399,1.23696 0.43659,0.43659 0.67794,1.13048 1.24713,1.46416 0.27911,0.16363 0.62269,0.22329 0.86815,0.43408 0.27658,0.2375 0.35968,0.66287 0.65621,0.87493 0.48911,0.3498 1.3781,0.36307 1.9118,0.62993 1.87804,0.93901 3.54171,1.95604 5.35984,2.92832 0.24608,0.1316 0.69232,-0.12672 0.94107,0 0.48844,0.24883 1.15577,0.29771 1.6439,0.53582 0.47842,0.23337 1.04131,0.33332 1.56674,0.57481 0.26868,0.12348 0.71864,-0.0977 0.99618,0 0.50022,0.17615 0.83931,0.65112 1.46077,0.65112"
       id="path1900" />
    <path
       style="fill:none;stroke:#000000;stroke-width:1px;stroke-linecap:butt;stroke-linejoin:miter;stroke-opacity:1"
       d="m 447.53132,447.3058 c 0.10971,1.30764 1.75193,2.16012 2.28823,3.22422 0.19197,0.38087 -0.18732,0.0404 0,0.41542 0.26728,0.5351 1.01526,1.67067 1.36073,2.17971 0.28957,0.42667 0.95427,0.51157 1.16659,0.96481 0.0565,0.12053 -0.0421,0.27304 0,0.39932 0.18935,0.56805 0.60617,1.06136 0.84526,1.54725 0.21458,0.43607 0.26659,1.19856 0.43408,1.69646 0.20198,0.60042 0,1.72479 0,2.36114 0,1.73665 -0.35863,8.92826 0.21704,10.07959 0.1288,0.2576 0.49869,0.39304 0.64264,0.64348 0.61969,1.07818 1.56289,1.50023 2.56122,2.29078 0.34855,0.27601 0.49347,0.84144 0.92157,1.05637 0.3056,0.15342 0.71852,0.25074 1.06484,0.4239 0.61043,0.30521 0.90192,1.32474 1.51928,1.73631 1.43862,0.95909 2.62849,1.84861 3.66592,3.23184 0.57078,0.76104 1.64301,0.91854 2.10934,1.82024 0.35721,0.6907 0.80817,1.31017 1.1988,1.98218 0.0861,0.14816 -0.0429,0.48016 0,0.64772 0.16595,0.64759 0.38882,1.25834 0.6172,1.81516 0.15637,0.38124 0.58007,1.36729 0.99194,1.63627 0.30891,0.20173 0.44344,0.13702 0.6367,0.41882 0.29716,0.43326 0.62694,0.97497 1.19032,0.97497"
       id="path1904" />
    <path
       style="fill:none;stroke:#000000;stroke-width:1px;stroke-linecap:butt;stroke-linejoin:miter;stroke-opacity:1"
       d="m 523.58305,487.76233 c 0.53556,-1.02053 1.72019,-1.58912 2.00676,-2.63329 0.0495,-0.18041 0.38608,-0.28903 0.46121,-0.46121 0.004,-0.008 -0.004,-0.41936 0,-0.42475 0.11272,-0.16886 0.3262,-0.2566 0.43068,-0.43068 0.11732,-0.19548 0.0804,-0.46607 0.21704,-0.64858 0.17602,-0.23515 0.62055,-0.30075 0.81305,-0.59855 0.53039,-0.82053 0.89774,-1.78814 1.29206,-2.58242 0.31331,-0.63112 0.9497,-1.0954 1.26493,-1.69138 0.0301,-0.057 0,-0.12886 0,-0.1933 0.0681,-0.2046 0.0747,-0.44145 0.20432,-0.61381 0.17641,-0.23465 0.62365,-0.25355 0.77913,-0.57312 0.2782,-0.57179 0.78079,-1.33186 1.24543,-1.7965 0.16811,-0.16811 0.80959,-0.56429 0.86816,-0.65112 1.01298,-1.50167 -0.27767,-0.14878 0.42729,-0.85374 0.45328,-0.45328 1.20873,-0.73789 1.68799,-1.05891 1.04226,-0.69813 1.83483,-1.76943 2.88593,-2.46458 0.58081,-0.38412 1.40071,-1.32775 1.7041,-1.9118 0.17841,-0.34346 -0.18776,-0.0103 0,-0.36541 0.129,-0.24396 0.46481,-0.38531 0.6172,-0.61636 0.12596,-0.19097 0.0553,-0.48934 0.21704,-0.65111 0.36822,-0.36822 0.85173,-0.60599 1.06145,-1.13522 0.0801,-0.20209 -0.0703,-0.47917 0,-0.68418 0.24687,-0.72034 -0.0191,-1.54583 0.21704,-2.23482 0.38357,-1.11924 0.21704,-2.47227 0.21704,-3.67948 0,-0.49924 -0.15703,-1.21578 0,-1.67951 0.30739,-0.90775 0.29807,-1.8008 0.43408,-2.74859 0.30089,-2.09682 1.3874,-4.16975 2.60362,-5.79137 0.33675,-0.44901 0.0381,-0.49536 0.21703,-0.84272 0.10216,-0.19833 1.58576,-2.13867 1.71088,-2.16615"
       id="path1906" />
    <path
       style="fill:none;stroke:#000000;stroke-width:1px;stroke-linecap:butt;stroke-linejoin:miter;stroke-opacity:1"
       d="m 480.78827,430.33185 c 0.29503,0.4629 0.66698,0.88497 0.88511,1.38871 0.0868,0.20046 -0.0427,0.44111 0,0.65535 0.1029,0.51653 0.36277,0.44691 0.65111,0.86816 0.0114,0.0166 -0.0101,0.34942 0,0.37812 0.19082,0.54 0.61744,1.23487 0.86562,1.73122 0.30024,0.60049 0.78136,1.13756 1.08519,1.73631 0.16604,0.32722 -0.0672,0.41727 0.21704,0.84357 0.17026,0.25539 0.47884,0.39708 0.65111,0.65112 0.20592,0.30365 -0.0899,1.07599 0,1.43618 0.0882,0.35346 0.0992,0.72608 0.2145,1.07163 0.0319,0.0957 0.143,0.14243 0.21449,0.21365 0.0721,0.14469 0.16526,0.28067 0.2162,0.43408 0.0912,0.27464 -0.0568,0.58439 0,0.86815 0.23733,1.18666 0.92164,2.33085 1.30223,3.47262 0.16177,0.48531 0.0765,1.02739 0.21704,1.51927 0.32161,1.12566 0.65739,2.40469 1.08349,3.46245 0.45633,1.13278 1.1405,2.11415 1.51928,3.25049 0.0457,0.13727 0,0.28939 0,0.43408 0.0723,0.21704 0.12691,0.44084 0.21703,0.65112 0.2929,0.68343 0.85618,1.48333 1.0852,2.17038 0.1977,0.59311 0.17163,1.47387 0.65111,1.95335 0.18445,0.18445 0.48817,0.23039 0.65112,0.43408 0.34419,0.43024 0.40471,1.02647 0.65112,1.51927 0.66638,1.33276 1.34751,2.8922 2.1831,4.1373 0.30663,0.4569 1.10308,0.59664 1.29545,1.07756 0.87912,2.1978 2.00657,3.93698 3.43447,5.72186 0.6326,0.79075 0.96748,1.76901 1.49384,2.55275 1.01256,1.50768 3.67221,3.5926 4.92661,5.1606 0.46436,0.58045 1.34796,1.07002 1.72528,1.72529 0.44693,0.77614 1.09961,1.40623 1.49299,2.06187 0.52957,0.88261 -0.17215,0.47896 0.65112,1.30223 0.40772,0.40772 0.99695,0.73613 1.30223,1.30138 0.028,0.0519 -0.0306,0.34182 0,0.3866 0.23074,0.33801 0.68513,0.50211 0.86816,0.86816 0.0647,0.12942 -0.0647,0.30466 0,0.43408 0.23947,0.47894 1.1121,1.54618 1.51927,1.95335 0.41538,0.41538 2.11452,1.18628 2.29925,1.41923 0.35137,0.44307 0.31393,0.47348 0.85714,0.8478 0.19162,0.13205 0.61987,-0.10633 0.83254,0 0.62358,0.31179 0.83519,0.5621 1.53199,0.5621"
       id="path1908" />
    <path
       style="fill:none;stroke:#000000;stroke-width:1px;stroke-linecap:butt;stroke-linejoin:miter;stroke-opacity:1"
       d="m 497.55027,464.86051 c 0.9523,-1.1599 2.05818,-2.26596 3.23099,-3.20641 0.34334,-0.27532 0.41673,-0.0934 0.62823,-0.41458 0.24142,-0.36662 0.73387,-1.01541 1.0818,-1.29375 0.20369,-0.16295 0.51691,-0.21041 0.65112,-0.43408 0.11166,-0.18611 -0.0526,-0.44056 0,-0.65112 0.10061,-0.40244 0.87729,-1.05275 1.08519,-1.30223 0.54979,-0.65975 0.85441,-1.45455 1.30223,-2.17039 2.08909,-3.33931 -1.0132,2.02619 1.53708,-1.97878 0.22071,-0.43973 0.44142,-0.87946 0.66214,-1.31919 0,-0.2176 -0.079,-0.45005 0,-0.65281 0.32993,-0.84681 0.96701,-1.6936 1.37684,-2.51205 0.35324,-0.70546 0.49486,-1.5085 0.87917,-2.19752 0.55614,-0.99708 1.49199,-1.8696 2.00252,-2.89018 0.1337,-0.26726 0.0994,-0.59512 0.21704,-0.86985 0.71726,-1.67547 0.18879,0.51885 0.86816,-1.51927 0.11665,-0.34996 0.0875,-0.73979 0.21704,-1.08519 0.30715,-0.81908 1.01697,-1.53166 1.30223,-2.38743 0.36097,-1.08292 0.60093,-2.40159 0.87239,-3.4811 0.11384,-0.45269 0.49581,-0.48833 0.63925,-0.8495 0.0647,-0.16284 -0.0794,-0.36946 0,-0.52564 0.32325,-0.63576 0.75174,-1.27813 1.05043,-1.90842 0.40916,-0.86337 -1.34207,1.2149 0.21704,-0.86391 0.0971,-0.12942 0.33702,-0.0876 0.43408,-0.21704 1.49029,-1.98706 -0.48278,0.0487 0.42729,-0.86137"
       id="path1910" />
    <path
       style="fill:none;stroke:#000000;stroke-width:1px;stroke-linecap:butt;stroke-linejoin:miter;stroke-opacity:1"
       d="m 470.96302,488.85176 c -0.18906,0.85516 -0.39225,1.70731 -0.56718,2.56547 -0.0456,0.22385 -0.27733,6.05169 -0.21704,6.12626 1.00841,1.24706 3.05886,0.77066 3.36834,1.00634 0.17092,0.13017 0.97448,0.68114 1.10385,0.81051"
       id="path1912" />
    <path
       style="fill:none;stroke:#000000;stroke-width:1px;stroke-linecap:butt;stroke-linejoin:miter;stroke-opacity:1"
       d="m 474.65099,499.36034 c 0.26056,-0.71357 0.38407,-1.49342 0.78168,-2.14072 0.43028,-0.7005 0,1.38242 0,2.38743 0,0.75014 -0.26141,1.90526 0,2.61888 0.45421,1.23997 1.70382,3.18476 3.32086,2.86135 0.84941,-0.16988 0.72476,-0.32724 1.51927,-0.65112 0.57823,-0.23571 1.2015,-0.0519 1.82279,-0.20771 1.09252,-0.27394 2.31373,-0.52235 3.47262,-0.65112 0.62571,-0.0695 1.34445,0.14903 1.95334,0 2.50087,-0.6121 5.57284,-0.20771 8.17202,-0.20771 5.17361,0 10.34721,0 15.52081,0 0.4468,0 3.25266,-0.34323 3.35902,-0.4256 0.81634,-0.63223 2.71063,-4.02148 1.18778,-4.77231"
       id="path1914" />
    <path
       style="fill:none;stroke:#000000;stroke-width:1px;stroke-linecap:butt;stroke-linejoin:miter;stroke-opacity:1"
       d="m 519.5797,492.98737 c -2.63853,-0.88492 -4.88547,0.48834 -7.26401,0.48834 -0.39423,0 -1.43449,-0.23519 -1.65069,0 -0.10323,0.1123 -0.0763,0.32658 -0.20432,0.40949 -0.26768,0.17331 -3.51751,0 -3.77698,0 -2.16975,0 -4.98226,0.43531 -6.9393,-0.21704 -0.8271,-0.2757 -1.91905,0.17218 -2.77997,0 -0.35666,-0.0713 -0.70228,-0.33584 -1.05636,-0.42391 -0.52003,-0.12934 -1.18599,0.0752 -1.71258,0 -1.09026,-0.15575 -2.45129,-0.11184 -3.41666,-0.43153 -1.15156,-0.38134 -3.35589,0.182 -4.62988,0 -2.55892,-0.36556 -8.75765,-0.7389 -10.87991,0.42645 -0.81038,0.44498 -0.95191,2.42195 -0.65536,3.30814 0.0513,0.15341 0.2149,0.27232 0.21704,0.43408 0.0106,0.79517 -0.11982,1.58597 -0.17973,2.37895"
       id="path1916" />
    <path
       style="fill:none;stroke:#000000;stroke-width:1px;stroke-linecap:butt;stroke-linejoin:miter;stroke-opacity:1"
       d="m 515.76118,498.17171 c -0.3566,1.3263 -0.62231,3.28223 -0.33404,4.6977 0.16104,0.79073 0.0632,1.58525 0.21704,2.35267 0.15653,0.7808 0.45777,1.54754 0.65111,2.31791 0.13259,0.52827 -0.24072,1.43543 0,1.91689 0.0724,0.14469 0.31969,0.10265 0.43408,0.21704 0.0128,0.0128 0.32511,1.73541 0.43408,1.95335 0.36656,0.73312 -0.23106,2.70091 0,3.58453 0.25511,0.97561 -0.0263,2.04993 0.21704,3.02328 0.0248,0.0993 0.19222,0.11778 0.21704,0.21704 0.0696,0.27855 -0.0926,0.5896 0,0.86137 0.67014,1.96593 0.21704,7.52996 0.21704,9.91341 0,2.36816 0.33439,5.02753 0,7.3683 -0.0229,0.16014 -0.16565,0.28069 -0.21704,0.43408 -0.23715,0.70772 -0.0684,1.63818 -0.21704,2.38149 -0.18112,0.90557 -0.22515,0.45278 -0.65112,1.30223 -0.20806,0.4149 -0.10662,0.84614 -0.21449,1.27765 -0.32203,1.28808 -0.97215,1.57019 -0.62229,3.19623 0.002,0.009 3.03829,0 3.09195,0 0.95917,0 3.07122,-0.35804 3.93383,0.21704 0.25539,0.17026 0.40626,0.46603 0.65111,0.65111 0.17766,0.1343 0.77261,0.12528 0.9665,0.18991 0.2661,0.0887 1.14019,0.77034 1.37006,1.00126"
       id="path1918" />
    <path
       style="fill:none;stroke:#000000;stroke-width:1px;stroke-linecap:butt;stroke-linejoin:miter;stroke-opacity:1"
       d="m 525.90604,547.2462 c 1.32054,-2.89768 1.4896,-5.74105 1.4896,-8.84687 0,-1.00501 0.0711,-1.97987 -0.21704,-2.84439 -0.1467,-0.4401 0.0754,-1.06662 0,-1.51927 -0.45624,-2.73925 0.039,-0.10093 -0.43408,-1.52012 -0.23713,-0.71139 0.23961,-1.66177 0,-2.37217 -0.15101,-0.44773 -0.43408,-1.01199 -0.43408,-1.48281 0,-0.38874 0.19403,-1.44754 0,-1.73631 -0.11345,-0.16886 -0.32,-0.26056 -0.43407,-0.42899 -0.19771,-0.29194 0.15957,-0.94259 0,-1.26239 -0.12395,-0.2484 -0.29469,-0.39085 -0.42136,-0.63925 -0.2988,-0.58592 0.0923,-5.2099 -0.21704,-6.44842 -0.84501,-3.38345 -0.83086,-6.99444 -1.92876,-10.28814 -0.0915,-0.27454 0.0915,-0.59362 0,-0.86816 -0.10794,-0.3238 -0.26784,-0.71281 -0.43408,-1.01737 -0.25815,-0.47293 0.0652,-1.32541 -0.21704,-1.88298 -0.16808,-0.332 -0.48638,-0.44904 -0.64094,-0.76387 -0.2849,-0.58032 -0.2922,-1.33306 -0.63671,-1.92283 -0.0823,-0.1409 0.0458,-0.56978 0,-0.69775 -0.0988,-0.27614 -0.49993,-0.556 -0.63246,-0.82491 -0.20553,-0.41703 -0.45404,-1.52889 -0.65112,-1.88807 -0.11947,-0.21775 -0.58383,-0.40619 -0.64433,-0.64349 -0.0652,-0.25576 0.0917,-0.54435 0,-0.79185 -0.37245,-1.00503 -1.07064,-1.72427 -1.36582,-2.64855 -0.25227,-0.78994 -0.96244,-0.26417 -0.91902,-0.27384 0.81243,-0.18096 1.60801,-0.43069 2.41201,-0.64603"
       id="path1922" />
    <path
       style="fill:none;stroke:#000000;stroke-width:1px;stroke-linecap:butt;stroke-linejoin:miter;stroke-opacity:1"
       d="m 515.76118,498.17171 c -2.39903,-3.8323 -0.30745,-1.09631 0,0 z"
       id="path1924" />
    <path
       style="fill:none;stroke:#000000;stroke-width:1px;stroke-linecap:butt;stroke-linejoin:miter;stroke-opacity:1"
       d="m 511.57725,503.86559 c -0.0439,3.34326 -0.0346,6.67334 0.43407,9.95411 0.33569,2.34979 0,5.5823 0,8.0228 0,2.38732 0.0287,4.83806 -0.43831,7.1733 -0.12344,0.61717 -0.47477,1.25218 -0.63247,1.88298 -0.13572,0.54289 -0.0802,1.1889 -0.21704,1.73631 -0.12642,0.50567 -0.70396,1.08633 -0.39338,1.70748 0.52454,1.04908 2.15481,2.03071 3.21065,2.38404 0.1356,0.0454 0.30989,-0.0791 0.42899,0 0.52637,0.34974 0.9416,0.76854 1.48112,1.06315 0.35295,0.19273 1.05641,0.19943 1.47179,0.3459"
       id="path1926" />
    <path
       style="fill:none;stroke:#000000;stroke-width:1px;stroke-linecap:butt;stroke-linejoin:miter;stroke-opacity:1"
       d="m 475.40554,504.10721 c -0.13707,0.29363 -0.27413,0.58725 -0.41119,0.88087 -0.21704,0.1447 -0.51691,0.21041 -0.65112,0.43408 -0.11166,0.18611 0.0686,0.44522 0,0.65112 -0.1,0.2999 -0.69063,1.44044 -0.86815,1.73631 -0.10528,0.17546 -0.31996,0.26423 -0.43408,0.43408 -0.3615,0.53801 -0.47606,1.35743 -0.86222,1.93554 -0.18525,0.27734 -0.49614,0.55971 -0.64094,0.85459 -0.0319,0.0649 0,0.14469 0,0.21704 -0.0724,0.21704 -0.0798,0.46809 -0.21704,0.65112 -0.30605,0.40806 -0.81343,0.55393 -1.07502,1.06484 -0.0943,0.18414 0.0781,0.42904 0,0.6206 -0.45285,1.1109 -0.36143,0.21613 -0.65112,1.08519 -0.40115,1.20346 -0.73684,2.34184 -1.29206,3.45227 -0.0771,0.15418 0.0421,0.4505 0,0.6189 -0.4964,1.98562 -1.4665,4.58301 0.21704,6.29328 0.5099,0.51799 2.32119,0.62834 2.93087,0.42729 0.2915,-0.0961 0.38792,-0.49319 0.65112,-0.65111 0.12407,-0.0744 0.29371,0.0351 0.43408,0 1.74376,-0.43594 2.8629,-0.8512 4.81046,-0.8512 1.81585,0 4.38746,-0.342 6.09743,0 0.44514,0.089 1.58695,0.46791 1.95335,0.65111 1.25292,0.62647 -0.49469,0.33514 1.08519,0.65112 1.24435,0.24887 2.57659,0.72394 3.87448,0.86816 0.71904,0.0799 1.45251,-0.0897 2.17039,0 1.07094,0.13386 1.77104,0.57493 2.88763,0.43407 1.14323,-0.14421 2.60482,-0.19959 3.48958,-1.08434 0.11171,-0.11171 0.10047,-0.31198 0.21195,-0.42391 0.19049,-0.19125 1.98157,-0.4895 2.36623,-0.64433 0.55397,-0.22298 0.92413,-0.71455 1.50232,-0.86053 0.27647,-0.0698 0.61686,0.15619 0.85543,0 0.31569,-0.20666 0.38315,-0.62492 0.76557,-0.81813 0.44265,-0.22363 5.9855,0 7.00629,0"
       id="path1928" />
    <path
       style="fill:none;stroke:#000000;stroke-width:1px;stroke-linecap:butt;stroke-linejoin:miter;stroke-opacity:1"
       d="m 526.58768,521.00317 c 0.32849,-0.90165 2.4158,-0.98383 3.12332,-1.6422 0.33875,-0.31522 -1.19768,-1.55065 -1.30223,-1.70749 -0.0803,-0.12039 0.0647,-0.30466 0,-0.43408 -0.0915,-0.18302 -0.3288,-0.25861 -0.43408,-0.43407 -0.66176,-0.15365 -0.0836,-0.60136 -0.21704,-0.86816 -0.33987,-0.67974 -0.96414,-1.27851 -1.29206,-1.92283 -0.2195,-0.43128 -0.40707,-1.03202 -0.64348,-1.50485 -0.30363,-0.60726 -1.13571,-0.95214 -1.51927,-1.51928 -0.1712,-0.25313 -0.24457,-0.5631 -0.41034,-0.81982 -0.35798,-0.55439 -0.92876,-0.83931 -1.23611,-1.45399"
       id="path1930" />
    <path
       style="fill:none;stroke:#000000;stroke-width:1px;stroke-linecap:butt;stroke-linejoin:miter;stroke-opacity:1"
       d="m 480.79166,504.93467 c -1.8031,1.3169 -2.62989,3.59765 -3.78885,5.3361 -0.26189,0.39283 -0.23174,0.88285 -0.65112,1.30224 -0.11439,0.11439 -0.31969,0.10265 -0.43408,0.21703 -0.61995,0.61996 -0.51244,1.57899 -1.07078,2.13733"
       id="path1934" />
    <path
       style="fill:none;stroke:#000000;stroke-width:1px;stroke-linecap:butt;stroke-linejoin:miter;stroke-opacity:1"
       d="m 502.15386,502.67018 c 0.32066,1.86247 -0.0972,2.08523 -0.5799,3.9033 -0.13598,0.51221 -0.11887,1.05442 -0.22127,1.57438 -0.15266,0.77509 -0.68973,1.45381 -0.87748,2.19837 -0.0354,0.1403 0.0537,0.29973 0,0.43408 -0.51434,1.28584 -0.43408,0.10496 -0.43408,1.08519"
       id="path1938" />
    <path
       style="fill:none;stroke:#000000;stroke-width:1px;stroke-linecap:butt;stroke-linejoin:miter;stroke-opacity:1"
       d="m 483.92685,484.53642 c 0.6579,0.11812 1.32571,1.28638 1.8567,1.64221 0.59065,0.39581 1.36632,0.64555 1.96267,1.09282 0.86825,0.65119 1.70533,1.42268 2.62651,1.97539 0.10371,0.0622 0.88825,0.27856 1.01737,0.42475 0.49952,0.56559 0.89379,1.05267 1.72614,1.28189 7.6315,2.10164 0.4099,-0.23411 4.46794,1.10808"
       id="path1944" />
    <path
       style="fill:none;stroke:#000000;stroke-width:1px;stroke-linecap:butt;stroke-linejoin:miter;stroke-opacity:1"
       d="m 498.16493,484.91539 c 1.48386,-0.15763 2.38303,2.13586 3.39716,2.47391 1.20067,0.40022 0.64619,0.42914 1.51928,1.30223 0.32941,0.32941 2.02257,1.35064 2.5909,1.72953"
       id="path1946" />
    <path
       style="fill:none;stroke:#000000;stroke-width:1px;stroke-linecap:butt;stroke-linejoin:miter;stroke-opacity:1"
       d="m 525.78141,466.37639 c -0.67439,1.65948 -0.60527,3.20424 -0.72572,4.92491 -0.083,1.18553 -0.47899,2.35141 -0.66299,3.52179 -0.13165,0.83746 0.0229,1.7267 -0.24332,2.53156 -0.0819,0.24765 -0.37081,0.39805 -0.43407,0.65111 -0.0877,0.35093 0.0602,0.72851 0,1.0852 -0.29435,1.74423 -0.51298,1.14255 -0.66299,2.64261 -0.036,0.35994 0.11439,0.74203 0,1.0852 -0.11439,0.34316 -0.48934,0.54461 -0.65112,0.86815 -0.34947,0.69894 -0.0451,1.2655 -0.21703,1.95335 -0.14408,0.57632 -0.16766,0.70488 -0.62399,1.05891 -0.0178,0.0138 -0.37183,-0.0238 -0.32386,0 0.7692,0.38186 1.56449,0.70877 2.34673,1.06315"
       id="path1948" />
    <path
       style="fill:none;stroke:#000000;stroke-width:1px;stroke-linecap:butt;stroke-linejoin:miter;stroke-opacity:1"
       d="m 466.02624,469.47936 c -0.0377,3.30478 -0.60694,7.40009 -0.1933,10.67136 0.33276,2.63161 0.0144,-0.28132 0.66044,1.98556 0.0601,0.2109 -0.0861,0.45619 0,0.6579 0.25778,0.60415 1.48562,2.51477 1.96098,2.83168 0.40182,0.26788 0.80808,0.18565 1.08011,0.64772 0.49845,0.84667 0.95237,1.71879 1.42855,2.57818"
       id="path1950" />
    <path
       style="fill:none;stroke:#000000;stroke-width:1px;stroke-linecap:butt;stroke-linejoin:miter;stroke-opacity:1"
       d="m 479.68696,497.39173 c 6.27211,-0.14652 12.4726,0.21703 18.71959,0.21703 1.975,0 4.12047,-0.24468 6.07794,0 0.49747,0.0622 0.78583,0.21704 1.28951,0.21704"
       id="path1952" />
    <path
       style="fill:none;stroke:#000000;stroke-width:1px;stroke-linecap:butt;stroke-linejoin:miter;stroke-opacity:1"
       d="m 521.41862,487.68266 c -0.30804,1.56675 -0.69685,3.11976 -0.92412,4.70024 -0.0146,0.10127 0.18469,0.11998 0.21704,0.21704 0.2312,0.6936 0.42958,1.50577 0.65112,2.17039 0.0323,0.0971 0.14469,0.14469 0.21704,0.21704 0.14469,0.28938 0.33176,0.56121 0.43408,0.86815 0.0457,0.13727 0,0.28939 0,0.43408 0.0723,0.28938 0.0995,0.59398 0.21703,0.86815 0.20535,0.47914 0.51811,0.73515 0.86816,1.0852"
       id="path1956" />
  </g>
</svg>
