<?xml version="1.0" encoding="UTF-8" standalone="no"?>
<!-- Created with Inkscape (http://www.inkscape.org/) -->

<svg
   version="1.1"
   id="svg44"
   width="120.58986"
   height="304.12427"
   viewBox="0 0 120.58986 304.12427"
   sodipodi:docname="bootcut-bottom.svg"
   inkscape:version="1.1.2 (0a00cf5339, 2022-02-04)"
   xmlns:inkscape="http://www.inkscape.org/namespaces/inkscape"
   xmlns:sodipodi="http://sodipodi.sourceforge.net/DTD/sodipodi-0.dtd"
   xmlns="http://www.w3.org/2000/svg"
   xmlns:svg="http://www.w3.org/2000/svg">
  <defs
     id="defs48" />
  <sodipodi:namedview
     id="namedview46"
     pagecolor="#ffffff"
     bordercolor="#666666"
     borderopacity="1.0"
     inkscape:pageshadow="2"
     inkscape:pageopacity="0.0"
     inkscape:pagecheckerboard="0"
     showgrid="false"
     inkscape:zoom="1.8294393"
     inkscape:cx="-150.31928"
     inkscape:cy="153.32567"
     inkscape:window-width="1860"
     inkscape:window-height="1009"
     inkscape:window-x="0"
     inkscape:window-y="0"
     inkscape:window-maximized="1"
     inkscape:current-layer="g50"
     fit-margin-top="0"
     fit-margin-left="0"
     fit-margin-right="0"
     fit-margin-bottom="0" />
  <g
     inkscape:groupmode="layer"
     inkscape:label="Image"
     id="g50"
     transform="translate(-417.29917,-274.51886)">
    <path
       style="fill:none;stroke:#000000;stroke-width:1px;stroke-linecap:butt;stroke-linejoin:miter;stroke-opacity:1"
       d="m 417.85131,571.18552 c 0.004,-0.97437 -0.12171,-1.95777 0.0107,-2.92311 0.14923,-1.0882 1.03962,-1.36402 1.62276,-2.16297 0.26981,-0.36966 -0.11712,-0.93054 0,-1.37295 0.22569,-0.85251 1.31183,-2.08985 1.63985,-2.73307 0.31565,-0.61897 0.19047,-1.40306 0.50605,-2.02206 0.38582,-0.75676 0.67061,-1.83187 1.06761,-2.57934 0.45793,-0.8622 1.2033,-1.03433 1.57579,-2.07116 0.48946,-1.36245 -0.70999,-3.58982 0,-4.81064 0.42602,-0.73255 0.68049,-1.26395 1.06547,-2.01565 0.26788,-0.52305 -0.41185,-2.18625 0,-2.59215 0.46383,-0.45712 1.15123,-0.63778 1.6249,-1.08469 0.35751,-0.33731 0.97309,-5.10199 1.09323,-5.80779 0.24861,-1.46061 0.54053,-1.64244 1.03345,-2.6434 0.45876,-0.93161 -0.32523,-2.60722 0,-3.5829 1.61337,-4.84011 0.52099,-11.38678 0.52099,-16.56501 0,-2.29039 0.17408,-3.32751 1.09323,-5.60921 0.39307,-0.97577 -0.49914,-2.58362 0,-3.49536 0.77034,-1.40712 0.49954,-1.93517 0.9096,-3.53378 -0.32457,-0.9709 0.8743,-0.99229 1.07615,-1.60355 0.42732,-1.29401 -0.44416,-3.03002 0,-4.31741 0.38241,-1.10839 0.63008,-0.97031 1.03345,-1.81066 0.53887,-1.12265 -0.0545,-2.52681 0.54021,-3.68325 0.89584,-1.74212 -0.52732,-6.98687 0,-9.10243 0.59129,-2.3722 0.53807,-0.87383 0.53807,-2.12454 0,-0.53452 -0.37834,-1.22597 0,-1.60355 0.27712,-0.27656 0.77397,-0.24814 1.05053,-0.52526 0.53552,-0.53662 0.0124,-4.49552 0.54661,-6.09818 1.09126,-3.27377 -0.80551,-12.60791 0,-16.63548 0.49661,-2.48305 2.08137,-23.4261 1.08042,-25.07172 -0.26822,-0.44097 -0.28219,-1.85568 -0.50391,-2.12241 -0.23806,-0.28638 -0.73958,-0.23272 -0.99928,-0.49964 -0.49211,-0.50577 -1.49831,-6.94235 -1.99856,-8.45119 -0.43738,-1.31918 -0.0219,-3.09546 -0.54662,-4.40068 -0.23836,-0.5929 -0.75683,-1.0124 -1.04839,-1.5886 -0.51431,-1.01643 -0.18419,-2.6884 -0.54661,-3.75585 -0.37611,-1.10774 -1.25289,-1.87877 -1.56939,-2.87613 -0.29475,-0.92883 0.41427,-2.36729 0,-3.24126 -0.52727,-1.11236 -0.9661,-2.15194 -1.5096,-3.2434 -0.96975,-1.94748 0.34761,-10.37264 -0.54661,-12.10454 -1.6302,-3.1573 -1.59074,-4.40169 -1.59074,-8.03483 0,-1.26333 0.40376,-2.59293 0,-3.79001 -1.54139,-4.56999 -0.54662,-10.72403 -0.54662,-15.61911 0,-2.50717 -0.40023,-16.54118 0,-17.14152 1.21619,-1.82429 2.01565,-3.5026 2.01565,-5.92096 0,-0.75449 -0.25864,-1.86866 0,-2.56012 1.19259,-3.18836 -0.11313,0.46585 1.05907,-1.58434 0.52078,-0.91084 0.64519,-2.85654 1.03131,-3.97577 0.54338,-1.57509 0.0608,-3.1029 1.04412,-5.10744 0.61504,-1.25384 -0.67537,-3.54744 0,-4.7658 0.25843,-0.46622 1.40677,-3.97203 1.50319,-4.55015 0.15015,-0.90032 -0.29552,-2.28251 0,-3.17507 0.26316,-0.79481 0.8486,-1.46539 1.07402,-2.14162 0.17988,-0.53966 -0.17884,-1.6393 0,-2.18006 0.36682,-1.10922 0.63645,-2.35467 1.03558,-3.59143 0.10907,-0.338 -0.1972,-0.77009 0,-1.06548 0.27272,-0.40853 0.77258,-0.63126 1.04198,-1.04198 0.0531,-0.0809 0.99074,-11.35586 0.99074,-12.2775"
       id="path171" />
    <path
       style="fill:none;stroke:#000000;stroke-width:1px;stroke-linecap:butt;stroke-linejoin:miter;stroke-opacity:1"
       d="m 521.98158,292.51407 c 0.67848,3.99494 1.23843,7.56596 2.21636,11.41273 0.49688,1.95452 0.41414,0.41415 1.63984,1.63985 0.28051,0.28051 0.38532,4.10621 0.54448,4.90887 0.28503,1.43737 1.03535,2.62438 1.63985,3.8263 0.24369,0.48452 -0.1319,1.10098 0,1.62704 0.31797,1.26816 0.88353,2.87053 1.47544,3.9288 0.19611,0.35062 -0.0791,1.18949 0,1.57792 0.50542,2.48371 -0.12508,7.64156 0.54661,9.35653 1.48384,3.78853 1.04199,8.41049 1.04199,12.81343 0,0.80308 -0.28231,2.18498 0,2.96796 1.42923,3.96388 0.54661,9.33709 0.54661,13.62268 0,4.83268 0.84056,13.53234 0,17.73511 -0.44843,2.24215 -0.39747,1.88 -1.08682,3.26689 -1.11572,2.24466 0.0697,5.76872 -1.05907,8.02628 -0.23047,0.46094 -0.80659,0.66495 -1.09323,1.09323 -0.50965,0.76149 0.23019,2.70943 0,3.61492 -0.34205,1.34548 -1.06777,2.4205 -1.53522,3.65122 -0.27763,0.73095 0.37326,1.98603 0,2.66475 -0.24545,0.44631 -0.90057,0.59611 -1.09323,1.06761 -0.29049,0.71091 0.40126,1.64911 0,2.3039 -1.64491,2.68419 -0.96527,6.13311 -1.56298,9.12165 -0.21867,1.09332 -0.87457,2.18637 -1.09323,3.27969 -0.77429,3.87145 0.77429,8.20748 0,12.07893 -1.38239,6.91193 -2.91041,15.1501 -1.11245,22.38561 0.47265,1.9021 -0.0896,3.56323 0.54661,5.41705 0.7524,2.19251 -0.32116,5.42553 0.54662,7.59496 0.1914,0.4785 0.79124,0.67564 1.09323,1.09324 0.46324,0.64057 -0.23693,4.75361 0.54662,5.46829 0.30101,0.27456 0.8006,0.26313 1.09323,0.54661 0.5187,0.5025 0.57297,6.44709 1.08042,7.27469 1.00486,1.63883 0.0114,-1.17408 1.01423,1.56084 0.29741,0.81113 -0.27026,1.92722 0,2.75016 0.25123,0.76504 0.59665,1.10963 0.84981,1.71458 0.7365,1.75994 -0.10574,4.52772 0.54662,6.43127 0.999,2.91506 -0.92494,6.59063 0.54661,9.30955 0.91851,1.69709 -0.63689,14.71935 0,17.9038 0.0505,0.25267 0.46485,0.30225 0.54662,0.54661 0.99875,2.98456 -1.01186,6.98121 0,9.96079 0.94181,2.77331 1.28675,6.12571 2.18005,8.80563 0.5806,1.74178 -0.81586,4.53478 0,6.16651 0.11524,0.23048 0.46514,0.30216 0.54662,0.54662 0.67232,2.01695 -0.20195,10.18407 0.5338,11.6412 0.23003,0.45557 0.80471,0.65092 1.09324,1.07188 0.62939,0.91828 0,4.13843 0,5.26118 0,3.61012 0.45627,5.94526 2.09251,9.21773"
       id="path173" />
    <path
       style="fill:none;stroke:#000000;stroke-width:1px;stroke-linecap:butt;stroke-linejoin:miter;stroke-opacity:1"
       d="m 417.85131,571.18552 c 2.2977,3.5986 5.58008,2.36423 8.82059,3.45479 0.48905,0.16458 1.06525,-0.1822 1.54803,0 9.36491,3.53427 14.29345,3.27328 23.76923,3.27328 3.15052,0 6.72451,0.5088 9.81987,0 0.96104,-0.15797 1.769,-0.84634 2.71386,-1.08255 1.15139,-0.28785 0.0918,0.80057 2.06689,0 2.53317,-1.02679 0.004,-0.79298 1.58647,-1.58433 3.58899,-1.7945 7.57448,-4.30419 10.86612,-6.77505 0.87736,-0.65859 1.13063,-1.67815 1.88966,-2.43414 2.4243,2.27441 5.7125,2.32745 8.20351,4.1957 0.41228,0.30921 0.63228,0.86276 1.09323,1.09323 0.32594,0.16297 0.74657,-0.11236 1.09323,0 1.15783,0.37526 2.58106,1.02006 3.73236,1.61209 1.50968,0.77632 8.15914,0 9.71951,0 6.14883,0 12.24286,0.54661 18.44827,0.54661 0.7953,0 2.60288,0.40099 3.29251,0 2.57181,-1.49539 1.50112,-0.39752 3.1772,-2.08397 0.23683,-0.2383 4.71,-1.35586 5.00068,-1.35586 1.44439,0 2.70599,-0.22985 2.70532,-0.22633 -0.0685,0.35855 -0.36299,0.63345 -0.54448,0.95017"
       id="path175" />
    <path
       style="fill:none;stroke:#000000;stroke-width:1px;stroke-linecap:butt;stroke-linejoin:miter;stroke-opacity:1"
       d="m 480.93203,566.03752 c -0.60284,1.08896 -1.03943,2.28823 -1.80853,3.26688 -0.12376,0.15749 -0.28327,-0.28327 -0.4249,-0.42491 -1.19742,-1.19738 -0.41727,-3.58539 -1.11032,-4.97292 -1.66295,-3.32932 -0.48527,-3.63343 -1.03985,-6.9544 -0.61242,-3.66737 -1.09323,-6.98975 -1.09323,-10.78498 0,-2.96833 -0.52815,-6.26206 -1.09323,-9.08749 -0.3989,-1.99451 0.64583,-4.59627 0,-6.53376 -0.33481,-1.00444 -1.29613,-1.72165 -1.62917,-2.72667 -0.5926,-1.78832 0.59572,-4.16795 0,-5.95513 -1.04468,-3.13403 -0.83972,-6.4673 -1.63985,-9.64904 -0.58561,-2.32872 0,-5.60783 0,-8.04977 0,-6.87469 0.78002,-14.53324 -0.54661,-21.16641 -0.5256,-2.62796 0.52559,-5.57127 0,-8.19923 -0.19567,-0.97831 -0.71235,-1.42468 -1.09323,-2.18646 -0.52805,-1.05609 0.15291,-4.24287 0,-5.46616 -0.0564,-0.45129 -0.22315,-3.68076 -0.54662,-4.35798 -0.50611,-1.0596 -0.73838,-1.09763 -1.04839,-2.64767 -0.48359,-2.41796 0.34803,-5.1438 0,-7.58002 -0.22732,-1.5912 -0.7779,-3.34286 -1.09323,-4.91954 -0.34271,-1.71352 0.42851,-3.72094 0,-5.41491 -0.54975,-2.17323 -0.55757,-4.38906 -1.09323,-6.54444 -0.008,-0.0337 -1.07783,-2.14014 -1.08683,-2.16724 -0.87299,-2.55076 0,-8.35817 0,-11.40847 0,-1.76887 -0.76027,-5.52021 0,-7.0697 0.22258,-0.45364 0.78686,-0.65674 1.06547,-1.07829 0.55635,-0.84177 1.90317,-8.70993 2.72668,-10.36221 0.48481,-0.97272 1.28881,-1.78217 1.67187,-2.79927 0.52568,-1.39577 0.69348,-4.96039 1.09323,-6.55938 0.71741,-2.86964 1.61339,-5.88046 2.18646,-8.74585 0.35126,-1.7563 -0.303,-3.76692 0.54662,-5.46616 1.67485,-3.34963 0.93704,-4.29477 1.63985,-7.106 1.21302,-4.85207 1.77486,-9.59377 2.18859,-14.57286 -1.08593,2.62782 3.03366,3.59541 3.47614,5.80779 0.14293,0.71467 -0.27295,1.51069 0,2.18647 1.57667,3.90355 2.69462,8.01859 3.84979,12.06397 0.41509,1.4536 0.0916,3.55458 0.54662,4.91954 0.36239,1.08719 1.85396,1.94968 2.18646,3.2797 0.15824,0.63293 -0.20831,1.53857 0,2.16938 0.58842,1.78186 1.01431,3.62157 1.62277,5.44694 0.37153,1.1146 -0.28384,2.65466 0,3.79001 0.35939,1.43756 1.18907,3.15524 1.60355,4.79142 0.25026,0.98792 -0.20079,2.14572 0,3.14731 0.24479,1.22113 -0.0104,2.58213 0.54661,3.69606 0.11524,0.23048 0.48412,0.29664 0.54662,0.54662 1.1464,4.5856 -0.9288,9.94597 0,14.58994 1.67756,8.38782 0.54661,18.15826 0.54661,26.73932 0,7.9907 0,15.98139 0,23.97208 0,2.99439 0.59556,6.80652 0,9.77503 -0.216,1.07662 -0.91322,2.19961 -1.09323,3.27969 -0.17973,1.07836 0.40602,2.26466 0,3.2797 -0.82352,2.0588 -1.09719,1.65567 -1.63344,3.80068 -0.17625,0.70499 0.10277,1.46068 0,2.18006 -0.35427,2.47991 -1.04013,4.70714 -1.63985,7.106 -0.49936,1.99744 0.22398,4.63291 -0.54661,6.55939 -0.1914,0.47849 -0.86276,0.63228 -1.09323,1.09323 -0.045,0.09 -1.45624,5.26766 -1.63985,5.99996 -0.32585,1.29957 -0.0542,3.13209 -0.54662,4.36011 -0.0289,0.0721 -1.48363,2.68276 -1.62063,3.24126 -0.73756,3.00698 -0.88539,5.72806 -1.63344,8.66471 -0.24997,0.98133 0.1956,2.22056 0,3.19856 -0.2663,1.33152 -0.53086,2.65247 -1.09323,3.7772 -0.36264,0.72529 0.20445,1.89549 0,2.70532 -0.96342,3.81604 -0.54661,7.99444 -0.54661,11.95508 0,1.61153 -0.77929,6.25106 0,7.63126 0.39068,0.69195 1.30483,1.14661 1.39002,1.93665 0.11593,1.07507 -0.59452,2.08009 -0.84341,3.13236 -0.0614,0.25974 -0.0614,1.06044 0,0.80071 0.30863,-1.30483 0.56227,-2.62205 0.84341,-3.93307"
       id="path179" />
    <path
       style="fill:none;stroke:#000000;stroke-width:1px;stroke-linecap:butt;stroke-linejoin:miter;stroke-opacity:1"
       d="m 436.86971,290.19736 c 1.62489,-0.55445 3.1834,-1.36793 4.87468,-1.66334 4.87693,-0.85182 14.79906,0 20.23546,0 5.347,0 10.49356,-0.11088 15.77925,0.54662 0.87204,0.10848 2.62884,-0.21695 3.27969,0 0.48891,0.16297 0.60433,0.93026 1.09323,1.09323 1.38284,0.46095 2.92994,-0.20614 4.37293,0 2.44638,0.34948 4.61764,1.28437 7.106,1.63985 4.41047,0.63006 9.09061,-0.37537 13.09742,1.63984 0.47897,0.2409 12.57457,0.0568 12.68746,0 1.59056,-0.79996 0.16842,-1.16955 2.58575,-0.93949"
       id="path181" />
    <path
       style="fill:none;stroke:#000000;stroke-width:1px;stroke-linecap:butt;stroke-linejoin:miter;stroke-opacity:1"
       d="m 436.17361,274.97112 c 0.95871,0.45196 1.861,1.05109 2.87614,1.35587 2.45307,0.7365 6.21875,-0.21059 8.74585,0 4.03797,0.3365 8.06661,1.24865 12.08533,1.65052 2.67496,0.2675 5.10225,0.0365 7.65262,0.54662 2.70506,0.54101 5.94637,0 8.74584,0 7.10174,0 14.20347,0 21.3052,0 2.56321,0 11.04739,0.68716 13.06326,0 1.28898,-0.43939 2.82481,-0.78289 4.37292,-1.09324 0.51557,-0.10335 1.52078,0.22472 1.94519,0 0.44795,-0.23717 0.60807,-0.85776 1.05693,-1.09323 2.49061,-1.30655 0.1857,0.84135 1.36013,-0.33309 2.48417,5.20164 2.39578,10.81325 2.59856,16.5095"
       id="path183" />
    <path
       style="fill:none;stroke:#000000;stroke-width:1px;stroke-linecap:butt;stroke-linejoin:miter;stroke-opacity:1"
       d="m 474.10147,293.2678 c -0.98871,2.25345 2.55836,2.04117 2.90603,3.45265 0.81112,3.29293 0,11.08343 0,14.75862 0,3.39387 1.09323,6.40117 1.09323,9.83908 0,1.7221 -0.62959,8.57988 0,9.83908 0.23048,0.46094 0.86276,0.63228 1.09324,1.09323 1.00724,2.0145 -0.6243,7.32053 0,9.81773 0.0625,0.24998 0.43083,0.31641 0.54661,0.54661 0.46417,0.92291 -0.2033,2.7906 0,3.8071 0.38914,1.94569 1.09323,3.31921 1.09323,5.38715 0,0.98059 -0.32459,2.18306 0,3.0683 0.13862,0.37804 0.80993,0.78146 0.54021,1.08042 -0.97789,1.08395 -2.44696,1.59287 -3.67044,2.38931"
       id="path185" />
    <path
       style="fill:none;stroke:#000000;stroke-width:1px;stroke-linecap:butt;stroke-linejoin:miter;stroke-opacity:1"
       d="m 487.248,292.10411 c 1.03864,2.58131 0.83701,4.87995 0.83701,7.55653 0,5.0283 1.14202,12.62722 -1.07615,17.13512 -0.68407,1.39021 0.31337,3.85019 0,5.41704 -0.34044,1.70223 -0.76587,3.26867 -1.09323,4.88752 -0.18149,0.72597 -0.36299,1.45194 -0.54448,2.17792 -0.19217,0.19217 -0.48781,0.31962 -0.57651,0.57651 -0.17839,0.51668 0.24445,1.15093 0,1.63984 -0.49851,0.99703 -1.34813,2.11283 -1.63985,3.2797 -0.0884,0.35353 0.16297,0.76729 0,1.09323 -2.15457,4.30915 -0.021,-1.4519 -2.18646,1.63984 -0.19395,0.27691 0,0.67616 0,1.01423 -0.36227,0.72455 -0.52043,1.5945 -1.08682,2.17365 -0.48643,0.49738 -0.52527,-1.32421 -0.52527,-2.01991"
       id="path191" />
    <path
       style="fill:none;stroke:#000000;stroke-width:1px;stroke-linecap:butt;stroke-linejoin:miter;stroke-opacity:1"
       d="m 436.22486,308.88691 c 1.51135,-2.50426 5.35765,-3.43382 7.3302,-5.40637 0.46453,-0.46453 0.62869,-1.17531 1.09323,-1.63984 1.24049,-1.24049 2.94336,-2.02142 4.08253,-3.51884 1.5243,-2.00365 2.64269,-4.28939 4.02702,-6.24551"
       id="path195" />
    <path
       style="fill:none;stroke:#000000;stroke-width:1px;stroke-linecap:butt;stroke-linejoin:miter;stroke-opacity:1"
       d="m 503.51836,293.35321 c 0.28589,0.90849 2.70282,1.38513 3.22418,2.51956 0.56196,1.22278 0.58693,2.64262 1.11672,3.87968 0.42047,0.98182 5.03902,4.75804 6.03839,5.26972 1.78804,0.91548 4.92564,0.62669 6.69177,1.53095 0.45872,0.23487 0.66443,0.80737 1.09323,1.09323 0.8818,0.58787 2.56969,0.68646 3.54446,1.04199 0.9264,0.33788 0.98937,1.33878 2.0797,1.33878"
       id="path201" />
    <path
       style="fill:none;stroke:#000000;stroke-width:1px;stroke-linecap:butt;stroke-linejoin:miter;stroke-opacity:1"
       d="m 485.72987,280.25792 c -0.0802,1.187 -0.3683,2.42199 0.82632,3.05336 0.8741,0.46197 5.7314,0.37625 4.81919,-1.73593 -0.29104,-0.67389 -3.01556,-0.52953 -3.32453,-0.32028 -0.62508,0.42333 -1.05478,1.0804 -1.58861,1.61422 -0.4674,0.46741 -2.07351,-0.11119 -1.91101,0.52954 0.74679,2.94458 1.79785,5.80352 2.69677,8.70528"
       id="path203" />
    <path
       style="fill:none;stroke:#000000;stroke-width:1px;stroke-linecap:butt;stroke-linejoin:miter;stroke-opacity:1"
       d="m 436.17361,274.97112 c 0.0918,1.81422 0.0809,3.63658 0.27544,5.44267 0.0805,0.74762 0.42308,1.44688 0.54662,2.1886 0.0649,0.38975 0.28507,10.48652 -0.12596,7.59497"
       id="path318" />
  </g>
</svg>
