<?xml version="1.0" encoding="UTF-8" standalone="no"?>
<!-- Created with Inkscape (http://www.inkscape.org/) -->

<svg
   version="1.1"
   id="svg1272"
   width="141.60078"
   height="345.94339"
   viewBox="0 0 141.60078 345.94339"
   sodipodi:docname="cargo-bottoms.svg"
   inkscape:version="1.1.2 (0a00cf5339, 2022-02-04)"
   xmlns:inkscape="http://www.inkscape.org/namespaces/inkscape"
   xmlns:sodipodi="http://sodipodi.sourceforge.net/DTD/sodipodi-0.dtd"
   xmlns="http://www.w3.org/2000/svg"
   xmlns:svg="http://www.w3.org/2000/svg">
  <defs
     id="defs1276" />
  <sodipodi:namedview
     id="namedview1274"
     pagecolor="#ffffff"
     bordercolor="#666666"
     borderopacity="1.0"
     inkscape:pageshadow="2"
     inkscape:pageopacity="0.0"
     inkscape:pagecheckerboard="0"
     showgrid="false"
     inkscape:zoom="1.8294393"
     inkscape:cx="-305.01149"
     inkscape:cy="196.5083"
     inkscape:window-width="1860"
     inkscape:window-height="1009"
     inkscape:window-x="0"
     inkscape:window-y="0"
     inkscape:window-maximized="1"
     inkscape:current-layer="g1278"
     fit-margin-top="0"
     fit-margin-left="0"
     fit-margin-right="0"
     fit-margin-bottom="0" />
  <g
     inkscape:groupmode="layer"
     inkscape:label="Image"
     id="g1278"
     transform="translate(-358.31897,-362.14858)">
    <path
       style="fill:none;stroke:#000000;stroke-width:1px;stroke-linecap:butt;stroke-linejoin:miter;stroke-opacity:1"
       d="m 384.10207,385.24655 c -0.0997,4.31943 -3.08313,7.3066 -4.07613,11.28249 -0.13176,0.52756 0.20195,1.12642 0,1.6313 -0.39457,0.98644 -1.30328,1.72537 -1.63984,2.73308 -0.71931,2.15369 -0.77642,2.64756 -1.63345,4.35157 -0.53628,1.06628 0.32374,1.73309 -0.54661,3.25621 -0.38353,0.67118 -1.17603,1.02142 -1.63985,1.63984 -0.43729,0.58306 0.23048,1.49505 0,2.18647 -1.95985,5.87956 -0.34484,-0.40355 -1.63984,2.18646 -0.50382,1.00763 -0.28632,2.24011 -0.55943,3.33307 -0.17307,0.69262 -0.95564,4.55022 -1.09323,4.89179 -0.19257,0.47802 -0.80737,0.66443 -1.09323,1.09323 -0.67782,1.01672 -0.34704,4.86946 -1.09324,5.99782 -0.27427,0.41475 -0.80604,0.62426 -1.05479,1.0548 -0.45879,0.79405 0,12.36081 0,14.14581 0,10.17787 0,20.35574 0,30.53361 0,3.94902 0.65006,8.56931 0,12.46966 -0.22467,1.348 -0.21228,3.29218 -0.54662,4.60994 -0.23899,0.94197 -0.85221,1.76224 -1.08682,2.70532 -0.26975,1.0843 0.49018,2.84595 0,3.82631 -0.23048,0.46094 -0.82809,0.65132 -1.09323,1.09323 -1.27655,2.12757 -0.53873,4.75561 -1.09324,6.97362 -0.4547,1.81882 -1.26646,3.60265 -1.63344,5.4448 -0.80475,4.03969 0,10.37486 0,14.56218 0,9.99068 0,19.98136 0,29.97204 0,8.92308 0,17.84615 0,26.76922 0,1.83281 0.54116,10.83647 0,11.91878 -0.84149,1.68298 -0.75386,3.66952 -1.60355,5.33805 -0.84536,1.66005 0.84418,4.61035 0,6.27113 -1.94884,3.83405 0.25614,18.82688 -0.52312,24.28169 -1.72446,12.07117 -1.08683,24.51789 -1.08683,36.8389 0,5.28395 0,10.5679 0,15.85185 0,2.57808 0.42498,5.64936 0,8.19923 -0.47787,2.86721 -0.54661,5.63057 -0.54661,8.57931"
       id="path1526" />
    <path
       style="fill:none;stroke:#000000;stroke-width:1px;stroke-linecap:butt;stroke-linejoin:miter;stroke-opacity:1"
       d="m 358.81897,701.26936 c 1.7594,2.87947 3.67978,1.06897 6.17077,2.30176 1.80863,0.89509 -1.23335,0.0983 1.00996,1.51387 1.16214,0.73333 4.10209,-0.133 5.45335,0.54662 4.61692,2.32206 17.20382,1.09323 22.86817,1.09323 3.33137,0 7.74741,-0.79142 10.9131,0 1.1142,0.27855 11.47557,1.41318 13.0056,0.54661 0.97833,-0.55409 1.43927,-1.62607 2.18647,-2.18646 0.46094,-0.34571 1.12449,-0.28894 1.63984,-0.54662 2.24909,-1.12454 3.73241,-3.34751 5.45975,-5.08395"
       id="path1528" />
    <path
       style="fill:none;stroke:#000000;stroke-width:1px;stroke-linecap:butt;stroke-linejoin:miter;stroke-opacity:1"
       d="m 427.52598,699.45442 c -1.8,-2.77795 -0.40028,-9.30481 -1.3281,-11.17145 -2.46584,-4.96092 -1.63344,-11.66662 -1.63344,-17.60914 0,-1.28259 0.39139,-3.1603 0,-4.33449 -1.35314,-4.05942 -0.75591,-26.087 0.54661,-29.80123 0.38277,-1.0915 0,-2.956 0,-4.13378 0,-3.4259 -0.12283,-6.67335 0.54662,-10.02057 0.45331,-2.2667 -0.32232,-4.37496 0.50391,-6.57006 0.65911,-1.75111 0,-14.38813 0,-17.63903 0,-6.15654 0,-12.31309 0,-18.46963 0,-1.78428 0.76142,-6.03369 0,-7.55653 -0.37263,-0.74526 -0.8992,-1.14744 -1.09323,-2.10319 -0.47994,-2.36407 0.2084,-5.10379 -0.53594,-7.41988 -0.36802,-1.14511 -1.11203,-2.15089 -1.56512,-3.41635 -0.73093,-2.04146 0,-5.84677 0,-7.88535 0,-4.32807 -0.23982,-9.11534 1.09323,-13.11451 0.32797,-0.98391 -0.32796,-2.29578 0,-3.27969 0.43369,-1.30104 0.80707,-2.08371 1.09324,-3.80069 0.14965,-0.89791 -0.34439,-2.37568 0,-3.23058 0.30447,-0.75583 0.83555,-1.41343 1.09323,-2.18646 0.64421,-1.93263 -0.93536,-5.10855 0,-6.89889 1.24215,-2.37756 0.54661,-6.81785 0.54661,-9.66399 0,-1.96474 -0.0159,-1.49596 0.54021,-3.1708 0.68039,-2.04922 0,-17.72289 0,-20.92299 0,-1.44384 -0.52749,-14.42007 0,-15.10239 0.30382,-0.39299 0.83515,-0.60714 1.0548,-1.05267 0.91284,-1.85154 -0.34579,-5.88534 0,-7.96009 0.29811,-1.78865 1.04934,-2.31014 2.18646,-3.8263 1.01067,0.68469 2.10542,1.25929 3.03201,2.05407 1.01189,0.86795 -0.61877,5.32185 0,6.55939 0.23047,0.46095 0.90106,0.61505 1.09323,1.09323 0.44229,1.10055 -0.37574,2.67134 0,3.79855 1.67685,5.03056 0.54662,21.9038 0.54662,28.35996 0,4.9124 0.25069,9.868 -0.54662,14.65186 -0.43435,2.60611 0.0999,5.06651 -0.54661,7.65262 -0.36614,1.46453 0.24719,3.25062 0,4.73377 -0.26763,1.60575 -0.67881,3.25957 -1.09324,4.82986 -0.80712,3.05824 0,7.83318 0,11.03053 0,7.7601 0,15.52019 0,23.28028 0,4.08169 -0.87489,16.77409 0.54662,19.51161 1.16743,2.24822 -0.89162,8.24823 0,10.89174 0.71054,2.10665 0.90234,4.16246 1.56511,6.14302 0.351,1.04886 -0.44204,9.17925 0,9.62129 0.2881,0.28809 0.91103,0.18221 1.09324,0.54662 1.13456,2.26913 -1.14256,8.44862 0,10.73373 1.28342,2.56685 0.8946,18.80861 -0.51032,21.70662 -0.61933,1.27753 0,8.53823 0,10.09317 0,1.81819 0.0322,3.22881 -0.54662,4.91314 -0.7324,2.13141 0,12.45062 0,15.33726 0,6.48323 0,12.96646 0,19.44969 0,3.70958 2.12454,1.9887 2.12454,4.55656 0,0.49777 1.0038,1.41039 0.50605,1.40497 -3.44356,-0.0375 -6.8754,-0.40854 -10.3131,-0.61281"
       id="path1530" />
    <path
       style="fill:none;stroke:#000000;stroke-width:1px;stroke-linecap:butt;stroke-linejoin:miter;stroke-opacity:1"
       d="m 427.52598,699.45442 c 4.49748,0.90747 9.05205,1.56751 13.49244,2.7224 2.76129,0.71819 5.3633,2.55875 8.19923,3.2797 0.63547,0.16155 1.44254,-0.2067 2.06262,0 3.30109,1.10036 15.55446,2.73826 18.91376,1.61849 0.24445,-0.0815 0.36441,-0.36441 0.54661,-0.54661 0.36441,-0.18221 0.69797,-0.4478 1.09323,-0.54662 1.08129,-0.27032 1.67693,-0.0474 2.62418,-0.52099 1.01947,-0.50973 1.50592,-2.05823 2.53024,-2.56226 0.89982,-0.44277 2.05352,-0.83296 3.00638,-1.39216 1.42201,-0.83454 6.3039,0.51914 8.09888,0 2.57017,-0.74334 5.61781,-2.23349 7.38785,-4.00354"
       id="path1532" />
    <path
       style="fill:none;stroke:#000000;stroke-width:1px;stroke-linecap:butt;stroke-linejoin:miter;stroke-opacity:1"
       d="m 479.73631,380.73056 c -0.27993,3.95065 1.65483,7.50765 2.195,11.2889 0.23191,1.62336 -0.20339,3.29235 0,4.91954 0.22846,1.82762 1.20512,3.72722 1.63985,5.46615 0.63492,2.53968 -0.091,5.64889 0.54662,8.19924 0.63517,2.54069 1.75034,5.03588 2.18646,7.65261 0.29026,1.74155 0.0688,5.67254 0.54661,7.10601 1.09204,3.27609 -0.13985,-1.37294 1.63985,2.18646 0.65379,1.30758 0.1473,5.41907 0.54662,7.01632 0.10756,0.43025 0.98566,1.75621 1.09323,2.18647 0.67567,2.70268 0.0949,5.35854 0.54661,8.06898 0.63368,3.80208 1.06761,7.51576 1.06761,11.40847 0,2.39359 -0.73611,6.50499 0,8.69033 0.90336,2.68186 1.12433,11.23592 0.54662,14.12446 -0.99054,4.95267 -0.54662,10.18628 -0.54662,15.25399 0,0.85671 0.29203,3.14334 0,4.02062 -1.53633,4.61522 -0.5274,10.74421 -0.5274,15.70452 0,3.40061 0.1617,-1.36939 -0.54021,2.16511 -0.34871,1.75596 0,4.2136 0,6.01277 0,5.39071 0,10.78142 0,16.17213 0,8.29888 0,16.59776 0,24.89663 0,2.82536 -0.70661,7.0017 0,9.81987 0.6325,2.52258 1.26023,5.51837 1.63985,8.17574 0.20407,1.42849 -0.20407,2.94444 0,4.37293 0.3229,2.26028 1.34023,5.25571 1.63985,7.65262 0.1582,1.26558 -0.25014,2.57564 0,3.82631 0.32515,1.62574 0.92292,3.50251 1.60568,4.82772 0.91441,1.77482 -0.40761,5.00955 0,7.00779 0.22653,1.11053 1.09323,3.12585 1.09323,4.27256 0,2.21943 -0.78806,5.9522 0,7.91312 0.24498,0.60957 0.79596,1.054 1.09323,1.63985 0.99742,1.96561 -0.75854,17.76358 0,21.5059 0.17502,0.86345 0.88397,1.76156 1.05907,2.48967 0.8421,3.50175 0,10.05905 0,13.98353 0,6.23632 -0.77442,12.9545 0,19.1166 0.26756,2.12899 0.54662,3.33582 0.54662,5.42132 0,3.7594 0,7.51881 0,11.27821 0,0.79573 0,1.59145 0,2.38718 0,0.14163 0.13255,0.47481 0,0.42491 -1.34355,-0.50587 -2.58219,-1.25551 -3.87329,-1.88327"
       id="path1534" />
    <path
       style="fill:none;stroke:#000000;stroke-width:1px;stroke-linecap:butt;stroke-linejoin:miter;stroke-opacity:1"
       d="m 384.10207,385.24655 c 0.89181,-0.41566 1.74132,-0.93789 2.67543,-1.24697 2.93901,-0.97246 12.34475,0.14607 16.34082,0.54662 5.9645,0.59785 12.39131,0 18.36713,0 1.24434,0 5.41462,-0.75045 6.5359,0 0.42703,0.2858 0.62814,0.86162 1.08683,1.09323 1.11104,0.561 3.68533,-0.17418 4.90459,0 6.75973,0.96567 13.77242,0.54661 20.64328,0.54661 2.20393,0 5.95476,0.70119 8.05831,0 3.39965,-1.13321 2.63263,-0.52161 5.46616,-1.09323 1.75282,-0.3536 3.01901,-1.18322 4.82345,-1.63344 1.28899,-0.32161 2.92758,-0.10143 4.17222,-0.54661 1.05581,-0.37765 1.69187,-1.47263 2.56012,-2.1822"
       id="path1536" />
    <path
       style="fill:none;stroke:#000000;stroke-width:1px;stroke-linecap:butt;stroke-linejoin:miter;stroke-opacity:1"
       d="m 384.10207,385.24655 c -0.47327,-1.9944 -4.7282,-17.85158 -2.97649,-19.53937 1.28216,-1.23538 4.67432,-0.41465 5.46615,-0.54662 0.86781,-0.14463 5.02898,-1.82133 5.91242,-2.17152 0.92515,-0.36672 2.62895,0 3.65122,0 3.13172,0 7.06124,-0.74677 10.04833,0 2.43209,0.60803 4.59078,0.83243 6.93305,1.60782 1.27433,0.42186 2.93611,-0.33161 4.24055,0 0.39486,0.10039 0.72882,0.36441 1.09323,0.54662 0.91102,0.1822 1.81665,0.39388 2.73307,0.54661 3.52815,0.58803 8.18912,-0.27049 11.45758,0.54662 1.07522,0.2688 2.25065,0.135 3.27969,0.54662 0.4785,0.19139 0.61474,0.90183 1.09323,1.09323 1.56666,0.62666 3.8013,-0.41301 5.45335,0 3.63804,0.90951 8.42853,-0.37075 11.45117,0.54661 3.25638,0.9883 7.94074,0.46334 11.54085,0.46334 3.68253,0 7.36507,0 11.04761,0 2.20469,0 2.28116,-2.90834 3.30318,-0.73878 0.31898,0.67714 0.28617,12.76269 0,13.86183 -0.10771,0.41369 -0.0626,-0.85267 -0.094,-1.279"
       id="path1538" />
    <path
       style="fill:none;stroke:#000000;stroke-width:1px;stroke-linecap:butt;stroke-linejoin:miter;stroke-opacity:1"
       d="m 411.1809,386.20526 c -3.14739,0.10962 -2.18118,0.94688 -3.73236,2.46404 -1.5074,1.47434 -3.68057,1.96785 -4.91954,3.82631 -1.5544,2.3316 -3.07388,4.40611 -4.91954,6.55939 -4.54333,5.30055 -9.14361,10.15966 -12.52946,15.80274 -1.69513,0.37326 -0.21315,1.501 -0.54661,2.16724 -0.39699,0.79317 -1.3188,1.28523 -1.59928,2.12668 -0.49231,1.47693 -1.38781,4.63319 -2.53664,5.76295 -0.64956,0.63878 -1.54177,0.99616 -2.18646,1.63985 -0.81988,0.81859 -0.85939,1.94834 -1.6249,2.71386"
       id="path1540" />
    <path
       style="fill:none;stroke:#000000;stroke-width:1px;stroke-linecap:butt;stroke-linejoin:miter;stroke-opacity:1"
       d="m 411.1809,386.20526 c -1.83363,6.40223 -0.80704,13.7399 -2.88468,19.97282 -0.43873,1.31617 0.1997,2.975 0,4.37293 -0.86175,6.03221 -0.028,0.63052 -1.09323,3.82631 -0.53712,1.61133 0,4.91281 0,6.53803 0,2.22538 -0.0107,5.39826 0,5.39783 1.02031,-0.0406 1.89607,-0.75872 2.8441,-1.13807"
       id="path1542" />
    <path
       style="fill:none;stroke:#000000;stroke-width:1px;stroke-linecap:butt;stroke-linejoin:miter;stroke-opacity:1"
       d="m 455.27953,385.25082 c 0.86477,0.90533 1.89349,1.67854 2.59429,2.71599 1.38057,2.04375 2.54386,5.43626 3.30745,7.7359 0.47251,1.42298 2.39298,3.81114 3.2797,4.91954 1.30951,1.63689 1.17602,4.3287 2.18646,6.01277 0.46872,0.7812 1.18785,1.39547 1.63985,2.18646 1.66999,0.38529 0.20959,1.51505 0.54661,2.18646 0.0693,0.13809 3.10214,5.81387 3.25834,5.97007 0.46454,0.46453 1.17441,0.62961 1.63985,1.09323 0.51402,0.51201 0.96945,2.58648 1.63344,3.25834 1.60125,1.62024 5.0723,5.07295 7.34088,5.82914"
       id="path1544" />
    <path
       style="fill:none;stroke:#000000;stroke-width:1px;stroke-linecap:butt;stroke-linejoin:miter;stroke-opacity:1"
       d="m 455.27953,385.25082 c 1.03914,2.30603 2.2517,4.54152 3.11742,6.9181 0.97804,2.68491 -0.69409,6.34432 -1.10391,8.79923 -1.59481,9.55348 3.00042,17.20514 -4.86616,25.07172"
       id="path1546" />
    <path
       style="fill:none;stroke:#000000;stroke-width:1px;stroke-linecap:butt;stroke-linejoin:miter;stroke-opacity:1"
       d="m 430.80995,391.24651 c -0.37422,6.06756 -0.2178,12.1649 -0.2178,18.24543 0,10.90598 0,21.81195 0,32.71793 0,4.30673 0,8.61347 0,12.9202 0,0.99786 0,1.99572 0,2.99357 0,0.5274 0.009,2.10952 0,1.5822 -0.0146,-0.86395 -0.0114,-1.7281 -0.0171,-2.59215"
       id="path1548" />
    <path
       style="fill:none;stroke:#000000;stroke-width:1px;stroke-linecap:butt;stroke-linejoin:miter;stroke-opacity:1"
       d="m 436.33589,430.6797 c -0.36226,-2.31558 0.20937,-3.44028 1.0612,-5.15442 0.28447,-0.57243 -0.2087,-1.51079 0,-2.12454 0.50393,-1.48192 2.16082,-1.71255 2.63059,-3.15798 0.76941,-2.36743 0.98956,-5.62888 2.18646,-7.89177 0.65016,-1.2292 0.18484,-3.18555 0.5274,-4.54374 0.50612,-2.00667 1.2303,-3.95862 1.63985,-5.99996 0.16678,-0.83129 -0.39351,-2.19648 0,-2.9466 2.0818,-3.96844 1.56037,-11.42174 -1.59928,-14.5814"
       id="path1550" />
    <path
       style="fill:none;stroke:#000000;stroke-width:1px;stroke-linecap:butt;stroke-linejoin:miter;stroke-opacity:1"
       d="m 407.14106,365.55771 c 0.86831,2.74725 -1.05062,9.86484 0,12.31593 1.21598,2.83684 2.69323,5.55441 4.03984,8.33162"
       id="path1552" />
    <path
       style="fill:none;stroke:#000000;stroke-width:1px;stroke-linecap:butt;stroke-linejoin:miter;stroke-opacity:1"
       d="m 430.00497,368.64951 c -4.43568,8.36457 -2.31872,13.94772 0.80498,22.597"
       id="path1554" />
    <path
       style="fill:none;stroke:#000000;stroke-width:1px;stroke-linecap:butt;stroke-linejoin:miter;stroke-opacity:1"
       d="m 452.04895,370.56266 c 1.28696,0.97457 0.49005,11.83116 1.27686,12.78995 0.57601,0.70191 1.30248,1.26547 1.95372,1.89821"
       id="path1556" />
    <path
       style="fill:none;stroke:#000000;stroke-width:1px;stroke-linecap:butt;stroke-linejoin:miter;stroke-opacity:1"
       d="m 369.75341,476.31783 c 2.2424,-1.5014 19.15856,-5.46992 21.01054,-4.61421 1.35361,0.62545 0.0436,5.06524 0.44199,6.26046 0.12884,0.38652 0.4478,0.69797 0.54661,1.09323 0.28472,1.13887 0.19431,25.60202 0,26.10303 -0.0327,0.0843 -3.68257,0 -5.54515,0 -5.80954,0 -11.10445,-0.42064 -16.83192,-0.42064"
       id="path1558" />
    <path
       style="fill:none;stroke:#000000;stroke-width:1px;stroke-linecap:butt;stroke-linejoin:miter;stroke-opacity:1"
       d="m 386.96967,504.39593 c -1.02444,4.11095 0.25866,11.22988 -1.51387,14.67108 -0.63043,1.22391 0.29963,4.01872 0,5.23128 -0.19624,0.79415 -0.91614,1.39851 -1.09323,2.19714 -0.74366,3.35373 0.49934,7.14716 -0.52954,10.29602 -0.87319,2.67239 1.16802,8.46863 0,10.69316 -0.0497,0.0947 -2.4037,0 -3.33734,0 -1.11991,0 -12.61738,0.58221 -13.00988,-0.99287 -0.54512,-2.18754 6.67223,-9.62066 7.96223,-11.07537"
       id="path1560" />
    <path
       style="fill:none;stroke:#000000;stroke-width:1px;stroke-linecap:butt;stroke-linejoin:miter;stroke-opacity:1"
       d="m 491.51417,474.25734 c -0.85185,-0.42501 -1.08586,-0.84691 -1.80426,-1.30248 -1.2406,-0.78672 -3.38304,0.68543 -4.43912,1.04412 -1.17717,0.39983 -2.71225,-0.30565 -3.92239,0 -1.55185,0.39196 -2.8296,1.14837 -4.40282,1.45409 -0.74944,0.14562 -1.52027,0.14232 -2.28041,0.21352 -2.42814,6.80082 -1.53949,14.18946 -1.53949,21.33082 0,0.88688 -0.4115,3.59064 0,3.82631 1.17473,0.67277 14.59489,0 17.20771,0"
       id="path1562" />
    <path
       style="fill:none;stroke:#000000;stroke-width:1px;stroke-linecap:butt;stroke-linejoin:miter;stroke-opacity:1"
       d="m 477.32565,507.60303 c 0.94446,8.58036 -1.55353,17.91495 0.54662,26.29093 0.58482,2.33242 -0.5634,8.92732 1.91529,10.23836 1.32094,0.69868 9.08624,0 11.17145,0"
       id="path1564" />
  </g>
</svg>
