<?xml version="1.0" encoding="UTF-8" standalone="no"?>
<!-- Created with Inkscape (http://www.inkscape.org/) -->

<svg
   version="1.1"
   id="svg44"
   width="154.32025"
   height="301.40744"
   viewBox="0 0 154.32025 301.40744"
   sodipodi:docname="flare-bottom.svg"
   inkscape:version="1.1.2 (0a00cf5339, 2022-02-04)"
   xmlns:inkscape="http://www.inkscape.org/namespaces/inkscape"
   xmlns:sodipodi="http://sodipodi.sourceforge.net/DTD/sodipodi-0.dtd"
   xmlns="http://www.w3.org/2000/svg"
   xmlns:svg="http://www.w3.org/2000/svg">
  <defs
     id="defs48" />
  <sodipodi:namedview
     id="namedview46"
     pagecolor="#ffffff"
     bordercolor="#666666"
     borderopacity="1.0"
     inkscape:pageshadow="2"
     inkscape:pageopacity="0.0"
     inkscape:pagecheckerboard="0"
     showgrid="false"
     fit-margin-top="0"
     fit-margin-left="0"
     fit-margin-right="0"
     fit-margin-bottom="0"
     inkscape:zoom="1.8294393"
     inkscape:cx="-167.81098"
     inkscape:cy="-97.024266"
     inkscape:window-width="1860"
     inkscape:window-height="1009"
     inkscape:window-x="0"
     inkscape:window-y="0"
     inkscape:window-maximized="1"
     inkscape:current-layer="g50" />
  <g
     inkscape:groupmode="layer"
     inkscape:label="Image"
     id="g50"
     transform="translate(-359.17616,-718.50995)">
    <g
       id="g429">
      <path
         style="fill:none;stroke:#000000;stroke-width:1px;stroke-linecap:butt;stroke-linejoin:miter;stroke-opacity:1"
         d="m 473.37337,720.39023 c 0.63604,1.4391 -0.1771,3.37412 0.21139,4.92808 0.67339,2.69357 0.31932,0.66959 1.63985,3.27969 0.48711,0.96281 0.21644,2.17727 0.54661,3.22845 0.24046,0.76555 2.01783,1.435 2.50248,2.20568 0.28449,0.45239 0.0826,1.04013 0.49323,1.68041 1.27395,1.9865 2.89764,3.21175 3.68539,5.5473 0.26814,0.79499 -0.16482,1.87272 0,2.69678 0.64862,3.24309 0.50909,-0.0496 1.63984,3.82631 0.54103,1.85448 -0.85199,4.75077 0,6.45476 0.29115,0.5823 1.33496,0.49859 1.62704,1.08042 0.4892,0.97449 -0.49618,2.69385 0,3.66403 1.1008,2.1524 0.32345,5.30493 1.0548,7.47326 0.42639,1.2642 0.74441,2.27778 1.08469,3.62133 0.51564,2.03597 0,4.84275 0,6.96935 0,5.29035 0,10.58071 0,15.87107 0,14.54509 0,29.09019 0,43.63529 0,3.09192 -0.77761,16.70887 0,18.13013 0.82903,1.51525 1.22174,3.90249 1.60141,5.76082 0.35999,1.76197 -0.56917,4.02409 0,5.71811 0.81042,2.41205 0.77075,5.3265 1.6249,7.87895 1.23461,3.68935 -1.25194,8.63346 0,12.31593 0.69299,2.03838 0.73339,4.40032 1.09323,6.55939 0.37889,2.27333 -0.5037,4.55722 0.54662,6.55939 0.9317,1.77605 -0.96397,5.0869 0,6.84337 0.89201,1.62537 0.21059,0.90736 1.57152,2.26546 0.0383,0.0382 0.31082,6.42943 0.52099,6.84978 0.46064,0.92128 1.19295,1.83273 1.62917,2.71386 0.41432,0.83689 -0.23109,2.27626 0,3.19428 0.38187,1.51703 0.72755,2.9038 1.09323,4.36652 0.48402,1.93604 -0.32216,3.7286 0.54662,5.46616 0.63521,1.27043 -0.19686,3.06739 0.51031,4.39001 0.65385,1.22288 -0.60294,3.42555 0,4.68253 0.35164,0.73307 0.86161,1.15645 1.05053,2.10105 0.16115,0.80573 -0.27832,2.44474 0,3.27969 0.43225,1.29675 1.15542,2.92179 1.63985,4.37506 0.30083,0.90251 -0.42372,2.39597 0,3.2434 0.4771,0.9542 1.55451,1.79141 2.18646,2.64553 0.0196,0.0264 0.87817,3.3149 1.44981,4.31528 0.77216,1.35128 -0.24041,5.80874 0,7.25119 0.0424,0.25417 0.43138,0.31615 0.54662,0.54662 0.34511,0.69022 -0.18726,1.92211 0,2.67116 0.40974,1.63896 0.7736,3.28511 1.09323,4.88324 0.39026,1.95131 -0.81586,7.29978 0,8.90599 0.72057,1.41862 1.27272,3.71571 1.6313,5.45121 0.0982,0.47536 -0.21239,1.01974 0,1.45622 0.66385,1.3642 2.06545,4.99095 3.02774,5.90814 0.15045,0.1434 1.47979,0.55693 1.59928,1.05053 0.37233,1.538 0,3.81146 0,5.41066 0,0.5976 0.28421,1.8639 0,2.4192 -0.50432,0.9858 -2.28734,0.397 -3.16439,1.0548 -1.67371,1.2553 0.38143,0.8484 -1.09323,1.6398 -0.04,0.021 -0.90033,-0.021 -0.94163,0 -1.39682,0.7239 -2.94676,2.1626 -4.37293,2.7331 -0.86262,0.345 -2.07613,-0.1103 -2.73308,0.5466 -0.46453,0.4646 -0.62869,1.1753 -1.09323,1.6399 -1.03231,1.0323 -1.03182,0.2579 -2.18646,0.5466 -1.10614,0.2765 -1.29832,1.3438 -2.18646,1.6398 -1.13893,0.3797 -2.178,0.267 -3.2797,1.0933 -1.04692,0.7852 -2.35509,1.9463 -3.79214,2.1864 -0.86005,0.1437 -3.7081,0.3074 -4.81065,0 -0.32653,-0.091 -0.6064,-0.3032 -0.9096,-0.4548 -0.1822,-0.1822 -0.30216,-0.4646 -0.54661,-0.5466 -3.80489,-1.2683 -12.95867,-2.7454 -15.81556,-3.1644 -3.84817,-0.5646 -7.90558,0.7879 -11.54939,-0.5466 -1.13004,-0.4139 -2.69543,0.391 -3.83485,0 -0.24372,-0.084 -0.36441,-0.3644 -0.54661,-0.5466 -0.52882,-0.1765 -1.05765,-0.353 -1.58647,-0.5296 -2.98308,-0.8129 -14.19914,1.2629 -15.51876,-0.5274 -0.11936,-0.1619 0.8006,-3.1189 1.09324,-3.6939 0.65502,-1.287 -0.64913,-3.567 0,-4.8576 0.65406,-1.3005 1.62276,-6.44162 1.62276,-8.08179 0,-0.27194 0.37875,-5.59311 0.54662,-6.01278 0.24398,-0.60996 0.84924,-1.02988 1.09323,-1.63984 0.33834,-0.84587 -0.14977,-1.83445 0,-2.73308 0.14855,-0.89133 0.44043,-5.26309 0.54661,-5.41918 0.28336,-0.41654 0.78687,-0.65144 1.06761,-1.06975 0.58672,-0.87413 0.005,-8.68327 0.54662,-10.30669 0.81657,-2.44971 1.17282,-4.88464 1.60995,-7.50742 0.1464,-0.87842 -0.17461,-1.86005 0,-2.73308 0.66256,-3.31279 1.63213,-6.51306 2.18646,-9.83908 0.1251,-0.75056 -0.19981,-1.92335 0,-2.72027 0.41604,-1.65925 0.80744,-3.15244 1.09323,-4.86829 0.22581,-1.35569 -0.43064,-3.08098 0,-4.37293 0.53321,-1.59961 0.80501,-3.1912 1.09324,-4.92167 0.58667,-3.52236 0,-7.6699 0,-11.2526 0,-2.65451 0.67641,-21.45423 0,-22.99201 -0.26451,-0.60135 -0.79289,-1.05558 -1.09324,-1.63985 -0.7348,-1.42943 0,-9.42823 0,-11.54725 0,-2.91751 0.81383,-23.42059 0,-25.04824 -1.2487,-2.49741 -0.54661,-7.0165 -0.54661,-9.89246 0,-4.21319 0.2924,-8.40991 -0.54662,-12.52305 -0.48778,-2.39126 0.76667,-5.52447 0,-7.84265 -0.24558,-0.74258 -0.68919,-1.65551 -1.05479,-2.35941 -0.37881,-0.72932 -0.2406,-5.15373 -0.49537,-6.21135 -0.25373,-1.0533 -0.99288,-1.64177 -0.99288,-2.91244 0,-3.24089 -1.61962,-5.25309 -2.91884,-7.75724 -0.35056,-0.67567 -1.23665,-0.72969 -1.60142,-1.2427 -0.81573,-1.14726 -1.56084,-2.929 -1.56084,-4.28538 0,-0.47387 -0.0831,-1.71736 -0.39928,-1.3644 -0.65474,0.73086 -0.0442,3.60855 -0.54662,4.51385 -0.71353,1.28563 9.4e-4,2.62915 -0.47402,4.02061 -1.57116,4.60303 -0.66274,10.4437 -2.18646,15.01485 -0.54179,1.62536 0.76988,4.23531 0,5.748 -1.33141,2.61601 -0.29424,5.89407 -1.09323,8.29105 -0.52192,1.56575 0.13509,4.17257 -0.54662,5.53875 -0.22066,0.44223 -0.80162,0.6202 -1.04839,1.0484 -0.48211,0.83657 0.43358,2.44242 0,3.30958 -0.0326,0.0652 -1.05164,1.01765 -1.06974,1.06975 -0.80467,2.32285 0.19237,10.12652 -0.51459,12.95436 -0.41148,1.64591 -0.54193,3.24888 -1.09323,4.86402 -1.17797,3.45108 0.90576,8.06679 0,11.60491 -2.03358,7.94367 -1.09323,16.96766 -1.09323,25.22332 0,2.08497 -0.754,9.95613 0,11.417 0.66662,1.29158 0.82862,3.71508 1.09323,5.29961 0.86238,5.16418 -0.59156,11.15669 1.09323,16.11235 0.43305,1.27377 -0.26703,3.06075 0,4.37293 0.31393,1.54265 0.72986,9.64022 1.09323,10.25544 0.58209,0.98556 0.99189,1.91545 1.46049,2.85265 0.49109,0.98218 -0.49554,2.70593 0,3.68539 1.07047,2.11586 0.97877,13.44285 0.0128,15.14296 -0.83807,1.475 0.50619,5.29898 -0.44839,7.24906 -0.40642,0.83025 0.28042,12.84053 0.47828,13.03977 1.12871,1.13654 0.68026,-0.16848 1.41779,0.95444 0.65491,0.99713 0.123,1.51853 0.54661,2.35301 0.39469,0.7775 1.32441,1.51452 1.59501,2.31672 0.37005,1.0969 1.01317,5.3369 0.32455,6.4078 -2.99421,4.6562 -7.30201,1.9539 -8.93161,3.0683 -1.983,1.3561 -2.11877,0.9409 -4.16154,1.6228 -1.48201,0.4946 -2.36027,1.4394 -3.63627,2.0839 -0.40629,0.2052 -1.12538,-0.2064 -1.53095,0 -1.47192,0.7493 -3.15469,0.7678 -4.62702,1.5395 -0.98963,0.5187 -2.77694,-0.4668 -3.79214,0 -1.51726,0.6977 -8.99218,1.4077 -9.11952,1.4947 -0.42527,0.2911 -0.66547,0.8058 -1.09323,1.0932 -0.44051,0.296 -11.95314,-0.5466 -13.71023,-0.5466 -1.38309,0 -10.1683,0.3234 -10.96434,-0.4868 -0.28552,-0.2907 -0.20885,-0.8654 -0.54661,-1.0933 -0.29679,-0.2002 -0.73023,0.1 -1.07402,0 -1.52012,-0.4416 -3.08279,-1.7063 -4.60139,-2.464 -0.48337,-0.2412 -1.10814,0.1708 -1.62063,0 -1.21913,-0.4064 -2.86474,-2.3076 -4.01848,-3.173 -0.36932,-0.2769 1.63344,-5.5852 1.63344,-7.8554 0,-4.27503 -0.80141,-9.40225 0.54662,-13.43053 0.15329,-0.45807 -0.17695,-1.10958 0,-1.55871 0.22903,-0.5813 0.84601,-0.96193 1.05053,-1.5523 0.70659,-2.03975 -0.14247,-4.9085 0.54661,-6.97576 0.16297,-0.4889 0.86276,-0.63228 1.09323,-1.09323 0.41549,-0.83098 0.32129,-1.83175 0.54662,-2.73308 0.46241,-1.84963 -0.0602,-4.46335 0.54661,-6.26472 0.94678,-2.81075 0.50645,-5.75582 1.09324,-8.13091 0.23426,-0.9482 0.84804,-1.77153 1.08469,-2.71813 0.21196,-0.84787 0.11319,-2.48032 0.50391,-3.28823 0.38228,-0.79049 1.15851,-1.13355 1.57365,-1.97295 0.48508,-0.98079 -0.27028,-2.72381 0,-3.80495 0.67593,-2.70372 1.50783,-4.84731 2.16725,-7.52237 1.10474,-4.4816 -1.21244,-13.15633 0,-17.45113 0.31555,-1.11778 0.78537,-1.48852 1.52241,-2.54945 0.30868,-0.44434 0.19095,-9.99461 0.54661,-11.45758 0.0589,-0.24207 0.41112,-0.30921 0.5274,-0.52953 0.39078,-0.74043 0.29048,-3.51282 0.52099,-4.33663 0.39749,-1.42052 -0.65025,-3.52842 0,-4.82132 0.78942,-1.56958 1.02998,-3.04089 1.63985,-4.84907 0.19616,-0.5816 -0.20498,-1.37135 0,-1.94946 0.52586,-1.48309 1.0922,-2.79458 1.60995,-4.24267 0.14162,-0.39609 -0.14013,-0.86531 0,-1.26192 0.44354,-1.2553 2.11868,-3.36743 2.76938,-4.69107 0.82111,-1.67029 0,-5.88285 0,-7.80422 0,-3.40012 0.065,-14.9554 0,-15.0063 -0.29692,-0.23276 -1.35073,-0.48746 -1.52881,-1.02491 -0.37636,-1.13585 0.018,-3.8875 -0.54662,-5.02843 -0.59156,-1.19535 -1.2602,-2.33762 -1.60995,-3.73663 -0.42616,-1.70462 0.13215,-19.26972 0.54661,-20.90164 0.58746,-2.31312 1.34195,-4.72278 1.63985,-7.10601 0.47267,-3.78136 -1.003,-13.06499 0,-15.97996 0.97655,-2.83812 1.09323,-6.66802 1.09323,-9.70883 0,-1.20168 -0.35883,-3.23011 0,-4.2982 0.38935,-1.15893 0.54662,-1.4646 0.54662,-2.6498 0,-2.11855 -0.75533,-13.69249 0,-14.8056 0.28993,-0.42727 0.79295,-0.67682 1.09536,-1.09536 0.29725,-0.41139 -0.16369,-1.7797 0,-2.22703 0.72904,-1.99231 0.88626,-4.42675 1.58647,-6.52736 0.17474,-0.52424 0.7663,-1.08636 1.03771,-1.58433 0.20343,-0.37324 -0.19585,-1.06974 0,-1.44768 0.88297,-1.70385 1.36272,-3.57437 2.00497,-5.52594 0.46647,-1.41742 -0.4718,-3.29915 0,-4.71456 1.50398,-4.51192 0.21721,-9.3315 2.65835,-13.73158 0.35062,-0.63198 -0.089,-1.73435 0.51672,-2.2975 0.29839,-0.27741 0.86198,-0.21118 1.09323,-0.54661 0.45132,-0.65464 0.55089,-1.49181 0.82633,-2.23771 3.3543,-0.72939 6.01481,0.96881 8.66044,1.6975 1.30513,0.35947 3.49717,0 4.79143,0 3.98056,0 8.63915,0.57075 12.62554,0 5.08442,-0.72797 0.38727,-0.54875 5.47683,-0.54875 17.37213,0 34.74425,0 52.11638,0"
         id="path167" />
      <path
         style="fill:none;stroke:#000000;stroke-width:1px;stroke-linecap:butt;stroke-linejoin:miter;stroke-opacity:1"
         d="m 393.30699,720.99449 c 1.63649,-1.42856 3.83251,0.59082 5.60495,0 0.62324,-0.20774 1.01661,-0.88548 1.63984,-1.09323 3.39718,-1.13239 12.83919,-0.54661 16.94509,-0.54661 8.07824,0 16.15647,0 24.23471,0 3.04868,0 7.33208,-0.75433 10.3494,0 0.24998,0.0625 0.30239,0.46445 0.54661,0.54661 1.95791,0.65864 5.09908,0 7.09106,0 1.27962,0 10.7241,0.0944 11.54512,0.50818 1.13404,0.57149 1.68292,0.54662 3.1409,0.54662 0.5331,0 2.06665,0.25642 1.59928,0 -0.78634,-0.43143 -1.75372,-0.37722 -2.63058,-0.56583"
         id="path169" />
      <path
         style="fill:none;stroke:#000000;stroke-width:1px;stroke-linecap:butt;stroke-linejoin:miter;stroke-opacity:1"
         d="m 432.58218,721.31691 c 1.26834,26.89693 0.93309,53.89395 0.93309,80.9653"
         id="path175" />
      <path
         style="fill:none;stroke:#000000;stroke-width:1px;stroke-linecap:butt;stroke-linejoin:miter;stroke-opacity:1"
         d="m 437.10884,780.63965 c -0.46027,-2.7489 3.54735,-3.02751 4.35797,-4.89819 0.13594,-0.3137 -0.18033,-1.05078 0,-1.358 0.253,-0.43098 0.81663,-0.6242 1.05907,-1.0612 0.90984,-1.63995 0.73119,-6.02368 1.62277,-8.31881 0.94335,-2.42839 -0.35848,-22.09689 -1.54163,-24.46318"
         id="path177" />
      <path
         style="fill:none;stroke:#000000;stroke-width:1px;stroke-linecap:butt;stroke-linejoin:miter;stroke-opacity:1"
         d="m 390.48637,752.18788 c 1.22892,-0.87686 4.74758,-1.01648 6.00637,-2.14803 0.79994,-0.71909 1.34961,-1.64267 2.42774,-2.36795 0.77977,-0.52458 2.37571,-0.80878 2.89322,-1.89608 0.67178,-1.41141 1.28156,-2.54468 1.93664,-3.79855 0.28142,-0.53865 -0.1959,-1.45732 0,-2.0434 0.61501,-1.83999 1.33369,-4.81196 2.63486,-6.11313"
         id="path179" />
      <path
         style="fill:none;stroke:#000000;stroke-width:1px;stroke-linecap:butt;stroke-linejoin:miter;stroke-opacity:1"
         d="m 463.22041,737.69403 c -0.0669,0.99857 -0.38993,2.01295 -0.20071,2.99571 0.231,1.19977 1.52933,1.85691 2.18646,2.73307 1.19526,1.59368 1.94622,3.36383 3.27969,4.91954 1.80439,2.10512 4.66202,3.98527 6.32024,5.96794 0.65037,0.77761 0.24292,1.08011 1.03986,1.56724 0.74587,0.45593 5.9784,0.54662 7.37717,0.54662"
         id="path181" />
    </g>
  </g>
</svg>
