<?xml version="1.0" encoding="UTF-8" standalone="no"?>
<!-- Created with Inkscape (http://www.inkscape.org/) -->

<svg
   version="1.1"
   id="svg650"
   width="152.74673"
   height="334.47748"
   viewBox="0 0 152.74673 334.47748"
   sodipodi:docname="harem-bottom.svg"
   inkscape:version="1.1.2 (0a00cf5339, 2022-02-04)"
   xmlns:inkscape="http://www.inkscape.org/namespaces/inkscape"
   xmlns:sodipodi="http://sodipodi.sourceforge.net/DTD/sodipodi-0.dtd"
   xmlns="http://www.w3.org/2000/svg"
   xmlns:svg="http://www.w3.org/2000/svg">
  <defs
     id="defs654" />
  <sodipodi:namedview
     id="namedview652"
     pagecolor="#ffffff"
     bordercolor="#666666"
     borderopacity="1.0"
     inkscape:pageshadow="2"
     inkscape:pageopacity="0.0"
     inkscape:pagecheckerboard="0"
     showgrid="false"
     inkscape:zoom="1.8294393"
     inkscape:cx="-220.83269"
     inkscape:cy="172.45721"
     inkscape:window-width="1860"
     inkscape:window-height="1009"
     inkscape:window-x="0"
     inkscape:window-y="0"
     inkscape:window-maximized="1"
     inkscape:current-layer="g656"
     fit-margin-top="0"
     fit-margin-left="0"
     fit-margin-right="0"
     fit-margin-bottom="0" />
  <g
     inkscape:groupmode="layer"
     inkscape:label="Image"
     id="g656"
     transform="translate(-487.69071,-453.62481)">
    <path
       style="fill:none;stroke:#000000;stroke-width:1px;stroke-linecap:butt;stroke-linejoin:miter;stroke-opacity:1"
       d="m 523.02997,472.14775 c -0.83212,2.42457 -1.31447,4.93263 -2.20781,7.24693 -0.20856,0.54028 -1.09284,0.83905 -1.35586,1.35586 -0.27989,0.54994 -0.66463,2.27458 -1.03558,2.64553 -0.84047,0.84047 -2.68038,1.53445 -3.2797,2.73308 -0.25768,0.51536 -0.25017,1.14577 -0.54661,1.63985 -0.48536,0.80893 -1.74777,1.33648 -2.18647,2.18646 -0.67263,1.30322 -1.42939,2.85878 -2.15229,4.3046 -0.67295,1.34588 -2.36915,2.24714 -3.10675,3.63414 -0.21421,0.40281 0.15007,0.93783 0,1.36867 -0.34945,1.00332 -1.23268,1.75176 -1.63984,2.73308 -1.83715,4.4278 -0.88407,9.76255 -2.02632,14.33158 -0.46006,1.84024 -1.60937,3.72206 -2.18647,5.45334 -0.5335,1.60053 0.27097,4.64217 -1.08682,5.99996 -0.46454,0.46454 -1.30185,0.5299 -1.63985,1.09323 -0.52856,0.88093 0.33692,2.78389 0,3.78147 -0.52909,1.5666 -1.31131,3.27476 -1.63344,4.88538 -0.50856,2.54282 0.91627,7.75085 0,10.01844 -0.82919,2.05208 -1.21288,3.27309 -1.64839,5.40637 -0.11346,0.55579 0.29828,1.21926 0,1.70177 -2.25992,3.65575 -1.60141,20.46092 -1.60141,26.13292 0,9.61061 0,19.22122 0,28.83183"
       id="path841" />
    <path
       style="fill:none;stroke:#000000;stroke-width:1px;stroke-linecap:butt;stroke-linejoin:miter;stroke-opacity:1"
       d="m 503.34754,562.91583 c -0.19745,1.73075 0.2162,3.49956 0,5.22915 -0.16453,1.31623 -0.8325,2.52571 -1.09323,3.8263 -0.41413,2.06579 0.4132,4.38024 0,6.44623 -0.13897,0.69485 -1.90727,7.53196 -2.14376,8.00492 -0.72729,1.45458 -1.09509,1.09882 -1.60995,2.63913 -0.50683,1.51631 0.0702,3.21275 -0.54662,4.85762 -0.87037,2.32099 -2.0996,4.40123 -2.69251,6.78786 -1.27251,5.12226 1.41064,9.10453 -1.595,14.22481 -0.99243,1.69065 0.7241,6.58085 0,8.67112 -0.81564,2.35451 -0.54662,5.26244 -0.54662,7.95795 0,5.88609 0,11.77217 0,17.65825 0,2.25967 0.31664,4.69308 0,6.90956 -0.18759,1.31314 -0.87474,2.51795 -1.09323,3.82631 -0.47548,2.84732 0.43551,1.97807 -1.00996,5.12879 -0.14691,0.32022 0.19955,0.76658 0,1.05694 -0.29018,0.42224 -0.86302,0.6227 -1.09323,1.08041 -0.40934,0.81389 0.14977,1.83445 0,2.73308 -0.30728,1.84371 -1.04203,3.72296 -1.63984,5.45335 -0.31261,0.90483 0.24023,7.09296 0.53593,7.67397 0.23376,0.45929 0.98263,0.58988 1.09324,1.09323 0.2777,1.26379 -0.0889,2.59094 0,3.88182 0.20129,2.92187 1.29045,5.21116 1.68468,7.97077 0.18591,1.30132 -0.4485,3.5014 0,4.79783 0.33931,0.98081 0.67482,1.32349 1.05907,2.116 0.39095,0.80633 0.32706,3.3786 0.54662,4.24054 0.25642,1.00667 -0.25266,2.20796 0,3.21564 0.23863,0.95174 0.8526,1.78184 1.09323,2.73308 0.30631,1.21091 -0.12552,2.46592 0.35871,3.58716 0.67458,1.56197 0,9.63172 0,11.90384 0,4.87757 -1.04478,13.83102 0.54662,18.21981 0.9711,2.6781 -0.40081,5.7314 0.88184,8.26756 0.25284,0.49993 -0.24463,1.37142 0,1.87685 0.46253,0.95562 1.10861,1.98182 1.46476,2.97222 0.24138,0.67124 -0.41624,2.40797 0,2.95515 0.39476,0.51893 1.16661,0.62302 1.62917,1.08255 0.40163,0.39899 0.2069,1.91952 0.51886,2.37223 0.79535,1.15419 3.61862,4.51689 4.77221,5.26971 0.90538,0.59084 1.51774,0.38389 2.42774,0.96299 0.7539,0.47975 0.99101,1.4597 1.87472,1.90247 1.58548,0.79439 7.54037,-0.21527 9.26258,0 2.47885,0.30986 5.35705,0.8521 7.65261,1.63985 0.47064,0.16151 10.0338,0.0569 10.11453,0 2.73957,-1.92939 2.77678,-0.18935 5.1053,-1.58647 0.44191,-0.26514 0.66443,-0.80736 1.09323,-1.09323 0.83831,-0.55887 2.73153,-0.55497 3.70033,-1.06334 0.38062,-0.19972 0.68577,-0.87556 1.06761,-1.0676 0.86468,-0.43489 2.0816,-0.19358 2.94447,-0.50605 0.86895,-0.31467 2.74644,-3.26712 3.16012,-4.01634 0.91827,-1.66314 2.35775,-3.00561 3.15158,-4.60994 0.47249,-0.95491 -0.26817,-2.62175 0,-3.66403 0.39168,-1.52235 0.69067,-2.70667 1.50533,-3.98218 0.34774,-0.54446 0.54661,-12.40949 0.54661,-13.94297 0,-6.24385 -0.29725,-16.73027 1.53095,-22.19344 0.36983,-1.10515 -0.38134,-2.59722 0,-3.6982 0.13977,-0.40352 0.94499,-1.75668 1.07615,-2.15016 0.40975,-1.22926 -0.57241,-3.08077 0,-4.2256 1.25504,-2.51007 1.46591,-6.33978 2.18006,-9.19638 0.53652,-2.1461 -0.19593,-4.32312 0.54661,-6.47825 0.50365,-1.46176 0.29214,-18.366 0,-19.52656 -0.0629,-0.24988 -0.46513,-0.30216 -0.54661,-0.54661 -0.49115,-1.47346 0.25854,-3.35547 0,-4.90673 -1.51772,-9.10631 -0.54662,-19.04319 -0.54662,-28.29376 0,-8.32781 -0.62401,-16.93709 0.54662,-25.13151 0.0773,-0.54112 0,-1.09323 0,-1.63985 0,-0.91102 -0.12884,-1.8312 0,-2.73307 0.24746,-1.73227 1.33773,-3.65349 1.63985,-5.46616 0.616,-3.69601 0.52765,-6.58684 2.20994,-9.94157 0.65146,-1.29909 -0.36116,-3.45567 0,-4.90032 1.13572,-4.54288 0.70157,-9.54834 1.63131,-14.19706 0.48227,-2.41134 0.43396,-9.45379 0,-12.05757 -0.56276,-3.37655 -1.63985,-1.65993 -1.63985,-4.90033"
       id="path843" />
    <path
       style="fill:none;stroke:#000000;stroke-width:1px;stroke-linecap:butt;stroke-linejoin:miter;stroke-opacity:1"
       d="m 562.70017,471.599 c 0,6.5722 0,13.1444 0,19.71659 0,2.03059 0.39823,4.10062 0,6.09178 -0.12884,0.64419 -0.91275,1.00817 -1.09323,1.63984 -0.26179,0.91628 -0.34332,5.66294 -0.54661,7.08679 -0.84002,5.88341 0,14.64734 0,20.81623 0,7.12874 -0.82687,15.02286 0.54661,21.89025 0.45821,2.29105 0,5.32963 0,7.65262 0,6.19497 0,12.38995 0,18.58493 0,19.94096 -0.52099,39.24726 -0.52099,59.23092"
       id="path845" />
    <path
       style="fill:none;stroke:#000000;stroke-width:1px;stroke-linecap:butt;stroke-linejoin:miter;stroke-opacity:1"
       d="m 561.08595,634.30895 c 1.7907,5.68524 5.49034,9.18064 6.5722,14.58994 0.1072,0.536 -0.24446,1.15094 0,1.63984 0.1822,0.36441 0.88361,0.19726 1.09323,0.54662 2.18093,0.50512 0.18884,1.84947 0.54661,2.69251 0.23058,0.54332 0.89069,0.89509 1.11032,1.44127 0.19623,0.488 -0.16633,1.07894 0,1.57792 0.0221,0.0663 1.00953,0.96847 1.05479,1.0548 0.41127,0.78452 0.39255,2.85348 1.03131,4.09108 0.43758,0.84781 -0.30569,2.26867 0,3.18574 0.90569,2.71706 0.13902,5.42293 0.54662,8.2761 0.59574,4.1702 1.44981,5.13477 1.44981,9.38855 0,3.09084 1.58374,8.88214 0.54662,11.99352 -1.46212,4.38634 -2.25139,8.55605 -4.80638,12.38853 -0.30321,0.45481 0.17286,1.12128 0,1.63984 -0.28552,0.85657 -1.66488,1.14578 -2.18646,1.63985 -0.21601,0.20462 0.1396,0.57783 0,0.80498 -1.00331,1.6325 -2.26405,3.12159 -3.20496,4.78288 -0.47425,0.83735 -0.67876,1.93531 -1.02063,2.84838 -0.37834,1.01047 -1.13595,1.22088 -1.55658,2.06903 -0.28182,0.56825 -0.32274,1.51058 -0.52953,2.13095 -0.29533,0.88598 -1.44582,1.95697 -1.63985,2.73307 -0.22095,0.88383 0.50647,1.97581 0,2.73308 -0.2907,0.43465 -0.81618,0.67654 -1.10818,1.11031 -0.4883,0.72541 -0.22928,2.32983 -0.52953,3.23059 -1.15267,3.45802 -1.09323,6.17064 -1.09323,9.83267 0,1.19861 -0.50265,6.70563 0,7.53945 1.30918,2.17175 2.43025,4.12425 3.24553,6.38857 0.35385,0.98276 1.67921,1.64385 2.15016,2.58575 0.41549,0.83099 0.13113,1.9021 0.54662,2.73308 0.6867,1.3734 1.88003,2.66682 2.64767,4.21919 0.14597,0.29519 3.09672,2.92286 3.67257,3.64268 1.20511,1.50639 3.5124,5.74452 5.25264,6.81775 0.59671,0.368 1.40212,0 2.10318,0 2.18647,0 4.40308,0.36183 6.55939,0 3.54899,-0.59553 1.69566,-0.9339 3.84553,-1.65053 0.84185,-0.28061 0.50275,0.56124 1.63984,0 0.81597,-0.12839 0.91605,-1.25087 1.58433,-1.58433 0.40441,-0.20178 1.11541,0.20471 1.51814,0 0.43833,-0.2228 0.60434,-0.82209 1.04413,-1.04198 2.1905,-1.09526 10.86212,1.09969 12.99706,0 0.32567,-0.16775 2.03698,-0.46339 2.16084,-0.54662 0.33818,-0.22722 0.20762,-0.86723 0.54662,-1.09323 0.30321,-0.20214 0.74752,0.11524 1.09323,0 1.53496,-0.51165 3.15749,-1.33886 4.47328,-2.13095 1.84437,-1.11029 2.89931,-3.86352 4.82345,-4.82559 0.88261,-0.4413 1.91897,-0.70407 2.69892,-1.09323 0.87956,-0.43886 0.72182,-1.7093 1.60782,-2.1523 1.42662,-0.71331 8.05891,-6.34553 8.63695,-8.07966 0.96629,-2.89887 0.31798,-6.47117 1.09323,-9.57218 0.17504,-0.70015 -0.22464,-1.47926 0,-2.16511 0.95175,-2.90575 2.63894,-6.3348 4.09321,-9.24335 0.24095,-0.48191 -0.17038,-1.10522 0,-1.61636 0.27989,-0.83966 1.19339,-0.42355 1.63985,-1.09323 0.17158,-0.25738 0.14871,-2.62113 0.54661,-3.4014 1.12705,-2.21006 -0.72805,-12.34786 -1.63344,-14.15863 -0.85646,-1.71293 0.12988,-5.05828 -0.54021,-6.98216 -0.23951,-0.68767 -0.73885,-1.37086 -1.06547,-2.03486 -0.40055,-0.81428 0.12947,-1.82422 0,-2.7224 -0.68368,-4.74307 -0.54662,-9.58496 -0.54662,-14.45329 0,-1.57654 0.48859,-4.29234 0,-5.73519 -1.12608,-3.32548 -0.65394,-5.21548 -1.09323,-8.69033 -0.11705,-0.9259 -1.09323,-2.10469 -1.09323,-3.41421 0,-8.67183 0,-17.34366 0,-26.01549 0,-3.14202 -0.74745,-8.71542 0,-11.64974 1.45734,-5.72117 0.54662,-12.57028 0.54662,-18.48458 0,-4.87895 1.02861,-11.12205 -0.49751,-15.69384 -0.71968,-2.15597 0,-11.3128 0,-14.18639 0,-10.87111 0.54662,-21.49552 0.54662,-32.43395 0,-3.03969 1.09054,-11.55635 -1.09323,-13.74012"
       id="path851" />
    <path
       style="fill:none;stroke:#000000;stroke-width:1px;stroke-linecap:butt;stroke-linejoin:miter;stroke-opacity:1"
       d="m 604.46929,472.06661 c 3.07464,-0.0749 3.2506,1.98119 4.88538,3.62773 0.7889,0.79458 1.98715,1.14338 2.64126,2.12455 1.67667,2.51501 2.80889,5.04588 4.37292,7.65261 0.80497,1.34161 2.0724,2.50494 2.73308,3.82631 0.54662,1.09323 -0.27331,0.81993 0,1.63985 0.48196,1.44588 1.39465,3.73182 2.18646,4.91954 2.2194,3.3291 3.62267,6.98192 4.87898,10.75082 0.25969,0.77907 1.3583,1.34397 1.61208,2.10532 0.49016,1.47046 0.0412,3.42463 0.5274,4.88324 0.25768,0.77304 0.79061,1.4299 1.09323,2.18647 0.29903,0.74756 -0.13256,1.93771 0,2.73307 0.34589,2.07533 1.23306,3.97881 1.63985,6.01278 0.36155,1.80774 0.1036,3.71569 0.54662,5.50245 0.44012,1.7751 1.28287,2.59224 1.63984,4.37292 0.78366,3.90913 0,13.34244 0,17.65612"
       id="path853" />
    <path
       style="fill:none;stroke:#000000;stroke-width:1px;stroke-linecap:butt;stroke-linejoin:miter;stroke-opacity:1"
       d="m 612.96318,545.82555 c -1.6074,7.34704 -2.05506,14.70686 -3.27969,22.05466 -0.28228,1.69365 -1.32985,2.82295 -1.63985,4.37292 -0.17866,0.89334 0.22096,1.84926 0,2.73308 -0.48602,1.94409 -1.29628,3.97062 -1.63344,5.99356 -0.2317,1.39019 0.27582,3.13927 -0.54661,4.37292 -0.28587,0.4288 -0.86276,0.63228 -1.09324,1.09323 -0.40742,0.81485 0.17692,1.8394 0,2.73308 -1.00839,5.09402 0.20426,10.51247 -0.53807,15.70879 -0.99736,6.98151 -1.63985,13.80986 -1.63985,20.9294 0,2.99559 0.18132,5.85971 -0.54661,8.74585 -0.55845,2.21416 0.72411,5.12158 0,7.2939 -0.38521,1.15563 -0.85901,2.42434 -1.09323,3.81777 -0.41444,2.46554 -0.22293,3.9494 -1.07402,6.50601 -0.46479,1.39621 -0.8928,3.43186 -1.63344,4.91313 -0.93119,1.86239 -4.41563,6.36326 -4.41563,8.20137 0,0.45878 -4.51096,10.669 -4.8021,10.48392 -0.38904,-0.24732 -0.65195,-0.65196 -0.97793,-0.97793"
       id="path855" />
    <path
       style="fill:none;stroke:#000000;stroke-width:1px;stroke-linecap:butt;stroke-linejoin:miter;stroke-opacity:1"
       d="m 604.46929,472.06661 c -1.45124,2.51386 -3.11003,4.91883 -4.35371,7.54159 -0.86889,1.83239 0,7.26098 0,9.29246 0,4.6588 -0.0936,9.12257 -0.56156,13.73799 -0.17603,1.73623 0.22004,3.15921 0,4.91954 -0.16453,1.31623 -0.9287,2.51008 -1.09323,3.82631 -0.26799,2.14392 0.23821,4.41548 0,6.55939 -0.7911,7.11991 -1.09323,14.48206 -1.09323,21.71942 0,3.33258 0.78808,16.07426 0,18.03832 -0.24377,0.6075 -0.79889,1.04663 -1.09323,1.6313 -0.65956,1.31011 0,5.08621 0,6.62345 0,3.01136 -0.54662,5.54266 -0.54662,8.42129"
       id="path857" />
    <path
       style="fill:none;stroke:#000000;stroke-width:1px;stroke-linecap:butt;stroke-linejoin:miter;stroke-opacity:1"
       d="m 538.48895,480.53702 c -0.53918,9.0546 0.92615,18.57741 -0.54662,27.41405 -0.32501,1.95006 0.27966,4.05516 0,6.01277 -0.18221,0.54662 -0.36441,1.09323 -0.54662,1.63985 -0.1822,0.1822 -0.46513,0.30216 -0.54661,0.54661 -0.59759,1.79276 0.3722,4.09941 0,5.96794 -0.39465,1.98125 -0.99044,3.50084 -1.62063,5.39142 -0.35048,1.05143 -0.135,2.25065 -0.54662,3.27969 -0.24398,0.60997 -0.84924,1.02989 -1.09323,1.63985 -0.64851,1.62127 0.0502,2.68288 -1.63984,4.37292"
       id="path859" />
    <path
       style="fill:none;stroke:#000000;stroke-width:1px;stroke-linecap:butt;stroke-linejoin:miter;stroke-opacity:1"
       d="m 516.50902,712.2764 c 1.0632,3.54644 -1.24955,14.16712 0,17.29099 0.30263,0.75657 0.83555,1.41343 1.09323,2.18646 0.11524,0.34571 -0.16297,0.76729 0,1.09323 0.85882,1.71763 1.27584,0.36641 1.63985,2.18647 0.14251,0.71257 -0.32601,1.5306 0,2.18005 1.20164,2.39384 2.27979,5.50299 2.72667,8.18429 0.11982,0.7189 -0.14293,1.47179 0,2.18646 0.0505,0.25267 0.43138,0.31614 0.54662,0.54662 0.66514,1.33028 0.62866,2.97924 1.09323,4.37292 0.25767,0.77303 0.83464,1.41374 1.09323,2.18646 0.35977,1.07511 0.74975,6.51432 1.09323,7.08679 0.338,0.56333 1.24568,0.56767 1.63985,1.09323 0.68966,0.91955 0.73077,6.52362 3.13022,8.92307"
       id="path861" />
    <path
       style="fill:none;stroke:#000000;stroke-width:1px;stroke-linecap:butt;stroke-linejoin:miter;stroke-opacity:1"
       d="m 540.96793,749.86263 c -0.0369,4.21549 0.27117,8.48962 -0.54661,12.57856 -0.4826,2.41296 -1.91856,4.64226 -2.70746,7.01206 -0.16072,0.4828 -2.03712,4.97464 -2.18646,4.91954 -1.74893,-0.64535 -3.30817,-1.71957 -4.96225,-2.57935"
       id="path863" />
    <path
       style="fill:none;stroke:#000000;stroke-width:1px;stroke-linecap:butt;stroke-linejoin:miter;stroke-opacity:1"
       d="m 580.20682,727.60299 c -1.22869,8.83337 -1.09323,17.6967 -1.09323,26.64537 0,1.816 -0.55044,4.83762 0,6.48893 0.12883,0.38651 0.36441,0.72882 0.54661,1.09323 0.18221,0.54662 0.38833,1.08583 0.54662,1.63985 0.30312,1.06094 0.19727,2.21811 0.54661,3.26474 0.0116,0.0348 1.04088,1.01842 1.06334,1.06334 0.5965,1.193 0.68971,3.16177 1.63985,4.34944 0.48291,0.60364 1.29413,0.94843 1.63984,1.63985 0.24446,0.4889 -0.0899,1.10066 0,1.63984 0.21912,1.3147 1.38095,3.04472 2.13736,4.16154 0.14449,0.21335 0.40952,0.7648 0.54661,0.54662 0.32274,-0.51366 -0.60939,-1.20902 -0.39501,-1.7765 0.4396,-1.1637 1.09323,-2.23487 1.63984,-3.3523"
       id="path865" />
    <path
       style="fill:none;stroke:#000000;stroke-width:1px;stroke-linecap:butt;stroke-linejoin:miter;stroke-opacity:1"
       d="m 591.72418,747.4541 c 0.30635,4.78097 -0.62093,9.80448 0.54661,14.47464 1.40698,5.6279 -0.53822,-4.34775 1.63985,2.18646 0.23047,0.69142 -0.10375,1.46507 0,2.18646 0.37285,2.5925 1.59928,1.71696 1.59928,4.62275 0,1.54888 2.98206,2.50252 2.16724,2.69678 -2.8411,0.67734 -5.76793,0.92383 -8.6519,1.38575"
       id="path867" />
    <path
       style="fill:none;stroke:#000000;stroke-width:1px;stroke-linecap:butt;stroke-linejoin:miter;stroke-opacity:1"
       d="m 610.77245,740.32675 c -0.36771,3.84407 2.12689,20.62171 -0.30747,23.05607"
       id="path869" />
    <path
       style="fill:none;stroke:#000000;stroke-width:1px;stroke-linecap:butt;stroke-linejoin:miter;stroke-opacity:1"
       d="m 518.61221,778.5813 c 0.25322,2.65525 -1.02802,6.04432 -0.26263,8.69247 0.15379,0.53209 7.22893,-0.79369 8.38499,-1.09323 1.8877,-0.48912 10.64247,0.90974 11.89957,0 0.40363,-0.29211 0.64563,-0.77573 1.05693,-1.05694 1.65668,-1.13267 5.3882,0.86685 7.23412,0 0.92912,-0.43631 0.47829,-2.64813 0.47829,-3.06617 0,-4.89492 1.20988,-8.2035 -4.77862,-8.2035 -5.27842,0 -6.01098,-0.2438 -12.05971,-2.06049"
       id="path873" />
    <path
       style="fill:none;stroke:#000000;stroke-width:1px;stroke-linecap:butt;stroke-linejoin:miter;stroke-opacity:1"
       d="m 576.38691,779.06813 c 1.55721,1.03862 -1.24361,6.76183 0,8.1971 0.9258,1.06847 9.48905,-0.74264 9.9373,-0.77936 6.14831,-0.50367 12.4926,0 18.67034,0 0.92322,0 2.70639,0.51608 3.04055,-0.6491 0.37958,-1.32352 -2.88343,-2.59995 -3.26047,-3.74304 -1.26941,-3.84852 2.95049,3.36945 -1.63985,-2.73308 -0.88003,-1.16994 0.52361,-2.73132 -0.81138,-4.05691"
       id="path875" />
    <path
       style="fill:none;stroke:#000000;stroke-width:1px;stroke-linecap:butt;stroke-linejoin:miter;stroke-opacity:1"
       d="m 538.48895,480.53702 c -2.65408,-1.53309 -5.23066,-3.20894 -7.96223,-4.59926 -0.40239,-0.20481 -1.47697,6.83825 -1.63985,7.65262 -0.22692,1.13461 -1.27286,2.17873 -1.63984,3.27969 -0.47158,1.41473 0.0276,3.45422 -0.54662,4.88751 -0.49254,1.22939 -1.35266,1.94197 -1.61422,3.2498 -0.41692,2.0846 0.56301,4.21347 -1.08042,5.8569"
       id="path877" />
    <path
       style="fill:none;stroke:#000000;stroke-width:1px;stroke-linecap:butt;stroke-linejoin:miter;stroke-opacity:1"
       d="m 525.61359,454.05178 c 0,1.17651 0.12371,2.35954 0,3.52952 -0.158,1.49417 -0.84576,2.89094 -1.09324,4.37292 -0.39568,2.36947 0,5.17756 0,7.57789 0,0.99287 0,1.98575 0,2.97863 0,0.16512 0.16044,0.53444 0,0.49537 -0.55701,-0.13567 -0.99359,-0.57224 -1.49038,-0.85836"
       id="path879" />
    <path
       style="fill:none;stroke:#000000;stroke-width:1px;stroke-linecap:butt;stroke-linejoin:miter;stroke-opacity:1"
       d="m 525.61359,454.05178 c 0.65409,0.39858 1.20551,1.07732 1.96226,1.19573 0.74222,0.11612 1.44543,-0.42311 2.18646,-0.54662 4.44453,-0.74075 9.62494,0 14.15222,0 13.86468,0 27.72935,0 41.59403,0 2.31768,0 14.79656,-0.78633 17.22053,0 0.56907,0.18461 0.31814,3.12986 0.31814,3.2861 0,2.35657 -0.99997,13.67792 1.42206,14.07962"
       id="path881" />
    <path
       style="fill:none;stroke:#000000;stroke-width:1px;stroke-linecap:butt;stroke-linejoin:miter;stroke-opacity:1"
       d="m 523.02997,472.14775 c 6.72574,-1.65839 16.86619,1.18246 23.62191,-0.16868 5.54739,-1.10948 11.0342,-1.09323 16.90665,-1.09323 3.09053,0 10.20595,0.83223 13.11877,0 0.63168,-0.18048 1.01661,-0.88549 1.63985,-1.09324 2.12143,-0.70714 7.85552,0 10.3857,0 1.56463,0 14.66227,-0.59147 15.91804,0.53808 0.43185,0.38844 -0.10107,1.15729 -0.1516,1.73593"
       id="path1029" />
  </g>
</svg>
