<?xml version="1.0" encoding="UTF-8" standalone="no"?>
<!-- Created with Inkscape (http://www.inkscape.org/) -->

<svg
   version="1.1"
   id="svg495"
   width="140.00415"
   height="88.501183"
   viewBox="0 0 140.00415 88.501183"
   sodipodi:docname="hotpants-bottom.svg"
   inkscape:version="1.1.2 (0a00cf5339, 2022-02-04)"
   xmlns:inkscape="http://www.inkscape.org/namespaces/inkscape"
   xmlns:sodipodi="http://sodipodi.sourceforge.net/DTD/sodipodi-0.dtd"
   xmlns="http://www.w3.org/2000/svg"
   xmlns:svg="http://www.w3.org/2000/svg">
  <defs
     id="defs499" />
  <sodipodi:namedview
     id="namedview497"
     pagecolor="#ffffff"
     bordercolor="#666666"
     borderopacity="1.0"
     inkscape:pageshadow="2"
     inkscape:pageopacity="0.0"
     inkscape:pagecheckerboard="0"
     showgrid="false"
     fit-margin-top="0"
     fit-margin-left="0"
     fit-margin-right="0"
     fit-margin-bottom="0"
     inkscape:zoom="5.1029539"
     inkscape:cx="44.484039"
     inkscape:cy="37.527284"
     inkscape:window-width="1860"
     inkscape:window-height="1009"
     inkscape:window-x="0"
     inkscape:window-y="0"
     inkscape:window-maximized="1"
     inkscape:current-layer="g501" />
  <g
     inkscape:groupmode="layer"
     inkscape:label="Image"
     id="g501"
     transform="translate(-791.14036,-405.49282)">
    <path
       style="fill:none;stroke:#000000;stroke-width:1px;stroke-linecap:butt;stroke-linejoin:miter;stroke-opacity:1"
       d="m 808.88351,420.87908 c -0.39964,1.95396 -2.75577,2.75262 -3.51818,4.43065 -0.17935,0.39474 -1.03082,4.12463 -1.1467,4.23621 -0.21043,0.20262 -0.57343,0.1893 -0.78386,0.39193 -0.0132,0.0127 0.0119,0.65665 0,0.69047 -0.23957,0.67939 -0.77601,1.05883 -1.00279,1.63967 -0.15584,0.39915 0.1114,0.95697 0,1.37482 -0.9243,3.46706 0.10616,-0.0325 -0.75477,1.52791 -0.3641,0.65994 -0.0261,2.02455 -0.36896,2.68074 -0.30268,0.57934 -0.84956,0.93727 -1.13905,1.50495 -0.23111,0.45318 0.004,1.49316 -0.27251,1.90913 -1.05423,1.58659 -0.50321,0.76162 -1.03035,2.28881 -0.11539,0.33428 -0.59455,0.43262 -0.75018,0.75017 -0.10218,0.20851 0.1648,0.95591 0,1.10996 -0.21074,0.197 -0.56393,0.18881 -0.77467,0.38581 -0.38046,0.35565 -1.62062,4.06632 -1.91679,4.66335 -0.14574,0.2938 0.15372,0.8193 0,1.10843 -0.34772,0.65406 -0.81147,1.02991 -1.12832,1.8387 -1.06671,2.72285 0.52501,-0.36848 0,1.16967 -0.48272,1.4142 -0.71072,2.87705 -1.17579,4.26683 -0.16487,0.49265 0.10211,1.04915 0,1.55853 -0.16369,0.8165 -0.72444,0.83347 -1.04566,1.43759 -0.20535,0.3862 -0.61971,12.97421 -0.34141,14.33606 0.12662,0.61961 3.90144,0.92782 4.52404,1.08393 1.09722,0.27511 3.79635,0.25673 4.65416,1.11455 0.20657,0.20656 0.18618,0.57648 0.39193,0.78386 0.35081,0.35357 1.003,-0.0823 1.49423,0 1.24813,0.20911 2.11204,0.6728 3.09717,1.15741 0.62252,0.30624 1.62561,-0.22244 2.29034,0 0.44347,0.14841 0.71269,0.66679 1.1666,0.77927 0.2697,0.0668 3.11624,0.51511 3.34825,0.74712 0.32407,0.32407 0.44193,0.81474 0.7563,1.14823 0.25687,0.27249 1.01046,-0.0512 1.44371,0.38121 1.0251,1.02306 2.56094,-0.21061 3.63454,0.38428 0.6506,0.36051 4.18858,1.38642 5.09509,1.56772 0.97196,0.19439 2.18356,-0.27197 3.13543,0 0.56178,0.1605 1.01415,0.59702 1.56772,0.78386 0.93309,0.31492 2.49781,-0.18418 3.41867,0 0.4619,0.0924 0.72892,0.6349 1.17579,0.78386 1.37863,0.45954 3.34792,-0.0598 4.70316,0.39193 0.35055,0.11685 0.47791,0.57665 0.78386,0.78386 0.61064,0.41355 1.9987,-0.34106 2.66084,0 0.14387,0.0741 4.10397,1.33642 4.53781,1.48198 0.69679,0.23379 1.59183,-0.18117 2.30718,0 1.55816,0.39461 2.36085,1.58973 3.72793,2.30106 0.27986,0.14562 0.82008,-0.15926 1.09158,0 1.01546,0.59563 1.04745,2.08223 2.98388,1.25234 0.30614,-0.13121 4.29378,-3.33266 4.63273,-3.88256 0.27576,-0.44739 0.065,-1.41389 0.92318,-1.65498 0.57796,-0.16238 1.33545,1.39096 1.5371,1.69632 0.62467,0.94596 1.45479,1.54272 2.25053,2.18164 3.10298,2.49146 1.32078,1.97496 5.57888,1.97496 0.37097,0 1.57045,0.1632 1.81574,0 1.41253,-0.93981 -0.422,-0.55373 0.76701,-1.14824 0.89142,-0.4457 2.06117,-0.17566 3.04359,-0.75936 1.54765,-0.91953 3.20319,-2.97323 4.94045,-3.32069 0.76864,-0.15372 1.60795,0.24788 2.35158,0 0.11676,-0.0389 1.69428,-1.04146 1.93822,-1.16813 0.75038,-0.38965 0.80794,0.41332 1.88769,-0.39193 0.97386,-0.72628 -0.15452,-0.6867 0.77161,-1.14976 0.34305,-0.17153 1.23617,0.0832 1.56772,0 0.92575,-0.23235 1.89882,-0.76977 2.68227,-1.1513 0.7317,-0.35631 1.91996,0.0123 2.72361,-0.39193 1.8292,-0.91999 -2.34397,0.19407 1.56772,-0.78386 0.9278,-0.23195 5.89242,0.31778 6.18514,0 0.18633,-0.20227 0.13143,-0.59935 0.36897,-0.73793 1.02941,-0.60056 2.16151,0.0727 3.0053,-0.39193 0.69864,-0.38466 3.90611,-1.27507 4.8088,-1.50342 2.55491,-0.6463 7.37545,0.22526 9.35426,-0.78386 0.32282,-0.16462 0.43726,-0.60646 0.75324,-0.78386 0.52027,-0.29207 1.52126,0.19128 2.09591,0 0.83564,-0.27814 1.49034,-0.64209 2.24135,-0.90786 0.32128,-0.1137 1.01019,0.18822 1.28908,0 0.87174,-0.58834 1.12747,-1.24942 1.80043,-1.88923 0.49441,-0.47007 1.25631,-0.10455 1.55853,-0.39193 0.46419,-0.44138 0.58495,-10.74416 0.39193,-11.13019 -0.0826,-0.16526 -0.3335,-0.21666 -0.39193,-0.39193 -0.0945,-0.28344 0.24928,-1.92976 0,-2.16327 -0.2107,-0.19738 -0.57033,-0.1834 -0.77467,-0.38734 -0.30924,-0.30863 0.1983,-1.55233 0,-1.94893 -1.22927,-2.45853 -1.24179,-6.26667 -1.95965,-9.1185 -0.15414,-0.61234 0.21524,-1.47053 0,-2.06834 -0.44025,-1.22273 -0.90283,-2.5011 -1.17579,-3.77845 -0.39555,-1.85106 0.0625,-3.56464 -0.74865,-5.20073 -0.50269,-1.01386 0.16777,-2.84012 -0.39193,-3.92236 -0.16974,-0.32822 -0.6122,-0.45664 -0.78386,-0.78386 -0.25089,-0.47826 -0.19958,-0.93096 -0.37662,-1.46208 -0.20272,-0.60818 -1.08838,-0.69646 -1.54169,-1.14976 -0.29213,-0.29213 -0.16277,-0.83205 -0.39193,-1.17579 -0.66229,-0.99343 -1.66591,-2.06642 -2.1449,-3.10329 -0.26177,-0.56667 -0.44694,-1.42999 -0.72721,-1.93515 -0.32883,-0.59267 -0.92853,-0.92998 -1.16354,-1.54782 -0.11522,-0.30289 0.15399,-0.68704 0,-0.97217 -0.32736,-0.60612 -1.0238,-0.71875 -1.47433,-1.12833 -0.40781,-0.37073 -0.5516,-1.59572 -1.06556,-2.10969"
       id="path632" />
    <path
       style="fill:none;stroke:#000000;stroke-width:1px;stroke-linecap:butt;stroke-linejoin:miter;stroke-opacity:1"
       d="m 808.39054,406.57211 c 7.44361,-0.61179 14.9841,-0.35059 22.47014,-0.35059 1.6222,0 4.26588,-0.50806 5.78708,0 0.44558,0.14881 0.75152,0.57278 1.1712,0.78386 1.06479,0.53553 3.0695,-0.0204 4.30664,0.39193 1.75141,0.5838 8.04257,-0.0887 10.92657,0.39193 3.6575,0.60958 7.55113,-0.21811 11.21134,0.39193 1.14401,0.19066 2.38336,-0.19067 3.52737,0 1.84539,0.30756 2.7471,1.56336 4.31123,2.35158 0.92038,0.46381 2.81248,-0.17376 3.85499,0 6.84683,1.14113 12.61895,1.17578 19.5965,1.17578 5.10427,0 10.20854,0 15.31282,0 0.50528,0 1.87501,-0.16282 2.29952,-0.37508 1.92714,-0.96357 -0.24836,-0.78386 1.54629,-0.78386 0.21959,0 1.5032,-1.1947 1.6703,-0.77468 0.28246,0.71003 -0.18557,1.77223 0,2.51233 0.47494,1.89423 0.76089,3.73383 0.76089,5.6983 0,0.30598 0.13991,1.82827 0,1.89381 -0.52759,0.24716 -1.13292,0.27251 -1.69938,0.40877"
       id="path634" />
    <path
       style="fill:none;stroke:#000000;stroke-width:1px;stroke-linecap:butt;stroke-linejoin:miter;stroke-opacity:1"
       d="m 808.39054,406.57211 c -1.83582,2.09835 -0.42598,8.90811 -1.19569,11.61552 -0.0906,0.3188 -0.59059,0.67265 -0.30773,1.15282 0.87807,1.49059 2.99038,1.43305 3.79376,2.28115 0.2009,0.21209 0.18846,0.57425 0.39193,0.78386 0.17133,0.1765 0.50504,-0.0792 0.73793,0 0.27658,0.094 0.50702,0.29868 0.78386,0.39193 1.77739,0.5987 6.87094,0.0693 8.41578,-0.67056 0.31154,-0.14922 5.70779,-0.18743 6.92919,-0.39193 4.38397,-0.73401 9.67275,0.87301 13.99006,0 0.18109,-0.0366 0.21666,-0.33351 0.39193,-0.39193 0.94077,-0.31359 2.17051,0.24123 3.13544,0 3.13406,-0.78352 6.84576,-0.39193 10.13965,-0.39193 1.37598,0 5.67361,0.47442 6.64291,0 1.9151,-0.93735 4.41305,0.16974 6.51277,-0.35519 0.79455,-0.19864 1.53756,-0.57434 2.33168,-0.77467 1.8838,-0.47523 4.43555,0 6.39029,0 3.66967,0 8.74235,-0.59088 12.28761,0 1.78743,0.2979 3.98102,0.42738 5.47784,1.17579 0.61243,0.30621 2.52816,-0.0573 3.13544,0 0.12037,0.0114 4.82849,0.69517 5.19919,0.80682 2.18227,0.65729 2.98767,1.19569 5.41506,1.19569 1.09478,0 6.80466,0.23322 6.80672,-1.09464 8.6e-4,-0.55154 -0.23475,-1.07781 -0.35212,-1.61672"
       id="path636" />
    <path
       style="fill:none;stroke:#000000;stroke-width:1px;stroke-linecap:butt;stroke-linejoin:miter;stroke-opacity:1"
       d="m 834.98512,408.36948 c -1.78655,2.80241 -1.86013,5.87927 -1.86013,9.06797 0,0.37599 0,4.25081 0,3.19055"
       id="path638" />
    <path
       style="fill:none;stroke:#000000;stroke-width:1px;stroke-linecap:butt;stroke-linejoin:miter;stroke-opacity:1"
       d="m 843.18962,410.37965 c -1.31056,2.47696 0.45396,5.72157 -0.39193,8.22287 -0.27199,0.80431 -0.39192,0.78177 -0.39192,1.54475"
       id="path640" />
    <path
       style="fill:none;stroke:#000000;stroke-width:1px;stroke-linecap:butt;stroke-linejoin:miter;stroke-opacity:1"
       d="m 856.38051,410.55724 c 0,3.26659 0,6.53319 0,9.79978"
       id="path642" />
    <path
       style="fill:none;stroke:#000000;stroke-width:1px;stroke-linecap:butt;stroke-linejoin:miter;stroke-opacity:1"
       d="m 856.38051,410.55724 c 1.58337,2.17578 5.93282,3.23245 7.18487,5.73657"
       id="path644" />
    <path
       style="fill:none;stroke:#000000;stroke-width:1px;stroke-linecap:butt;stroke-linejoin:miter;stroke-opacity:1"
       d="m 880.20556,410.82516 c 0.10528,0.0171 -0.0636,8.7375 0,8.74034 0.36597,0.0163 0.67779,-0.34293 1.04413,-0.34293"
       id="path646" />
    <path
       style="fill:none;stroke:#000000;stroke-width:1px;stroke-linecap:butt;stroke-linejoin:miter;stroke-opacity:1"
       d="m 880.20556,410.82516 c 6.89586,4.4662 6.59085,2.36321 6.59085,6.6873 0,0.36948 0.36443,1.04758 0,1.10843 -1.83435,0.30632 -3.69781,0.40112 -5.54672,0.60168"
       id="path648" />
    <path
       style="fill:none;stroke:#000000;stroke-width:1px;stroke-linecap:butt;stroke-linejoin:miter;stroke-opacity:1"
       d="m 870.29402,423.74354 c -0.67114,5.80739 1.37849,18.93702 -0.73946,23.33513 -0.2537,0.52684 0.30152,1.50524 0,1.99793 -0.33392,0.54564 -0.83081,1.14925 -1.01197,1.75143 -0.085,0.28247 0.13256,0.62141 0,0.88491 -0.32694,0.64986 -1.37899,1.15805 -1.60293,1.83564 -0.0756,0.2287 0.0944,0.50101 0,0.72262 -0.19394,0.4553 -1.01354,0.0221 -1.28143,0.19749 -0.90576,0.59313 -1.7516,1.67352 -2.76801,1.98721 -2.3417,0.72271 1.31965,-1.36075 -1.89381,0.71803"
       id="path650" />
    <path
       style="fill:none;stroke:#000000;stroke-width:1px;stroke-linecap:butt;stroke-linejoin:miter;stroke-opacity:1"
       d="m 796.50557,448.56831 c 2.23064,0 4.46127,0 6.6919,0 1.08635,0 7.69485,0.37287 8.25196,0 1.31695,-0.88141 0.18757,-0.70406 1.55853,-1.17579 0.71339,-0.24546 1.92471,-0.0538 2.59042,-0.39193 0.43917,-0.22307 3.41295,-1.56043 3.68965,-1.84482 0.19146,-0.19679 0.17584,-0.54125 0.36896,-0.7364 0.35422,-0.35794 1.03882,-0.11441 1.45902,-0.39193 0.21227,-0.1402 0.60578,-0.79996 0.86654,-0.86807 0.74654,-0.19499 1.3694,-0.42348 2.01782,-0.74864 0.61775,-0.30978 0.60161,-1.35069 1.29368,-1.67183 3.92278,-1.82025 5.99953,-6.45238 8.70666,-9.18585 0.16303,-0.16462 -0.12992,-0.50323 0,-0.69507 0.86278,-1.27394 0.71952,-0.22921 1.17579,-1.56772 0.0713,-0.20915 -0.10784,-0.47004 0,-0.66291 0.32026,-0.57283 0.85562,-0.91183 1.1421,-1.47892 0.18769,-0.37153 -0.13552,-0.99249 0,-1.39166 0.36833,-1.08484 1.75336,-2.18029 1.12221,-3.53196 -0.006,-0.0137 -0.28005,0.0107 -0.30773,0 -1.34192,-0.51723 -2.67206,-1.06454 -4.00809,-1.59681"
       id="path654" />
    <path
       style="fill:none;stroke:#000000;stroke-width:1px;stroke-linecap:butt;stroke-linejoin:miter;stroke-opacity:1"
       d="m 796.50557,448.56831 c 1.22835,-2.49243 2.25954,-5.09214 3.68506,-7.47728 0.0513,-0.0858 4.31708,0.18799 5.06906,0 0.28341,-0.0709 0.49741,-0.33464 0.78386,-0.39193 0.51835,-0.10367 2.23598,0.29326 2.72361,0 0.55978,-0.33666 1.00995,-0.83582 1.56772,-1.17579 0.82185,-0.50094 2.48913,0.0179 3.30232,-0.39193 0.044,-0.0222 0.7289,-0.75089 0.77773,-0.77621 0.26067,-0.13518 0.74249,0.14087 0.99973,0 1.02002,-0.55858 2.09175,-1.2861 3.33906,-1.53557 0.38432,-0.0769 0.80397,0.12394 1.17579,0 3.40524,-1.13508 0.067,-0.35623 1.54781,-1.15588 0.45135,-0.24373 1.02958,-0.162 1.48811,-0.39193 1.65805,-0.83146 3.24397,-2.11236 4.61743,-3.48297 1.1199,-1.1176 2.5606,-2.3839 3.33905,-3.73099 0.10622,-0.18381 -0.0981,-0.44861 0,-0.63689 0.63554,-1.21981 2.03043,-2.16983 2.76495,-3.29772 0.41755,-0.64118 0.12534,-0.97218 0.39193,-1.44065 0.38667,-0.67951 0.96517,-1.20606 1.14976,-1.93362 0.13477,-0.53118 1.22445,-1.68833 0.71803,-1.47892 -0.96458,0.39885 -1.88106,0.90531 -2.82159,1.35797"
       id="path656" />
    <path
       style="fill:none;stroke:#000000;stroke-width:1px;stroke-linecap:butt;stroke-linejoin:miter;stroke-opacity:1"
       d="m 888.6045,422.45446 c -0.097,0.65321 -0.31924,1.29988 -0.29089,1.95964 0.0119,0.27593 0.98307,1.11235 1.13752,1.42994 0.31259,0.64278 0.0659,1.64749 0.37968,2.27503 0.44163,0.88325 0.44612,0.70179 1.14976,1.40543 0.2122,0.2122 0.23242,1.57721 0.39193,1.89688 0.16048,0.3216 0.5967,0.44351 0.76243,0.76243 0.28502,0.54847 -0.19649,1.59678 0,2.18011 0.50484,1.49875 1.91042,3.07518 2.65012,4.47657 0.17249,0.32679 0.66701,0.43331 0.78386,0.78386 0.56563,1.69691 -0.74925,-0.14405 0.39193,1.56772 0.47226,0.7084 2.34846,1.90068 3.1584,2.38985 0.21489,0.12979 0.29628,-0.25416 0.5435,0 0.32842,0.33767 0.45933,0.83438 0.78386,1.17579 0.20969,0.22062 3.16135,0.97494 3.77232,1.25847 0.32388,0.15029 0.90744,-0.17267 1.21866,0 0.39761,0.22059 0.61037,0.47036 1.00891,0.65525 0.53011,0.24593 1.60172,-0.33476 2.06529,0 0.78436,0.56643 1.24179,1.08669 2.06835,1.47127 0.36459,0.16964 7.78929,0.62076 8.25502,0.39193 0.64335,-0.3161 -0.21749,-0.4551 0.62617,-0.99207 0.22042,-0.1403 0.53562,0.0815 0.78386,0 0.65145,-0.21401 1.00399,-1.09257 1.63355,-1.36869 0.23017,-0.10096 0.64451,0.12018 0.865,0 1.40127,-0.76376 0.84833,-0.79163 1.6902,-1.60906 0.32516,-0.31572 0.90684,-0.15368 1.31204,-0.35672"
       id="path658" />
    <path
       style="fill:none;stroke:#000000;stroke-width:1px;stroke-linecap:butt;stroke-linejoin:miter;stroke-opacity:1"
       d="m 888.6045,422.45446 c -2.61838,3.5883 5.59898,0.60302 6.86489,2.71288 1.25852,2.09753 2.56559,3.84839 3.9193,5.87895 0.40207,0.60311 1.19432,0.94538 1.56772,1.56772 0.21256,0.35426 0.17938,0.82154 0.39193,1.17579 0.41407,0.69012 2.4789,3.48161 3.13544,3.9193 0.96032,0.64022 2.0576,1.33037 2.7282,2.33627 0.16204,0.24306 0.18536,0.57729 0.39193,0.78386 0.18476,0.18476 0.55016,-0.11685 0.78386,0 0.42131,0.21066 0.75472,0.57271 1.17579,0.78386 0.97471,0.48879 11.47006,1.48428 12.8801,0.77927 0.79415,-0.39708 1.23189,-1.50078 1.98414,-1.98415 0.27012,-0.17357 0.63184,-0.16977 0.89716,-0.35059 0.12732,-0.0868 0.31054,-0.48093 0.32609,-0.32763 0.15068,1.48541 0.0633,2.9854 0.0949,4.4781"
       id="path660" />
  </g>
</svg>
