<?xml version="1.0" encoding="UTF-8" standalone="no"?>
<!-- Created with Inkscape (http://www.inkscape.org/) -->

<svg
   version="1.1"
   id="svg898"
   width="106.34739"
   height="315.38376"
   viewBox="0 0 106.34739 315.38376"
   sodipodi:docname="skinnyjeans-bottom.svg"
   inkscape:version="1.1.2 (0a00cf5339, 2022-02-04)"
   xmlns:inkscape="http://www.inkscape.org/namespaces/inkscape"
   xmlns:sodipodi="http://sodipodi.sourceforge.net/DTD/sodipodi-0.dtd"
   xmlns="http://www.w3.org/2000/svg"
   xmlns:svg="http://www.w3.org/2000/svg">
  <defs
     id="defs902" />
  <sodipodi:namedview
     id="namedview900"
     pagecolor="#ffffff"
     bordercolor="#666666"
     borderopacity="1.0"
     inkscape:pageshadow="2"
     inkscape:pageopacity="0.0"
     inkscape:pagecheckerboard="0"
     showgrid="false"
     fit-margin-top="0"
     fit-margin-left="0"
     fit-margin-right="0"
     fit-margin-bottom="0"
     inkscape:zoom="1.8041667"
     inkscape:cx="-79.26097"
     inkscape:cy="184.84988"
     inkscape:window-width="1860"
     inkscape:window-height="1009"
     inkscape:window-x="0"
     inkscape:window-y="0"
     inkscape:window-maximized="1"
     inkscape:current-layer="g904" />
  <g
     inkscape:groupmode="layer"
     inkscape:label="Image"
     id="g904"
     transform="translate(-775.25008,-297.41772)">
    <path
       style="fill:none;stroke:#000000;stroke-width:1px;stroke-linecap:butt;stroke-linejoin:miter;stroke-opacity:1"
       d="m 876.0407,310.39694 c 1.69936,1.69935 0.97377,5.1151 1.98326,7.13409 0.29791,0.59583 0.80876,1.06794 1.10855,1.66282 0.27588,0.54745 -0.27799,1.515 0,2.0612 0.23703,0.46573 0.87484,0.64114 1.10854,1.10855 0.61002,1.22004 0,13.5564 0,15.66902 0,9.56192 0,19.12385 0,28.68577 0,8.0586 0,16.1172 0,24.17581 0,7.2676 0.29865,14.43126 -1.10854,21.46723 -0.43354,2.16767 -0.11446,4.4522 -0.55428,6.65127 -0.60389,3.01946 0.50645,6.38398 0,9.42264 -0.40032,2.40194 -1.25951,4.75975 -1.66281,7.17956 -0.29116,1.74693 -0.008,6.42399 -0.55428,7.55629 -0.70888,1.46906 -0.54999,3.29401 -1.06307,4.81524 -0.0835,0.24759 -0.36952,0.36952 -0.55428,0.55427 -0.18475,0.55428 -0.36951,1.10855 -0.55427,1.66282 -0.53827,3.2294 -0.0161,6.63732 -0.55427,9.86649 -0.21871,1.31226 -0.80604,2.10618 -1.10855,3.31264 -0.2069,0.82519 0.31036,1.99548 0,2.77136 -0.19408,0.4852 -0.91446,0.62335 -1.10854,1.10855 -1.08292,2.7073 0.58157,6.51477 0,9.42263 -1.58732,7.93659 -0.85225,15.93418 -2.19977,23.99827 -0.35835,2.14448 0.1437,4.00309 -0.55427,6.097 -0.57831,1.73492 0.81668,4.51102 0,6.13164 -0.11759,0.23333 -0.49088,0.30078 -0.55428,0.55427 -0.83631,3.34526 0.6789,7.25293 0,10.63943 -0.19556,0.97554 -0.86723,1.80612 -1.10854,2.77137 -0.6582,2.6328 -0.0424,5.18542 -0.55427,7.74465 -0.22917,1.14582 -1.68172,1.89538 -1.10855,3.32564 -0.13064,0.9145 0.18117,1.86551 0,2.77136 -0.6406,3.20299 -1.46942,6.48394 -2.23874,9.5612 -0.32214,1.28858 -0.49711,4.29994 0,5.54273 0.19408,0.4852 0.94329,0.61279 1.10855,1.10854 0.88661,2.65986 -0.86147,6.18409 0,8.85321 0.68226,2.11389 1.06272,4.72057 1.6325,7.00418 0.15144,0.60697 -0.20886,1.53052 0,2.13915 0.91719,2.67273 1.25665,5.79999 1.66282,8.64319 0.21903,1.53323 0.63903,13.76784 0,14.96102 -0.3956,0.73866 -0.91494,1.17898 -1.10855,2.13265 -0.26767,1.31849 0.70509,3.96011 -0.97863,4.80009 -0.81416,0.40617 -2.44813,-0.5167 -3.18274,0 -1.13389,0.79752 0.22018,0.27651 -1.05009,1.60653 -0.44662,0.46763 -1.32721,-0.20667 -1.93995,0 -1.26256,0.42584 -2.2547,1.27547 -3.71319,1.64333 -2.41109,0.60811 -2.73551,-0.3122 -5.25477,1.05658 -0.32165,0.17476 -1.38187,0 -1.75375,0 -2.94133,0 -3.44698,0.0308 -5.04475,-2.3903 -1.23667,-1.87398 -2.5913,-3.38478 -3.66556,-5.18548 -1.34607,-2.25632 -0.37889,-18.22373 -0.37889,-21.76819 0,-12.31008 1.20598,-28.87001 -1.64983,-40.24754 -0.26815,-1.0683 -0.20663,-24.37679 0,-24.67163 1.71642,-2.44912 1.09555,-2.74975 1.09555,-6.06452 0,-11.53796 0,-23.07592 0,-34.61388 0,-4.55844 0.8229,-13.53995 0,-17.65445 -0.081,-0.40511 -0.45379,-0.70782 -0.55427,-1.10854 -0.80644,-3.21631 1.04904,-7.32057 0,-10.4554 -0.63687,-1.90323 -0.55427,-0.41393 -0.55427,-1.66282 0,-0.88461 0.10437,-9.21123 0,-9.31438 -0.29384,-0.2904 -0.92379,-0.18475 -1.10855,-0.55427 -0.77946,-1.55893 0,-10.66755 0,-12.6963 0,-3.50679 -0.28242,-7.18339 -1.10854,-10.48788 -0.26886,-1.07545 0.18224,-2.23217 0,-3.32563 -0.23966,-1.43798 -1.35863,-2.91683 -1.66282,-4.43418 -0.0755,-0.37684 0.20839,-1.32704 0,-1.63901 -0.38516,-0.57659 -1.47048,-1.48021 -1.65199,-2.20626 -0.17924,-0.71696 0.3305,-1.55608 0,-2.21709 -0.88486,-1.76973 -1.11212,-4.87906 -2.20843,-6.52353 -0.28987,-0.4348 -0.91447,-0.62335 -1.10854,-1.10854 -0.26779,-0.66946 0.22649,-2.56976 -0.34859,-2.13482 -0.41557,0.31431 -0.81874,0.66904 -1.10855,1.10205 -0.11249,0.16808 -0.41961,11.21196 -0.55427,11.87789 -0.31672,1.5663 -0.55783,1.62665 -1.09988,2.71507 -0.764,1.53405 0.028,5.35697 -0.55427,7.10378 -0.86051,2.58152 -1.10855,2.40054 -1.10855,4.98845 0,1.21506 -0.13687,1.51617 -0.55427,2.70641 -0.51825,1.47782 0.30838,3.50069 0,5.04258 -0.61104,3.05521 -1.40476,6.08402 -2.6761,8.65834 -1.08985,2.20691 -0.51393,5.34022 -1.10205,7.6927 -0.24943,0.99772 -0.8269,1.92642 -1.10854,2.77136 -0.6175,1.8525 -0.1939,12.95037 0.55427,15.19487 0.56718,1.70154 -0.97832,5.15564 0,6.62312 0.22916,0.34374 0.87876,0.21094 1.10854,0.55427 0.43893,0.65582 0,6.98035 0,8.22099 0,3.35024 0.82724,15.11394 0,17.53103 -0.27655,0.80806 -0.71965,2.73272 -1.10854,3.291 -0.29378,0.42173 -0.87505,0.61386 -1.10855,1.07173 -0.50298,0.98631 0.61538,2.90945 0,3.81929 -1.18609,1.75366 -1.04448,0.36208 -1.66281,2.21709 -0.50474,1.5142 -0.34156,22.65802 0.39405,25.60046 0.10904,0.43617 0.79232,1.1242 1.00245,1.55673 1.53062,3.15048 -0.22125,0.0615 0.55428,3.278 0.39907,1.65516 1.83077,2.92348 1.02194,5.30672 -0.0799,0.23535 -0.40556,0.31097 -0.52613,0.5283 -0.35088,0.63244 0.40299,1.87242 0,2.4769 -2.03842,3.05764 -0.36342,-2.13385 -1.66282,1.66282 -0.74429,2.17472 -0.72888,4.70889 -1.10205,6.94789 -0.27931,1.6759 -1.28984,3.51385 -1.65632,4.97546 -0.15364,0.61276 0.35253,2.58432 0,3.26718 -1.79479,3.47653 -1.10421,8.31967 -1.10421,12.36504 0,2.53287 -0.78701,6.26157 0,8.61937 0.79596,2.38464 0.83955,4.56471 1.63683,6.95655 0.24946,0.74839 -0.25238,1.74912 0,2.49639 1.5031,4.45003 1.4961,8.97068 1.4961,13.86115 0,0.99807 0.64417,4.9768 0,5.91296 -0.51555,0.74924 -4.69667,3.86089 -5.62933,4.2588 -2.13516,0.91098 -2.38272,0.0698 -3.80196,0.55428 -3.32967,1.13654 0.33969,-0.0118 -1.61302,1.05874 -0.47785,0.26198 -1.73885,0 -2.32968,0 -5.54149,0 -4.8776,0.26045 -7.99148,-4.41036 -0.28817,-0.43226 -0.85293,-0.64616 -1.10205,-1.10205 -0.64499,-1.18035 0,-4.98371 0,-6.40228 0,-3.49609 0.77042,-18.19108 0,-21.26371 -0.54629,-2.17876 -0.91893,-1.95002 -2.17812,-3.18707 -0.0907,-0.0891 -2.97399,-8.66072 -3.15242,-9.19529 -0.79619,-2.38542 0,-17.32155 0,-20.80904 0,-16.29394 0.55427,-32.29027 0.55427,-48.66989 0,-3.32419 0.68784,-15.39516 0,-17.42061 -0.51669,-1.52148 -0.78704,-6.56204 -1.09339,-7.11461 -0.50225,-0.90592 -0.95458,-1.9762 -1.44414,-2.90343 -0.54901,-1.03985 0.57458,-2.97918 0,-4.00332 -0.0906,-0.16156 -0.99794,-0.92742 -1.07174,-1.07391 -0.77671,-1.54129 0.77551,-4.25411 0,-5.79604 -0.83917,-1.66851 -0.6114,-4.28805 -1.10854,-5.23961 -0.12099,-0.23158 -0.49017,-0.30096 -0.55427,-0.55427 -0.30582,-1.20893 0.83442,-6.08751 0,-6.91542 -0.29327,-0.29098 -0.8124,-0.26622 -1.10855,-0.55427 -0.34575,-0.3363 0.11345,-2.5964 0,-3.01602 -0.14013,-0.51832 -0.68476,-1.317 -0.88337,-1.88799 -0.31455,-0.90432 0.42263,-2.26701 0,-3.11562 -0.68331,-1.37203 -1.0477,-2.59678 -1.60219,-4.15704 -0.65743,-1.84989 0.62437,-4.37437 0,-6.23774 -0.42409,-1.26562 -0.98324,-2.3432 -1.65633,-3.68937 -0.92515,-1.8503 0.66025,-5.02686 0,-6.99986 -0.63447,-1.89604 -0.1717,-3.40686 -0.55427,-5.31971 -0.81335,-4.06677 -1.00462,-7.61011 -1.00462,-11.88655 0,-3.44827 0.7623,-10.33347 0,-13.38265 -1.33046,-5.32184 -2.23022,-19.80832 -0.54344,-24.86865 0.18002,-0.54009 -0.25888,-1.44998 0,-1.95511 0.76696,-1.49652 0.65438,-2.30651 1.06524,-3.92105 0.29864,-1.17356 1.36445,-2.152 1.66282,-3.32563 0.16797,-0.66075 -0.16717,-1.44799 0,-2.10883 2.86871,-11.34039 0.85374,-23.09233 7.97199,-32.65662 1.44414,0.19198 2.87915,0.47401 4.33242,0.57593 9.64691,0.67653 19.67746,0 29.35046,0 20.0563,0 40.11259,0 60.16888,0"
       id="path1021" />
    <path
       style="fill:none;stroke:#000000;stroke-width:1px;stroke-linecap:butt;stroke-linejoin:miter;stroke-opacity:1"
       d="m 787.37442,317.02872 c -0.39622,-0.56149 -0.95869,-1.03687 -1.18865,-1.68446 -0.0469,-0.1321 -0.30212,-11.64636 0,-12.15286 0.14049,-0.23553 0.55392,0.0543 0.82275,0 2.50437,-0.50562 5.35814,0.0461 7.75981,-0.55428 2.22449,-0.55612 3.77129,-1.10854 6.097,-1.10854 1.65028,0 2.89087,-0.38279 4.43418,-0.55427 0.91455,-0.10162 4.99615,0.0847 6.097,0 3.17017,-0.24386 6.28446,-0.85155 9.42263,-1.10855 2.24854,-0.18414 4.5665,0.49233 6.76819,0 0.81296,-0.18179 1.42117,-0.93884 2.23441,-1.11937 3.9644,-0.88003 9.22599,0 13.33935,0 3.63129,0 -0.32211,0.17528 3.32563,-0.55427 3.02447,-0.60489 6.89112,0 9.97691,0 2.89139,0 17.04946,-0.51477 19.13972,0.52829 4.29689,2.14419 2.50961,12.83345 4.01198,17.15863 0.12225,0.35196 -0.22642,1.83027 0,1.95078 0.4786,0.25474 1.0739,-0.15011 1.61085,-0.22517"
       id="path1023" />
    <path
       style="fill:none;stroke:#000000;stroke-width:1px;stroke-linecap:butt;stroke-linejoin:miter;stroke-opacity:1"
       d="m 831.21825,319.33242 c 1.28431,4.05983 -0.59996,4.02842 -1.10855,7.07996 -0.42837,2.57021 0,5.71228 0,8.31409 0,4.98846 0,9.97691 0,14.96536 0,15.51458 0,31.02916 0,46.54374"
       id="path1025" />
    <path
       style="fill:none;stroke:#000000;stroke-width:1px;stroke-linecap:butt;stroke-linejoin:miter;stroke-opacity:1"
       d="m 831.21825,311.33242 c 3.51039,2.1045 7.43209,3.64004 10.53117,6.31351 0.72337,0.62402 0,7.10297 0,8.31409 0,6.89726 -1.46038,13.37078 -2.77136,19.92566 -0.39188,1.95942 0.35385,4.28076 -0.55427,6.097 -0.2337,0.4674 -0.87485,0.64114 -1.10855,1.10854 -0.22715,0.45431 0.30478,1.75468 0,2.2041 -0.43795,0.64581 -1.30889,0.95225 -1.66281,1.64767 -0.31623,0.62132 -0.53839,1.3957 -1.03494,2.06553 -0.31815,0.42918 -4.46905,0 -5.11403,0"
       id="path1027" />
    <path
       style="fill:none;stroke:#000000;stroke-width:1px;stroke-linecap:butt;stroke-linejoin:miter;stroke-opacity:1"
       d="m 781.24928,339.60883 c 4.63594,-1.27116 8.1751,-3.91821 11.77396,-6.62528 1.28997,-0.97033 3.86656,-2.21024 4.97546,-3.31914 0.47104,-0.47105 0.63751,-1.19178 1.10855,-1.66282 0.96399,-0.96399 2.43361,-1.582 3.32563,-2.77136 1.28185,-1.70914 3.50353,-3.68142 4.43418,-5.54273 0.16525,-0.3305 -0.16525,-0.77804 0,-1.10854 0.56493,-1.12985 1.76511,-2.10053 2.77136,-2.77137"
       id="path1029" />
    <path
       style="fill:none;stroke:#000000;stroke-width:1px;stroke-linecap:butt;stroke-linejoin:miter;stroke-opacity:1"
       d="m 851.6787,319.42335 c 2.67574,2.10102 4.05611,4.0942 5.69428,6.82449 0.911,1.51833 2.89768,2.40657 3.87991,3.8799 0.84835,1.27253 1.77488,3.43226 2.75404,4.38655 0.29586,0.28835 0.81642,0.26215 1.10854,0.55427 0.99806,0.99805 1.53181,2.49926 2.77137,3.32564 0.99256,0.66171 1.91254,0.63223 2.77136,1.66282 0.52896,0.63475 0.68344,1.50857 1.10854,2.21709 0.78275,1.30456 2.52964,1.43011 3.30832,2.21709 0.0218,0.022 1.10612,1.90989 1.64333,2.1976 1.48948,0.79771 3.02912,1.39574 4.66152,2.18461"
       id="path1031" />
  </g>
</svg>
