<?xml version="1.0" encoding="UTF-8" standalone="no"?>
<!-- Created with Inkscape (http://www.inkscape.org/) -->

<svg
   version="1.1"
   id="svg1888"
   width="143.35547"
   height="155.75607"
   viewBox="0 0 143.35547 155.75607"
   sodipodi:docname="skort-bottom.svg"
   inkscape:version="1.1.2 (0a00cf5339, 2022-02-04)"
   xmlns:inkscape="http://www.inkscape.org/namespaces/inkscape"
   xmlns:sodipodi="http://sodipodi.sourceforge.net/DTD/sodipodi-0.dtd"
   xmlns="http://www.w3.org/2000/svg"
   xmlns:svg="http://www.w3.org/2000/svg">
  <defs
     id="defs1892" />
  <sodipodi:namedview
     id="namedview1890"
     pagecolor="#ffffff"
     bordercolor="#666666"
     borderopacity="1.0"
     inkscape:pageshadow="2"
     inkscape:pageopacity="0.0"
     inkscape:pagecheckerboard="0"
     showgrid="false"
     inkscape:zoom="1.8294393"
     inkscape:cx="-486.48785"
     inkscape:cy="1.9131545"
     inkscape:window-width="1860"
     inkscape:window-height="1009"
     inkscape:window-x="0"
     inkscape:window-y="0"
     inkscape:window-maximized="1"
     inkscape:current-layer="g1894"
     fit-margin-top="0"
     fit-margin-left="0"
     fit-margin-right="0"
     fit-margin-bottom="0" />
  <g
     inkscape:groupmode="layer"
     inkscape:label="Image"
     id="g1894"
     transform="translate(-176.86086,-601.44414)">
    <path
       style="fill:none;stroke:#000000;stroke-width:1px;stroke-linecap:butt;stroke-linejoin:miter;stroke-opacity:1"
       d="m 201.53247,618.68129 c -0.52598,0.8064 -1.02513,1.63095 -1.57793,2.41921 -0.55023,0.78459 -1.90814,0.66201 -2.41066,1.65479 -1.83996,3.63504 -3.51247,7.49812 -5.33377,11.14797 -0.5259,1.05389 -0.24422,3.17274 -0.54662,4.36225 -0.19167,0.75396 -0.81519,1.34097 -1.05906,2.0797 -0.32405,0.98158 0.65587,3.40823 0,4.06545 -0.27386,0.27442 -0.76232,0.2503 -1.03985,0.52099 -0.72454,0.70668 -0.51664,2.65413 -0.9822,3.52525 -0.39345,0.73617 -1.22546,1.4211 -1.62063,2.15657 -0.2338,0.43511 0.16306,1.01558 0,1.48184 -0.29958,0.8566 -1.30812,1.76638 -1.63985,2.73307 -0.10119,0.29487 0.14529,0.65941 0,0.93523 -0.91203,1.73143 -1.87661,3.20661 -2.73308,4.91954 -0.31047,0.62095 -0.2301,2.0133 -0.54661,2.58575 -0.89837,1.62478 -1.3415,3.76459 -2.18647,5.41491 -0.11743,0.22936 -0.49608,0.29394 -0.54661,0.54661 -0.17755,0.88776 0.40357,1.90559 0,2.716 -0.38723,0.77758 -0.67547,1.37791 -1.06761,2.15443 -0.61907,1.22591 0.65888,3.50238 0,4.70816 -1.58776,2.90566 -0.54021,8.81792 -0.54021,12.2049 0,7.05547 0,14.11094 0,21.16641 0,6.59924 0,13.19849 0,19.79773 0,2.79867 -0.66814,6.3231 0,8.99567 0.34286,1.37145 1.04412,2.25792 1.04412,3.64481"
       id="path2011" />
    <path
       style="fill:none;stroke:#000000;stroke-width:1px;stroke-linecap:butt;stroke-linejoin:miter;stroke-opacity:1"
       d="m 275.5818,623.86133 c 2.94016,5.1732 0.5858,0.007 1.51814,8.10315 0.22819,1.98173 1.03793,3.86419 1.29821,5.84195 0.42669,3.24227 -0.0954,6.90849 0.54661,10.1188 0.64489,3.22445 2.73855,6.04556 3.2797,9.29246 0.3349,2.00942 1.29703,6.96613 2.18646,8.74585 0.3458,0.69194 1.29409,0.95002 1.63985,1.64198 0.20025,0.40077 2.03779,12.55956 2.21422,13.80205 0.61724,4.34701 1.79769,8.65105 2.2313,13.02269 0.70023,7.05975 0.54661,14.21525 0.54661,21.35857 0,3.06678 0.60862,6.7626 0,9.77716 -0.45992,2.27808 -1.59336,10.65379 0.0406,11.87181"
       id="path2013" />
    <path
       style="fill:none;stroke:#000000;stroke-width:1px;stroke-linecap:butt;stroke-linejoin:miter;stroke-opacity:1"
       d="m 292.55037,621.07914 c 4.00413,2.17303 7.31593,5.52335 9.77075,9.10243 0.88613,1.29197 2.75065,1.80406 3.42916,3.06831 0.15179,0.28284 -0.1496,0.67898 0,0.96298 0.93091,1.76728 2.43581,3.16758 3.26048,4.84695 0.0803,0.16355 0,0.36441 0,0.54661 0.1822,0.54662 0.28893,1.12449 0.54661,1.63985 0.4388,0.87759 3.24335,3.13473 3.2797,3.27969 1.18248,4.71609 -1.49113,-1.15869 1.08041,2.71386 0.79721,1.20053 0.20225,3.53693 0.54021,4.89819 0.28241,1.13748 0.81676,1.93289 1.05694,3.15158 0.2064,1.04729 -0.20933,2.21811 0,3.26475 0.64036,3.20183 0.68491,6.57253 1.09323,9.83908 0.20085,1.60679 -0.22899,3.31574 0,4.91954 -0.56679,1.41167 0.8671,2.15118 1.09323,3.28183 0.42078,2.10388 -0.42078,1.17581 0,3.27969 0.19243,0.96215 0.85525,1.78117 1.09323,2.73308 1.01013,4.04053 -0.46077,8.97184 0,13.11877 0.0636,0.57266 0.46513,1.06946 0.54662,1.63985 0.83752,5.86267 0,13.75455 0,19.80414 0,9.34584 0,18.69169 0,28.03753"
       id="path2015" />
    <path
       style="fill:none;stroke:#000000;stroke-width:1px;stroke-linecap:butt;stroke-linejoin:miter;stroke-opacity:1"
       d="m 178.74543,744.61853 c 2.68397,-0.3395 5.34942,-0.89394 8.0519,-1.01849 0.75046,-0.0346 1.4498,0.39928 2.18647,0.54661 1.93043,0.38609 25.06817,0.59673 26.78843,0 2.94728,-1.02236 6.38349,-0.18591 9.62983,-0.54661 6.17919,-0.68658 12.3485,-0.54662 18.58493,-0.54662 17.45326,0 34.90653,0 52.35979,0 1.61832,0 2.76082,-0.32089 4.3409,-0.54661 6.15311,0 -1.40327,0.40427 3.82631,-1.09324 1.27812,-0.36599 2.56823,-0.13943 3.71314,-0.4975 1.67872,-0.52502 4.44006,0.80264 5.99142,0 1.28584,-0.66527 -0.14889,-0.54021 1.06761,-0.54021 0.20826,0 3.57697,-0.14371 3.61279,0 0.39113,1.56938 0.29466,3.22133 0.44199,4.83199"
       id="path2017" />
    <path
       style="fill:none;stroke:#000000;stroke-width:1px;stroke-linecap:butt;stroke-linejoin:miter;stroke-opacity:1"
       d="m 178.74543,744.61853 c 6.82534,3.60297 16.08839,1.19561 23.17565,3.5829 3.15263,1.06194 5.98349,2.93006 8.97431,4.13378 2.13865,0.86074 5.0977,0.53834 7.3238,1.09323 0.55449,0.13822 1.08469,0.36014 1.62703,0.54021 0.91103,0.36441 1.78117,0.85525 2.73308,1.09323 1.36289,0.34072 2.98279,-0.3426 4.34517,0 2.95723,0.74367 11.60347,1.3203 13.26183,-1.99643 0.59093,-1.18186 0.83323,-3.85343 1.09323,-4.37292 0.93995,-1.87805 1.09324,-1.28567 1.09324,-2.89108"
       id="path2019" />
    <path
       style="fill:none;stroke:#000000;stroke-width:1px;stroke-linecap:butt;stroke-linejoin:miter;stroke-opacity:1"
       d="m 242.37277,745.80145 c 0.0216,10e-4 4.5601,-0.30819 5.7117,0.84341 0.51837,0.51837 0.23949,2.04394 0.54662,2.67756 0.96086,1.98232 0.65628,2.14781 2.04553,4.20211 0.59645,0.88196 0.19804,2.03051 1.43701,2.88254 0.6669,0.45863 4.85003,0.3166 5.48323,0 0.8671,-0.43355 1.45156,-1.29459 2.35728,-1.56939 0.34872,-0.1058 0.72882,0 1.09323,0 0.72882,-0.36441 1.41344,-0.83555 2.18647,-1.09323 1.43397,-0.47799 3.46172,0.13155 4.86402,-0.54661 0.53362,-0.25807 0.79563,-0.7502 1.32811,-1.01423 1.0673,-0.52922 2.01967,0.55113 3.11741,-0.54662 0.27864,-0.27864 0.18965,-0.85754 0.52954,-1.05693 2.00453,-1.17593 4.98655,-0.34017 7.13803,-0.55516 2.59026,-0.25882 4.75749,-1.15647 7.23838,-1.65265 0.794,-0.1588 1.95778,0.25121 2.72668,0 2.34279,-0.76544 5.00396,-2.5088 7.50955,-3.26048 1.80095,-0.54028 4.84434,0.29979 6.53377,-0.54662 5.17297,-2.59164 9.0735,-1.27343 15.12161,0.6427"
       id="path2021" />
    <path
       style="fill:none;stroke:#000000;stroke-width:1px;stroke-linecap:butt;stroke-linejoin:miter;stroke-opacity:1"
       d="m 201.67339,602.85934 c -1.01898,2.10471 2.17354,5.4676 2.54305,7.68464 0.17972,1.07836 -0.26515,2.21911 0,3.2797 0.48879,1.95519 2.32682,2.85794 3.1409,4.48609 0.36116,0.72232 0.29885,2.21527 0.83487,2.72667 0.32752,0.31247 0.90533,0 1.358,0 1.75996,0 3.17189,-0.84357 4.91954,-1.09323 2.2597,-0.32282 4.90607,0 7.19781,0 11.08392,0 22.16783,0 33.25174,0 7.29208,0 14.94317,0.63393 21.85181,-1.09323 2.69643,-0.67411 12.26567,1.00492 14.054,0 1.4153,-0.7953 0.52877,-3.49734 0.94377,-4.74232 0.98336,-2.95009 1.79251,-9.96378 -1.50319,-11.94441 -1.55144,-0.93237 -5.22836,1.41928 -5.84196,1.73167"
       id="path2027" />
    <path
       style="fill:none;stroke:#000000;stroke-width:1px;stroke-linecap:butt;stroke-linejoin:miter;stroke-opacity:1"
       d="m 201.67339,602.85934 c 2.18077,0.34092 4.33878,0.89453 6.54231,1.02276 1.10644,0.0644 2.17138,-0.54661 3.27969,-0.54661 7.627,0 15.25399,0 22.88099,0 3.50324,0 7.49469,-0.57294 10.93231,0 1.13669,0.18945 2.13891,0.93026 3.27969,1.09323 4.86201,0.69457 9.87815,-0.0634 14.75862,0.54662 2.32566,0.2907 6.0319,0.95085 8.09888,1.63984 2.42858,0.80953 6.27895,0 8.80564,0 1.11469,0 2.58578,0.25996 3.6256,0 0.47796,-0.11949 1.09289,-0.91915 1.56938,-1.07401 1.21266,-0.39412 3.28132,0.18112 4.37292,-0.54662 0.339,-0.226 0.25938,-0.80429 0.54662,-1.09323 0.19441,-0.19555 4.11847,-0.86161 4.00567,-1.87685 -0.0149,-0.13441 -0.27279,-0.025 -0.40569,0 -3.18548,0.59894 -6.36153,1.24697 -9.54229,1.87045"
       id="path2029" />
    <path
       style="fill:none;stroke:#000000;stroke-width:1px;stroke-linecap:butt;stroke-linejoin:miter;stroke-opacity:1"
       d="m 269.33202,609.6963 c -2.18301,2.94386 1.40911,5.65942 3.16012,2.61137 0.2256,-0.39272 0,-1.98151 0,-2.39571 0,-0.18254 0.084,-1.06084 0,-1.14875 -0.70811,-0.74154 -1.7796,-1.02199 -2.63272,-1.59074"
       id="path2033" />
    <path
       style="fill:none;stroke:#000000;stroke-width:1px;stroke-linecap:butt;stroke-linejoin:miter;stroke-opacity:1"
       d="m 214.44199,620.54961 c -0.84128,0.7096 -1.81766,1.28465 -2.52383,2.12881 -3.66309,-0.0967 -0.55523,1.93142 -1.1039,2.75443 -0.19676,0.29513 -1.85318,1.46568 -1.99643,1.99643 -0.13873,0.51399 0.23771,1.12078 0,1.59714 -2.20499,4.41872 -5.53126,8.09674 -8.57076,11.83124 -1.06976,1.31436 -2.38927,4.70911 -4.39428,5.43626 -1.56372,0.56711 -7.15659,3.62473 -8.44692,5.0562"
       id="path2388" />
  </g>
</svg>
