<?xml version="1.0" encoding="UTF-8" standalone="no"?>
<!-- Created with Inkscape (http://www.inkscape.org/) -->

<svg
   version="1.1"
   id="svg76"
   width="155.57059"
   height="314.87906"
   viewBox="0 0 155.57059 314.87906"
   sodipodi:docname="wideleg-bottom.svg"
   inkscape:version="1.1.2 (0a00cf5339, 2022-02-04)"
   xmlns:inkscape="http://www.inkscape.org/namespaces/inkscape"
   xmlns:sodipodi="http://sodipodi.sourceforge.net/DTD/sodipodi-0.dtd"
   xmlns="http://www.w3.org/2000/svg"
   xmlns:svg="http://www.w3.org/2000/svg">
  <defs
     id="defs80" />
  <sodipodi:namedview
     id="namedview78"
     pagecolor="#ffffff"
     bordercolor="#666666"
     borderopacity="1.0"
     inkscape:pageshadow="2"
     inkscape:pageopacity="0.0"
     inkscape:pagecheckerboard="0"
     showgrid="false"
     inkscape:zoom="1.8294393"
     inkscape:cx="-126.2682"
     inkscape:cy="116.70243"
     inkscape:window-width="1860"
     inkscape:window-height="1009"
     inkscape:window-x="0"
     inkscape:window-y="0"
     inkscape:window-maximized="1"
     inkscape:current-layer="g82"
     fit-margin-top="0"
     fit-margin-left="0"
     fit-margin-right="0"
     fit-margin-bottom="0" />
  <g
     inkscape:groupmode="layer"
     inkscape:label="Image"
     id="g82"
     transform="translate(-392.81069,-16.673472)">
    <path
       style="fill:none;stroke:#000000;stroke-width:1px;stroke-linecap:butt;stroke-linejoin:miter;stroke-opacity:1"
       d="m 426.10606,38.677323 c -1.17119,2.704032 -1.77032,5.379247 -2.90176,7.953684 -0.82864,1.885453 0.11736,9.056256 -0.54661,11.673232 -0.39308,1.549289 -0.4492,2.910687 -1.09323,4.178619 -0.39582,0.779254 0.22858,1.778452 0,2.622047 -0.0639,0.235639 -0.49582,0.142026 -0.65552,0.326688 -0.49006,0.566689 -0.2713,3.265848 -0.54021,4.050507 -0.73466,2.143731 -1.16259,4.496691 -2.16084,6.444085 -0.3889,0.758689 0.39161,2.119242 0,2.876138 -0.42398,0.819475 -0.74716,1.161073 -1.08682,2.180057 -0.88838,2.665122 0.19749,8.968323 -0.54662,11.130886 -0.7056,2.05066 -1.48207,4.430645 -2.17578,6.514548 -0.53303,1.601206 0.32455,3.723466 0,5.387156 -0.33596,1.72215 -0.59048,3.53471 -1.0548,5.28679 -0.67899,2.56212 1.10185,9.22399 0,11.42769 -0.48011,0.96021 -0.15623,1.7571 -0.54662,2.73307 -0.24398,0.60997 -0.84924,1.02989 -1.09323,1.63985 -0.72403,1.81008 -1.56273,6.32414 -2.18005,8.63909 -0.30118,1.1294 0.22935,2.49803 0,3.64481 -0.32163,1.60813 -0.69005,2.7594 -1.07402,4.3046 -0.6192,2.49187 0.94563,10.87307 0,12.76433 -0.67394,1.34789 -0.54661,-0.18203 -0.54661,1.08683 0,1.58879 0.51259,4.11643 0,5.62416 -0.55947,1.64561 -1.13415,3.40243 -1.63985,4.91954 -0.71179,2.13537 0.17423,4.94347 -0.54662,7.106 -0.30287,0.90863 -1.27266,1.62521 -1.62703,2.70532 -0.32314,0.98493 0.32658,2.28968 0,3.27329 -0.52098,1.56912 -0.86125,2.27552 -1.63344,3.8199 -0.55104,1.10209 0.22449,3.79708 0,4.91954 -0.0505,0.25268 -0.48412,0.29663 -0.54662,0.54662 -0.46077,1.84308 0.60438,4.19504 0,5.98928 -0.55941,1.66076 -0.53213,3.2368 -1.09323,4.89819 -0.83995,2.48704 0,14.34974 0,17.69027 0,9.59629 0.20055,19.11516 -1.63985,28.2596 -0.29559,1.46872 0,3.32521 0,4.82986 0,4.21468 -0.0896,8.01444 -1.09323,12.06825 -0.5818,2.34993 0.76243,5.31196 0,7.59924 -0.80252,2.40757 -0.16372,4.47914 -0.54661,7.15938 -0.44232,3.09623 -1.12087,6.22855 -1.63985,9.19852 -0.36991,2.11687 0.94143,6.50525 0,8.41062 -1.28927,2.60935 -0.80829,5.6766 -1.58433,8.70101 -0.2948,1.14891 0,2.85223 0,4.02488 0,4.77784 1.20933,15.19086 -0.98647,19.0739 -0.11819,0.209 0.48379,-0.32065 0.69181,-0.20072 0.84474,0.48704 1.30239,0.91174 2.3829,0.91174 1.95942,0 3.73207,-0.0445 5.36794,0.48683 1.80658,0.58676 4.13775,-0.46235 5.98715,0 2.57127,0.64282 4.5673,1.55871 7.39639,1.55871 2.87128,0 4.42837,1.05478 6.96508,1.68896 2.13246,0.53311 5.46961,0 7.52664,0 6.28819,0 10.85392,-0.17309 16.6611,-1.63344 0.68795,-0.17301 1.94874,0.33013 2.57934,0 3.30245,-1.72889 5.51602,-1.33829 8.98713,-3.71742 0.67857,-0.46509 2.50224,0.2804 3.27115,0 0.61118,-0.22288 0.92686,-1.24163 1.51814,-1.51814 0.6602,-0.30873 1.46756,0.11982 2.18646,0 0.81196,-0.13532 5.64632,-1.28978 5.95299,-1.63984 0.0575,-0.0656 -1.02756,-1.41006 -1.17224,-1.55444 -1.48328,-1.4802 -2.03195,-2.55785 -2.87827,-4.2256 -0.47715,-0.94025 0,-13.25856 0,-15.01911 0,-3.65522 0.72385,-8.30804 0,-11.91878 -0.28942,-1.44373 -1.15227,-2.46515 -1.63131,-3.80496 -0.25471,-0.71241 0.35421,-1.86399 0,-2.51956 -0.18624,-0.3447 -0.84395,-0.68738 -1.03558,-1.03344 -0.49519,-0.89427 -0.0297,-2.38509 -0.51885,-3.37151 -0.76741,-1.54745 0,-8.0529 0,-10.11879 0,-4.94644 0.77367,-10.52488 -0.54662,-15.29029 -0.22687,-0.81887 0.27977,-1.72721 0,-2.56654 -0.20774,-0.62323 -0.79943,-1.05225 -1.09323,-1.63984 -1.13497,-2.26994 1.07896,-10.46864 -0.54662,-13.59279 -0.76472,-1.4697 0.93125,-3.04866 1.53095,-4.05478 0.70093,-1.17593 -0.39515,-3.9437 0,-5.12452 2.03241,-6.07339 2.70968,-17.50048 0.71103,-24.0212 -0.2429,-0.79249 -0.39853,-15.47834 0,-16.15291 1.52978,-2.5894 0.60023,-5.91731 2.51956,-8.67112 0.38124,-0.547 0,-8.46247 0,-9.91595 0,-5.55297 0.28415,-10.71092 1.61422,-16.03121 0.32947,-1.31787 0.0819,-2.3079 0.52527,-3.62346 0.23822,-0.70692 -0.12155,-1.80024 0,-2.51956 1.11297,-6.58656 -0.15743,-0.23177 1.09323,-2.73308 0.52132,-1.04264 -0.22527,-3.2466 0,-4.37292 0.55795,-2.78977 1.63984,-3.49986 1.63984,-6.54658 0,-0.9711 -0.38371,-3.41218 0,-4.14018 0.40511,-0.76858 0.54021,-0.43786 0.54021,-1.28967 0,-0.8911 0,-1.7822 0,-2.67329 0,-0.11317 0,-0.45267 0,-0.3395 0,0.98149 0.80764,1.30406 1.05267,2.03913 0.3274,0.98221 -0.25174,2.27273 0,3.27969 0.66868,2.67474 0.008,5.48483 0.54661,8.19283 0.29083,1.4622 0.72274,2.82691 1.08469,4.2747 0.83559,3.34235 -0.56779,6.93861 0.54662,10.24264 0.67296,1.99524 0,14.63956 0,17.41056 0,12.25757 0,24.51514 0,36.77271 0,7.21561 0,14.43122 0,21.64683 0,2.66161 0.64843,6.12621 0,8.69034 -0.24665,0.97534 -0.79547,1.8502 -1.12313,2.8014 -0.40668,1.18062 0.17893,2.80017 0,4.05264 -0.37172,2.60206 -0.52863,3.22614 -1.08682,5.41918 -0.7195,2.82681 0.0335,6.31078 -0.54662,9.21133 -0.12147,0.60735 0.18221,2.27756 0,2.73308 -0.1914,0.47849 -0.90183,0.61473 -1.09323,1.09323 -0.45828,1.14569 0.24294,3.15824 0,4.37292 -0.1598,0.79903 -0.83312,1.41425 -1.09323,2.18647 -0.87238,2.58988 0.66387,6.04126 0,8.69674 -2.4174,9.66957 -2.18646,19.4411 -2.18646,29.54713"
       id="path199" />
    <path
       style="fill:none;stroke:#000000;stroke-width:1px;stroke-linecap:butt;stroke-linejoin:miter;stroke-opacity:1"
       d="m 468.99617,328.19355 c 16.66251,0.0128 33.02844,1.1039 49.75696,1.1039 3.48498,0 7.46191,0.49364 10.91737,0 2.78934,-0.39847 5.3161,-2.08459 7.64194,-3.27542 0.63838,-0.32685 1.88568,-0.20156 2.5644,-0.54021 0.44762,-0.22335 0.61428,-0.83643 1.0612,-1.0612 0.49711,-0.25002 1.59527,-0.18609 2.05835,-0.48897 0.63515,-0.41542 0.97924,-1.18783 1.60995,-1.60995 0.661,-0.4424 1.91203,-0.12974 3.0619,-1.08042 0.6987,-0.57767 -0.54661,-7.21196 -0.54661,-8.25475 0,-1.78548 -0.80701,-3.20219 -1.09323,-4.91954 -0.97059,-5.82349 1.30163,-7.23581 -1.63985,-13.11877 -0.64452,-1.28904 -0.23305,-4.99157 -0.54662,-6.55939 -0.72181,-3.60908 -2.70222,-9.90076 -4.34089,-13.03764 -0.40497,-0.77522 0.22089,-2.26948 0,-3.13236 -0.45186,-1.76506 -0.6518,-3.70043 -1.09323,-5.46616 -0.49101,-1.96402 -0.69208,-3.99416 -1.09323,-5.99996 -0.226,-1.12998 -0.50035,-2.29154 -1.09324,-3.27969 -0.26514,-0.44191 -0.93026,-0.60432 -1.09323,-1.09323 -0.23047,-0.69142 0.10307,-1.46497 0,-2.18646 -0.27876,-1.95134 -1.25598,-3.53188 -1.63984,-5.45121 -0.42048,-2.10237 0.42047,-4.45702 0,-6.55939 -0.51403,-2.57015 -1.12522,-5.07947 -1.63985,-7.65262 -0.44098,-2.2049 0,-4.8425 0,-7.106 0,-5.10175 0,-10.20349 0,-15.30524 0,-8.35795 0,-16.7159 0,-25.07385 0,-3.04402 0.75257,-7.27294 0,-10.28321 -0.58894,-2.35577 -0.92373,-4.95002 -1.61422,-7.05262 -0.57861,-1.76189 0.45065,-4.0671 0,-5.86971 -0.57505,-2.3002 -0.91712,-2.3501 -1.61209,-3.76866 -0.56911,-1.16162 0.17189,-3.70133 0,-4.90459 -1.03071,-7.21496 -0.0377,2.5444 -1.09323,-2.73308 -0.31913,-1.59561 -0.0938,-3.33459 -0.54662,-4.91954 -1.5316,-5.3606 -2.58292,-10.82372 -3.27969,-16.4006 -0.50021,-4.0036 -0.12801,-8.16464 -1.09323,-12.02555 -0.24342,-0.97367 0.37085,-2.35255 0,-3.27969 -0.24399,-0.60996 -0.95072,-0.99854 -1.09324,-1.63985 -0.45501,-2.04754 0.15172,-5.00185 -0.54661,-7.05048 -0.36193,-1.06175 -0.86889,-1.8824 -1.09323,-3.22845 -0.26032,-1.56188 0.15685,-3.351 0,-4.919542 -0.48,-4.799928 -0.28002,-1.733392 -1.09323,-4.91954 -0.24602,-0.963901 0.31395,-2.205441 0,-3.14731 -0.0815,-0.244454 -0.48412,-0.296632 -0.54662,-0.546615 -0.37012,-1.480473 0,-3.424828 0,-4.96011 0,-4.372201 0.82297,-13.319239 0,-17.421236 -0.18275,-0.910916 -0.20157,-1.87046 -0.54661,-2.733078 -0.1914,-0.478494 -0.95166,-0.597706 -1.09324,-1.093231 -0.25027,-0.875974 0.12884,-1.831208 0,-2.733078 -0.22902,-1.603202 -0.69655,-3.332843 -1.09323,-4.91954 -0.26514,-1.06059 0.15461,-2.19745 0,-3.279694 -0.17799,-1.24596 -0.86203,-2.123697 -1.09323,-3.279693 -0.30115,-1.50578 0.38487,-3.303077 0,-4.791428 -0.60428,-2.336876 -0.42431,-1.456392 -1.63985,-3.279693 -0.28465,-0.426978 0.10048,-1.03626 0,-1.539492 -0.50405,-2.52464 -1.81087,-3.111222 -3.49748,-4.797832"
       id="path201" />
    <path
       style="fill:none;stroke:#000000;stroke-width:1px;stroke-linecap:butt;stroke-linejoin:miter;stroke-opacity:1"
       d="m 426.10606,38.677323 c 0.78363,0.899638 1.49358,1.869184 2.35088,2.698914 0.83228,0.80552 6.4177,0 7.3366,0 1.00321,0 6.95584,-0.09461 7.6334,-0.546615 0.33681,-0.224688 0.25578,-0.800816 0.54235,-1.086826 0.61727,-0.616065 4.10073,0.2015 4.90673,0 6.62255,-1.655638 13.65379,-1.450406 20.36143,-3.273288 4.20785,-1.143535 10.9901,0.889505 15.43762,0 1.93126,-0.386253 2.42867,-0.997091 4.37506,-1.650523 1.32433,-0.444596 3.52378,0.668059 4.72523,0 1.07399,-0.597185 0.70579,-0.540209 2.16725,-0.540209 4.17757,0 7.82633,-0.973456 11.87821,-1.652658 0.72371,-0.121313 2.11508,-0.728708 2.20141,0 0.11753,0.992056 -0.49964,1.934507 -0.74946,2.90176"
       id="path207" />
    <path
       style="fill:none;stroke:#000000;stroke-width:1px;stroke-linecap:butt;stroke-linejoin:miter;stroke-opacity:1"
       d="m 426.10606,38.677323 c -4.19484,-7.432264 -4.91627,-7.142762 -2.69251,-13.629091 0.16423,-0.479013 -0.31118,-1.331477 0.29039,-1.646252 0.90041,-0.471141 3.47008,1.121972 3.98005,1.633441 0.28767,0.288515 0.20762,0.867233 0.54661,1.093231 0.77303,0.515354 1.82206,0.36441 2.73308,0.546615 5.11301,1.022601 14.55019,-0.305828 19.58208,-1.144476 3.85075,-0.641792 7.99618,-0.718888 12.01059,-1.093231 2.72368,-0.253982 4.27023,-0.935641 7.01846,-1.176505 1.8041,-0.158116 5.84288,-0.05171 7.65262,-0.546615 1.48457,-0.405983 4.61349,-1.998373 6.58288,-2.195004 4.72106,-0.471369 9.39151,-1.044921 14.12873,-1.669739 2.17393,-0.286733 4.38225,-0.266405 6.55298,-0.576509 0.54446,-0.07778 4.44533,-1.191467 4.52666,-1.093231 0.88349,1.067162 2.9612,11.296429 2.70318,12.529454 -0.43099,2.059687 -1.63273,3.878978 -2.44909,5.818467"
       id="path209" />
    <path
       style="fill:none;stroke:#000000;stroke-width:1px;stroke-linecap:butt;stroke-linejoin:miter;stroke-opacity:1"
       d="m 496.26716,39.644576 c -0.13238,1.399991 -0.54307,2.801328 -0.39715,4.199972 0.21886,2.097745 6.28662,9.098521 7.8939,10.170039 0.67799,0.451996 1.56048,0.57158 2.18646,1.093232 0.50468,0.420569 0.6287,1.175312 1.09323,1.639846 1.34587,1.345868 3.14339,1.269451 4.54374,2.675427"
       id="path211" />
    <path
       style="fill:none;stroke:#000000;stroke-width:1px;stroke-linecap:butt;stroke-linejoin:miter;stroke-opacity:1"
       d="m 426.10606,38.677323 c 3.4982,1.631306 7.49709,2.462147 10.49459,4.893917 0.76199,0.618174 -0.65442,1.855462 -1.09323,2.733078 -0.29379,0.587594 -0.83444,1.036015 -1.09323,1.639847 -0.29593,0.690509 -0.10906,1.575787 -0.54661,2.186462 -0.52391,0.731192 -3.2732,2.886427 -4.37506,3.29464 -0.2785,0.103178 -1.00421,-0.173786 -1.22989,0 -0.62723,0.483006 -0.99021,1.28892 -1.67828,1.680416 -2.23536,1.271865 -6.21144,0.580873 -7.94301,2.31244"
       id="path213" />
    <path
       style="fill:none;stroke:#000000;stroke-width:1px;stroke-linecap:butt;stroke-linejoin:miter;stroke-opacity:1"
       d="m 460.50014,42.405412 c 0.16179,2.435003 -0.31704,4.911708 0,7.336606 0.18885,1.444414 0.97888,2.764334 1.18505,4.206378 0.41406,2.896188 -0.2772,4.125788 0,6.815613 0.90307,8.763198 0.4011,-4.843543 1.12312,7.23625 0.17292,2.893039 -0.20835,5.803902 0,8.694605 0.12773,1.772222 0.54818,3.515895 0.66405,5.288932 0.10592,1.620732 -0.21158,3.262218 0,4.872566 0.49619,3.776426 1.57682,4.034057 2.29963,7.537316 0.33806,1.638493 0.27565,3.342783 0.61281,4.981462 0.56178,3.91435 2.26426,7.54409 3.08539,11.39138 0.27716,1.29861 0.15901,2.67586 0.54661,3.94588 0.37109,1.21593 1.2464,2.22646 1.69964,3.41422 0.92015,2.41138 1.45355,4.95426 2.26973,7.40279"
       id="path215" />
  </g>
</svg>
